<mxfile host="app.diagrams.net" modified="2023-01-31T08:50:08.097Z" agent="5.0 (Macintosh; Intel Mac OS X 10_15_2) AppleWebKit/537.36 (KHTML, like Gecko) Chrome/109.0.0.0 Safari/537.36" etag="kwNWBy1MPaX6x6KApqpY" version="20.8.13" type="github">
  <diagram name="第 1 页" id="uXmCwtIL1My-fqI6labv">
    <mxGraphModel dx="1735" dy="1035" grid="1" gridSize="10" guides="1" tooltips="1" connect="1" arrows="1" fold="1" page="1" pageScale="1" pageWidth="827" pageHeight="1169" math="0" shadow="0">
      <root>
        <mxCell id="0" />
        <mxCell id="1" parent="0" />
        <mxCell id="xOjpX2dIKiU0cp5fsYia-2" value="" style="rounded=0;whiteSpace=wrap;html=1;fillColor=#f5f5f5;strokeColor=#666666;strokeWidth=2;fontColor=#333333;" vertex="1" parent="1">
          <mxGeometry x="400" y="360" width="1550" height="480" as="geometry" />
        </mxCell>
        <mxCell id="xOjpX2dIKiU0cp5fsYia-1" value="" style="shape=image;verticalLabelPosition=bottom;labelBackgroundColor=default;verticalAlign=top;aspect=fixed;imageAspect=0;image=data:image/png,iVBORw0KGgoAAAANSUhEUgAABc4AAAGuCAYAAACpy5VoAAAAAXNSR0IArs4c6QAAAIRlWElmTU0AKgAAAAgABQESAAMAAAABAAEAAAEaAAUAAAABAAAASgEbAAUAAAABAAAAUgEoAAMAAAABAAIAAIdpAAQAAAABAAAAWgAAAAAAAACQAAAAAQAAAJAAAAABAAOgAQADAAAAAQABAACgAgAEAAAAAQAABc6gAwAEAAAAAQAAAa4AAAAAF4NbpwAAAAlwSFlzAAAWJQAAFiUBSVIk8AAAQABJREFUeAHsnQVgVMf2xk88QQIkuAZ39wJF2uLFKYX6v26v+ur+6qUur+2jXigFWqBQ3N09uAZ3CAmE6P98E2662ewmmxDZ3XzTht29d+7cub9rM9+cc0aEiQRIgARIgARIgARIgARIgARIgARIgARIgARIgARIgARIII2AT9o3fiEBEiABEiABEiABEiABEiABEiABEiABEiABEijUBFI0FWoAPHgSUAI+mnxJggRIgARIgARIgARIgARIgARIgARIgARIgARIgARIgARI4B8CFM7/YcFvJEACJEACJEACJEACJEACJEACJEACJEACJEACJEACJCAUznkRkAAJkAAJkAAJkAAJkAAJkAAJkAAJkAAJkAAJkAAJkIANAQrnNjD4lQRIgARIgARIgARIgARIgARIgARIgARIgARIgARIgAQonPMaIAESIAESIAESIAESIAESIAESIAESIAESIAESIAESIAEbAv423/mVBEiABEiABEiABEiABEiABEiABEiABDyKQIomj6owK0sCuUDAR1MuFMMiSIAEMiFA4TwTOFxFAiRAAiRAAiRAAiRAAiRAArlBIHjsKAp7uQGSZXgsgbib76HI57FnjxUnARIggcJJgKFaCud551GTAAmQAAmQAAmQAAmQAAmQAAmQAAmQAAmQAAmQAAk4IUCLcydguJgESIAESIAESIAEChsBWsQWtjPO47UnQItYeyL8TQIkQAIkQAKOCezdu1cqV64svr6Z2+QeOnRIIiIi0gpBZKVnn31WZs6cKfHx8YKIM9WqVZO33npLWrRokZYPv+fOnSvz5s1LW8YvhYfA+fPnZfTo0TJw4ECpUKGCOfDly5dL+/btM0DAdRITEyP9+/c36/bt2yelSpWSkiVLZsib3QUUzrNLjPlJgARIgAQKnADFvQI/BaxAARKgsFeA8LlrEiABEiABEiABEiABQ6B69erSpk0byWyKgYSEBJk2bZrExcVJcHCwXL58WZo0aSLdu3eX+fPnS2hoqCQnJ8vs2bPlzjvvNCLp66+/bsqHEIrtExMT5a677pIPP/xQypYtS/qFhMBTTz0lX375pTz22GPy5ptvSunSpeXpp5+W6667Tt544400CmPGjJFGjRoZcf2TTz6Rxx9/XHbv3m0GYl5++WWTPy1zDr5kPiyUgwK5CQmQAAmQAAmQAAmQAAmQAAmQAAmQAAmQAAmQgPcRgJgNURuW4pmJ5taRJyUlWV8lKChIFi5cKL179zbWwQ0bNjRW5nPmzJEFCxbI888/n5bX+oL9bdiwQS5cuCCTJk0ygru1jp/eSWDPnj3SunVrc7106dJFIiMjzYFWrFhRnnvuOfMdXgtIP//8s+A6atCggcyaNcssgycDhHdH1ukmQzb+8afVXjZoMavXEchLqz3eW153ufCAskkgL++vbFaF2UmABEiABEiABEiABEiABEiABHKBgL+/v7Ect4pyVUC38pcvX95Ykr/33nvSrFkzY1H+2WefSfHixSUgIMDKlu4T+8C6jz/+2ITfgNX6jBkzZMiQIUZcTZeZPzyeAAZb4IWwbds2OX78uMCqHAnXQZEiRcx3XD8YuIEXg5XgnQAPBiQM0lh5rfU5+WSolpxQ4zYkQAIkQAIkQAIkQAIkQAIkQAIkQAIkQAIkUMgIQLwsVqyYXLx4UVq1amXilGeGoESJEuLn55cuS79+/Uw4DYR66dixo3z99dfp1ls/sC/bBPEcZSHMC6zTu3btKrBCZvIuAnXq1DGDKs8884xs3bpVjh07lhbn3PZIcX00btw47fpCXHMr5r79tWO7XXa+UzjPDi3mJQESIAESIAESIAESIAESIAESIAESIAESIIFCTgDhMN555x1jBewMBSyCkQ/iuX2qVauWsSBHKA5HqV27dhIYGCiwcIdADot0fGLCx/r160vfvn3NMkfbcpnnE4BnwksvvSRnz56Vb775xhwQhHErIZY5Ypq//fbbMmLECGN9/u6775rVsDZ35r1gbe/qpw/DSbiKivm8kUBehpLgveWNVwyPKTsEeH9lhxbzkoDrBHhvuc6KOUkguwQK+v5KVoHB1eRrZ4WXIipOJCULbPNQir+vr/jZ5YlX92WsD9B1TCSQ3wTy8v5Scc71mye/D5z7I4E8IqAWtenNsXNxP7ynchEmi8oxATza8/Ayz7JeuMdocZ4lJmYgARIgARIgARIgARIgARIggbwlANH85mo1ZfHJ41lOttYyvLRMPLhPAn39jEgeqq7rU7v0kpalSgsEdXQ098dekP6LZsqO6PNGQI9LiJf1fW6SE3GXpMe8KRLgp+7ueae55C0slp5tAv6+PvJCg+Yy9/gRWXTiqLlOhlWtKWP27zKDLFaBCSnJ0rtCVWlQoqR8uH2zBOg1UrFIUfHXz6jYGHO9WXn5SQIkQAIkQAJ5SaAgRXPruCicWyT4SQIkQAIkQAIkQAIkkCUBY9TngtgG0z97m1ZYxCYmpxjBBiIhBD574S7hikUsrGWZSKCwEMD94qfX/BwVNffeeHOG+8KWA+6NNjMnSVhgkMToJFi1i5WQzX2GyLe7t8kNc/+WmPg4E+vz4dqNZHPvofLAqsXy/d4dpohgjQsbrC7v15atJN+0vVZaz/hTkvRepKmuLWHv+x6nk6xt6TlUmk4bL883bCmX9LpZc+akvNm0ldxevY4MWjxTYnUZPBFGVKtlrr9xB/bIpE7dpe/C6VIxuIjMua6vPLdhpXy2Yws9FrzvEuERkQAJkAAJOCFA4dwJGC4mARIgARLwfAL+PlkLb7CssvVxhHgAQQ9iXoBuj/UQFezFPSxD6e4wCu75Z8qzjgDXB64Z69xDcvJJdxWlHg+uJYjMtuEUsMz2ekvN6Tn/GovYiFqy9MSxTIU2HHfL8DLyp7GI9TV5IfJN79pLmpYMTzvgQxdjpd+iGbLl3Flzj8EidvONw9QiNk6umzOZFrFppArHlyA/X3mpYQtjETv32GFz79wWUVt+VNHXdiAFz+X+lSKMRex7Wzeaa6dykWJqfe0re2OiPRJWaY3FGeLnLxdVvHQUYsX+oNR4OO0e3BVzXipN/FXuq1Vfjgy8VYqqMB6fnCQTovZKuYk/y4X4BMMowaaQympBXC+0pATqPh+r01Dmq2C/4vQJmxz86k0EyoaEmMNJ0utrfNQeua16bSOc+2pLZtCC6RKv19MXrTrIixtXy+N1G0sfXXbsYoxEFCuuluZ+Rij/bOcWGbV7O0Vzb7oweCwkQAIkQAJZEqBwniUiZiABEiABEvA0AqrZyc0RNWXlqcxFAIiADUuWkimHD2jH0NcI5M3Vzf2vzj2kXHCIESUgcu6+cN5YXO2PjTWiZ1xSoqSMuF9GbtskL2xcaURTW3HU03ixvq4TwDXzRpNWEqWC7yi17lT1XG6PqCO/7tuVThFPVGGve/nKcn2FyvLqprWSoCJWSRWOIVQtP3XcI8VziP4Q9OaooLm/3/AMg0m2FHE/tDUWsYHGIrZO8RKyqfcQ+XxnpLSfNVkuxV8WHy3rgdoNZW3PwfLQ6iXy3Z7tpgjci9hP13KV5bt2XaSJWkgm4qZm8moCl9Uidl3PQdJg6lh5Vi1iYxMSZKUKua80bmEsYmH1eknzYBDzDr3n4vSe+k5FvCmde0rPeX9LeX1mL7j+RnleLWI/3L7JhDDxJGDndOK0kJCAHFUZ76lTl+PkTMJlaT3zTzl26ZL46DPozWZt5byK5lhvn6w7KkAV+Fcat1SBNFQHilOkdVgZ+WLXFvNOtN+Gvz2XgI+e8Eo6WLJEn7cVQopIY32u4hrQ20mi9V6CJ8K/1i417aAQHXhJfeb6qIdQsg6upBohJOn3eL2uHF1PnkuGNScBEiABEiCBzAm4JJy76pKLXdm/SJP1lZxk45KLxq69uIBJahAzzX555lXnWhLwfAKu3lto2NrbzdLd3fPPP48g7wiE+PsZ67kD/UdkuZPr1K29iFrcXdZ30U1Va8iv13STR9csla9U4BNd5qOdyafrN5XtfW82gt+Gs6dMmQgn4aeCw0ctrpFBVapL9clj+B7LkrZnZ4BoHtlnqNSd+ru0DS8n99SsJ1+reD6kanV5pkEzjSU8w8R/xVEiDEKnshXkmbXLZZtaUNfW66NISFGZr67un+7YLE/q8kC9tjwplQkKNuIKLGLRZsuq3QZBxhLndurgU+k/flZOTeTckDuMqAmvjSmH9kv4Hz/KpYTEDBaxEHeqq7UjLGJfqd9EZqlgv+TkMU9CxrpmgwAsYpORX/sNf+l1MUI9GyCcwyK2+5y/JEXvl49btJdXNq2RR9RCuvcVi1iIgf4a5xvW5iNVMMfgDOJ+e1rC/XBAY5LX1cG12UcPmrAtzo4Bz6J4HUTAe8hKuB/x3upbsZo+p26S/+lAFEK0BCkXVxL6Yw/XbiAD9X32yfYN4u8f6MpmzOMhBBDXfn/MBemognml0FLSWj2CltnF0k9ISpEgbT8tPH7UhAE6FX3WWJdf1EEsJhIgARIgARIorASyFM4h7N2sDdfF6pKbWUK+pmHhMtXGag/WRVO79JSIosXTNt107rRx/Tp5WS2NdGlccqLED7vXWIa8smm1Lsu6I5ZWGL94NAG4kL7cqKXs007Cb/t3mw74EG2s/6Fupcb84crRwWrvmtLlpYda7b2xZZ25bkIDAqWGdqY3nD3tsQzQ6cG9RXd3jz2Fbl1xdJRfalT43N0h0lVREQUJVlIupSsjvvgYf3CvjBu7VyZe210+V5dlK/20d6f4/fatCd1iheew1tUqHioVVeALVnHvkxbt5M3I9XLk0kVrNT+9iACMAWpp2yZFry1YjT+kIhOE87DAYOmocYLPaZvm/2rUkw1nTplBmC93bjVWexCNg1SEgvHAnyoIPqGieZCHieY4jWfUSryiiv85Sbi/LmgYFrCoowMP5y7HS4J6brzRtK3G1U1yKMJbojssYv+tAxNl9T6DFWR7HbR4X4U9hFJi8h4CemqNJew6FX3DdJAGA1S4BjAAE6efwfr35Lrleg0kmxjdlkVsst6PuEZM0kLMNqm/PO7f1MGoFHl366ZM647DxfEjbrXtABa8NeBBdfuyeTJa29YZnjM6oDBe29nn9F7GvThOQ3bEqCg6VmNZzzl2yDyjLiSqhboHDjxkCowrjQD+lN4/S3TwN0ivk65zp5o+ldVewX3zQ/suxmPjMbU8X3RDPynmHyCP6HeI6TAuOK/PcCYSIAESIAESKGwEMhXO8QINUletBTrqvLffzZmyQaPN1mpvqFrtjVarvRc2rpIPNPZgonaOgnS291catpKDA279x2oPO9GEht1bTdpIv8oRxiXXthGYmoP/ehMBiMYbew2R9rMnGVH8do2z94MKU5ic5vmGzWXw4lmyT60icB10VNG8f5UIeU1j7m1Q98L6U34zHffl3QfIB9s2yHPrV3mc1R4u+6t1d/+C7u7edEvk6rHA3X29urvXL4Tu7pBOjqtVVTmdxConyVe7kXBDRlzmgYtmGUt0iKR3qGVxgAoJV6QZh0UjPu1dmm+0ChCwQIfICMEdE20xeQ8BiEo7bhwuZdQ6ts6U3817yjRltB3jqwPCiMWM+MsP+DYwAh9UP4hbiN2MhH89zdLcVFz/wbsbFrH1S5Q0hhJ+ToVrnQBU88IiFlasVsI7/ee9u6R3xSoy6doeZtDhEQ3R4uo9kqCWyPfqPTZQ2wTvRK6RAFrEWmi94hMWsVGxMdLirzFSpWRp6VSmvCw8cVTnCfjn8HA9oc+A+OelVVw/FX3OtKcw0aE3JLxjdkWfl+1yLsvDwfvKUX8J99PvKo5nEM21RITjeG3zWvMuw0DesCVzzbLhS+cajtjpGBXckY/JuwjgWoHHTpfZf5lwLDjHWNZGB30xWSzSXSvm63XjbwZQ2mmoLVwjlrf4KvX+wIAxPDuYSIAESIAESKAwEXAqnKONiklj0ICD1Z6jhlkGUFcUBXz8oVZ7f4+Pki9bd5C4m+8xL124E/53V6SEjv/BdKbsrfaalApT98QSpkP5hsba+0Rn7EYjmsn7CMBqr1HJMInReI6zjkTJmA7XG+G8ZGCg9NawCSc0RuP9asm37vRJ46r7jVr0nVeLGFinB6r1Axpxk9Wi5hWNG+uJAgTd3b3vmnanI4K7exIqlIm7+0fq7v6ql7q7411z+FKsNFB397EqABgWTk5QrIqg6ALaurujUwjB+2kNDfGuxof919plgmeQq11FxODFBG0HNR7697qdq6KgkypysRsRwNAJhOPGk38T8QuQe2vX07jcO7SG/yh7CLcAq895x45Im/CyslmFijratonWyS5zOqDjRgjM+xcDAZ/t0FBGmSRYxOJegHhu297D+3vakYPSb+EM/YwyA1K2xSA0Eu4/WDZGnj9r4p5f0Pf/KA07MfVwlAmPhMExX1+nTVjb4vjdgwjg2fuwDqSs63+LCnvJcq0KfOhT7I+NNp+4y75r21le1BjmT+hzebFaxJYJCpHbIPap8Ifr7bTG+fb0hPvF3xxxzo8E95mzZCt8WgK59Ylt/CmaO0Pn8cvRn8cfnp7WW8sSzXFw8JxDwjrbawLLcE1ldl0hDxMJkAAJkAAJeCMBp70ONLdOaSevrE60k5OEkCsxKkhsPHdGRYefVXxPkeLaELu7VgOBNaQjId56gZfVRvAT9ZrINI3v10Mn1jqnnaeJh/ZxkpqcnAg33gbXx/reQ41bbuuZE69cE2qZd6Up9+2urcZqDwI6rhlY7V3UbdIaeCpO4Jpx3jVw34Onu7v7nhtvqBms8xAbODN3d7jrerO7O8KHYaK0HzFhYyYJ4t6W82fSOpBWVojdH23fLLOOHpLN+h6Dh4htQjzdNzV0FNaHBwfJUo0TekzFvHe3bpC96v6ObbF/ChC21Dz/OwQtWOFFDrhFAvV721mpFnk71OoVgjkSwrds1DBiv+zbqYPC3eR1NQS4XYW9YB0YhrXs3phojweBwQN4hWWV0NazFc2t/BBfZuq9Ay8O+xSkyz7YthGvfB2s8pH7NEYzhL779dMSbSYd3E+rR3twXvAb18uaMyelrVrAJulTGXHKsayjCuiWiHfPqoVmOZ7JHXSSWay3/tbqtrCK5WClF1wMPAQSIAESIAESIAEScBMCToVz1O+yuhwfUqs9xCqfdjgqdcIehxVPMVYekBVS4w2mZkLDdaSGaUHojbeatpYn16+Qt7euNxOBOiwmbWFq5/Oixrx8VmNaHrwYI+MP7NZJatILF2nZ+cXjCKAzfFRjALdA/Eq1GhtRvZb8ruEN/rF/UAtQFSHgBr5I3XSblgqXLaeOSW21II2+pGEYdHAl9SrxuEM3Fc4vd3dngwp0d/fM68bVWsNT52Ahd3cHK1ilQszOKjm7TyDSbb0SBsC+DExoDZHcEgVnHz1sxBtY8UPE+V6tY5FgeczkXQQgkDebNsEcFK4R/N29clGaqPtfHfTFdYEwCbcvX2Dy4ZrAdXY87qLGj11lrhGzwkP/wdH4ObtxXDwmMHGWbIVPDFAg2VrJWgK6s+253HMJmOtCz7ntkIolmuOoMLBiJXuPQ2yb2XVlbcdPEiABEiABEiABEiABEnCVQKbCOQqBwIdJHD9U67nMEqz2dqmVHTqUtl0hdBzf1zjU68+ekhnqmmsfbw/C6De7t8oMFebXqaXIHrXEOqlWet+r6/NBtWj6ft8OOamW7342DeXM6sF1nkEAHRtYCq3pO0xCdIDlhvnTTGfn0MVYc83hKJ6s11jW6wRr32u82L869zATHb6yeY0EBQYYS9ljHj75Hjr+ee3u/iPd3T3jhsjlWkJgejALd/dRba+Vl1TA82Z3d2C1fR/lBHNm29sKNJaAbi2zPnOyT27j/gTshVvb37bn3na5dVS2661l/CQBEiABEiABEiABEiABEiABEnA/Aj7BY0dlabgLl/d/pnZyfhDoDDoTGSDAO+sswnUZ1nuoCIR3iD4Q6+HCi/jqECSwnsn7CFhxhS3rMoRkgQURzjbW4ZqB8IDrIVWASP2NawXrbS3QckJH4+/n2YXl0r2lV71GMcoy5fTeAiPcOrDwhzdI6r2VnGYZad1vWVaAGTyOAJ65eHZb7u44AAzUWJZ78CiCGzxuAMQgxjVm/WFbXBvWfZnTgy/o+yun9eZ2JODuBHhvufsZYv08mQDvL08+e6y7uxPIy/tL270u9KrcnRDrRwLZI6BaWZ7pGbynsncumNs7CeAey9LiHIeOe/Efx8icwYAg4yzZip+WdRYEHaSrFW6c7ZPL3YOA/fm19UiwXWddD1atcTXZXjfWck/7pLu7p50xz6mveebaPbst0RxHQXd3zzmXrCkJkAAJkAAJkAAJkAAJkAAJkAAJkED+E2Dw1fxnzj2SAAmQAAmQAAmQAAmQAAmQAAmQAAmQAAmQAAmQAAm4MQEK5258clg1EiABEiABEiABEiABEiABEiABEiABEiABEiABEiCB/CdA4Tz/mXOPJEACJEACJEACJEACJEACJJCRQCbhLTNmzqMl7lCHPDo0FksCJEACJEACJEAC2SHgUozz7BTIvCRAAiRAAiRAAiRAAiRAAiRAAtkgALE6NlZSzp4T0cndCzT5qm1V8eLiUyJUdKbxAq0Kd04CJEACJEACJEACBUmAwnlB0ue+SYAESIAESIAESIAESIAECjcBFadTDh/5R6QuaItviOXR0ZJy/rz4VCgv4s8uY+G+QHn0JEACJEACJFB4CTBUS+E99zxyEiABEiABEiABEiABEiCBgiSQrKL5ocP/iOZ2dUlREftyQoJcTkyQ5Py2/lYBP+XoMZHERLta8ScJkAAJkAAJkAAJFA4CNB8oHOeZR0kCJEACJEACJEACJEACJOBmBFKOHhVxYmEeopbeP/QeKF2r1hA/Xx9ZdihKbv/7TzkTd0l8nWyD5UkqsGvgl9xJV8Rzn8qVnNYzd3aUdSkIGnPZTsT38/MVH12RJCkS5OtnCknNlyDB/gFphcbpwAN+xyUlOQ2FExQQYLjFJyelnpIUH/H38ZVE0dA5ytRfy881rmk188wvYFxMr88YHdTxcXIteuaRsdYkQAIkQAIkkJ4AhfP0PPiLBEiABEiABEiABEiABEiABPKegMY0dxZD/MaadWX8gGHy+tKF8uT8mRr2PEluqtdYjj3yjDwwa4qM2rhWhdx8ch6GeH76jPiUKe20vnkPS6RSSBHZ3HuoXFARvIifvxG37125SG6sVE3WnDkpX+yMFD+ta6nAQFnYe4jUnfK7BPn5SZ9KVeSFBi2k/ayJ8l3bztIyrLQR2iOKFpeo2BgJVI7V9HvdKWONCLy6x0A5ERcnYUFBUrlIUVN26cBgGbx0tmw9dzY/DtXt96F+ErL4+n7y2uZ1MvnQPornbn/GWEESIAESIIGcEqBwnlNy3I4ESIAESIAECgkBWJbRyi5vTjZCLzizHM2bPbLUvCSAewXnFJaYsWrZijAbEPL81Go1KSV1wkddlHZDJekkkBA/YSGM/2DdaixinVQyWEVA22Tyq6DqT4tPWywe8z3l3HmHdQ1WURiief1Rn8nOs2ck4IpA/tHqZTJue6Tsf+AJWXHkoOw4fUqvmnxKFy+mWmoX4LV25NJFCZvwo2xUUbzTgkmy50K0BCorvKDG7tkhgQGBBsZlvfdCzL2SSqd+aJi0mjZOAvwD5b5Vi3T7wbI3+oIOAogcv3xJ5h47JH0rRRiWXcpWkGWnjku3cpVkuX6uVUG+f+UImRC1V+6pXleeWLecIrFSVjt/aTr9D9nYa7ByS5G/Du0nl3y6FbkbEiABEiCB/CWQT2YK+XtQ3BsJkAAJkAAJkMDVEUhQQQ9/SE1LhhthzyoxUZfH61+wuq0jlAC+Q+yrVbxE/sfgtSrlgZ+QdHpVrKL8NHQAk1cQ6Fuxquy58WY5PPA22d9vuBwZeKsEqSge2WeoQMzDPfWEWg0PrVLdWL2O7tDN3D/Tu/SSu2vWk0TNe3bInRJ/8z2SYPOH3ykj7ku7v3DtwFr2xODbJar/CIlLiPcKfoXqIPRaEL0m7BMGW37rN1ReXjJXdqloDkvzWxo0lfubtTLn//CF8/LEvOkysmtPQfiR7KR43R/+rNAar3boIp2rREjClXpcjo93PkgKwdwuTEp29p1beS/Hx5n3UXT8ZVnZa5AyiJd24eVk36DbpF5oSVP/Eiqgh0BQ1+MCz13R52TrjcNlQOVqZqAyVAX0refPysyjh2Sfiu9lgkPMduAyUwck1p89LStOndABCx8pquFdZhw9KBe1rPciN6Sxy63j8eRyMCgI8fyNJq104KGaYe3Jx8O6kwAJkAAJkIAjArQ4d0SFy0iABEiABEigEBNAZ/j3TjcYoc9HLR2HqMjXec5fxgoPlrP/adpaOpYpL6UCgmXxySNSVQW8oiqgd1ZLvdITflJLW04k58rlAyu9nhWqyIBK1eWeVQvTrEpd2ZZ53JPAJLW6fLFRcymusZKjVczeGxMtQ6rXllD9/Xi9JjLpwG55p1kbU/mLep8E6uBTs1Ib5XMNMYFwBwFmMMpP2s+cJI1LhRkLWGTecu6MjNN7EilOxcthEbXk/eZtpchv/5P6mu/i8Puk2qTRcl73SQ8Gg8n9/4FwDjHaLkHY7lw1Qu6b+ZfxRri3aUv5b/cbTS48mz9fu1L+2rVDXu/YTUTjS4tNHG+7otL9RGzwz27oba6xB6f+KSvvfkTaVKgkz7e7VjqNHiUnL12Sn/oMlCGTxspJWJfbJ9QVwrleywWZ1qsADoEcnh1VixQzoWPahJeRG+b+LUfjLurgU7IOSFY1FtEWX4RhuX/1YtmoAxEYnFqlVuQRxYpLhZAQOapW7PMOHpEOpcsb8fyUCvOtw8poviQdkMIQVWoapAMMdyybp3HS2X22mOAT12SjaeNlTc9BZkADgwxMJEACJEACJOBNBGhxfpVnE661aIAV0UYUPlNt89R97UpDGM0tH9MM07amWZ/aAIPVERJ+wUrP0R/Ktk2wmLAmvbFdzu8k4I0EcPXjHoCrLe4r636AaGcl3CLIhz9YwCKl3pOp3x3dV9Yyk9nmHzP5k909Z7OaX0mgUBGAZV1Jjef6+pb1MnTRbCk27nv5slVHmdCxu4kF+7y6quOd1GjKGGmhAsPQRTPlslpFdpo9SUa2aGe+FypgOTxYuLo/snaZDjQkyLdtrk17juWwOG5WwATwLvpGzyPeQxDA8Vk6KETu1PAO29TitZMONu3TeMo+v3wl1837W97ctFYCfv3aiOK3qRAePfT/xArFAgF8s4rlqX+n5YSKmrhe4lVs39HvZnm7SWsjoG/T73906i5HLsXKahWuIMqjHkyeTQD9iOQr7ZrigUFpBxMaFHylzaPheRC+JTsnW0XvB5q1Nn/aUZHapcLTym2gz/FBdRtI2wqVU9enrXG/L82n/i479H5KG3K40qc6rRboENPh1XFvrfoyau926VCuYlr7EQNZ8O55un4TE0rp+Y2rpEJwEfntwB55rUlL08ey7j/FY/gmqAifoAI6Po0Fu/vhcIsaIeTUmcuX1XI/2C3qw0qQAAmQAAmQQG4S4JD5VdCMUyuPZT0HmkZXVbVaiIq5IPNOHJFvd0TK/XUbygOrFmtjTeTEoFslfMw3sm3wbVJ/6niprnl3qRtvgFoJ1SweKjv6DktzvbWqA1fBh9Qy4se9O40Ij30t7TFAKqllxZ3LF2jMvWN0FbRg8dMrCcDd/eMW7aW0us+e084Q4nvWmvirbOw7VKpPHmPui3/XbyqHLsbI3tgL8ljdRjJ86TyZ1bW3jD+4V77TWJdwd4cVbFrnSkmhj4mygsaOMmXgd3W1RFqnMRqxn4p//CTBV2JkeiVYHhQJuEAgSO+RLnP/kt36rvpq11Z5SS1oMclarWIl5JKKL0F6j3SbPVnebXmNFAvwl2nd+shOuMJHn5e7ls3Xe6hgLRJdOES3yRKg7/vHdSDiU33efdOmkzyweomx4HObCrIiLhPAu+Zfa5fK3G59ZZ+2CSG+Hb4YKwPnTZXIAbfIwmNHTCzm1b1vknAVQyHSDaxaQ9rM+FMq6gSE5Sf+khYeaXfMeTmqoSfO6nupvIp716gFeqqY5ydd5kyRo1q+ie18RTnFuyxBRcOyakFr+85zufLMmP8E9DmrI5AZrM4D9LpYefiQDKnXUL5av0o+WLVEQ2IF6Pn2k3dWLDZtl27VasjmE8e1QeN6Vy5QRc2WP35trhhffYYPnfy7jOrVX1YfPSzf6iBOkLaXtmtM70k7t0ugI6tq1FUHhAoyGSMKrQP6SYkqgmsgFnm+eTsTtgiiOdYPrVpTlpw8KqN2b5eF198oNy+ZowO84TLtSJSp+uc7Nkt9tVg/FXdJph6OkhvKV5LR+3frxKNFpUaxUNkfE6Nty1gTyxwDUctOHjeTj45YOlcnCw3RkC3ZC49TkLzyY99xOpg3/7p+MvnwPtP2xkSrTCRAAiRAAiTgTQRcb21501Hn0rEEqTCA2HgDdcIYuFXGaJzBn1Xo/lw7vujotNYZ2++p1cDMyH7mlvt1hvcg2aPxLodrw8t/9Nfiow0/dHSe27BS3QQviR96RJoC1KL2UnKihGl+rIcr9yHtPN2tbtwztYG3sudg+fPgPnlvy1oKfIYY//FGAnR398azymPyFALFVKS5oXQluVcnUbtPLfeCfPzk4dqN5Ns924wV3osNm8uDdRrIujOndEKwA0bIqaji3tY+N8mK0ydkwMKZaZaznnLMBVlPTOz4mIrnn7RsLx9o+I1n1q80TAuyTtx3zgjA+6mGGkjg3oCI10wFO4ijEMlfUAvXcL1PRiyZLZ3UEraBindf794mZVTs1ixporm15/VnTkvvmX/KJ9d0kyDdHo1CWCIfVVFvz8Bb5LgKfwiTgITJJOfoBIcvbFxN4dwC6O6fEBgdiIw4x7f+/YccfPApGa8TgZ7S8/3W8oXmaLCuWGCgfN2jn3QflzrQj76CKwlXyk6N3Y0EA4JFB/dL9c/f01gb/joYmjrYOW3vbseiOTbCRRpYsIOiCAd2u4Y+ghHSl207G+MleD/F6IBuZR18guD9nS4PHf+9mZB3rFqTY+6A4gFBUkfn4Nip8eExsegb2ocapfnQ1vy1fTf5ZvdWKa7vvb4Vq0kPtbqHp8chHexCCKVkvfFGqEfIyxs1RE7n7tJt7lQ+n3E9aIKn2SwdKPxbByU+27HFhJ5KXcN/SYAESIAESMB7CFA4v4pzicYCJvVC6Ad0iBCr8gt1ZV+m1uBNdCK1jmUrquiwUO5aPEv2D7lDwn75r/Zsgk2n6eTQuzTu5QUjokMwR0MOMfmQMNladbVER/v0zhp15O2mbSRWRfmPmrcX3xbXmA4RGo2wsK2o1knoLDGRgDcRQCcwK3f3j7fqBE3q7t5NJyNqW6q0vLNlnfbnAuSFBs3kl/ZdpdKkXw0Sy909tWOZojE842zc3YcL7NERLxbu7shjubv/oVbrFCC86arisWSHAIS/lxq1lFc2rZGf9u6SH9WDY3LnnmYyQ1jtvbZ5rfyp8ZiT9abZqELMV607mhjdiBE77/hhvpeyA/tK3mRtA/xfjXrSbtZEepTlgJ87bQLLV7xP8C++pyUVPWuoh1OfSlXNRLrlVTC/JaK2XNL2I4RA5EyVwbGFjzQoUVK2qLdimM4l8NXOrWnF4Et0fIJcM3G0KqCpQmbZ4iXlVQ03weRBBPRk+5QoISnnz2eo9DEN6fPv+bPkyMP/lrumTZQ5+/dqnhQT+/zH3oNUSF8ki6L2GyvxDBu7uAAifJB69bmckFe3KcgEQXvktk3ygf6hJm9t3WjE23e3rjfvHYjcbWZOTHsH/Xv9Cumig1Rz1dDJX/tqGKTsMGuyzj+QoJ4cIWaQa/iyOfLX4QNqsBSsA1S+cjg21hzn1uizxiMxVAX19rMmybG4OOm7YAZF8ysXAJ5ts7v20QG7w/Lh9o0MJ1qQNwb3TQIkQAIkkKcEqLheBV7EG4el3fBqtUx8SsS+e3bDCu3MxMuj9Rqb2MzXqmXExyp2wwV3rVqNz9KZ2j/esUnzn5a+apFXPqSIEfEer9dIWpYqY1wOz+v276koGKYWJeMO7JUf1Io9JSlZLSesymqMS7VIr6CdL0wqxUQC3kYAlzrc3efQ3d3bTi2Px2MI+JgwSDOPRhkRN1gVPcSN7bdwhiCMAKxcI8+flaXX95enVJhYqxOtjVR3+XFRe01sZ485TDepKOLuXhp2jzSfPkH26KB62uveTerHarhOAMIdDCreilwvkdrWW9triNnYMnLYiGVnTxrL1hYaY/o/mg9i3g3lK0tJDZ+BwV7MufFCg6bSUkO4nL4cp9vrFaEDvFb8ZRRYNiRYIm+6y8bi3E9DJRww++I/HkIAIyXFdXLLc+cyCNJ4xn60ZqksVovoT6/vnTo5qF4GkSdPyHVjf1Rr8X0qmuej9bc+/31KhxU4WNwfiFVum4DRur8wD8B+Dd9nJVjWLz15LN2EnhioClCjpW92bbOymXvOlKtRWBASB2nlqRPmz8qE8DBx+qxmukJAebymlvtLwJf9UV4WJEACJEACXkyAwvlVntx6ag0UnXBZLmiHpmrRYjopSoixYojWUC1oTNTWWHn9Fk6X5d0HSh+dCCo0KEitxxONNTkmC7USwrI0nTZO4tTFcN3AW3Vx6jpYsf9fjbryosaXPaazviNhhD+iaKhUMLGY87HRbPbOf0ggfwjA3b0m3d3zBzb3QgIOCAyqUl1jLN9uRFy4wifCvFyFG/1fBui6r9TDKkzfaX90usEsw+oRaj37rcZEf2HTalqfOWDqaBFE84sqmjdT0RxxscGXyXMJYEL4BzVO/b7YaBM+4tE1S8RH23iYnwaxf2HlG6ihj7ac11AQOqGnFQ/4hvl/m3sGgmnDv8dJc52sMV7fg5YgmKDLEToJ28Ny9p4Vi2T60YNG8AMtzDVQV0O/8PrxvGvHp2IFSTlyNIN4jglmN544Ju1++kYHTq7E1VaxHGFVMhPN0U/I1esA/ZUypR2GlSkI2qk9pKvfc1blZLX+6mvg2SUgkvna0ycpmnv2aWTtSYAESIAEXCBA4dwFSJllQVsSAVYgKkANN5/YQDs2sHoYXKWGiQdbRCfZuUNj7KFDdFv1OoJJn6yEhtlRFcXX9x4qmJX8hGVddCVDiHaQ/qVWJ5PV8twk7WRvUjGDiQS8nQA6f7g/6O7u7Weax+duBCJV1AvXwdkL6s5uJQzwWl5OiAuLuTYcJXSm4ZHFlDUBPOMuq2je5IponvUWzOHuBNDOW6ATxSP5q1A+V0MXIT75Yp2sEKK3lQ5ruw8Th8KKFcnWYvOAhunYr3//5E6NSY15dbAMFuqYjN7WAh1W7hs0bJLtNqZg/uP+BPT68KlQXlKO62SfaPTYJPw08cevhOSxWZVvX31Kq2iuHg5MJGBPwO5ytV/N3yRAAiRAAiTgFQQonF/laQzWWHirdbT9852bZVjVWhqexV+0+WssiNCx+WDbRhXDk+TROg3lPbXA81M33BlqIfRnp+7GchxxzW/UGM1j9u+Su1YsMLXxUxfdm3RGeGyPFK95vm/XRU42a2t+Q6hHXD4mEvBmAnR39+azy2NzdwKY1PCiekdBBLQSXOSthKW266zl/MweAQipxcf/YLSyf0hnrwzmdm8CsEB3lMxSm/vLPo+jrWyX2X63tnW0zFrHTzcnoAY2PpUrS8rZsyKx6mGqz+ACTzovk09pndyWiQRIgARIgARIgAQKMQEK51dx8tFBeUjdcRGX8silS2aiNBR3TmOUY2ZxWBEF6B/EhcfWLhNfFc0Raw9xYetNHWuWH714Ud7XiW1Oa2iXIBXdrU7PitPHjfUROtULjh2R1kcmSpRaHyFBUOxVoYr4qYUKEwl4KwGIDQ/kgrt7C7q7e+slwuMiAa8hYL37veaAeCAkQALZJ6BiuU/JkiJhGktcBy5FvVALJGlfRVTIL7D9F8hBc6ckQAIkQAIkQAIk4JgAhXPHXFxeinjlcFlHp9cStrFx5Pn4NBEc4jdc2q04lqkd5NR/sQ4W6Ei2HWeEboGtCZbtuzLJjb9OZJOafGTO8UNGhL+ygB8k4HUEMOC0kO7uXndeeUAkQAIkQAIkQAKZEIBgDvEafwWVCkq0L6jj5X5JgARIgARIgARIwAkBCudOwOT2Ygjk2U2ZbeHM9Te7+2B+EvAUAs6ueXOfZHJ/ObqPbJfZfrdYOFpmreMnCZAACZAACZAACZAACZAACZAACZAACZCA9xMoQFMG74fLIyQBEiABEiABEiABEiABEiABEiABEiABEiABEiABEvA8ArQ497xzxhqTAAmQAAmQAAmQAAmQAAl4GIGpnXt6WI1ZXRLIXQLX525xLI0ESIAESIAE8pwAhfM8R8wdkAAJkAAJkAAJkIBnEEjWCQqZSIAE8obAdeUr5U3BLJUESIAESIAESIAESCBPCFA4zxOsLJQESIAESCAvCcTFX87L4lk2CfxDIJM5FP7J5D3fFnfp5T0HwyMhgRwQaJuDbbgJCZAACZAACZAACZCAdxKgcO6d55VHRQIkQAJeTeDC8Hu9+vh4cO5DIDomRnzcTDyvKA/lGaBaRUPzrGwWTAIkQAIkQAIkQAIkQAIkQAKeRMCfLrmedLpYV08iwHvLk84W6+ppBIr5B3halVlfDyVw2dfP7YRzD0XJapMACZAACZAACZAACZAACZCARxHwp0uuR50vVjaXCeSlOy7vrVw+WSzO4wjk5f3lcTBYYRIgARIgARIgARIgARIgARIgARIgAY8i4E+XXI86X6ysBxHgveVBJ4tVJQESIAEScEjA19dX1q9bJ9u3bRMfhzlyZyGmJA0LC5PuPXtKCicozR2oLIUESIAESIAESIAESIAESOCqCDDG+VXh48YkQAIkQAIkQAIk4J0EIJovXbJEFs6fny/havbv2ycHDx6U+x98UBISErwTKo+KBEiABEiABEiABEiABEjAYwhQOPeYU8WKkgAJkAAJkAAJkED+EYBwvnnjRsFnfqVDUVESHx+fL0J9fh0T90MCJEACJEACJEACJEACJOCZBDII5+gcrV2zRnbu2JHnLrmVq1SRzl26SGJiomfSY61JIBsEcG/R3T0bwJiVBEiABEjAIwkkJiWJn77zfHxyENwF2yBUS0629UharDQJkAAJkAAJkAAJkAAJkIC7EkgnnPv5+cmCefOMW26OOjvZPEq45J46eVIGDBrEeJbZZMfsnkUAojnd3T3rnLG2JEACJEACjgkgHjkk8WQVyIODgyUuLk6CgoJMZsQnb9OqlZw4cUIOHz2aKoLbFHPp0iUJKVIkw3IrS5K/vwRrWRDemUggtwjguoxTT4Zk/cyPPk5u1ZvlkAAJkAAJkAAJkAAJFCyBdMK5j3ZSIrdsyVeX3K2RkTJw8GAK5wV7HXDveUwAwjnd3fMYMosnARIgARLIFwJ+ag3ur++1u++/X06dOiU1atSQr776Ks2DcPv27TJIjSJGjx4t/iqEWwkGGq+89JJM+OMP2blzp7U43ae/5gnSbWy3S5eBP0gghwRCdEAmOjZWEpOTc1gCNyMBEiABEiABEiABEihsBHLFnAcTOMGSIyeJVh85ocZtCgsBuLvn9N4ybu45vC8LC18eJwmQAAmQQPYJBAUGCt5PJUqUkD9UBF+wYIHUqVMn7X0Vq+Kks5SkomVYWJgkU7x0hojL85BAaNGieVg6iyYBEiABEiABEiABEvA2Av+YAblwZJcvX5aQkBC5ePGicc21Nunbp48sX7FCoqOjrUXmE4KftU2Oxb90JfIHCXgXAbq7e9f5LAxHg2c53d0Lw5nmMZJA5gQCAgLk7Nmz0rJlS1m9erXgN7yrkAJVWF+7dq20b9/erLMtCc+QJUuW0KLcFgq/5ysBhBnKmblPvlaTOyMBEiABEiABEiABEnADAi4L50lqWfTvp56SqIMHpXbt2vLByJFp1V+sHaAOHTrIjBkzBG64VipdurQ8/OCD8sOPP5rtaF1ukeEnCaQSoLs7rwRPJEB3d088a6wzCeQuAYjk//3vf6WPGk8MGTJEJk+enG4HO3SS+fvuu8+I5Fb8cyuDJbBbv/lJAiRAAlkRSFAvFfw5G/QI0T6oby5MKhynfd4kJx6bKB/7YSIBEiABEiABEig8BFwWzmEh5K/WROMnTJBuXbtK5cqV5aCK6BDDz5w5I3VVTJ8+fXoGcid18s8KFSrIvv37aV2UgQ4XFHYCcHeHVwbc3b/55htp3bq1cXeP1Nj/uLdcdXenCFHYr6T8P364u5+5cCH/d8w9kgAJuAWBxMREGTp0qMCwomHDhrJr1y7Ztm1buokXDxw4YN5vmDzUSrBGZyIBEiCB7BDYcPa0NJ8+QZ8vjqOMpqig/k7zNvJcg+bZKdZh3pDf/ic+TsTxlJRkaR1eVlb2GGgmSHZYABeSAAmQAAmQAAl4FQGXhXMIc/E6G30j7RzNmTs3nUtucHCwbNy40Vii79u3Lx0gdKiWLF1q3HbTreAPEiABQ4Du7rwQPJUA3d099cyx3iRw9QTgYThv3jxT0MKFC83EoLaehVi/Zs0a6dy5s/FIxDq0CT/44IO0kC5XXwuWQAIk4O0EYGUO0Txc+5vTu/QSeGvap2Q1Q29WKtx+cY5+Hxh4q5yMv+RAGPeRKYcOyFuR6+WdrRvkhQbNclQ+NyIBEiABEiABEvAsAo6H7R0cA4Tz995/34jjAwcMyJBjwaJF0r5tW8FEofaJ1rD2RPibBP4hgPsD7u4IbQR3d/sEd/cmTZoYy3T7dby37InwNwmQAAmQQH4QgBAOS3LrDxbo9gkx0KdMmZLOCh1eVkwkQAIk4CqB6IR48VdL81XdB0rrsLLSolSZDH+twsqYPK6WmVm+qkWLSUsH+2hRqrS82rilhPj7yVc7IzMrgutIgARIgARIgAS8iIDLwnmyjvbfesst5tA7deoklSpVSocB64N14lD8WQmdKljTMpEACTgnYLm7IwYs3N0bNGgg9pPpWu7utqXQ3d2WBr+TAAmQAAm4GwG0A7P7rrJ//7nbMbE+JEAC+UvAimke4ueyo3SeVtDHgS16nu6QhZMACZAACZAACRQoAZdbILBsna6Tf6ITNF9dc+PVssjW2jVYRT+46jZv2lTWrVsnmlFgafTd999LIMRz/e0s+as7b4qWz0QCuUkgSQdz4BaOa9adE93d3fnssG4kQAIkUHgJQMSOqFFD1q9dm2/v0vDwcM6JU3gvOR45CTglYAnoTjNwBQmQAAmQAAmQAAnkAQGXhXM0VpJVLPf395dkTBSqQjf+bNPhQ4ckSieCwoSHtsn+t+06WKoXVdHd3cVN2zrzu+cQSNBrNvriRbe+vnDt206c5oiu5e5ua7lHd3dHpLiMBEiABEggtwhg8LlHz55yQScCPnxlQniUXURjDed2gkhfvHhxueOOO3K7aJZHAiRQiAmcib8sveZPk+3R5yRe+53hgUHyWL3G8u/6TQsxFR46CZAACZAACZCAqwRcFs79VCSHZWxmLrQQACGsM5GAuxAI0OsxUP8StPPvyQn3lq1o7sqxZHavurI985AACZAACZAA3iVDhg41bUCLRqhNWD5rGT9JgARIwN0I7Io5L3X++l20AyuPq1geUSxUfty7Q55Zt0JmHzsks7r2cbcqsz4kQAIkQAIkQAJuRiCdyXiKjsJXi4hwKI4jnEpuJ3TGKleu7NbWwLl9zCwv/wkUUY+Ggk641uHunp9iNt3dC/qsc/8kQAIk4B0E8O7CfBzWn3ccFY+CBEjAmwnAQ7rtjIlSSvsB5266Sz5ueY08VreRrO81WN5u1kZmHz0sc44d9mYEPDYSIAESIAESIIFcIJDOPBwuub369pWYmBg5euRIOkE7WMOv2MY0v9p9oxNWrlw5uuReLUhunzUBN4hxTnf3rE8Tc5AACZAACZCAuxNA2JoxY8aks8C36ly3bl3p1KmT9dPM9dNU5/7ZsWOHhNhZ6e/fv19efvll+eWXX+T06dOmzY22MQa9rdS8eXNZv369aZe/88478tZbb1mrXPr8+OOPxTasG+rSq1cvl7ZlJhJwFwIpkiLJWpnsGp/siD4vZy9dlHGde0qJgPRhRJ9v2Fw+3r5ZXtq0Rq4vXylbh3pZ+8sBPulsz7K1PTOTAAmQAAmQAAl4FoF0wrmpujbab7r55gwdArrletaJZW3djwAa/HR3d7/zwhqRAAmQAAmQgKsEjh07Jl9//bVMmTJFME8PEsKpQfweOXJkmnB+QOf8adiwoURFRUmZMmXkiBqkhIaGptvNIZ0bCG0DCOIIx4by3n//fWnRooWcOXNGUEbVqlXNROeY6+Tnn3+WV199VW7Wdvqtt94qQWpJe/z4cTl8+LDZBmV9++23UrJkSbOfL7/8UrZu3ZomOGI7CufpTgF/eACBsMBgebROQykfUiRbtT1yKVZ8NFzj4CrVHW5XpWgxWX/mpMN1mS0cfU03KeYfkFkWriMBEiABEiCBHBHYdeG8LD15XCLPn5UTcZckyM9XamqYsbbh5aR9mbIS5Jv7kUByVNFCtlFG4VwBoOENd1zblKij63kRrsV2H/xOAt5OwNG95e3HzOMjARIgARIgAW8iAGG6devWkpCQkHZYixYtSvv+5JNPGpF7z549pk29ZcsWqVChgsBq/F//+peZD6hdu3YSGRkpzz33nHz00Udp2+LLV199ZYT2WbNmyfXXXy/x8fGyc+dOady4sXTs2FGKFSsmkyZNMtvMnz9fpk+fbgT3dIXoj4oVK0rXrl3TFvfo0SPtO7+QgKcQ8NOBqU80zEp2U3hQsKQkJcvik8ekc9kKGTaHIFGrWIkMy7NaMMiJEJ/VdlxPAiRAAiRAAo4ITDkcJSO3bdDB3NMSm5TatvTVdx/+Q0LoMfz5+/pIRR1EHlK1przeuJUU5fySjnDmyTKHwnme7ImFkgAJkIANAbq728DgVxIgARIgAY8hAMvwuXPnyrhx40ydixcvLrVq1TLfz58/b76/9NJLglApVpowYYLZBttWqVLFCN+w/n7wwQdNfrwTYXWOMp966il55ZVX5PbbbzeiOSzTu3fvLrAgxwD8kCFDrGLTrMnTFlz58sYbb8imTZvMej+dpwgh4/D77rvvlkqVsheawr5s/iYBTyBQP1Q9L1RkuHP5AtnXf3i6Kk89fEBgkf7+NW3TLecPEiABEiABEsgvAhMO7pV/rVkmRzWsGETxxIREKa/eUC3CykjTkmGCAeC45CSJir0gq0+fVGH9lByIjZFPd2w2f0Or1JQf2nVWq3Raoef1OaNwnteEWT4JkIBDAnR3d4iFC0mABEiABNycAOb8gYU5YobXq1dPmjRpIk888YSpdYkSJWTo0KFGoLa8NyF2b9682Yji2PbSpUsmbAvCrERERMhDDz1kwq8gZEv79u1l6tSpct9998mpU6dMjPKjR49K9erVJSwsTAYNGuQSHYR62bVrl5QuXVpee+01ef3116VVq1ZGQHepAGYiAQ8nACFhTre+cv3cKVLhz1/ko5btpUqRYvLLvl3y7a5Iqa3C+jC12mMiARIgARIggfwkcEmNGfosmC7zdYJqXxXMwwKD5AWde2Nw1RoSocK5s4Q5NuBF9cHWjTLrSJRAeJ90aJ98p+L58GqpBhzOtuXyqyNA4fzq+HFrEiCBqyCQlbs7rO5++uknobv7VUDmpiRAAiRAArlOAJbjCxculN27d2cQo6Ojo42YDutu5PNXV9rhw4fLxYsXpWjRoiY2OazLIagjYZJQhHdBfHJYlUMgnzhxohw8eNBMKlqzZk0ZP3682Q+Ed9tklWG7DN8RRgb7Rvz1Tz75xAjnyOssv/32/E0C7kDgQvYNFnIAAEAASURBVGKC1P7rNzUcT3/d29ctXi3yxnW8QbqVq5hu1XU68efCGwbI8KVzZcTSeervniwhOlFov8rVZXJnx6GLOs/5S3ZdiE5XjqMfd1avI283a+NoFZeRAAmQAAmQgEMCOy6ck7YzJ0mciuCBOsD7XvO28njdxg7z2i/EgDAmtMbftvPn5I4V840l+gh9xy0/eUI+a5X9sGb2++BvxwQonDvmwqUkQAL5QACd+szc3SEW0N09H04Ed0ECJEACJOASAUt8vueee2TVqlVGiF65cqWxDLcKgFi9d+9eWb58eZpwDgtwK+HdhwQrcMQdf/rpp+Xaa6818wvt27fPWJdDIEeMcqQXX3xRRowYITNnzjS///77b2PBjv0g9vm2bdvkvffeM+uKFCkijz76qImlDsF89uzZ0qhRI/niiy9MnmrVqpl8/IcEPIEA5PJSOgmu75U4r87qfFmF8yC7QSUr77Vly8vhgbcILPUuJSVKSbXsyyyVVGG9lA5sZZYw5FUsgBOEZsaI60iABEiABNIT2K2Dso3+Hm9il2PCzyU39DPhWNLncu1X/RIlZVWPgfL+to3y7PqV8qV6Up2Kj5MxOoE1U+4ToHCe+0xZIgmQgIsE6O7uIihmIwESIAEScAsCELMROuXGG29ME7JRMYRfQZgWJFiYh4SEGNEcQjuEcliRW9bisDBv1qyZCffy66+/GgEdIjpCuyAeORIm/2zZsqXccMMN8u6770rz5s3NNgjjAvHbKgvl4LsVFiZIRUbEM7/tttvMZKT/+c9/TJmff/65Cdny3XffyW+//Wb2wX9IwN0JFPUPkG19huWomms1FuxbkevMZGs6xpQhFVeB/Ha1Gn+gVv10E6xN7twzQ14uIAESIAESIIGrIYDwLA3/HmcGgltqDPNl3ftfTXFp2z5Tv6k0LhEmvRdMk3FRe6V60eLyVtPWaev5JXcI+JyOjk71E82ivFC1YPG/0pjPIitXk4BbEUjSDuv52FiHdQoPDXXQlHaYNdsLXbm3wnRCscKaEHsVMVwRCxYWc5is7NlnnzWdf0yIBjEBIVp++OEHEysWwoPl7j558mQpU6aMEQ8OHDhgJlqDSztc4GP1XAeoFRDc1JEgQti6u2NfEBXKlSuXDj0s32HN9/7776db/vDDD5tJ2pAfoggmfoOY8eeff5r9p8tcyH6c1cnsMnuB5OX9pWJUZrsuZGeCh5uXBPRZbsJd5OU+slt2Xt5bfHdl92wwv6cR4LvL085Y9uvbQwWEWUc01JFfgFqGO7YTS9JmRIy2FeP1b33fm6RZqfDs74hbZJuAesrkWd+LbcNsnw5u4AUEeE95xkmsNnmMHI+7JLXU0nxLn6G5Xum/D0dJ34XTNbSZj6ztNVialeQ7Lbcg4x5z3JLIrT14STnQZ5YsWWIshuwPKTw83LjA2i6/6aabZOzYsWnWQNa6mJgYY/2DyZ+cpccff9zEosT60aNHyy233OIsa4blEBanT58u8fHxaesaNGggdevWTfvNLyTgLgRwX+GP7u7uckZYDxIgARIgARIgARLwbALPrF8hs48ektebtJZXGrXI9GCiE+Kl9pTfpfm08XJm6F0aoiXzMC6ZFsaVJEACJEACJOCAwKjd21U0vyjxScmyuudABzmuflGfSlXl5UYt5b2tG6S9xlC/NOzuqy+UJaQRyHymlbRshfsLrFMRexKWqrCStf4iIyPl3nvvTYMDEbB69eomDmXVqlXTCdjIBCvYcePGmfzdu3eX3r17m9iWcK+FK27jxo3l008/FYjdtWvXlvvvv998h4B+7tw5s75NmzZSp04dqVy5suB7q1atBJNQIV2+fNlY8BYrVsxY3sLSFvEtmUjAHQnYurt37NhROnXqJK1bp7oVZdfdfciQIcbCHK7uixYtMt8jIiLMYVvu7s8995xgslF8wrUdVuhwd2/atKmZxA0DXti+SZMm5q9hw4Zp7u7XX3+9rFixIm0A7bXXXjMTvbkjV9aJBEiABEiABEiABAojgYsaw/wDFQ36VYrIUjQHn1AN17JNLf98fP3kq51bCyMyHjMJkAAJkEAeEoB3032rFwk+51zXVz2h8s52+dXGLSVYNUC4Zb+xZW0eHlXhK5qhWlw45xC2S5UqZYS948ePmy0gko8aNcoIcfPnzxf8DR48WObNm2dEt927d0u7du1MnkGDBgnEbIh0WI64mBMmTEi352PHjgks0h977DEZOXKk+T5x4kS58847jUiOyZ6sNGvWLFm3bp0RAK1l+EQ969WrJzVq1DCLYYHerVs3eeGFF2yzFbrvDNVS6E45DzifCNDdPZ9AczcFSoChWjLiL8xhxjLS4BJPI8B3l2edsbPxlyV8/I9ybPDtUjY4JNPKLz15TDqq9ficnoPkunKVMs1ru7LB1HFSXA2cVupEa1mlChN/MYL7jr45i72eVfnevp5hJbz9DPP48psA76n8Jp69/X2xc4s8rZN3hqlH0+GBt6ab6nr0/t1Ss1hxaVc6fQjZ7O0hfe6NZ89Iyxl/6MIUib/5XhO6JX0O/souAYZqyQYxiNAQuxGyBaI5Yi23aNHChG9BTOVXX33VWIg/+eSTaaUiBAUmYbrmmmuMtTks1GGRDgtyWJUjpAqs0L/++mvBRFGwJG/UqJH5DREdE0kNHDhQMLETxHcrYQIqK36ztQyfiAWN2MtImCgKdd6wYYOZsAqTVDGRAAmQAAmQAAmQAAmQAAmQgKcQgJWeHybA1c+s0srTJ9TFN1C6lquYVdZ065tofPPfo/akW+bsByZ48/NJdLaay0mABEiABEjAEEjW99azG1aZ75Ou7Z5ONMfCtyPXy9azp+X7a7rKXTVyJ7xy45KljNV5gmqBa86clDbhZc3++c/VEcg7P4Grq5dbbr1582b55ZdfTIiUf/3rX0ZAR0UxISHCQ/z0009G/LYqryMTgnjmEMfj4uKMkH3mzBkJCgqS77//XmrWrGnE7s6dO5vY5xDWEW4Fkw+uXbvWhHzp37+/IIyFK2nZsmVGqIdgDgt4hH9BOAyI7BTOXSHIPCRAAiRAAiRAAiRAAiRAAp5IYPGJY1LMP0CGLZkrCSnJLh/CvhgNe5mQKDuiz0nd0JIub8eMJEACJEACJOCMQExiglzSEGKIndKsVOkM2SI1VFhbjUd+74qFsuD4UfmpfZcMebK7AJODvtG0tbyogv1z+jdPw8MwXT0BCufZYAgr7vr16xvh3F6IPn36tHz55ZeCyT0REx3xxRHKpWvXriZEC0KtYHtYqiO1b9/eCO8vvvii/Pvf/5YOHToIBPRp06ZJcHCwiU0Oq3TEPS9b1rVRIoRqgSgPof7pp582sdizcXjMSgIkQAIkQAIkQAIkQAIkQAIeSaBJyTCZpK7vE/btzF79VWgI1j5UpSJFs7cdc5MACZAACZCAEwKzdKLqQJ1Do1GJUvrpeHrJlT0GSMfZk+W3A7tl/blTsqnXECelub74zup15Ol1KwThy+Ct5a/vOKarI0DhPBv8MGEn4o4jZAsmGbRPFSpUMJN1QsCGcD59+vS0LFaM8vfff9+I2rAihyiOdODAAYnQiQwDAwMFk4YiIQ46LMit+OR79uyRU6dOmXWYnDQqKkpWrlxpfkPEx4SGsE5HKJk5c+aYvFu3bpUBAwaItW+Tmf+QAAmQAAmQAAmQAAmQAAmQgJcReL1JK3mpUQuB1292E4WF7BJjfhIgARIggcwITD960IRnGVa1ZmbZZMkN/aX/wpkyQ/OHT/hRjg663anQnmlBV1YWVWPdFI1CEa+m7gnJSeKfhxOSulIfb8hD4dyFswhLcYjPmOxzy5YtaVbj2BQCORIaaJiwE0I3QqVgG/y2Gm6Y5BPxy2FR/tJLL8nRo0fNdoiPDitxJFieI3xLly5dTAiX1157zcQ537RpkyxdulRWrUqNjwSr9eLFi5uwMdgOgj0mBH3ggQfkkUcekVdeecXUAxbsFy5cMCL/p59+iqxMJEACJEACJEACJEACJEACJOCVBAK0D8ZEAiRAAiRAAgVNYN2ZU4jSIteWrZBlVSZ37iGDFs2Sv49ESei4H2Te9TfKNaVdizxhX3iAj+qXCBetkTDwF0Lh3B5Rtn/7nI6OznqmFS02VIVj/ysicbb3wg1IoAAJJOlAxnkdoHCUwkNDs2+S4qggB8tcubfCdACEiQQ8lcBZHZjL7AWSl/eXTtKc2a49FSnr7YYE9FmeNgjuLtXLy3uL7y53OcusR14R4Lsrr8jmTbmnLsdJhT9/kcMDb5WywSF5s5NslFpSrQGLqAhxROvDlH0CalSWZ30vtg2zfz64hecT4D3lvuew9J8/S0x8vOzpP0IqhRRxqaK3LJ8vEw7sEUws+kGLdvJ43dQoFY42HrZ0jrTWyT+frtck3Wp0kkvpuypWI2FE6b4ruLjvdIXwRxoB3GMckk/DwS8kQAIkQAIkQAIkQAIkQAIkQALuQiBY48MmqhHMR9s3FXiVzqiIH6uTvTXVWOpMJEACJEACJJAZAV8EatH/IYK7mka37ypDqtUQTPKJOOW3q5Bun6IT4qXelN/lj6h98sOe7farU3/rLjFKmWcjlY736rVLGarFa08tD4wESIAESIAESIAESIAESIAEPJdAMXU371c5Qt7bsk6+3LlVPYAyHkuCCus/te8iN2URRzbjlhmX1J4yVo7HXcq4QpdcULEC6ScVNphIgARIgARIIDMCVXXC6S3n42VfTLRUycbk06Pbd9Pwzyny58F98ptOeL3t/DlZ3XOg2dWMIwdl8OJZkqTCeN3QErLRwWSiEOrjU5I1T7IEM2pIZqfI5XUUzl1GxYwkQAIkQAIkQAIkQAIkQAIkQAL5SQCxX3/Ys0PmHD/sMERcvE5+1rhE7liBQ3zfF3vBweGlSHhgsJl81B1CxjioIBeRAAmQAAm4EYE2GkYl8vxZmXv8iEtxzm2r/luH62T40rlGPN98/oxUmTRaBugg8hc7t5iY5VWLFpX1Kpr7O5jXI1EF80sJCSIqoAcxvrkt1hx/p3CeY3TckARIgARIgARIgARIgARIgARIIK8J3FWzruAvr9NbTVvn9S5YPgmQAAmQQCEg0K9yNflOQ6lMVMvx1xu3zPYRQzy/+Yp4flpDhX2ze5sRzUsGBskGFc0DHYjm2Mk5jasOQR3hXpzlyXZlCvkGjHFeyC8AHj4JkAAJkAAJkAAJ5DeBFStWZNjliRMn5OTJkxmWY8GMGTMcLne2cNmyZQ5XnTt3Tnbv3p1h3a5duyQB1jkO0rx58zIsjYuLkw0bNmRYjgXTp093WNbKlSsd5kdZ+/fvd7jO0cIjR44I/hylsWPHOlos69evd7gcLKJ1Alz7tHTpUvtFab8dlYVzd/To0bQ8tl9Gjx6tRk8Z43s643fw4EG5ePGibRHm+4IFC9R1OTnDcixwxtZhZi4kARIgARIgARIggTwm0KFMeYFH1OZzpwUhxXKSxqp4PrhqdS0nWfxVCC/i7y/b+w4zn87K+2pnpBHOe1aoIn6O4ps525DLnRKgxblTNFxBAiRAAiRAAiRAAiSQGwQgnH777bcSFBQkW7ZskRo1asjmzZulefPmRiQ9fvy4nD59WnzVQiYsLEyqV68uSUlJRpy+cOGC2ebwYQ3ToOXcc889DquE/BMnTjT7mDZtmpw5c0ZiYmKkX79+8t1330nx4sVlyZIl0r59e5kzZ4707NlTNm7caETuHTt2SIMGDcw+27ZtK6tWrRKI7AcOHDDr9+7dK2XKlJEWLVoIRH8IuGvXrhUI7oGBgdKmTRuZNGmS+Gksyblz5xoRGfu+7777ZMqUKRISEiKzZs2SU6dOSWxsrNx4443yv//9z9Rp8eLFpk4os0+fPlK5cmWHx7d8+XI5dOiQHDt2TOM8+0i5cuWkYsWKpuw1a9bIpUuXJDIy0nxCjL/11ltl5syZUqxYMVMnHEu8WiH16NFDfv75Z7McdbrhhhvMObjjjjsE3Py1UwY+4Idy+vbtKxC/cW4gUNesWVNWr14tTZs2NXn37dtnjisxMdHUqWzZsua4wAf7Q53wefnyZRk+fLipU2hoqGBAwuKLOv3www+mThh4wLlB/jvvvNPwA1fU7ezZs+Z8oE7jxo0z5wt1wfWCc1mvXj259tprHfLjQhIgARIgARIgARLILwJFNUxKKbUOj01MksUnjkq38pVytOvfrrlOimlZ49VyfX//EVLMP8BpOQjT8tbW9eKn04K+3ayN03xckT0CtDjPHi/mJgESIAESIAESIAESyCYBCL233367rFu3Tt5880154IEHjHjerFkzadKkiRGMISpDZL3++uulTp06RqSuUKGCQNCF8A3xGt+dJQi7nTt3Fgi4EOiLavzHbt26SXBwsBGwo6Ki5MsvvzTld+nSRapUqSIdOnSQ7t27G4EYYnnXrl2NQA5hG2L+888/L++8844RoyFqQzyH0AzBHKJy7969pWPHjkYwHjJkiBF8f/rpJ2PVDtEX9UCdIPwG6CSH4IB9YzkGALZt2yb//e9/pX///qYeOF5nqWHDhoYTxHMMIkA8btSokeEHEfvBBx+Uzz77zAj72HeRIkXMvlFXiPIQlXF8EK0hqqMuP/74o0RERJhzA4EdvNq1a2fEePBGXTEwcNttt5lzA36PPvqolC9fXlq2bGnOE87Xnj17jKAPRqgLzik+MXDw0UcfmYEInDucE9QB1umw8Mc5AB/s++abbzacf/31V1NXHAMGHKw6YeADx43fqNMtt9wisE7/+uuvzX5QNgZFmEiABEiABEiABEigoAkgVMpnrTqYSa2HLJmtc3Rk9L5ztY7/a9tZzg65I1PRHGUtOXFMfHU3umtpEFrS1eKZLwsCFM6zAMTVJODuBOju/s8Zorv7Pyzwje7u6XnwFwmQQMESgAj6zDPPyM6dO+Wxxx4zAiism0uWLCmffvqpscKGmDx16lRjsYx1EGK/+eYbI7jffffdRnx2dhQQgiGelypVylhFwzIb4jGWQaiGSI6wJNgXRGSI2aVLlzbCOMRv1AkiM4R2CLOPP/64/P333zJq1CgjLKM+WIcwJhgEaNWqlRkECA8PN/uAqP7BBx8Yi/JevXoZgRp1suqFfULUh0iMOqFuEMwRluSNN94wVtOok7MEwRsDCIMHD06zoi9RooSx+oaI/cILLwgs51999VUjOKMsCM3YB+r6119/GeEf9QEjWHSjPrBWR9lYjmOA5Tes3iGIQ3BHOeD38MMPm3P33nvvGdEePCBm//7772ZAA5b9GATA+cQ67PPZZ581ngUvv/yyqROW490E3hDoEVIH+8S+YakONkiwRgcfq04YjABnbAPrdZSDgQhYsMOyHdcIhHQsYyIBEiABEiABEiABdyBwa0RtSVYr8Fhtb00+dOCqqqQtyky3RziYnvOni4+vj3zT+lrThsp0A650mYDP6ehol4Y9QrXx6p9JY97lPTIjCeQzgSR9gJxXt2hHKTw0NPOnj6ONXFzmyr0Vph3O7CZH7u7oKGbH3R0d1uy4u0O4cObuDoux7Li7w8UbnWR7d/fWrVtncHdHxxmWgJa7Ozr96EjDtRxu3Xnt7g7LNUfu7hBfsuPuDotEZ+7uEBiy4+4OTo7c3VEnnAtX3d1hTYn8jtzdIai44u5+VsMnZPYCycv7S6/fzHad3duK+UnAKQF9lrtdwzMv7628enfZAobw+/TTT6dZB0M0rlWrlhGtISjjPYHwLPfff7/ZbMyYMUashrWzs4T3BJ5pCN8BUXXhwoVGmId4DpEbIU0gAsNaHBbNsOzG76eeekpg9Y4wHwgfgzAxeAZC+EZ68cUXjYgMa24kiPp4nkP8hUiN98T27duN+I71iP8NK3UrJjvCz/z222/m3YWQLLCuxjIIvqgTHmWoE0KhIPSKo3T+/HmBQA7LbQjasMpHAieEU4HAj4T45tjvj2pFjoSQOKgbtoc1Pd4TGBiAwI5BDFh9Q2xGaBkI1Diul156yViRI6QN8mM52gwIY4MES3VYkVvhUL744gtzHKgT+NeuXduUiwESJBw76gThGwmct27dagYLUCeUjVAvyI9BCVj5jxgxwtQJ+VHmc889J3Xr1pX58+dLp06dTJ3wCWt7pDvVMh3boL3gSuK7yxVKzEMCeUNAnyl51vdi2zBvzhlLdW8CvKfc+/ygdn9qiJXhOslnfGKCnBhyp5QJDsmTSj+6ZqmM0slIi2hYl9Nqnc6UOwRwj1E4zx2WLMWNCXibcA7UiGMKK67333/fiM3oTKIzDuEAVnLoXGOCtddff91YiqGDjJih6OBDFIDl12uvvebUMgsdebjMo+MM8QHWanARh2UeOrGwNsP+IUigLugoI+4o9g1rO1iwQRSB2zREkJEjR8oTTzxhOuqff/65cSdHHnTS0enGpGJwhcdvCBYQFVAurM8gqKDTDKs2HBMsyxB79brrrjPWbKgTtsPx/Oc//zECAQT1qlWrmmN3dGnC4hDCCvigfq+88ooRwlFflI9BCAgqsD785JNPzHFBnIAosV8ncLv33nuN5Rv2jRi4kydPNiIIrBBhYYe6gh/E9Q8//FCqVatmOvVgj+OGaAGGYDl79mzj6o/jRXzet956y1j2IQ+2h/UdQhugTlgPjji/GCwBc4g4mzZtMm70cHlHncBp/PjxJgwALAmxLa4B1AmiO84Rzhnc4iHc43xjv2CIMhFH9qabbnJ6fVhMKT5YJPjpzQQonGc8uzkZ9EUpEFHxvIcIDUtjPG8HDBhgBGCsx7NMm6bSuHFj86yEMI3nEQYfERoE4iueXRj4s014ByCO+NChQ9MW45kG0RsJ63/55RfzvIfVOuKgI7Y2RGA8M5EwMAsBG89KPHshckMEh+iO5z+etddcc435Q348KydMmGDeB3iG4jcEawwKQ3BG/HI8vyGQW1bQeB9AqEfCMx8CPo4XVvaIj473C8KZ4D1omx566CHzLkHdkBBnHO8uDKTinYIwKag/xH4MCCB+eUREhHl3Ix8SLLIxEIG6oq2AuiIvwsuAK6ze/+///s+8f5Af4XQgoiPhXYX6YUJSnDvsH384DxC0kXDuwA3vQOSHGI53IwZzK1WqZPjjXYj2hFUnxLyHCI86YaAE9cB5xnm06oTzhbYFEgYkUC9YwON9iPIRtgZl4FqCBx4YWCK/2cjBP3x3OYDCRSSQTwSgP+TVrvRZQqOKvILLct2WAO8ptz016SrW6O/xsicmWkpom+aAxikP8nXuYZhuQxd/jIvaK8M0HIy/lrvrxmESUTT7Bpou7qrQZcM9RuG80J32wnfA3iic4yyis4jOPDrniGmqt7M5uRCgITKgYwrLLggDSBCCsQ6dWAi4sKzLLEG8xsRt+IOwgA6y5UIN6zTEL0V5EHGthE5tF42HCgtqCABwqUZChxziB0RmdIhhOYcEF3gIJAsWLDBxXlGelRBDFUIuLNNgWYYEQRgiMuLUwjIPbuSwQEeCaI3OMgYFIMZnlSDgYwI4dL7R4X7kkUfMJhAhINQjniss42ERiLRhwwbDDfuBpaFlTYd1ECTAGdaQtsvRwUf9wBwMLWtCxI2FkAPLSIj2loiAciC4gBdEG0tgwbnDQAQEGAgQVp3AAiI9PsHGOgbUCaIDhHEMroCJlSAm4ZhxjaAcqywIVBBTIOTj+F1JFB9cocQ8nk6AwnnGM5gT4Rx6BsRlvH9sEwYyESYECYIrkiU0264zK/QfvPfsy8A6iNwYJLSS7bZ45uGZi8FR24RnrfUOgZANi2frXepoP6i/JWrjuYztrfcitreEbWsfsPTGM9p6xkMcxm8k++2tbVBP1MM2IdwK3pvWviBQI1mCsu2xWtthoNQaFMAyPN+t7TGAisFj27AwePchYTmSfZl4f2Og1TbZ5sG5wzm+mjqhPtb+sR/UCefDqqdleW/Vwf43ljtaZuW3PvnuskjwkwTyn4De0xTO8x879+jFBHhPec7JLTn+B4nX9mO54CKyU8XtgCvGDVd7BGMP7JHhEM21HfVO0zbydP2mV1skt7chgHuMwrkNEH71TgLeKpzjbBWUuztECLhE093dfd3dYdUJoR2DHEgQNejublDwHxLIFgEK5xlx5UQ4z1gKl5BAwRCgcF4w3LlXEgABiny8DkggdwnwnspdnnlZWlxykoSP/8lMEurr42vE84ohqUaAOd3vE+uWy6c7Noufxj+/r3Z9+bJVx5wWxe2cEMA9RuHcCRwu9h4C3iic092d7u5X6+6OsDaw7MMgCN3dved5xyPJfQIUzjMypXCekQmXeA4BCueec65YU+8jQJHP+84pj6hgCfCeKlj+2d37ZRXPK078VS6qV11cUqI8VLuRfNm6Q3aLke3R56TD7MkSq8ZxKPO9Zu3kmQa0NM82SBc2wD2Wr8I5JijChHP2affu3WZSKPvlcE2FW6i9a619Pus3JhSyQiFYy6xPhEawD02BOMhwV3Xk8osJlaxJh6wy8InwExEaN9I+IVYm9m3vXouQEoi17CghtAJCQbiS4CILV1XLxdd2G4RpQExN+4RJnxC/0j6BN+JMWq7Q1nrEo6xevbr1M92nI9dXhKtA+bZutdZG27Ztk/r161s/zSdci+HWbO/qi5WIw9yyZcs0F2lrQ4QjwURY9gku1HDtdrRv+7zeJpzT3V1MLFTrXqC7e0YXfLq72z8F+JsEck6AwnlGdhTOMzLhEs8hQOE8784V+lsIE6RdTBPiD3MD4Dv6Kfi0TfCa/OOPP8yigQMHmrkHbNdb3x944AH5+uuvrZ8OPzHJLfoECFPnKCEEEuYoQJ8JKUL7cjt37kwLLWS7DcIAYi4dzHmA8HW2CSGZMM8NPC6t1KdPH0G8foTSg3cfQhyin4JQhjh+zNWDvg/6nJgfCPMFoF+FfWCSXYQ3wifabsg7atQoq2iv/NTrIP2FkItHqX0kxjjPRZ4syjMI8J7yjPNkX8uhS+fIhP17JEjfXXh09atUTT5s0V6qFi1mnzXd71/375bnNqyQE/pe89XHKbZd03OgNC4Zni4ff+QeAdxjeS6cY/JANKIgmmIiIkxwhEYFJinEREIQbxEXGI0iWD5iAsJVq1aZRgRiN2PCJDQ0MNmQFYfSHgEaKLhgMJEhJgxE46hmzZomNrIeouzatcvEl0QjCZMNooGCRh2EZYjXiMcMETYoKMhMFgVx9/fffzf7RnxFTL6EOMvYDg2yESNGmNiUGASA4IvtUFdMToRtETcZwjHyoxzESoZIj/jLy5cvNzEwFy1aJG3atDGNJJTjSLzHcUKoR+MKgw7YD44BeXG8qD/iS86YMcOEZEBdmzVrZhqCEPDRWEOjD3kxaIB41yjjhx9+MMeGeJc4DxgkQFzO77//XjAJE/hh0AA8sRwTTiEeMspBXGsMEuBcoeHXs2dPUybKx3nGucKx43hxzsA1PDzc1BX7w2AIJpJC/bAOZaFcxHoGV1wnaFwj3jLWYzJGWNZif3Xq1DHXBuqE83DXXXeZybUQRzszAd3bhHP765+/SaCgCFB8KCjy3G9+EqBwnpH21QrnaCs5a9PZx+bG3tEGQLsC7QL7hPxoZ6C9Z5ts45HbLkdbCW0VV40ykBftFHvDCJTpzGDDUTxw5Ec7CG1D/NkmR8YJ1nrbOOLWMrTTcLxo09knTOBpzV1hv87Rb2eckBf7sT9u1AfsrLjjtmWizY/JPe0Tzp0j3s7OnaP48laZOB/2x43Y8bieHNXJ2s72k+8uWxq5+x0iMiZVxznHdY4+HybphUCO84Y2PfoCuKdw3WPOAIjRw4YNMzH4MQG6fcJE7Z9++qn94rTfTz75pOn/oEzMdYD9Wwl9TfQDcb9gLho8e2bOnGlEbYSzg+AOcRz9DfRBcQ1hjh/UH/039FHRf7US7ol+/frJrFmzzCL0RSCkQ5S3EgyHMHEw+k8Q09EvxJw1mMcGvzGZL+4V9BHBA5zQZ0KfCuH1MuvTWPvw5E89F+kf1rl4MHoNUDjPRZ4syjMI8J7yjPPkqJbb1Gp80OJZsv3cGRXQAyQ5JVkCdXLPcsEhUrlIUSniFyAJKUlyRts+UbEXJEbbsMlXCkrQ7680bSUvN2oh/hr2hSnvCOAey3PC6OSgYRyhgu/HH39sQgJAOEUnCI1fNFawHo1eNEbQYIGFMRoU7777rhGM0di272TYYkE52HbFihVG/IX4CitUWE/DQgHicd++fU1jClbhaMRhoiZMVjhv3jzTmMI2EKTRmMNkhZikcMyYMUasRVnYB4RiiMNodGF/aNhg4iU08N9++20zwSDKwHKshwU3BGAI2/iNBEEfIvsdd9whtWvXNg0zZ51H5Edd0b6AVQIaeuCDumK/sJSA+I4JGWHpgPIsrhCWIeqjrlYnAwzRaXv99dfNxINovKFs1A3CPERsTHxo1RViOBqSaMSiEwZmEK1RHhIaolOmTDH7REcU+XGsQ4YMkZtuusnwxT6wDn+wzpg+fbrZFmXg2oBFOazfX3jhBfnuu+9MGWjzYP3EiRPNOYNlO35jkAVWxpikEceAQQ+Ub026ZQrmPyRAAiRAAiRAAm5JAO09vLvR9oM4he94v2NOBrT7IiMjjXCE71iP9gjWoe2FQX/kx3K0g9Bewx9EM+RHewLtB+SBIAfxDCIvtkfbCOshdKNtB7EYArPV3nEEC2WgLLQtMVkzvqM8tFexLeqEth/2jd9oKyIPRHNM2I162u4b30eOHGnqhnqjXYRlyAfDBWt/qCvKQ7lop6J9ht/YL/aPfaA+MG7Ad2xn1QntTuwD22IfzhLqin2jPEyUbXECP3D6f/bOBN7GcvvjK7NwTCljRFEKUSkhomiep9twK83DrdugeZLbv+FWGqQ0pznN3SYUiZIGNBBFUsiUDJlK5/98l/uc+zrOYeMc5+x9fstn22e/wzP83vfdez2/57fWw/moXrle1M01op3UN2DAACNykfPBj+0IOVhke+DAgX4u+ziH43mxEDjvlMc5lMnftBUfmrbGNtGff//7344j5STbxMLfnMvxlM+5lIt/GdsE4SkrOgTwySGNGTMhisGXx49nvIGRGg7VNQues4D6P//5Txf6sIj59ddfn2fDub/ye1YRACFMYuwB+c4Yc++9984phwXRGfsxfmCshIAJdTvKbu59nlfEQYcddpi3C/EWY0DGF9x7fF/ccccdOeXxB/2JxvcSoqV433Xp0sUnmxgHQa7zHUGbINd5VjDKxigf495nfDVs2DDvJ2M/mRAQAkJACGQ+AjtkVbMJBx5j3x1yvJ3WuFlQkJey31cstymLF9rIObPsvVnTbfjsmTb2t3k2b9lSW/7nH7Zj1er2XPuutvi406xXi11Fmm+i26RMYdcDKdy9e3d3Qs455xxXb0P6YiitoxONcwEZijUKJDuz+8zo4xSTwmNtxiw9pDxKApwjHJKoSrrsssvcKYqKZkh4CHUcN5wsHHTU5Mcdd5xXgfPEYAuVASqA2FZIYQZqKCMg2yF6MfoAuUwfGezE9C6oCxh0HHzwwX4ObYT0pm3UiwOHg8jkwNoMMpx81kcffbQ7VlODAp0yMdrHAAaFwgUXXJDTViYeUFCgaGDAh1OKQbLjQHbu3NlVHZD4GIp68MbRxHGj7ViDBg1cAUGfuTaoPXB8uR44lR07dvT+EH4YFfNHHHGEk904ubSJ68CLASafcRpRvv/973/3OsCCgROfUW3E1DLbbrut95d7AUKfPmKtW7d2xxJ1GSR/3O479Z8QEAJCQAgIASFQbBFADYovxUQ5fh8+F6QThp/BAsakLEDlic8AgQtxjHAA/wdFKH4I/gckO+pm1mtAyYk/gQ/xySefOLGK/4PvR0o8fAX8vSeffNLwRSmX80kVkZ9RL4Q05+DfYfge+CeIBvbff39XkeLHITCA2KNuFK4fffSRR+hBInIcRBtig1NOOcWGDh3qfiHt4njKZiKB9uGP4aNBCuNnodRFjIFaF8EF5DB+Mb4fZeP34oMRkUeUIXX94x//sGuuucZFFfn1jTrBBxzwpfCd8R3xZWkH1weVL2QgUYSUy7UDe3xgfDpEKfjAlStXdvzPOuss99u5jpCg+HsIHWgX/ec4+tK+fXsn/amTaFPITFTKYAupyaQGdXHt8Jmpm3YwuXDeeee5Ohk/knsHrCEZEZcgJqH9+Lb4zrKiQ4Bnlec8WiSV42fGYfGZYluMRmAMwvjl6aefjof69eUe4n6IYwd28owQocoYiWhYREkIhHi+Ge9wDzC+Q3TTocOqhdKok/EU9THWSabShBznnoLE5p7kWWRswzNGNHM0vhdyT0pRPt8xkOSo6rl/ibDmxXPG9wyTQIyHUKEzFqNsxpbcwzxXjNn4TkLwRJ08JzIhIASEgBAoGQhsWyUr5DnvYPfu2t5mLF1iM8OL98V/rrAywd+rWa6CNQgK9LrhVaVM2ZIBSjHrZaErzukvTgSOLyQ2M/oYjjlKA5TMqFtwKm677bYcR4rBE7P2OMn5WXTKIM0JkcNBYvaenHIoUjBm+dlP2BwEMMYADHUNzjmOPU4SSmkMoh/1AgOxqFhgkEKZOP2oeXCOIJE5D2NwQVtx1jC2X3fddUYKEQYcjQL5iyo8Oo7dunXz/qKSys9i31BqQLijqGEAR3tJ84JVrVrVBzooJlDJYxDWDC5QMlE3bcABjKoGnDHaT0oWjHog8HHQGJBB/Pfs2dMdUvaTPoUBDQM4HDsMJRCDVurC8UPpwyAKox0MABnIMAjCGAhxbTie47gOUXnOfshwlCeRsAdvVEUcx3ns596IfWBSAwy5RiXdcLDzMyalchuDBu79vIzjI8bJ/TwneRn3WLyn89qfexuDnPwUQ6gA8zKUQHkZkRPxGUnu53slP8ur37SHduVl8Tskr315bcsPJ47Nq9+0JzlwTJYJmZGX5Yd3fteOZyk/y6vffMfk16b8ytF2ISAEhECqCEC28t2HTwQRDEkOOcqLVAZ8x/G7j5gBYhn/CXKJ4/jdh1yCxIIg4x2CDfILfwH/BX+JCEMIOAgyDJEBfiikO0QvUW7DgrKT+vHr8jN8Er4PUbHiu0L6QtRBfqEmhQCjHkgzyoxCEeqBxGeNGwQgEHf4lfhA9Ac/EhzoA0IIfmtoC74OvnIUePA3dUGa47vxN/XTJvpG2bQJgg9/kLQT+LcIPtgfxRF59Y82cT64gDXl4OvxTvuZHKBP+JPxOPI+41dyHAIKsIQA5TrRXwhFfFSIe3x7XvigEOr4u1xbriH9Az/Ib/DAV4T4JCUM1wq/hr7zG09dTBDgy1MP9wkEKdvBr3OYZOCe4JpTFxMIIs3zuuKbbhtpV7gfeGbii0mSpH8JEY4indfLL7/szwot5N5j0iVpn376qUehcF8ljXsXopl7B+Pe5fnHuD+ZqOI+j2MX7ivuI+rjb0hyJoG4v5h0QRHOPch9zLPPfcYzjb8ZJ/com+8pJpmS/eHegzTHINUZRzFWY5zCfYp/yAQcEzzc10wYERWMr4f/y0QhYxv8MsbKIs0dSv0nBISAEChxCJCznBQtu9WsZYfWb2gnNNrOjt26ie1Tu541C+p0keZFd0sUOnGOc4IiG+cG8hWyHKIcxTUELM4IahkGPDgLkM4QrRxHnrcbbrjBZ+PzInNwsDGUPgwcUEhTHs4Lzg/OCw4Yih1IYdQKDNgYsDAIwblmYAA53KlTJ3ekIIEZ3BBGCFnLgIYBCWVSNo477+eff76T04TKEpKLcgqFD/nC6QPOEiQyziIhhHFSAEcOkpgBF+QwyqO8CKwePXr4AASnkwEQgxMGQaeccoo7hBBcKIJwEiHBIfJpNwMm2kHedgYYqC5QaFAHeHItIOM5hsEp56N8YGKBc2kz1wVSFOeRwQ4kN9cDJxBCHIeQiQqwYOAE8U7ueNQUHIfzhwPLgBZnkTaQ/x0c6AMDHgaaOKO0h3Yz0UC9qMsZyFImZaMm4/yo5kLFFfEGRwZeSee16B6lTVszRCmTKQp3V7g794LC3Tft86fahIAQ2DAESOGAL8DvPn4NPlqc1ITUQskNmQSBhuETkP4D3wTfCpIsTrzjvyBcgKRDnR4NlSdEKv4bpDD+RbQYTZhUrsZ98T1OyuJv4KdAnkHMM/GPL4vxGT+LdA/Uj+EfUTckP2QY2/HTouE3Qgjjz0RDlEHaCPDAD4W8w//C2M4EA0IF6sNI0YJfhZ+EcIE+4qth+NUQ3vhoKK/zs+gz4XMjWsFXxteM0YmcB9nNPqIrIRYxVO74fuADsUiKCn5/MHx4UhPiJ3J9MXxCVLxEAfA3/jY+bzRIdDDCP4yGaIZJBPwbrl1SPIPPxzbaBCGKkZaQ6wBmkKX4lJD3sqJDgPETYz+eT0hqLPkMMp7jnuW+48U9TJofjHsL3z8a15XngIknniXI5/W1qGbnu4OxIMaEF2mQmHzje4UJF+ri2YBMhzRnjMZ9GIVGnMfkD0Q43zvxu4DtyTFqnMTiWWRiB+EE5fLO2IbxKfjQV54tiH3q4Z1XsizKlgkBISAEhIAQEALFAIGw6FV2Kq+QfD787q+/BWd5jZPC4GO1bVOnTs35HByLbF5JC05wdnAykpv87zCAWG0bxyUtOEjJj/53cNJytlFmUKjmfA6DtZy/4x+B6I5/+nsg/XM+hwFVdhgo5XzmD/qbbH8YDOXsD85QdhgE5nyOfyTbELeFVd+zg1o0fswOA8ts6ouW7EfcFhzR+Ke/J7EPA61s6k8a/U22P9m34EBmB2c2eXh2cC6zA2Gfs42+Jc8P6qqcffGPoKyKf2YHJ9H7ETfkLp/t4E090ZLXhLqT9XMMuCTbEM9Lvv8Z+p3fPV6Yj2B+dSa3J9u5Pn+HiZrsoNjJDmq17DBQ97+5frzCwDs7KLD8+oUJEr8nuQ6BbMgOA+PsMEDODoR7dlC+ZIcJleygUMsOExDZPIfBqc8Oi+1mc/0DgZEd1gjIDoPb7DCIyA7KIL+3w+RQdhgY+fFBCZT9+OOPr3Fdkn0JYapeXyAqskMIbjZtD4Mkf/Yon2eCVxiIeJlhYOJ1hwmd7DD4zw4TPdkhtZLfP4HIyA4D5Wz6ExZV8rLoQ5iI8uMCKeF9ABueF75rwIO+gU2YdPF6qR8MwgRaNu2iTSGvZXZQuGeHkP9s7mXODQOm7Ly+R2L/uKdpG+eAE/2hbu5JcAoEidfNs0k/+G6I2IfBoO8Pgzevi+cV/HkuaG9QJGXznPMK+WGzQ0RLdiCD/G+uGf0Dg2HDhjkeYXLPryN1cK24LuBH22gTzz/tCGSJ4x3bBH5Dhw51DEKqJb9HuFeCAit2M9/3X9fx+1GYz1e+jdIOIVDACMwNfkLye7s4/F2Yz1Yq/dsQiPlt53sL34vvvejTRN8jCAyyQ9qQ7BAllx3Icq+C34PoO/FdFtSsOX4Evz/8FgWSOjuQqf79yncv9fDdzG8I72zjux0/iN9L/Aje+Y5L+htUyHdfIM6yA5GVTd18P/K7EwhhL4ftGN+xgVjz37IwceltjL4f77feeqv3kz7ymd+UQJx73YEM9t9l+sU+6gmKU6+LsgMZ7eXx+4GfFcjz7CDSYJeXSZ9oD9v4O/p6/BbRJnAJkZZ5+ka0h/Komxfnh1QzOThFXzOQ2d4efj8DIe51gwX44w/wGwV2se4g3nBfIhDX2SF1hh9PvzDK5PePc7lW+BdBbZsdJk2yQwoXbw/XhPIpE0z4LeQzbWQf7T799NO9nYHU998yyo5teuyxx7J/CH4Bxyf9Ro7Jy/TblRcqG7+Ney+Imvwe5JlknBbIbr9PgpjHK+B55D5NGtcWC6Ka5ObskObSn4e4MUwi+fMYPyffQ3SE15Xcxt9hwsU3cf9FCxNR7uuGSS5vG/c4PhZ+YBDxuA8aSP/sIKbKDpNC8TQ/Jn5vhckrfx55dnmmowWxj7ejU6dO2XynBfGW9yuIwrLDRJkfRn34vLSZezeIj7xefPq1+ZyxjnR/L8zfr3THRu0XAhuCgJ6pDUFN5wiB1BHgGduMAVIqD1tWUNyUCeoBmRBINwRWBjXJgqASyctqZmWtyj+T186N3JbKs1UjKMQ21Mjr2CiEOaPqIWIAtRmG6isMhl3hhWI/KvcIRUUhEwaVrnJBUYaFgaYruMjTipofJU00FGaUhYWBTdxsgZS1U0L0A0pnVGDrMsLHqQeVDWHZMQ0SyjkiEwiF/+CDD1ZT7qEGQoXDOUk1YSAkPCIkvse6+/Xr52Wj5iH8ParkiLBA9YNSCbVhVO7RpjDodpUgyr3YpjBIt0BIe5tQHK5NuRfrRvUWBvz+SqqTaBMKRBRYRNzENqFkQvFEW1HwobzEiFihzyiW2BeVe6RcIUcs7yj8YgoCzuGagQ8pmZLKPUJ/UVBxf6B0jMY1Q/EY2xSVeyykTOgz6koieEiPsC6bH7Ba2w9IYT5f/NStq33aLwQKAoHwXZ4T7l8Q5RVEGYX5bBX2bxf9D4SrR6pFLMiFjXI4plVgO79lqNAxvqv57WoYVMsY34WorlF/RuP7E7UqEW8Yv3koSbFA1rl6HRVotECAeb5souei8T1ORCAK7GikDGM7vxMYKnjSw8S28lVE9BvRiNGILowpQ/KqB5Ut3/NRDRuIaP89j+eHCWxX2cfP/A7T/5iTmd9OLP6e0aaIDdtpUxBgeGqX2E62Y/y2kqYiWm6cAgGdgxvH0H7wS9aFb8HvBZa8Tnzmt55rwfXEaAsKfM7BUNcTacpvYDTaQEQiv1dYmNjNUR5THmr/iCf7+Z3m9y22id9HIh9jmzhmbabfrrWhs+H7SDFCznyuC/dfmDTxhWFPDlEERArgBxGJS1QGvg/3BtcRPw8fhm34XTwfqMHxxWIqltgqziWihMiK5L2NIp3vA/y8pOGHEfXAs0/kCsYzz3H4n6QfIgIlCAz8GSY6mfuLz5zDfcr9z3cJEcw8PxiRL4H09vRDpJzheIw+cAwRHPjKRGegmqdfpDvCX+OZCaIH9zNpM2ma2MZ3CIuRRt/PC8zA/8J1K7SxV7in5Btm4D2jLq0dAT1Ta8dHe4XAxiLAMybifGNR1PnFHoFMJM4Jd2cQSW5PwrhJt0PIODlQMVILMYhmkSWMQTVpiCCoIYzJkwoZQNg4xiCF/JGUG74WfBuEL6l3IHlJ2UO6IerAGMiyECzhrAxW8zIG+gwIGCwwUIYw5zwIAvJBRkKf0HMGKuTqxxigUDf1MeBh0VgGKJGQDio2J9hZ4JfyMcLdye/KIAtCnxyUQZ2YQ6CQT5KJAgYnGHUGJbe3nf7S/5izlf3DwoCGkG/I5PwM35xzCXcnDJlFhVnngDRN/I3RX3K5kicWkgRjMoKwdhaFI20UnxlIxYWIqTMo7nLC5iGYSMXEhMbQEOYOyQ4GkeiHYCD1EtcuGuHupEBgkMrgLaj3PIdm3A/xDj6RCIL4Z1AI2UG5XA/wiusUxPNyv4t8yI2IPmciAiLO17yqGzPpu2Zp2iIENi0C+u0qXLzx+0gPiY8E8YxPFg3fifSWUZSAn4R/CrmOz0J6IiZCOC/6RfHc+A65jM8X/VW249cxaUZal6RRHz4y/iL+WtLwR8lXHifbgmLefWREDkzCJNuNHwsBnzR8TtINxQkf9tE2hCxMDuGfxwksJv8g5OkTkwX4fZTPhBE+HH4kbYy+ZbKeTPs7XDcR55l2UdWfIkVAz1SRwq/KSwACPGMizkvAhS7pXcw04hynGnUOjj0EL+obVGsQweS1J1c8qh/U5ah+cOo5HgVzCIn3hXBR10BQ49yzQBGkK+Q4BC3OO4MAXjj3lBeVPRC21I/qJiq+IWZR5YSvk5xbjcV2GXSg7kHBzKCEHJaUx6AG0p7BA+Q3bWIbpDBKaNrFuQwyaA+EPmo/yoBEhlBncAU5DCEMucs5DL5Q96CMZ/BBnlP6jyKewRLKbPLrg00I2fXyQhoZx5E8+rQJFRJqQwZtqIRYwwC1dhxUxQ6CAwMxJhYw6oa8B0NwoHyuD5+ZEKAM2gE5zYQC/WGgCHGOghAVOXXTRhSTqAnBmXyuXDswZMDFQJTFfVFx0W9UmmCI0pxJBhRd9B0VOfWAE9toP+XQNq4XxzJo428UnbFNTBZ0Dup82oTyHWXY2kzkw9rQ0b5MQUDE+ZpXUsT5mphoS/ogoN+u9LlWamnmIRB80f8NGAq4e8F3luK8gDFVccUfAT1Txf8aqYXpjQDPmIjz9L6Gan0KCGQacZ7sssLdi2e4OxMEhJbHNAFcM4W7J+/cjf9bg6ONx1AlpIaAiPM1cRJxviYm2pI+CIg4T59rpZZmHgIi+TLvmqpHRYuAnqmixV+1Zz4CPGOlNlU3ST0Q0xfkrhNFaV6G0jUvI48cxFRuC4sZ5t7kn1Gefvnll3nuy2sjBBfK1bwsmf85uR+laF720ksv5bU535XhWfGdV24jfJCcl7kNpSjK1/Ux0mvkZaSMyMtQFudlKJWnhjDH3Eau6ry2r+0eCAsm5i7GP+d3D5CKRGZrpEkhP2J4rleDJuaIZSNK7mQeVFJ1oFBOGmlEkgrrJPmLkjmZI5bzyDObzBHLNtTWyRyxbCNsNaYG4TPtSLaVv5M5YjkmmdM0r3rq1q2bkyOW4xs1asRbjsV8lnEDfY05YtmGIp1XtCQ2bKNNpHBJtjMem8wRy7YkTuCX/Mx+2p+7Lq5HtOR1YhuK/5gjls+0IeaI5TMhw8kcsWyjzmTIMOr1aGxP4sl2Ig6SbWrQoIHfI/EcvQsBISAEhIAQEAJCQAgIASEgBISAEBACQqCkIrBqBaVC7P20adM8BQMLJZGqAaIL0vvII4/0lAjkRyYPMwsTki4hrELuKQxISwARTooCUkwcf/zxFlYk9wUESVVAfjwWEyL/8ZtvvumpEsjTO3z4cF9IhgVYWIyoT58+nneYMkgvQUqD3ORY7D4KURa1YZEnFouB1IIAJL1DWF3d89CROoHcwV26dPGUDyzQyCJVLEAIqRjbStoJiGUWt4HoZ1En8vGREoMyaSvth8hiIcOpgYBmYRxy/NFn8iTTVvIXk3+ZMiDjyAlIPj7IS/Im0zb6Sj5i8jjHHM6xT/GdyQDqJp0H2GGQiPSHRWxYDIq80/SDtBeHHHKI0TfqjMdD1HHdaDckO+eS3gJinfzTpI1gkoJ6yLVNrmRy95E+hL6RMoSUHFwzJiBI1RFxIq0I+QPBkLzbpLGA4OzQoYNPDNA2zqVNpMGgTaSqgDgk7YhMCAgBISAEhIAQEALFAYHcizXHNuE75eWz4NvgI+Y2fEd8nriAdNzPehT4knktInjDDTcYr9wWF73OvZ01LViLI7exwPR5552Xe7OnMsNHz103og/8++SEbTwZnxbfObflVzeiE/zN3Eaqttx5qjkGHxb/c9ddd819ij4LASEgBISAEBACQkAICIGNQmCTpGoht+6TTz7pJCvEeXLFcxYbJKcyDjWOdbSHH37YHXDIa4jWaOQLRqGOavqMM86Im538Ja0ZCmxWL48G+Q4ZP2bMGCdicw8+4nHxndzBkMcQzRDUhx56aNzl+YfJCwzJT37laJC81Avpm+wbpD05m1Gjc140Bi+xrckBFCvCx8UbIYnBCmNhGYh8CG1Wa49KVkjw8ePH+zYmD/Ia+MQ64zt9YxCGejU5SIv5qlFykxM52v333+8LFdJe8jVHI3oA/CHJIbrjApFMPDCAwcAdBSvG4pSkFUFVGxdF9B3hPyY7aBMkOPm6ozG5wERCvOZxO9eeHNP0Ib8IgHgs75mcqiXZT/0tBDY1Agp339SIq76iQECpWtZEXala1sRkwYIFvqg0BO77779vLMLM+hf4Mfh9+JVEDbGGBQQz2/GNIcAhivF/iN5ClMDiiggm8KOICmLhw1PCwtcIPPCn+IwPhLgAXxG/EF+UtTlYH4R1RhBWsJ+6IeBZsyNxRuuFAABAAElEQVSS0fiqTz/9tPtSnE/baOuJJ55oj4eIS/xZSG2EGUSL4S+OHj3a28Q6ISx2TXQh/jnrlNAuyqdf9IP1MXbYYQcXieC34iPjpyIU4fPAgQPdJ8T/Ayf6QpvAAz8c/xuflxfiGvxjhCmsw0GbEGeAE7495eIzE9XFOiDgGhcfX/Mqrdqi3678kNF2IVD4CITnffXQ2AKsUmn8ChBMFZU2COiZSptLpYamKQI8Y4WeqgVCFGIcghiFM440A4JoKMkhwllRPBpqEhxlBheQwSwQGK1Hjx6uxGal8mioj1FDM1iANE8qZHDSWbSPstZFmjNwIO0JAwtIXNJKJNOjMIChrclV1vkb553yGaQ88MADsVk+oEA1nkxZwUJ+pKMAFzA599xzc45HtY2ahgFBJM0nTpzoaWZQppMygkEBKm8MJTcDNc5JhTSH+AYfzmcwBTEdjQHZOeec49jGbQxgUJ7TViYAkil1WFSQhQcbN26cQ5qjOGdRRchyBkao9DkXQ+WPqpxryYKIGGQ85TLIYrDFoC2ZUod7hWuJmj4akysM1BhY0ea4OGPcr3chIASEgBAQAkJACGxqBCCT8VfwR/G18Dnx8Vi8G9+VdFn4avg6+DYQvfhdRObhD3Ie51MOggT8qyOOOMJ9Z4QKfIY0xofCB8bPwu/kWMqgTEhuBB+owQ866CD/TJkQyRDK+JJEJ9Im/FNIewQbpNLjMxGPtBmCn7IRr3A+fil1EwmIXx1FLUQ/dg4LShMJynu3bt3cb+QY9l1++eVeFm3abbfd/FyiBWOEJH4c/iF143fzjj+IX80EBLhRV8QRPxzfkfPpK5GNnE/qNNqOf7gu0nxT3xeqTwgIASEgBISAEBACQiC9ESh04hzHF1U5qpA5c+b4QAGHHSMFCephSPJIOEO0QqKjWiYFCsoaiGzOxVmGJGYAQbgroaIYDj4ONwpswlchynnHCJdlcMHnJAnuO8N/KGVQYaOCpr7rr7/eU7WQNgTFDIMJjHagkCHdCMoXDPK2V69eRhoa+klqGAYPlMPA6Pbbb/cBB31DdU/7GUigoEH9Q3toK0odDBU3AxNUO6RDwf766y8vkxBYSHQGY3EfSh36zAAJQj4vg1hHhUT7IJlRrqP8RrENLrzTRwhtBiy8owyi/aRHmTt3rveHtqJKhxjHuA4Mypi0iO1HDcSghmuHEh6FUiTCOY5ry6ALJRQ2NaSnIYc5hDrlMvhh8gIjxQ8qIpRIqN4xCH8GS/SBiQruHwZ08T7wg/RfRiHA85uX5ZePn3D3vIznLUZCJPfzvcC9mpflFerOcaj38jLUeXkZ4e55Gfd8XnXzrJOiKS9LRuUk9+dXd35rLPD85mVgRIopmRAQAkJACKw/AkTsQd7iR0GMk2IwGv4RfhgEc7R3333XiXL8MMQTye94hBl9+/b1NHYxeg8/k0hKUhvio/Hdj3+Jkf6O3xREDUmhw5VXXum+K23CT8PHjIbPyfGkH4xGm6LiG5FEck0ZBBj8LuMj489itIl2oPpmXQ5U4VE0AQYo1RkHJKNEEdRArkOSo6hHoR+NyQJ8Q1ITRsOHJAUM/nPPnj3dH4376Gv//v3dj0RwIRMCQkAICAEhIASEgBAQAgWJwCZJ1UKDcdghp6NSHCIX4hQVNQYpStgnqhFCRLFhw4blDDBwlocMGeLqEhx/CGWU6zjuccE8CNik0gQyGUc+phGBcGVwkswDzmfIJQhvVDAY2yDUYq5ECFrI5rhwIcQ4pDXEcVxEkYEIKu54Pm0nvzl9gYQmhQkLFcaF+Mj3HvvOOa+//rpjE/dDOKNOiv2BZKMuFEkYExGoklAgYRDNKL5RiCcNFT6pXsAh2qhRo3zAxWfIf64LgybqA2f6Qrgv6h2MPOSoeqLRVgZ+KJAw2sJkSEwhA5FO2yKelM81ghjHuO7gC37RmBSIiyPGtC6okzDIf9qEqgp1FIbyHnxTMaVqSQWl4nOMwt0LJ9yd6B7WRYjh7jw/PKcKdy8+975aUjwRUKqWNa+LUrWswgTfFlFFo0aNPFIQHw1xAEQvim0EE/hLRFwiosAv4hyU1ryTcgXiG58RYp0Xgg4W6X711Vdd3MDELwIT/Ki3337bleysTYOhPsf35XscEQdCEL7X8TcRRzAJi2AB/xkfG0U4/jO+eGwT6WEgumkTPiBtQpBAXZDXtB9yPIo02IeYhTrpL4u744sjdqBP+JP4sKjomQjGx8ZfbNmypa8NBLnPedRDm6Jvx0QAPjM4IVyhHiYhaC/HMU5g0gB/HZ8UYQc+Mj4pYgp8c9TzMWJz1RXK+3+laskbF20VApsCAaWV2BQoq46ShICeqZJ0tdXXokCAZ2yTEedF0UHVuQoBBm7hUpdYOEScp+elf+yxx5xQILScwX60uGBZv379Vkt1BDEAwcBkEcq9aHfccYfnwmfyiommqNxjsokBP4NylG9xAo7BOIN9BvG58+uT05+JNQb9yYkbIjXItx/bFutmkD958mT/iHIvGpEmhJ4zqUTKpajcY5KOfjBBRJ/jpB+RGJAiTPrlXt+BOphsQG0IoRANFSFKQyJZknWjmKd/TMQRRh+Nvp5++umuOKesVJR7Ih8ienrPZAREnK95dUWcr8IEoplc4RDdUWzBHkjvmKYPgQLfuzFdC4QwkYBMZkJyY6i8kwprlOYIISC9MVLf8Xesg98D/Lr424EggnribyWCBraRCiYav3cxVR4kM79ntInfAn5j6Ac5zmNUKIR3zIlOGfzmMhkQRRC0id/CKMxA9IBQJAo6+H2D7I79QtxBm4gcjMbvHap3jDaBE8p02sSEAjiR+5yoUow2Es0YRRSo3+kzExcYEwdMTiTXy/Eduf7Tb1cuQPRRCGxCBOAfCqu6MObNLqyyVa4QKK4I6JkqrldG7coUBHjGRJxnytVUP/JFQMR5vtAU2x2EuxMezgK7RD+Er6qcwTnRCpAShHOjgMMgHViTYNy4cU7+Eu7OgsPRII8hxlHIYajnIA3i4JqoCkjjGGWBMptjIJ6j8TdkNPuIjsA3j1EmKP5QvUGURMKZNkF8QwwQWp574V0WDWZ/sk2kmoGYgJynTRAIkTAgFJ02EeIejb8JgX88LOZGvaReiiH3ECvgRGRHbBMqSJR8EB6kpSIcPkmegxNtgtBJxUQ+pIKSjkl3BEScr3kFRZyviYm2pA8C+u1Kn2ullm4YAkRlM4mFICMKOPAn8QkRmJAeiYV+iXAhEhFRSYz4pkYmupjYI4Uf0SIIKhCgIC7BJ2fSkGgU/F984TiZlUpr4R9SOW5DjhFxviGo6Zx0R0DPVLpfQbW/uCPAM7Yq70Vxb6naJwSEQEYjQHg3SjJS8uCkQwhD+kL+EoJNaicUcRyHs8+ia6jZIK8ZAJBmiJyrhICToomcpxDsGOUQis56ACjSMdIXoRhHgceLsG+U2xh1MjCAiI8LGRPuDhEPOc4ggbagGoxtInVQo6B4I58tCvbYJtISUR7KPfLxx5zmtJHyaTMvjNB2FlCDcKdNkPqkAMBQiKPcox8MXDDKYnFd2sQaBLQHQ6XHgIZ0ASgD6QNtIpcsOFEWykBy0hKaT38wyiFVFOQ8Ay2ZEBACQkAICAEhIASEQPohgJCCCIw2bdp44/Gbie7Ab2bdASIVIcfxlflMNAj7WEcL/5K0m08++aST63GtBsqiHEh0UizhU+KXrg9pnn5IqsVCQAgIgQ1DgIlJovIY28fx/tpKgleIUXq5jyMVHZGIiPSIlI/vCOEwxv5wJny3x1TPfKbM+Dl3mfq8fghIcb5+eOnoNERAivPif9EU7q5w9/W9S6UqWl/EdPyGIiDF+ZrISXG+Jibakj4ISHGePtdKLd0wBIh2RCiBCOM///mPpzCC8EaggRgFAQnrZ8V1F0jjVK1aNd8GgQ6hjvgC0QUijvPPP98jN0lziJCDd9Tr7CO10uGHH55yQ6WOTRkqHSgEUkJAz1RKMG3SgxCpIVAjOp7JSFKzxsh2vjNvvfVWq1KlihPrfPeS6o7vW14x2pxoIb7HMbYhciMdLZHjpL0jchyxIWvGINQjmv722293sR6LtSMYJOKd3wEi1GME+iYFIkMq4xkTcV5AF/OZZ57JM73Bp59+6jdp5cqVV6uJRZRIyZDbUNTycMWFSON+tpUvX96aNGkSN+W833bbbXbZZZflfI5/JPNZxm28k2qCvJa5DWUBuSRzGw8+6lge7qTx0LKYKyF+SaMPOGmk0kga+TdR/eb10MZ8zMnj+RsVMLNquS2/vuU+js8izvNCRduEwMYjIPJh4zFUCcUfARHna14jEedrYqIt6YOAfrvS51qppRuGwMMPP+wpVLbffnt77rnnfLzGgr+oFolcbNq0qY/tIFYYxxHNedRRRzl5g4IclTkLDEOyE1XJ+gqkEfzss8+sbdu2rlZnvQFSKhL9uD4mkm990NKxQmDdCOiZWjdGm/oIvi9ZSJ3onyeeeMLXZ2FRdow0rSzyzmLmfLcS9QPxnTSIclK2olaHVL///vs9pRZR7axdBiHOdiKBWAMNowwU5nyGS6Revt9JMRtTzibr0N+pI8AzVib1w3VkbgS4cbmJMfIRk94B5SwzQCwWSMoEZo3IGUyoBOkjINgJbWNmiBQJkOGQ1czYkw6Cz+SZI9fx0UcfbbNnz/bcdBMnTvQZffLV4eyQd44UFORtDtfRFyYkDIOwDc5dunSpsTjUhAkTPPTumGOOsQceeMDJb1I6MDvFg8SChvSBvHY4TbSTtA4sXEi+Y/pEH6iXh5/t1Mu22AcIdUJHPv/8cw/1Y9aMF44UCgb6jwNG+gccMBbRIiUEOfPAo379+o4JXwKkuzjhhBN8QSi+DEjHAXGP+uHkk082FlUEP/qAWoLtnJebvM99rfRZCAgBISAEhIAQEAJCQAgIASGQ6QiwwD1jNUgXxoeMm8hFzrgJtTgpBBA6QbQwLmNshQ0bNsxTr5CqBeKHMSdj2yjcYrzF+DZaPC9+1rsQEAJCQAiYc1OkUUGwyvctynPSqBKxw/cx/B2G2BShLVxiTHvF9zTRQCyQjrEdjo5JTPgwBLlwhijXUbFzPOVtt912zt9RLxOlcHx8l/fq1cvXafPC9N8GIyDF+QZD978TySFHuBszRszOR4N4htQlXI68ctF4eHBkcDwg06NxU0NoM/uPOpvZIQzHpl+/fjkEeTweZwcCmtC7m266ya6++uq4yx9SHCYIbcj1aDyw++23n/Xt29fD7uJ28iAz21WnTh1XI8Ttl156qYd8kPsOJywaynFIbx7YpNKAPNUoEH799VdXNBASGA3inpk2HvjoaDErRl+ZcbvlllvsiiuuiId7OAq4sjgk2EZjUcULLrjAJwioa10mxfm6ENJ+IbBhCEi1t2G46az0QkCK8zWvlxTna2KiLemDgH670udaqaUbhgBr30B4jxs3zklvRE6ImshRjkGmMO4jfQBiLMRMSUO4xPgLS0YkkzoAQp1ULttuu62P1Ri/ro8FgmcVY7Q+J6V4bCCQslM8VIcJgYxBQM9U8byUcHUDBgywxx57zLlCyG6+T+H7mKSEdyNlC5wdIla+GhGOchwiWL7OrrrqKrv44ov9b/YhiiV9C2u18b2OkBe+DTIdwhylOmpzlO6UiWiVcvmMuFa2YQjwjGlx0A3DLucsFvkj6T8qbW5wFviLRj4hUrJA/kaDcGZmCcIZ0px0J9G42VFz83BF0pwHCZV1ly5dnPCGXI4+AbNKkMiPPPLIaqQ5YXOkYsERIkQDEjsa6m2IftoW7YMPPvD2UBdOEs5SNMI6UJYTmhcNopsUKjhgZ555pj3++ONxl6vF+/fv718KkTQHG/IqoSRv0aKFt5W6MB5y2suMGJMM0SiDBRv5QmCxyCSGlMGsHDNxMiEgBISAEBACQkAICAEhIASEgBAwVyYSlUuaT8aMU8NC9UQ5x8XlGWOheiRdQMeOHV3UhLgJUiZazLHL50qVKvlmFpWnDCKMGfNy/PHHHx9P0bsQEAJCQAgkEICrI+84AlHIa7g5skCQXiVG7pDamDRZfOfyvdqpUyfn0Y488kjjhcGVIZSFU9ttt92cJ+T7ncWct9pqK58cJaJo0KBBvvbEv/71L0/jfN5559lDDz1k1157rUjzxHXZ0D+VqmUDkHv++ec97A1SlweCGxLCnAeAhVQglEm3AjmMwhvCmBudmX9IbmZ/RowY4YQw6mtmnDp37myzZs1y0ppZIlTmqLNRrfOA4NAQpoGCnIeBBwC1Ns4MZDhkdlZWlodwnHrqqR6SwWwURDgLB9xwww2u8iZXOaQzCwZgENI4T4R+8ABSL22BrEaVQKoYyHxIcBwklOKQ9Tz4EO48sKSawZnii4DULkwO8AWBIoGQPoh1MCAXE3UxCYBK/d5773XMOBYFA/3heMqlDXfccYeHEDIxQbgJZfClAq7khYK0xyHki0gmBISAEBACQkAICAEhIASEgBAoyQgQjcz4Mj8766yzVttFHnReSUsq0OOaVYzzZEJACAgBIbBuBMjWsMsuu7iiHB4OgyOEc+vWrZunzCIVMqp01gyEh4P7g/eCf4siWj8x/EeUD7weXBh8I5wZQlbKjqJaeDp4P9JGk52BVNC8wxvKNh4BpWrZAAwhysknBJEbDcX0Oeec4x8hjElxwk3KLNCCBQs8dIJUKrVq1fJjCJVIphlB2Q05HdOhoNCGPI7KcGb3CdsgDx0GcQxhHutk4RfI52S6Fma4mMHCIMghqiGvUbvz8LFwDA8XRD7G/pg6BpIfBfjll19uW2+9tZP+pFG55JJLnBTneAhxnCkIewxlPI4XD3/8TAhK7CekOqqHmHaFvOeQ5DE9C0p81O69e/f28/mP1C8RZ75EmDRAdQ/+pLyh/bziYgs5Jyb+UKqWBBj6UwgUIAIKdy9AMFVUsUVAqVrWvDRK1bImJtqSPgjotyt9rpVamnkIEPJeWL0KBJJStRQWuCq32CKgZ6r4XRqyNSA+Jcc5/Fb37t0968Tw4cPtlFNOcfIchTjbH3zwQVemQ6yfdtppHtkDl0jmCES6fGWiPkd4Gnk3uDA+Q55j5E1nfUMyRcAZInKFfCc9NHUgVCW9lmzDEOAZE3G+YdjprDRCQMR5Gl0sNTWtEBD5kFaXS43dQAREnK8JnIjzNTHRlvRBQL9d6XOt1NLMQwD+obB6JeK8sJBVucUZAT1TxfPqIO7s2bNnTuNuv/12F9eyAVKcyKCXXnrJ15sgffE111yTk0mBOUCySEC8k3UCke3hhx/upDjnozyHcKdMjMwNEOcIZDk+mXqL/TGlC3/L1h8BnjER5+uPm85IMwREnKfZBVNz0wYBkQ9pc6nU0I1AQMT5muCJOF8TE21JHwT025U+10otzTwERPJl3jVVj4oWAT1TRYu/as98BHjGSmV+N9VDISAEhIAQEAJCQAgIASEgBISAEBACQkAICAEhIASEgBAQAqkjIOI8dax0pBAQAkJACAgBISAEhIAQEAJCQAgIASEgBISAEBACQkAIlAAERJyXgIusLgoBISAEhIAQEAJCQAgIASEgBISAEBACQkAICAEhIASEQOoIiDhPHSsdKQSEgBAQAkJACAgBISAEhIAQEAJCIC0R+OOPP9Ky3Wq0EBACQkAICIGiQqBMUVWseoWAEBACQkAICAEhIASEgBAQAkJACAiBvBEYM2aMTZ482ZYuXWqbb765ZWdn21FHHWVPPfWUnXjiiTknPfPMM3b88cfbsGHDrG3btn5OixYtcvZ/8803NnfuXFu0aJGVLl3aqlSpYh06dPD9ixcvtsGDB1u5cuVyji9VqpTX16lTJ1uwYIG99dZblpWVlbM/rJVmv/32m9eZs1F/CAEhIASEgBDIQAREnGfgRVWXhIAQEAJCQAgIASEgBIRAYSAAcQdpJitaBFAOz5kzx+rWrVu0DVHthYpA69atjddrr71mhx56qNe1ZMkSO+GEE3LqnTJliu29997+ecWKFQbp/cMPP9hOO+2U86z+8ssv1q5dO+O+Yf/IkSNzzuePLl26WNWqVVfbNnz4cP+8cuVK37f11ltb2bJl7c8///RyIeNlQkAICAEhIAQyHQER55l+hdU/ISAEhIAQEAJCQAgIASGQBwIQY99//73NmDHDSbUtt9zSUKl+++239tFHHznBBtF23HHHueq0du3ahjq1f//+rjR96KGHrE6dOnbmmWe6ijWPKtbY9MUXX7jq9fXXX7dLL73Uz48HPf74404ANmzY0G655Ra74oor7IMPPrBff/3Vy4fAgxg88sgjrUyZMta3b1+rWLGin07bDjzwwFhUxr6jGIYwr1GjhtFnWclBANX5119/bbvssou9+OKLrhDfa6+9bNq0ada5c2cHolu3bvbyyy9bzZo17f3337euXbs6WR4nvCDNmfjiPRpK86+++sqfse+++86aNGnif3MOxr1GOSjVUabzN4YSXiYEhIAQEAJCINMREHGe6VdY/RMCQkAICAEhIASEgBAQAnkgAPE6fvx4q1evnl177bVOyDVq1MjOP/98Gzp0qJUvX95J8p9//tnTPPTu3dveeecdg/xu2bKlzZ492xWoEGqpGoT5McccY1dffbXde++9rqaF8IaM/+yzz2zChAm+bdy4cZ4Kon379vbXX3/Z9ddf722EMOeFQf7tsMMOTuiVBBJv4sSJPtHQuHHjVOHWcWmOAJNaTG7xDEBkx3e6hQKdz/Xr17cPP/zQFi5caBUqVLDOgUTnGWUCiskmCHTI8alTp/rxnItqPdqsWbOsVq1a/jwxSbXFFlv4M0YqFgxF+/Tp051wnz9/vn366afelt9//z0WoXchIASEgBAQAhmLwP+mmjO2i+qYEBACQqB4IhCVPMWzdWqVEBACQkAIZDoCn3/+uedDhlzbddddPYfxIYcc4opmVKXkRG7WrJm/Onbs6MpTyHLIteXLl/tnCLX1sRtuuMGo98orr3TynPog3s8991wn7i+++GJXwPfo0cOqVavmBB6kX/JFfbSjcuXKBukHsY8SPtMNJTC4//jjj7Zs2bJM7676FxAgFQ+q8uTkVFSNAxB/Q57vvvvunm6ladOm/lyyr0GDBn4eucwhv4lUgIifOXOm50wfNGgQh/kEGc8XRDn3WHzWfGf4j4marbbaygl11Ooo0Lfddlsn7OMxehcCQkAICAEhkKkISHGeqVdW/RICQmCTIlDcwt0fe+wxH0Ap3H2T3gaqTAgIASGQVghMmjTJVaikaYBYI3VKv379bJ999vEcyKjRUan+/e9/t0cffdS23357J98g6iDZmABmwcL1MdKvQLrxQnkOQX/WWWd5ahZyJpND+YADDrB15U+G1IcQpA/kZ37hhRfWpxlpeSxKe5TB4I7ylxepcmQlBwGI63fffXc1Ip3IEO4J0hYxKQVhnrRKlSoZkSSkXeK522abbXJ2cx7PMoQ7qnXSIMU0Lsm1DJis2W233fzZZKLt448/9rROTOCgcpcJASEgBISAEMhUBEScZ+qVVb+EgBDYpAgkw92vueYaV+4xSCnKcHdy1LKglMLdN+mtoMqEgBAQAmmDAHmQUZ926tTJSTUItaOOOsrJN0halK6kf2jVqpXddNNNrnY++uijXX0K4c0Cgyhiyb0cc42vq/Nt2rSx/fbbzwlyzjnvvPP8FH47+/Tp4/nSn3zySWMxQwyCHAIPgg6lO6RelSpVfLFC1LOo0iESeS8pFlW/JaW/JbmfY8eONVKicO+TIoUIC55L/o6GGnz06NFOjuP3sT5BboPs3nPPPW3evHmehonPTMKQcomymCDr3r37aqldePajcR751WOqGN6pd9iwYX5ePE7vQkAICAEhIAQyDQER55l2RdUfISAEigSBGO5OTkkUOQzqk+Hur776ak64O/lYCXMtiHB3yIURI0bYfffdl5PzlXB3FkyD3Hj66acthrtHYGIIbswRmwx3ZyBUEsLdIxZ6FwJCQAiUZAROOukku/zyy+2iiy5y1Xck41h8kN8V9pM6BbKO3wzUquQ+R2WOqvXEE0+0HXfcMWXSHKxRiKN8hQCHvMOY6I2/Y5dccondcccdBmG4YMECX4wQFTqpYojuQiG7xx57+AKIKOAh+1hAlBckPsS8TAhkCgI77bST3/OkYuHex3gWDz744Jwuovhu3ry5T0ZlZWV5ShXIdp6baPimTJJtt912nvuc7fh7TMIcdthhrhqP6WCIOMGYEIvGNnKfR2NiC6V7u3bt4ia9CwEhIASEgBDISAQ2m7dw4apf4HV0Lys4yGXWY+GfdRSn3UJgkyGwMhCBC/JZvKZmVtZmhdWQVJ6tGoFclWUGAr169fKckMlwd5R4ucPdb731Vg93J7frwIEDbdSoUU5MsOAXeUvvvPPOlAGJ4e6EahMymwx3RxVE6DqqJMLdCb2NllxgjW2E4jPoSoa7Q4asy+YvWmRr+wEpzOcrDB7XVvW6mq79QiBlBMJ3uRMLKZ+wCQ4szGdLv12b4AKqiiJFQL9dRQq/Ki/hCASivtDGXvINS/jNVUK7r2eqhF54dXuTIcAzJsX5JoNbFQkBIZDJCCTD3VesWOH5I4tzuDshtyiLSnq4eybfk+qbEBACQkAICAEhIASEgBAQAkJACAgBIbDhCJTa8FN1phAQAkJACEQECGeHjEbZ/eKLL3oOSPYR7v7zzz97SO3777/vylVCbAltRymeDHf/xz/+sd7h7m+88YaRBiaGu6Ncp5xp06YZ4e60a999980JdyfEnnB3FoDib9K00F5yZxL6Togv6WZ4yYSAEBACQkAICAEhIASEgBAQAkJACAgBIVBSEVCqlhJ45clJR0qIwYMHO5nHoi7HHnusE2eLQuqF6dOnW/Xq1Z2II68eOY9R0H722We28847e95JcibnXrE9PyjJqABBSDmPPPKI59KMx5Ljkn2oXjmO+llohjbymWg+3smhR05oVn1nAShyNEMUHnTQQetcyV2pWiLaehcCBYuAwt0LFk+VVjwRUKqWNa+L0oytiYm2pA8C+u1Kn2ullmYeAkorkXnXVD0qWgT0TBUt/qo98xHgGVOqlsy/zmv0kMViZsyY4auok2d5yZIlVrlyZVebolIlfcOZZ57pK683bdrU38m7jGoWwpyFo1DR1q9fP6W8r3/++aedf/75dtVVVznRfcEFFxh5niHJIcEh8akTcpwcy+RfJt8yStwHHnjA6wz3qveD9kGsszgVBD8qWRaCkgkBISAEhIAQEAJCQAgIASEgBISAEBACQkAICAEhIAQKCgGlaikoJNOonCeeeMLTMfzwww+23377OUnN+5gxY6xJkyY2fPhwY+V2/j788MM9VzOrsM+dO9dV49dee63df//9KZHmwMKK7v3797dnnnnGBgwYYPfcc4+hNN9yyy09jQQruU+dOtUaN26cQ8ZXq1bNVeUQ+rwqVarkCKM+ZwX4sWPHeoqJn376KY2QV1OFgBAQAkIgUxFgtdqNfWUqNuqXEBACQkAICAEhIASEgBAQAkIgHRGQ4jwdr9pGthnFOLmYIcIhrLt37+5EOET6008/7elQvvnmG+vZs6erxE8//XRr06aNTZgwwRXeqMFJu5KqoW5HYc7iiaNHj7a//e1vduqpp1qrVq3srrvusmXLlhmLKA4aNMjrXlu55F3m3IEDB9rRRx9t1113nZP8aztH+4SAEBACQkAIFCYCVUKEVNkQObWxtiJMKi8Ov4kyISAEhEASgUVLl4TUhckt+lsIFA8EQlJNq7L5KoFT8WiRWiEEhIAQEAJCoGAREHFesHimRWkQ1ii4DzzwQFeX16tXz8466yx75ZVXPB0L+c0hsyHLSc3y1ltv2Y033ujENupvyGoWQIQ8L1Vq3UELpIZhsULSq5AW5rXXXvPFCkm/Qrmo2bfeemvPnf7ggw+uhiFq9aSxqCI2Z84cf0eBLhMCQkAICAEhUFQIZFWsaGUKgDSn/eXCb97m4X2JyPOiupyqVwgUSwSqVOSbQSYEhIAQEAJCQAgIASGwqREQcb6pES8G9ZF+5bHHHnOynBQtd999t7dqt912s8cff9z69Onji4WiDif3+P777+/ba9Wq5eru5s2be4qVVEhzCuY4UrtA0JOipWHDhp7mhW2ff/65kQOdhT9ffPFFO/fcc40c6EOHDvW6IcbJc87ipCjfP/roI2PB0tNOO80XGaVNMiEgBISAEBACRYVAqQIizWP7C0K5HsvSe3oj8NVXX+VE4rEoetu2bdeaJo8F1DkHQ2iwxx57rPX4JDqIId5++20XVSS3F8bfrFETF35HXIGQAt+QaMcdd9xxjSpZEwf/kbVvfvzxR/cJWd+GSMZopPDDP4wCi7hd70JACAgBISAEhIAQEAJCYGMQ2GzewoUpSXazgrNaUIqqjWmwzi0YBCCiUXMzWEkqxxmYQJZDdjOoiYtyUms8buXKlX5Mqi3Jr5y8zs99bO5jcu9PpS0rw2BwQRiY5WU1s7JWrTqa186N3JbKs1WjSpWNrEWnC4GiQ2B+IDPW9gNSmM9X+C5YW9VFB4pqzjgEwnf5ar+FuTtYLURilfrvAta5923I57X9ZsXyCvPZ0m9XRLno308++WRfMB1fh/VhevXq5cQwgoZ33nnHIwAhmj/88ENj/RrS7e29994uSBg1apQdcsghvo4Nqe26dOnixDNl7rnnnvbGG294ROHkyZNt5MiR1qFDBxs8eLCNGDHCt7PuzdVXX22sQ8Px3bp1s+22285Y54b1ZVizhoXjWbCdY++7776UAFu6dKlHO0JyZ2VleZ2sqdOgQQPvH+3E35w4caIh1KAPRC2yyDzp/fBPDz30UN/HIvXY7NmzLfY3lUbotysVlHSMECgcBMLYstDGXvINC+eaqdTijYCeqeJ9fdS69EeAZ0yK8/S/jhvUA5RL0ZLK8WRqlNx+TTwOYn19LL9y8ioj97G5j8m9f33bkrs8fRYCQkAICAEhIASEQHFEAIU1qewgzonMwxA+kGqP1He//vqrR+NBlmP4SPfee68Tz6xLA+mMtWvXzs455xy74YYb/DPp9iCwScnHO+XXqVPHSfFHHnnEldxnnnmmLQyTRtdcc43tuuuu1rt3b0/nd8cdd7h4AuIechtynVR/CC+SPqRXlMd/zHk2bdrUSf4WLVr4RADRh6QRZBIA4pxIRNTn0VdFWd6sWTMn/iHV6RtRktH69u3r697Ez3oXAkJACAgBISAEhIAQEAIFhYCI84JCUuUIASFQbBHY1OHurAtw0EEHFToeCncvdIhVgRAQAkKgyBCYNWuWvfvuu06Ef/vtt662hjiGoEbpzYs0dyywjkGcQ4pDPEOER0NkACEOcc75fEatXbt2bWvcuLErxv/+9797Gj4WX4cIj6nwHn30US8PpTnqc8hsXtOmTctJr4cafn2MdkL6L1iwwAn3KIJgooAF6Pv16+d9LV++vBfLsbfffruT7KzBw8L2UUjBZ9TyQ4YMMYh4mRAQAkJACAgBISAEhIAQKEgE1r2yY0HWprKEgBAQAkWAAANucuxDEjz11FM2f/58V9K1b9/eyJ160UUX2cMPP2yEsGNvvvmmETpOzlVC0pcvX+7bCXcnNz8h8Rjh6/PmzbMnn3zSCYl9993XVXm33HKL74dAv+mmm/xvCIfbbrvNyMNKTteLL77YFXKo/TiG+s877zw/NpX/OO/rr7928gCi4YsvvvBcuPSNRXZZhBfyg7a8/vrrXuRVV13lC+vSX1SJLMxLOdEId4cMUY7YiIjehYAQEAJFhwC/QajLDz74YFeHQ3onDTId0rx///45m4kOhFRmQXaU5NiFF17oqnHWsGF/zHSFevzf//63saYNv0/8nkHEx/2cC4nN7wLpYHbZZRcnvFGI8xtJDnV+Y1ifZn2M9kG+85sc28j5bOf3kfby20S9WNeuXe3SSy/1tXmYMOa3N2KBEn6fffbxVDLPPfecH6//hIAQEAJCQAgIASEgBIRAQSEgxXlBIalyhIAQKLYIKNx9VWqmZLg7xIjC3YvtLauGCQEhIAQ8bzdKb76vUZ6fffbZhgp79913d3Quv/xyz3NOvnCMSU/U2EcccYR/vv766z1v+M033+xEM+ldsJjmhPOxX375xcu57rrr/DOTshjHQ7ZT7owZMzyVC2VBel9yySU+kQzZjjqdFDJsX5dxDH3p2bOnt6lz585eDueR7mXcuHE5OdVJTwOxPmfOHC8WZTtKedLXLF682B566CEn2ZkMIM3Lzz//7BPFMUXNutqi/UJACAgBISAEhIAQEAJCYF0IiDhfF0LaLwSEQNojsKnD3U888URX7SncPe1vHXVACAgBIVBkCAwbNsyJchpwQ0izAkHMa6+99vI2ETXFKxpRUZFkZtuVV17pu+J7PI7UJkmj7KRFIp5JZ3KYJy1ZFnnT19cg4SH2K1Wq5H3hfNLEYKeccoor2jmmY8eOvo3/Tj/9dP+bxUFJ71K1alX/HIl//xD+6969e/xT70JACAgBISAEhIAQEAJCoEAQyHjifPDgwTZp0qScXIgFgloJLIR8mt26dfPUFSWw++pymiMQw93pxvjx43NCvGO3CHcnTJ1w97POOss3Q07kFe6OGg4FHulOYjg74e6kc4nh7uRjJdydMqIR7v7CCy+4oi6GuxNyHsPdW7Zs6eHuHJeqJcPdkzlfk+HuqBWT4e6HHnqoTZkyxS677DI79thjc7Ag3J0XKW0Idz/uuONSbYaOEwJCQAgIgUJAIOb4pmjI5FQs5ibnWNJ4pWJbbrllKocV2DFbbLHFamVBokeLi6DGz7nfI2mee7s+CwEhIASEgBAQAkJACAiBwkAgNS+8MGreBGUSqjl58uSUQkc3QXPSvgryRBOiG0OA075D6kCJQWDUqFEeYq5wd4W7l5ibXh0VAkJACAgBISAEhMB6IMDaASwuTNok0vntuuuuq539/vvvW5cuXTw1EwvzIsTYeeedVztGH4SAEBACQkAIZBoCm81buDA7lU5lhXDNMqVLp3JosTiGBQBRhaK8TCcjl2Nc8Ii2R4URf0P68R7/5jPHJhdWQhmORaVrsiyOj9s5hn04RpwTy8zrXM7hXF7klESduz5GPSzAiBH2i8q2UaNG/pmJDRS3uQ31LufRLsJyMRRKpRP34HfffWfbbbdd7lPX+LwylLMgLDaVl9XMyiq0GySVZ6tGlSp5NUvbChgB7qeo3GNAwD2dfBbyqo5w96jcY3CQinKPxTU3pXJv7ty5hjov9oVF1aJyD9V79erV/RnKq3/JcPe89qeybX54rtf2A1KYz1f4Plpb1ak0X8cIgZQQCN/l+T5HFFCtcmUrFX6rCsrW9psV6yjMZ0u/XRFlvWcqAvrtytQrq35tLAIsVt+6dWsvhjUOqoRxChHHuFwQ6UOHDrVWrVrliNJGjhxp//jHP3wsmWrdYWxXcD+YuSqVb5gLEH0sEQjomSoRl1mdLEIEeMb+l0egCBtSGFW//vrrax3oFkadG1sm5NcPP/zgJDNEM6kXII95seARfgZkHmkXeOczxBmODYQZiztFAu2nn36yH3/80dNH4Oywj+PJ9cwCT+ybOXOmcRzkPOUtXbrUHSPaEFM7QMrTjlg/7cJB+vDDD1Pu7ogRI+ydd96xIUOGeL2PPvqol0ndLFz1zTffeH033nijnX/++TZ//nxjAahnn33W0108/PDDduutt65WH44aC1HJhEAqCETSnGO53+NzsrZzI2nOMamQ5hy3KUlz6mMyKdmXSJqzD0KdZz4/U7h7fshouxAQAkJACAgBISAESh4CrGmAwIkFiBFXNWvWzD744AP3NfExEVuxOO+XX35pCJgYiyVFTSUPMfVYCAgBISAESgICGZuqJV3FiOXKlbOaNWs6gY1Kln7wggBD7Q1BjsoaZSuEGdtRw3IMDg7GtooVKzqJhzocRTflQozH3JGQ5xCDlDdv3jw/F5Kcz/Xr13dyEbKcsrfffvsc1TefyQV95JFHrrZw07oelsMPP9zJcFSul1xyid1yyy12xhlnuAMW1bxt27a14cOHe4gg6WBoN2T72LFjXUWbdMwg1p9//vl1Vav9QkAICAEhIASEgBAotgh8s2C+vTn9R1sZ/LhMsdbVt7D96jbIlO6oH0KgxCCAkIo1bu6++25jXAZZ3rlzZx9nItZASFK3bl0fizKWhERPCjhKDFDqqBAQAkJACJQoBDJWcZ6uVxFyG7U3r99++y1HMYpKtnIIB4cAJ58c5HpMZYIDU6dOHU/LEPtNmgaU6CgFINU5H2cnEvG8Q5QnyXQUqKRSQWHOfpwh0lrwol7K45yvvvrK3nrrrVhVSu8oElApbLPNNk76U17jxo0tKyvLateu7ftYdBG1OftQqD/99NPujOGo0a5oKB8uvfRSX4gxbtO7EBACQkAICAEhIATSCYG5y5fZs1O/txUhshDiPFNeo+fNtpFzfkmnS6G2CgEhEBAgypdx3j777ONjr5dfftnuvfdeH48OHjzYI5XfeOMN22mnnXx8iOBKJgSEgBAQAkIg0xEQcV7MrjAEccOGDf1FfmII7KShQmc/xDjKcvajPkchgPMCmc42CHPSuKBSj8bxC0OuVtKtQGRzPGQ4r2ioBpo2beqLqkKYx7QWMUc0KnDy20Fsr4/RJsh92g75Ho36XnrpJSfpaTO59CDwmzdv7kr3Nm3aeF8g1zHaBHG+22672ZtvvhmL0bsQEAJCQAgIASEgBNIKgYV/rLDyibVb0qrxa2ks/ubkxQvXcoR2CQEhUBwRqFevni/22aJFCxc4tW/f3lN00laihxE9ERXMeA2hFap0mRAQAkJACAiBTEcgY1O1pOuFg8Qm/zgG6R1zJsc0JYTMsaAm6u248B/vENCQ0yi2+Txx4kQn1iHKIaTjftKzQIaTHmWrrbbydC2cF8unfkLvGPTwjkJ80qRJvh9niXJZUR01OIvFUO66jLIgvDt27OjEfqNGjfyd86jvxBNP9CJoA2pz0ss0aNDA+w5JTg49DAX+zTffnJPv/JprrrEePXrYI4884u31g/RfiUVA4e4l9tKr40JACAiBtESAVSiQR+S/GkVadssbXZB9Yk2egQMH2rHHHutii0MPPdT9V3xGfNK4HhCiC9INyoSAENgwBIh4fu2113xMSVRyhw4dvCDGggMGDPDxYK9evWzbbbe16667zp/Lli1bahy2YXDrLCEgBISAEEgTBDabt3Dh6pLmfBqeFZTQZdJIFXP00Uf7Qpv5dKfYboZgjgsZkrMc0jm+ILgxyGoGCdFijnA+R5U450SL58XP7Ivn5N7HMfHcuC9ZH+WTh5wUK+tjkOHkSscol4VnGNwwOQDZD1EeDTI9pmaB+EehHtX3sW3xWN4pL6/t8ZiVAasF+YQS1szK+h9Q8YQCek/l2aoRFBuyjUeAcPe7vv3KKqTRd1Qqvf4r3Ntda9ez9rVWRVykcs6mPGZ+iF5Z2w9IYT5f4blfW9WbEgbVleEIhO/ytf7GVAtp1EolfnM3Fo61/WbFsgvz2dJvV0S58N9/CKrsJ0OqlnVLEAq/LQVZA1/OjSpVtpO2aVogxSIoGTNmjO2///42aNAg69SpkyteiZ6cMGGCtWrVyp/RZ555xo4//vh11qnfrnVCpAOEQKEhEMZshTb2km9YaJdNBRdjBPRMFeOLo6ZlBAI8Y1KcF7NLiRo8pjJJqrmTHFGSNKf55C6PxvlY8vi4L76zD3I+v2Nyb0/Wxz7I8/W1SJpzHv5SVASRt51X0iJpzrYkQc95eVl+2/M6VtsyE4FMD3cvrsR5Zt5N6pUQEAJCQAgUJwTwGUkZSGpC1Oe9e/f2heqJVCQCMi4sTySlTAgIASEgBISAEBACQkAIFCQCIs4LEk2VJQSEQJEgwJQKCre8p1aKpEkFVmlB9knh7gV2WVSQEBACQmDTIxB+6MqUL2t/rvhjveouFQhmhA/ZiWjFtRVQJogrVgY1d1JIQRkIFVZugHhibXWtax9ikgcffDBn7R/EFV26dPH0fQgviFgkbQSiDtbwkQkBISAEhIAQEAJCQAgIgYJEINOiQwsSG5UlBISAEMgoBAhr33rrra1atWpONrC4E+sloOSrUaOGde3a1dcuQL0nEwJCQAgIgaJFgMjDcptXDGR5eW9I6XJl7Z7DjgnbNs9pGPsgtZPGtgqBVN6MdWgCYT7qmeds3Btv5RzH9rIVQplhX9Iol313H3SEzZ48xXdN/XyMLV2w0Ma/N9SeOOcfVq5ixXDu/yIdk+cXxt+oyvfaay874IADPI0faQxJ98eaP0REkqaFNXRI40J6P5kQEAJCQAgIASEgBISAEChIBEScFySaKksICAEhUIwRINydxdOS4e40N4a733vvvXbnnXeupjIsxt1R04SAEBACGY3A0kWL7cqmLey2Lt1tyL39bOLwD21OILTn/jDVfpn0nW1etar1OfBQm/HN+P/hEFThb91yu13dfGd7rMeZNnrgS65QH9r/ISsdJkpnTpxkS8LaMv/ao5OVq1wp57y/gmL72p3a2FfvvGsVq1axZYsXOYleKUy03rHfQfbsPy+1aWPG2V0HHW7/areXLV24IOfcwv4jpgh84IEHXG1OSpZZs2Z52sGXX37ZFixY4JPATA7LhIAQEAJCQAgIASEgBIRAQSKgVC0FiabKEgJCQAgUUwQU7l5ML4yaJQSEgBDIB4HygdjuNXa0zQlE+Q+jP7NvBg2xtscebVXr1LYVYSH1y7fb0f4MEUMVsqq4wnzZf1OV7N/zItv7nDNs2tgvbepnn9v8GTPtgMsu8UnRL1553T4LZHqd7Zt6erMy5coFYn2FlQqk+qVD3rIRjz5hPwaV+XMXX251mjW1PU44zq7/9CNbGsr+1x572cH33R1am20VqqzfIvH5dDGlzS1atPDj+vXr5+liIM7j+j633367xfV9LrzwwpTK00FCQAgIASEgBISAEBACQiBVBKQ4TxWpTXgcOSWXhAGRTAgIASFQUAgo3L2gkFQ5QkAICIFNhEDwByd+OMI+fvIZWzR7jtVq0tg6nHqS5yqv1Xgbu2bUqrRafQ44zG5q39nKh/QsGH7kkHv62aThIwxifNs92lrTju2dZD/kuqtsv0v/adO/mWCXNd7BBvW5JyjLw2oa4RzSuxx0zRXWtHNH63R6D9thny6eFuazF1+xx8841+t97YZ/2Y9fjHP1+iZCwUhZg8XF4CNpzjbSjcXtfJYJASEgBISAEBACQkAICIGCREDEeUGiWQBl4fy3a9fOPvnkEzvmmGNs8eLFSptQALiqCCEgBMwXTwMHhbvrbhACQkAIFH8EUJy/ePk1VmXLWlaxWhWb/vV4e63XTZ73PLDFNmvid96JHo/0t7OfHeAqdDYsnjfPvh402CrVqOb50V/v/X82Z8oPfmzZkCf9h0+/COlYsqz3V5/bXqefGgjxVbnOOe/q7VsFlfoXtmD2bGvRfV9r2Hpne/WG3rZ/UKxf+MbL9vtvv9k2u7UxUrvIhIAQSC8Ekgv+Jv/Oqxcbuz+vMrVNCAgBISAEhEA6IiDivJhdtd9//9169uxpLNoHgf71118boafrcl6KWTc2qjn0lQWfRo4c6eUMGzbMYt7KRSFUeMyYMTZ27FjHZqMq0slCoIQhkAx3b9iwoe27776+SCgwEO5er149R0Th7iXsxlB3hYAQKH4IBGJ88shRtjIshtn94gts4rAR1vXcs4Lae0xo62b22/QZ1v/EU7zdwx993KrUqrXKVwzn/fDpZ4EYr2oHXNHTRj7xpO3+t2Ptx5CfvEz5cvbKdb1t0oiR9vuv823ej9OsdFCkR6tWt671+vJTq910O/t26Ad2S6d9Q0qWKvbXypW2eO4ce+r8i8L7XKtWr248Re9CQAgUcwSmTJnigixEWf/5z39s6tSpPs569dVXveWItNjHi7HXxx9/7NvfeOON1Xr2008/2Y8//ujbJk6caAMHDrTJkyevdow+CAEhIASEgBDIRAREnBezq8rCfZtvvrk7NQ8++KDtt99+VrFiRSfSi1lTC605pKlhwgBnjBcO3LRp07y+9957z+rUqWM1atSwmTNnGnmbZUJACKSGgMLdU8NJRwkBISAEihqBkDzFlv6+2NOo/Gv3vWxKIMNnfQ9JtZmnbYHwvvC1l5wgR01eLviKGOdN/vgTmxUWD71t7+5Wtlx5q99iJ/vsxZdDLvQs237vvWyf88+xpnt1sKEPPGRly5cnB4rND0T8q9f3tk+ff8k2r1bdDrrqMvvXN2NsaVh4s83hh9p79/W3C14fGAj6LaxchVV1eYX6TwgIgWKNAGsC8Npyyy2tVatWNnr0aPvyyy8Nsda4ceN8nMnYiv0IKKZPn+7bESuNGjXK+8ZYbMKECQZhzjmMw/Apq4YJOpkQEAJCQAgIgUxHQMR5MbrCqKr/7//+z3r16mWPPPKInX766TZr1izr3bu3p2wpRk0t1KZUqlTJc7zPmTPHCXScuag+x0l7/vnnXTHx/vvv5+S9LNQGqXAhIASEgBAQAkJACGxCBIi+a9ahvZPeBwYS+6S+d9nkUaNDHvNKdvNeXW1YIL2r168bcpiXtSNvutHeub2Pt47zjr7tZv/7mPC+15mn2dg33gw5zb+xG3fdM3DkpezPP1ZYywP2c3J9xdKlTp6/cm0vqx6U5D9+8UXIjf6hvRqU6R/0f9iWBzFD90v+abUaNbTrW7W1RXPm2oLgm8qEgBBIDwTmz59vqMV5Z2yVFSbQGjdubH+EaJYddtjB1wggmpdoX8adpA1t0qSJd27HHXf0d85hO98vNWvWtOHDh9uuu+5qCJpkQkAICAEhIAQyHQER58XsCg8ePNhD5V5++WXr1KmTVQ4LNZVLhNEWs+YWSnNQNDz33HP2yy+/GAtAffXVV67Cx1nDDjjgANt7771t9913L1EpbAoFbBUqBISAEBACQkAIFEsEILLq7bSjzf95ui1ZsNAmhYVCz35mgNXcuoHtfvyxnkIF36h5WMRzxoRvfSFPOvLn8uWuIq9Wt7ZNGf2pk+TN9trLuoRULzUbbu05zTnm+LvvdAKec2o0qG91m2/vpPueJ51gO3brGlK+fG7PX3pFSOdSxk68724Os0uHvGW1tmnEnzIhIATSAAGU4+VDZAmkOWKk5eHZnzRpkrFoPK/fwroFCJNI6VK/fn1Pj/nzzz/7GItzMQj0Zs2a+Ytj+G6CiNfCvGlwA6iJQkAICAEhsNEIiDjfaAg3voBICEOQP/zww+6o4MgQHrf//vu7c7LxtaRPCagfcMpat27tDh0tx0GLzhmhhcuWLfMOLQghxDIhIASEgBAQAkJACGQcAoEUb7RLm7BY5+e2JJBU//zPKzYt5CovG9Ky1NuxuftFKMjJg35y//tsRfCPsOyQxi4rpFSZN3WaNdmjre188IH22y8zXVGeFdIxkOu8dJkyVr1BPVeTQ6LvfMiB9umLr+Qs+lmrSWM76YF7rcejD9o9Bx9ptwSVe6ngm/4+71dXofO3TAgIgeKPAKQ44yZIc9Jc/hkW9mWchYp80KBBPsYi6rlp06b2/fff+9iLNKGkbhk/frwr08mHzvpSpHj5IkSlsH9piFZB4CQTAkJACAgBIZDpCIg4L8IrDGG+zTbb2HHHHWe1/ruoE4Q5Bol+2223GTP+JdHIc969e3f7/PPPbdttt80h0MECshxSHdU5KW1kQkAICAEhIASEgBDINAQ2C4TXZuEfSvMZIRqvd9sO9u5dd9uJIW3L8v+S5JBigSq3PxAUhFQK2MKgLK0eiLHB9/S1T557wa5u3srqB+V6491382ODQsM2+6+/yXn4ow3btLYpITf6S1dfF3KhV7ZlwddaGcg0SPVrP/nQiXkWCX3mB+QmNQAAQABJREFUwku9HZNHfeJ16T8hIASKNwJVwgK/ZcJE2a+//upjKr4zateu7RNve4VIFNbWYs0ocpujKufYumGhYMj0Dh06+PcDY7E2bdp4jvSWLVvazjvv7MeTrkUmBISAEBACQiDTESiT6R0szv1jtp8Vyd99913r2bOnp2ZBTR2NBTFZvXzVoChuLRnvF110kS+Ietlll7kzFxcBPeSQQ5w4BwUWpLnwwgtLBiDqpRAQAkJACAgBIVCiEPhr5Z/2wUOPBKV3mZBuZX/r2ONUa7jLzoHUXugkOQnsIL1nTfreqoX85NkhOg/yfNTTz9nm1avZlJAT/YwnH7U6O2zPgUGZ/qeTZeEgW7Zwkf0WFgQlrzlloCA/ts9t9vVb71qdZk1DrvOxOVgvW7Q4qNPr++drPxnuJP1fK//yVDE5B+kPISAEiiUCEOGzZ882CO+FCxfannvu6c88YyvWlSIdC+pxFObkPScVJucQ7RsV5YxJETVtscUWLmbiWMReCL9kQkAICAEhIAQyHQER50V0hRmknHzyyb4YKItdkobkoIMOsmeffXY1ojymJymiZhZZtagjMPqP88YrWnIF97Jly8bNehcCQkAICAEhIASEQMYgsFmp0nbWswPszZv/bU+ee4F1Pf+ckIe8mZPjdBJF+sJAiD1zUU+74NWBq1Tnwb/sdtEFIR1Lebt2pzbW94hj7ZpRw618IMiiVahS2V69vrdVrlkjKNPrOakO6d54t11DapfdbfZ3k23O1Nfi4f5esUqWvy8OqVpKy/daDRt9EALFGQFI7j322MMgv9u2betNZRwKkY4x5jr22GM9FQsK8jjmiguDcgzrS0G6cx5jMyKjOV/jMNCRCQEhkBcCS0JaqOzwTyYEihoBfrc2DyKUjbGNO3tjai7h5+J4QJT379/fnQ6cEZwQtsuEgBAQAkJACAiBzEDgypBi4+awdke06SE1xqiQr3qvmjWtVvjdlwmBtSFA/vKDr77c2p14fFjAs57nM4/HQ5zfOnmCR+Z5qpb/7iClyoqgDr1q5LBAcq/u6uNntj3mKNvzpONDrvKlq1TqscDwTn706vXr2vKgSA8MmZPqvjv8udV22yWO1J9CQAikCwKkZuEVDRKB9CvRUJZDrietSZMmyY+eEz25IXl+crv+FgJCoGQj8MzU7+2kj4damfA9I2arZN8LxaX3JDL8IwhEnmrfxY5v+L/fvvVp3+re9PqcqWM3CgHSr0CUz5gxw4nzVq1a2ZAhQ1ZTmycriDP8yW36WwgIASEgBISAECi+CJw0Zoz9FYjKfT/+2MaFcPjK4bf/jEaNrGFYWA0HTiYEUkHgj5BnvGrtLVcjzeN5EOT5WW7SPB63MqjAeOVnZYJ/2uPxBz21SzyGei54/cWcxUPjdr0LASEgBISAEBACQgAEZi9faid89J5V2Eh1r9AUAgWNQPmQXuzEke9bt9r1bIvyFde7eC0Out6QbdgJEN/kiiOfHKuZd+zY0SZNmuTkOSudNwoD6W+//dbD33LXAMm+XVD5cL5MCAgBISAEhIAQSA8EIM1LBcVNw7D42t/q1LGTGzRwBQ7KB5kQKM4IkA89t/21FrI997H6LASEgBAQAkJACJQsBB6bPNH93pLVa/U2XRAIQzJ78PtvN6i5UpxvEGzrPimmXCFvHKuV1wkDZshvwtqaNm1qO+20k5155plOlNeoUSMnXUteC4GWD3kqn3vuOV/BnP1Sn68bfx0hBISAEBACQqCoEfg6pGFbFia9y4Tf7tKhMRWC2gHFQpXw3imkapEJASEgBISAEBACQkAICIFMQOB3n2CXPCQTrmVm9mEzWxaEzBtiIs43BLV1nIMynBXL+/bt60eyQvnUqVOdOL/rrrts5MiRdvvtt9uoUaN8tfIzzjjDFwXNr9i5c+famBDuvffee9vw4cONnHOUJwV6fohpuxAQAkJACAiBokegSeXKtjD4ABUCcV4ukOVZ4VUxLHZdS4srFv3FUQuEgBAQAkJACAgBISAEhIAQEALrQECpWtYB0IbsZjVySPPOnTvbzJkzXVneq1cvmzVrli8G2qxZMxs6dKiT5stD3srjjjvOnnjiiXzzm1eqVMkGDBhgJ510kv3+++/2wgsvGNtkQkAICAEhIASEQPFEYElQNGwTIs5qhnzRdcPCa41CXvPtwm8327YP0WgyIcCiWdJl6T4QAkJACAgBISAEhIAQEALFFwEpzgvh2pCG5YcffvCSq1WrZh988IET5s8//7ynbTn77LOtffv2OftJxQKpXjoo0ZKGUv2YY47xRUMHDRpkffr08c+oz+fMmePEe/J4/S0EhIAQEAJCQAgUDwT+CPnNd6la1SYuXmzlQlK9j+bPt83D7/wBW21VPBqoVhQ5ApXLlLUVYYKFBYsyyUgpWLfi5pnUpSLty7IVK8J9smbO+SJtlCoXAv9FgGiqCuXKCw8hIASEgBAQAhmLgIjzAr60DBZ22WUXGzdunLVs2dJef/11qxxCtbfffnu77LLLPNc5JDnKcZTpl156qT3yyCN5qs3JZ75o0SKDNJ82bZp9/PHHduONN9rBBx8s0ryAr5uKEwJCQAgIASFQkAhUDb/xx9erZ1nh/aAEWf5rmBT/PvgAlTKMLC1I7EpKWVtWqGgH1Nvahsycbn8Z+vPMsOZVq1vX2vUzozPFoBcVQtRKBStXDFqiJggBISAEhIAQEALri8Cyv1aGtI2piyT+CpwiVorVLNdicI9k7C6zjuMob11lraUa7QJjoVCwCCxdutTatGljb731ln300Ueez7xccHgPO+wwV5TPnj3bDjjgACfNVwQFCSQ4KV02y+NmR4E+ePBgJ84p85577rFvv/3Wvv/+e6VqKdjLptLSHAGFu6f5BVTzhUAGI7AoLJTEd9TLIXXbIbVrW42Q3xw3uHIg1GVCoN0WWxkvmRAQAkJACAgBISAEhEBmIfBHWP/wztbt7Mqxnzjnt8wXUDUrHUSyZcMLW0ZUWRgslC4dtm1WyuptXsmaZ1W392ZNzxeMWuUrWLOsarZ9eN333TdW7r/EfKTaYz0WSPNTtt3eXvhxsi35b93lwxgkHpdvBdqxGgIata0GR8F8aNWqld18881eWCTE4zsb499bbLFFuI+z7ddff7U/w02clZVljRs3toULF7rCvELIicqxvEjP0rFjRyOti/KbF8x1UimZg4DC3TPnWqonQiBTEFgYftd3fO896x7U5sfWrWvnffWVdQm/+z+HCfYHwgLffUNUWsU8Js0zpf/qhxAQAkJACAgBISAEhIAQKKkIIJw5a7vm9uGcmZCAtk3lKnZXmz0tq2w5G/zLz/Z/34yxcoEsf2j3rrZtlSwbGMjtuyZ+bdOX/G6TD/mblXqmv1UovSZlWztELA7pcpDdMn6sXdeijU1cuMAqBtEt0YufzJ1tC/9cYUO6HuzE/J/Zf1mXreraaU22t79Cg1CnHzFikC0IIl5Z6giseRVSP1dH5oEA5PfmYeGvqWFQjNJ8bda2bVubH3Kevvzyy1a/fn0/7+effzbyoqNc7969e04Kl0i2o1KXCQEhsDoCCndfHQ99EgJCoOgRIEXL/nXq2B8hh/VrIUUbqVveDlFnz0+fnkFJOYoeZ7VACAgBISAEhIAQEAJCQAgUNwQgsu/ZZU8r99xD9ldgrb864Ghr8/ZL9uWvc+2+3Tva6YHMblNjC/ty/lw7acRg+7D74fbpr3Oc/L59wjhrHfZNWPDbat2CjEeR/uDkCYbqvNxmpa119RqBJC9tnbaqY//351j7eM4v1rl2Hav54uOBKC/t6nLOW/LnH/bpfkeEc0rlbFutcH3IFwER5/lCs2E7atSo4YpxFvZcF3E+ZMgQz1XOQp+TJk3KUZ5Djr/55pu2xx572CefrArp2LDW6CwhUHIQULh7ybnW6qkQSBcEyCl4QZMmdvIXX1ifsHD46DBZfmGILHthxgyFSKbLRVQ7hYAQEAJCQAgIASEgBITAeiJQOrDVpERBBFuhTGkrGwj0CqXK2C61trSuW9W393+ZYd8u+s1qBQV57c2rWOf33vBULRz/yk9TnVi/5ItRq9VKeSNnzbAH2na0lm++ZD2aNLNHp0y0ltVrhoXZKwVVOZVuZru+9ZK92GFfV7fHAiDPj/pwkM1fsVwinghKiu8izlMEKpXDuMFZ8JO0K6RgScVee+01V5VzLq+/Qg4kFhKtFxYUW7x4sW9LpRwdIwSEgBAQAkJACBQfBFYGP+CooDi/5JtvbKuQeg1HdocqVeyjQJ67U1t8mqqWCAEhIASEgBAQAkJACAgBIVCACJQOKvC/Qnnou1eGlClXN29t14TUKq/9/KN1H/of+/H3361dra1sQLu9neA+e9QHVrrMZr6QJ+R25dJlneDOnY+8TEjfMiqkZLlyx51t0qIFdkKjpla/YsVAwFf4L/Fu1jPUNSNksfg51FEq5FJH8V6q1GbWu2Vbu+iLkTZ3+fIC7GnmFyXivACvMWT5okWLPNUKC3umYvE4SPPfw01999132z777GPXXnutffnll07Ep1KOjhECQkAICAEhIASKDwJLQoqWEz7/3MaGBcCfDwrz+0MKt1MbNLA6Ya2SW0OU2d0tWhSfxqolQkAICAEhIASEgBAQAkJACBQYAn+ERT9LB54P0pzFOy/eoaVVeLq/lS9X3ppVqWrX7dTMutauZwcPe9umLF5k7basYy2qVbfHpkyynYOC/OuF8/OMUGVh0Qs//8h+P6aHHTtiiBPmw2bPtHLzZlu9SpXM5pqd+slQWxHGIkuPPd0qBaX7rCNPsSZvPGsrglAXiW9uMr7AOp2hBYk4L+ALS9oVZnRI2UKe8lQM0rxq1ao2bNgwf5H7HNU66nWZEBACQkAICAEhkH4IVAm/4adsvbU1HzrU5uy3n93y3XfWq1kz+yQozk8O2zPZYZ04caKNGjXK127hyiEswK/529/+Zq+//rovdN68eXN75513rEGYTEAwULZsWfvwww+tadOmfvyUKVNszz339At/5513WsWgpMGIzOOcQw45xD/z36uvvurrwsRjECJw/rx586xdu3b24osv2gknnJBzPH8gVLjwwgtztvXp08d+++03u+666yyKGnJ2pvAHfRwarjXr1Oy44472ww8/eMo+Uu+xZg1to93PPfeckc4P3+/ggw/2cw499NCcCEP2H3fccTYr5MWfHvLht2nTxmt/9913vS8fffSRY9W1a1cbP368jR071nbZZRdP+dckpAWqWbOm73/rrbccZ06mbSvD4An8Bw8e7NeiToiGGDFihHFOp06dctbZqV69up//6aefWvv27b3uu+66K6cs2s1C9t26dfN9/If/iu/KGj/Y8qBiGjdunNUNi+Kyhs/9999v55xzju+L//373/+2nj17xo/2yiuvuP8MFkmjrMcff9zxW7JkiZ199tn2eZiQos/Dhw+3n376yf3to446yt5++23vY/J8/S0EhIAQEAJCQAgIgSJBICi8xy+Yb1WCj7tg+Qon0W9svYdNXrzQ7mzTzv720Xu24I8V9kJIqXL9V5/ZgD32tpZvv+hjhHPCoqKHfPDuGs0mavXxdp2tz/gvbc7yZXZZ853t5I/ft68PPMauHjfaDqm/jb03c7pdFdTo5302ws8vV6asPTdtsp3YaDvr//14z4e+RsHasFYESq11r3auNwIM6L4IuUzjYC+VAjiHfOd33HGHXXHFFT7A2ZBBWyp16RghIASEgBAQAkJg0yAAyTglEJwVwoT6edtsYzuGVC28twgLiWeyAzZhwgTrHJT2EMSQnVtttZV9/fXXTt6yePp+YSIhEr4Q6AgOWNMFAnzAgAH+4u9vQpobjNR1EOUQzQcccICNGTNmtQsIKQ8xHK1CCFWdEVT+EK6Qz/hUAwcO9N0XXXSR9e3b1+vr16+fXXXVVb69R48eXgeE+4bYo48+aizw3qpVK580mDt3rhPxENzg8MADD3ix+HwQ0rTp+eeft0GDBvlxTDTgB/L5tttuMzAkbR/k/4MPPugTDkQ1gh1lYtxf9BtyOb4ol3OOPvpox5XtW2yxhTGZgTE5sP/++3v5O+ywg1UJ9ySTFvT7iSeesIceeshfTHB89dVXfg4L2YM9ryOPPNKmTZvm2+N/1JEUi1AefaYsrjeTIU899ZQffvXVVzv+kN/33nuvXXbZZbZgwQJr3bq1gRn1Jo1rSxsh+jHwefrpp/2+IjITcr58iOKAvGff6NGjk6frbyEgBISAEBACQkAIFAkCpGjp9v6b9nDbTlY+CGqqv/iEvTF9qs1atsQavvq0fTBrpvX7brwf82fwD+u8+qTNXLrEqpYtZ40qV7Hfg2I9t6Fgv+WbsTZ6/yPs0ECsX/vlp06ab/ZMf7slLCi6Y9VqoYzFdm7THe33Y0+z8sEvDFy7/eP/2bsPcDuK8g3gAyJYIJQAKjX0Ir136b2G3kOvNsqf3lWKqBQRERCkd0FqqKEGpAhIRyAUAekJIE30v78Jc9mcnFtC7k1u7v2+5zlld2envHv27DfvvPNNRaKvOe0MWYE+zTeHCx0a847t1hEISXPr2HylIxYEtdDnrLPOmlU9OoPt2S233JJOOumkdMUVV7Qoeto7J44HAoFAIBAIBAKBQPdG4PiKFC5GbV5slxlnLF977Ceyc94qHA2FMxL3mmuuyW0t6uePP/443Xrrralfv36ZFF188cWTxdELkY7opdxmW221VXrqqafS66+/nuapFllFGNeN+IBgYeKJJ867EeKU5osuumh6tlL6U3uvuOKK+Zg0e+65Zyaad99991wHB8z8Q66b7fezn/0sp+3oG/IaucznQ1xTcFOf8wfVe4ZqhsFhhx2Ws9N+hC9i2exEKm2DC4hhhDYM1l577aysR8QbBNhiiy2ykv25555LZ5xxRiaYjz766EzGU+tTnjOflO5wR14j6JHJsFEfhrhn8FcP29JTke+yyy5ZsQ5fBLT9bMCAAZmMf/HFFzP+9UEKx6WFa1Gomznw3e9+Ny2zzDJ54EJ+2sT6VING8EeW//CHP8yDJUj3ftXvQF3eeOONnK68OXe++eZLt99+ex4AWGSRRTIWcONzy0/Z6v/OO+9k5Xs5Nz4DgUAgEAgEAoFAIBAYmwi8U8Uq3/6+27OKfMLKT/z7e++2VIc3iwh/r1Kd3/T6P1v2f1j5lbNffVGaoDrWaBUHnuOaT3Dh6ZVyfDjXOKFFR6u452yKipyfsPr+9ep4tiqLCcYbPx/f8I4bq13WVhx+KN47jkAQ5x3HqkMpKWMoe3QuGjt29Qx0OnSSLA6qo3bmmWfmTk49TXwPBHr7dHcECRWcznF3me7uHkditDXdncLRdH3ExZie7k6l6b8nprvH/0cgEAiMTQSokM3AQ1pTBNd9It+RpMhVqvL+/ftnQpjvJHwIchmBTNmM8KbMpkYW6gQRXDdkqdl6wolQarOddtopk6jU0fKjeFYfZD4im1ihKJ4puwup7j9b2V/FSpvKuVTf9iG2PQeKwQJpLSQKQvu1117LyvJhw4Zl1TYSmX9Ikb/CCivk+iKZKeg32WST9O0qdiX1PrJ47733zmp09UbcU19TcBss4Gci0qVzvFi5DsLZeJ4p16DBhRdemEl3xH/Jj7J/u+22S5dffnlC2s9YDfi4JnWMPO8MUCDLC3Fu0ELoQoMgrpcwLtrluQh/SnNqdtfM9V922WVz9fwm6nW1E0GufgYQEPlmH5xyyil5UKVfv345H2S662jggQjF7yksEAgEAoFAIBAIBAKB7oDAZ5V/Myr23//9F73d5imFNJfoaxUxXgwRzyZoIuAtPmBJG58dR+BLhDt+TqRsAwFqI1No77777qw8apaUymjTTTdN4k8eccQR6dhjjx2po9DsvNjX+xDo7dPdBw8enMkSU8u7y3R3CkLW1nT3s6vwAGNruvsCCyyQMTMoV7eY7l5HI74HAoFAVyKAfEW6+p9EgBMHGABlYncjfokMhOc4+OCDs8p4xx13zAS7T+FIxLBGFCOWDzjggBzuRXxrqmgEK0OiUnIjUOUjhAdDplMuI5uptplyGbHCj370oxw7nOKZOp05R3k777xz3m7tTXvEZq+b9gpHI543H4+Juc3XY86hmEZSaxuSGQmtvgYEGOJbOjHWB1VhRxDsyGfEN6LdNqLZcxGJzZDfyoEB/7MeM1zoG+Q0oltomkJ2wxOhjmQ3YCCeukEE8c8p4HfYYYf8XcgZWHvm/eQnP0lTTTVV2mOPPbJavMSSV19hZLTJeUceeWRLvdS9xGmHie/qcNZZZ2WluYFx+XpWisv+j3/8I7dx6qmnznmUN2p8bUaG+90YADEwYgABUV8GAJDqBguCNC/IxWcgEAgEAoFAIBAIBAKBQGcgEIrzzkCxlgeljAWnTJXVyWk0nT1KJ+onChsdgkZ1TeM5sd27EeiN092NhsZ095TJla863R1pUTeY1qe7I6Wo/2K6ex2l+B4IBAKdgQBiVfgUKmGGQPdC7gpj4r8IWcv/Qb5SWCPHiQkQ7EhaZCp/af3118+kLPIduS1WtvP4U0hm6mUmZIdwIGbdOAcxLG/EsfIaTV3qJh/E6+GHH17fPdJ3xC9CudGEkzETSdgSZZY47Mj0/fbbLw8eLLfccnmRTCpui1oa6LQ4J9W1xTGp0xHRiG1kN2Ldoqb77LNPVpJTbyuHIaH5klTnSGMLqBo8MBgAQ2lLG32Kj86ExKEEhyUcvYTEsSipgYliFjSFrzwR1QhueZx22mkZV+mU6Zox1wwRfswxx+QZABT1CHNt0c5G84yvm7AxzikhXcoxdSdGgSmy3e+KqIBaX9x4MeuF1kGYI9PDAoFAYPQQ8N9a/jv8z7SlUGzv+OjVJM4OBAKBQCAQCAS6BwLjvT1sWIfmpPappkpO0ODkdo8mNK+FeJrI6+5kOmTbbLNN7tDpkOjkjWumEyROJlXSuGKfVw7g0EqV1cz69unT9hyYZid1cF9H7q0pqmnjbRkCQCdXB9ggCyUccuEXv/hF7lRTzV1yySW5c0qBdsghh2Q1l+nuCFEOLeJAJ5myTMe3THd3LU2d1jFmOtHUcNR3Zbo7lZv9HOgy3R0ZQSnoHjP4Y0Ez07J1ZItyTz2U/VXixFLUORdRwC677LJMZlgkzXR3ijekgP1U1DrKOtAXXHBBJgy0gcrQtg51fbq7QQhqQ517pA312rbbbps75MgKBELjdHdKRupApI/wJ0iVo446KuNOnYjcgKNy7TfdfUi1GBrMSn6IE0QJEqhMd6ci1E4kBzPdnTpQfYUdYK5dIcDLdHf3HpJJfgsttFAmFJZYYolMvCAskE2IDXF6KQDrhqiRj+sFN9feNUNKwKxMdxdigOqvPeXeuxWJ0tYDpCvvrwq7toquNzu+BwKjhUD1X94mcTBZdS+PXw1MdZa19cwqZXTlvdUZz65Sz/gMBLojAvHs6o5XJeo0phAw+MR3Z1wp/QUDcMX4qhZL5scaUPOdX2ggD4nOt+VPG+QSxsnxUbEqj857YDYUHL5hAyCx2SsQ6E731KGPPpB+/vjfkljeYYFAd0Pg04oXPOj7C6Yj51tklKrmHgvF+ShBNnqJqWvOOeec9Mc//nGcJM1Hr/Vx9ldBwG+mTHd3fmvT3amSTbM2Nd00d4S1T0QpQnadddbJpCzSHSlOVYaUpRZjZbo7xV2Z7k7lhjSXJ/WJ6e7UbaZbI84R0Ew+hfy17RyEspikbZnzLAxnincx7TXdHemL2Oecm4bOEPfOMd3dYILzqPgo/zjznHpWn+5+9dVX5/yaTXdXRlmErEx3p4rba6+9mk5317lobbq7KfeUlWW6O+JabF1tQEprA5IeYW8qO/Jfp8Mib0y7EPeUe5Tg0iC11Uvd4e86yg/+rjfVIxP7Vr7FynR316hu9enuVJFCJNSnu59dhZcxEEG5aMHi9kjzet7xPRAIBAKBQCAQCAQCgUCg+yNA7IEoJ47h25opzfiiwlAR2AyqwkUhzvmqtvmUxDpEKdb5YdZSGFXSPJ8Yb52CwB4P3J2vX3uZTVL1pY5dYPGc7KjHHkqvffTvVk+Z8duTpP3mnj8fP+0fT6aBr72crlh21Zb0xz75cHqxCpFWt+9+81vp0HkWyrvuf/vNSlAzoq7FooQLTTG8T7LeHQPTMVVd5uozWT2LtNXg29LrVb1uXnGtvP+xoe+kk55+PC+MaJzllEWWHiF92bj1X/9M+z/81/TX1TYou+JzLCMw4tUfy5WJ4gOBJgi0Fzu+ySl5VwwFtYZMF+1HDDYL4dJFxUW24zgCprvfcccdmQxGCItN2jjd3dRmBDOHt0x3tziYadMUyaaoU48gsimQHUOiIkqd19Z0d+pyZLLp0f0q5bW8TOmuG8e6bsh3pDqVdVuG+K2T5iWtaehU06a7U7qor5dF5hDlpmu7hzjwYrOW6e7U+Ka7n3vuubl9iGgEMDU6lbX6nHrqqZnQ1gHYc889M0Gt02BAAB4GJgwmUMwjqMt0d9jDHUndON2dMhuOXkhvdUbmK8P1KNPdlYGoRogjqJHrOi+stenuri38kdnw992LE1nMf0rdqNbbmu6ujWa7UByZreD6m+6+2267pb/85S8tKv56nvE9EAgEAoFAIBAIBAKBQGDcRsDsZ2sGWSuAL8mHN8OTX8rnXXPNNbM4Y5VVVskzSeecc84WYl3LnU/IYXakPgqhB/84bMwjwH//b9WHKa93Pv0knfrsE5lML/t8fmP8L3WSl730fE4/z6STZ/L61KceTXNWJLbtiarfwhUvv9DSkA8qsc57Vd/yk/9+nia/7Oy8/+Ihz6d3q3Kkn2eyydMH//ksXVLlWWzJG69MG955U/W6Ob9Wv+36NOC+Qfnwqrddl1744P005YTDQ7jZiWT9+3vvpGv/+WJ64+OPWsp/tSLRr35lSJq6EiWd+uzj+fxmb9/9xrfSO9VvOaz7ILDGNNOn/1b/E2GBQHdEwG9z1Wna5qhaq3enhmoRzoAispg/9BVWWCE/nIUxQCxde+21aZlllsmEUllciCqUIlaIhqKcRJI9/fTT+aHuwW4amTTFqDCFQ1h00UXzLuSXUAOIKsQWsooTUDcPdoRRIfqkU8f2lLH1POrf5YNQ8ylfdfCdihVpaZshKZGajilLPUqZ9lHoijWsndLCxX4knZH+0g4KWXlSodrvs4Tj0A7bdZPecec7zwtRJ0SDYwwGtl03x6lmfWpX3YSV4FBJR/ErTEaZxiedusrnnnvuyfE6KZjnmGOOlizkiRwsUwHV909/+lM+LuRE3Z566qm8GBU8kI/qOttss2WMhInRBvVcbLHFMpkqZmhb1ta095ju3hZycSwQaBuBmO7eNj5xtGcgEKFaRr6O7YUZG/mM2BMIdB8E4tnVfa5F1GTMIqAPqk+mn8mIRJh+qH6cPhYBCmGKdEhyfc6ZZ545928p0pHr+uH6vvqsZkGOilX9uy/VH6NyYgfSVnXu1YLXCS48Pb2x4TZpigknaorWAtddVhHefVO/iSdJLsLPqrAaB1chC4D2/PvD0gsfDkuDV10/n/urJx9N1776Urpu+TXSNy84Lf1v693TwtdfkXaadc6062xz5zSn/+OpdPIzj6VH1xw+O/gbF5+ZPt70yzCRZ1THf/ePJ9JDq/dP+/7t3vTLBZfI59XfJrzojFzGDN+eOM159cXpzY22TQ++82Y6sFKSP1CdN955p6b/bbVb/ZSW708Ney+tOej69Py6m7fs641futs9teldN6VLhvwjTTjB13vj5Yg2d1MEPq040U36zZIuXmaVUa6he+zLIchRPn3kEzx8xd9FEhvJRh4jzIUFELqhEOPCSAgZ4dlGmSrOGkIWWe6BTIVKKbrvvvu2FCI2c90Qr5SmhTj3DFYWRenuu++exEMWNgHxaoqZ/E1JK+SyunEQkNZCPFC4jqohnbWB+pWjgfT2HVmtHORzv3798ncOifoh96XlaMBJGp+FJFcPo/kcG+QzgriuKHWul33KYwYktA+5rU5ln3ZxduTNudF+jlLxKZyvTs4t5Lp8EdXwFTKDwVZeiPNisFfP4ngZCKA6kKc4ywcddFBWMGjn4YcfnusmPrW6y89x56uLsguRL39xvTll2n799dfnNlHRIuoHDx6cYztbREu7/HbEd67XrdQxPgOBQCAQCAQCgUBg7CDA9/KcnmmmmfJMIc95M3/4h9dcc01ad911s0DCcf5YMQPwZgoNHDgwiyDKfqEDzL7hDzBrbNT9o5Ku8ZNgY621hk//Lsf4V/ws9amHHijH65/8OYIBfgafh8/CpzN4X4wvg2AqM634N8yaF8IaCHXGr+ITCr/G75If/4/V87LdXp2kqRvBhjoVX0h91FmZ8lYmX4m/yMxkIzogVJhhhhmy31rPz4wts7jqBnc+HD/XtWycfabNZdaSNVDY2dVMrgEDBuTv6mNh2AceeCD7nnln9QbTpZdeuqVuwo1Zp4Uqtpj2XHzxxWnTTTfN+Ntf2uJ34Xzn+S3xHcMCgUCgOQL+J8raSKUfZrak2ZP+F/1nFPP/qs/mnvLf4v+t3F/Odcy9GTZ2ENjl/jvTH559crhsO1Pf46VvV0Rl38v+VFWoui7/q6jxzz9Lz/ffJs1UEeXFJnctq/Aq/83n/C99r/puGOWDzz5Nz1fEeVtW5ZhuePXl9NYXKu/7335jpOT/qX5DE3wxMPPZ/778Pe039wLptn+9mgn7+Sfvm96u8qBQ71eFh3nonbfSAxVZ/v1KxT7LXy5Mv1loyTTkw/fTdvcOqp43rZOvQsP8u3omh3UvBBCTO846d7rp9cr3if+I7nVxemlt/HeZDbHid6b9ygh0KnHOobYAocXmkNdiEjMPVsbRRnia3oUApTznXOtEiaf7yCOPtIRuMNKNSJderGCEc92ErBBbrZgOEJL2sMMOy+cgehHJDGE8/fTTZ/KXw1CIYs4/Uz/OQeno5J3tvHH0kc5MWASOhnwR19ojb8SzDpb8OSMMwSyt83UUEdoGHBD5ztMO55Z0iOjiyHBYdES1sxDk6iAf9ffSPvu0HQZM+V5wkJ/rZEDBeeqsLGVzfkpHRBnOd82cWzfluLbyK+mPPfbYHILCwAXie/7552/pEFqYcuutt04HHnhgjp/tkyHCDapQkZsSWMysA4vN6NQpWwdaiBCmPHWHkYUMdcBKR7GcH5+BQCAQCAQCgUAgMPYQIIIgYEDoImmFmOL78GNef/31HD7L8/2ZZ57Ja0BQM1533XXp+eefT/fdd1/2jcxK428gQ3/1q19l30WIL74KX4gf1ZpRQxJG8BH4pXwUfojwY8J9mTXHV0IO80f5nK3lx1ficyK5+UVm0wkLhpAmIpAXMol/9cQTT+RFuPlWZtnxc5HmQmPx76yhwS+EB39JiCzrYDBhzmDDp+EPW3B7lllmSQO+IJ6btZXPS2jAh1N/dVBfRBi/kh8q7Nkpp5yS621hcXVE6PM/hRazBgd/yuxPdWT8Umtw8A8LCa6dwqWJh/zjH/94pOooh8/In4OLNUG0AzkPX6HjGJ+PmAYOfhNELtrNT3ctnGvdEH4g/186YhqDLfxC2DrP70KZQrFpv3VEhERD6Ps9hQUCgUBzBPQVV1111ZEO6jt6+Q/S19Lncj+yQpS7/7z8Dxvg22abbUbKJ3aMGQSEVtmq32zp3KVWSN+qlN7//kLpfeUrQ3LIloErrJmmvPxPVV+6Vp9q481PPk4v/fuD6hpW+6vtlz78oFrgPOX99aS1s1q+rj99v/TPjz5Mfx/6dhVe5aW09UyzVQr2KVqOt/Xl6iocy/b33p7mrsK8nLn4D3L89L3nmi8vIvlWVadvfm2CtOH0M6W+VSiXU555PE369QnTyt+ZLp39/DOtZvvThwan9yvCP6z7IbDKd6dNXmGBQE9BoFOJcw9YDjEHtjjxdaB0knQEqKApX3SQKIF0QKiSHPvlL3+Zw3noMHkwU/Agz33WTadMB6gYJ4AjrSMkLyFbfGf2c8oRvTo+nPCiMNcpK2nyl1F400EopsPipcMCB/mW45wLx9SjKMClURc4IbJ9ckp0UtTTd/XU8ZGPffLQCdIZlBdTjs5PUdLr9CjPq9HgLw/HlK9jpJNVyrNf/Snm5QP/QkrbX4wS6PxqMUad4aLiMjtAh1InUX2Q/eoqHx1GynoDHTqGL7zwQs5KfXRgtbNOnGubusDAd508HUtxrnW2xIY2WGFgpai1St3iMxAIBAKBQCAQCATGLgKe79THfIG55porCyb4HAhdpCj/jCACwU3xzDdBmloDYu21185EOVKGEGPllVfOeSDdzUKjnqZ+LoRus5bKX/hAZfCPrNMhP7F8EblIdEQrf4UPJA3/rDUbUoUGRDTxOdSTz8n4KM7ns2izfHxHpCO9kU58IHUf8AUBzs8zSEAAID3/lJVFtq+66qosAkH2l3NygiZv1i2hHuUX8hdhWWZi8t8MMPhEJgt3qG4IanlbqB7xzgdljiPEkfr8N4r/sgj4/vvvnwdB+Iew8NloZgDKXz7IN2XA2yxExoezODm/lThD2/mifFx1dMz59j/66KM5Hd/PbEZ1RuTpN8Cffwgv/QP+vgEYeehH8CmDOG+8OrEdCHyJgBkaBsrcU0suueSXB774RvzkP5mZSa4PSLClz7b44ovn/3X/cYRQ0Q/7ArSx9PGfLxTdE1b/qzNXSu3xq+fQv6u44/NW4VhYIxuwWxVi5dMqZvnRjz+cY5T/fIHF051vvp7ufetf6bB5F67UmF9yK82atPmMs6avVWW8+9kn6abXXkn7z71g/t8uaRHvp1aLikrD7nrjtaww992+uStF+eNrDp+RtMSUU2dF+YHfXzDNNsmkaeEbrshhYm5+/Z/phIWXSj998J605Uyzpq3uvsnpI9mz7w/NeSLu/68KA3NckzAwI50UOwKBQCAQ+IoIfMn8fsUM6qd5eHKckcDUQToNFhXhCNunc4FgRY6Lnzag6kTo+HB2LaaHeHWcQ0yxPqiafmkBP50Bi9cVo5yxn7Ptk6oFyYtI9aA3HZQ6SIdNp4jqiaMuf52d4gzIT1nq157phMmrmM6SfHzKw3eOhY6TcuxHFiN4kfQ6T2LAcTpKeerPwe/Xr1/uRMqn5FXqpaPJpJO3c+Wpw6VDaPBAWY5xakoHSEfMPua48+Fsn0/pTMuTB3y1T0dGvq6Tzpe66uw5R6eMOVfnk2pJOp2U0inWXqS6urv2yqQUd33k7ZpQV+mwMsT7rLPOmhXleccXbzrbOrk6va4hB44iSt0MzFBX+Z2Zxus3J41OWk+1mO4e093PPnvUp7s/99xzaUhFcMR09576zxDtCgS6LwL8Ls93vgj/gX9CfcyHMfjtswgMLFhsUWjbXma0IXP4iYWU8Yznr1BG8w8MojMkqnPqxtfif1B6UyjzYyir+TqEFQjh5ZdfPpOt/EZ5t0Way5vfZRBfqBikcqmXdvBjiw9SfCVtIBJQl36Vj4doNhtvyy23zHXhM1rHR334TL7zY4lC+FWIYD4VhX3jOjD1tiK+tIUAZdttt80DDerKx+OT8smQ00wd+HN8Mv6nGX98cwKKHXfcMfvK/A1tUj/XpPjs8kK0G8jgz/ErpSkGD3nbz4hdPH8Q9nw55yPGmesldCPS37UnuHA+Yt2ggTqpgzpSnPNP4euamoHofPjIEzbIdWQ7oQYSvRkRmAuOt0AgEMgIuHfq64Y1wuKeLFYfhCoDhuWYT/3CsLGPwGfVf+9lVXiMiauwJhTnQmQ0s5UqYnzTu29JCPfrfrBGDqkyrFJsz1/FPrew6DlLrtDstJZ9s1YK9om/NXEm6BHwzkPWv1PFJWf9K8X4fRUJXwj9r403flqppjqu/tpHsKerGOVCtHxSPQdf++jfSczyXf96Z7pwmRWr70PTcjf/pYrnNeIzvmSwcbUI6e7VQMBmFZm/SEW6B3FekInPQCAQ6AoEvvR6OyF3qhoOL8cZqaoD4IFaFD0e1BxhnQPOrg6VaZZIc8ZBH1CR6ZxiKhUdL+dyrMW8ZEhzYV040Ua7Ebg/+tGPcseAKsmUXGoenZVCdDd2qjj3XjolPo2mc9JbMx2h0imqp9EJ0x5OPfJWR0FHTYelKODlq+PifJ0TnTOdLt8RybDwiSDX2VEn7TK92TYslaOOOlfIY8dKBwG5XUh29ZDeyz6djNIB8qmtTCdKGTqhyHOdH2W5dkh/aXV44F/aJS+mLTo3TIeGitxUaFNwEXQLLrhgViu5DghvZboOroGOEbxgowy/Dx1Jbaqb+l1xxRVZpcWx04mkKtIJ9RvSsUOgy1tbm12ben7j8ncY+X24HmZh+H2UwRT3jynKVCOmMEsHD99POumkfK9Q1DnPvYlINSBl22COa0DtV+/8NmLluA69GQauMQWZ3w3z2xMH1XRu+xAYym/NXDt19JtxPyMMyhR1A0u/+c1v8gCZOKY61PJyfyjTQE6Z7u63wfwmKeMMlPnUcWZmNYihf8QRR+Qp9Iccckg6uyKe2zKqO+EBKBHL1G91c0+4/wwA2a+zLy0r092FnpK/beZ6IHy8XCv4FNWe46a7I34oDusdEseYctwna6yxRh5wMzUe6UPxp6z6dHcDVNSb1Hh+D17MtXBfujdMd2fw8nspvxXXDKastPnWW2/N9UKoUPaFBQKBQCDwVRDwvPGs5/NQiPu0fg0/gH8iPvmgShwh3IZnkP97z3TPlc033zz/94pnXUhfhCginpras6SQNUhSIVPqL88LZXiOUC7zzUqID6SvfJ3vWcSPafQRS3v5fp5TnpV8yvXXXz8/i4kFyqxFafl8/C+v4it5JvGDncsHkkbd+TtU9QcffHCOy+3/nWpT+BfPBb4vZTt/mBEKNDM4MXWHM7+XIZ6LeZ55XvLzqES1nVljyHPEp7p5VnqGMPWFnRc/kdCFeY4Kt8LP47N7FtUNnnxb14gp0/Xl6/v0rBKDvJj0/D/+bN34CGLfr7feelkN65jfBywtEu85y1/wm4K1wQDP51133TXjIASgaxUWCAQCgUBvQgB5fcUrL6SLX3ou3f/OG5XKe3ifv47BSrdek+a+9tK0z5zzVfHFP64WAh0eRvaW119NE1XPkuMrxfZ6tw/M4V3q543w/etfTw+vuWEauvGATHa/V30W0ly685daMU1cpblo6ZWTmOaL9506HVep2j+s/q/Hb1KnNaaZIV384vPpuipu+mYzzlKFZXk6bd5vlvRx9Qyapvp/P26BajHRTz8ZoQo2znnhmSrczIdZJT9Hn0nTApNPkdYYdN1I6WJHIBAIBAKdhUCnKs4RcoWcLRXkhOssMY4t44AzHSEOcjEOMAKKUbYU0/nxYnvssUfZnT85/UjCuom/qOPVaPWOjmM6Gx0xpHUz09FDOGujdhcC13f7Snk6hsVKWp3B0onR4bFfftRDPksnRufDsdJJlI9OYTHpHIedzmTdSp4wYvUylVHvXEhb0klbyi/5Os6Kwj1vVG/162efzmIz0/E5+uijWw7ByKBHM9M51ZllykXA68TpIBYsdZJZW1O1c4Jx/A1OMd295053L/8B9Z9pZ053F87AfRPT3esIx/dAIBDoagQQ5Pw55KaXONaIT8Qxvwkh7btnvLSI9X79+uVQLIhZA4IG/wwiUhcb1Pd/adDc/xpCXFiR1gZ+kb6encICGoClVKcu50vxPfkfyGkDr0jtRlMvccDNkkNA84+EHOEDqZv6I8qZAUm+EisDjvxBJLMBSqFnlEOtXjcDs3XjQxuslgehAOFC8SPr6ZSNdCYagbH/eES6+hhkNWhLYGBglNDBgC//C1Hu8/DDD8+EPD+KGt82zBHf/Egz/NRfWBzm+kmDYDfgCwvtEk+8+L3SWfgTcS90DJwMBpgtiuiGDxLebAOD8QbxDRQwg8nFx3SNig2pBAPy9Bs4/fTT86CCAXbXnf/KL1R//QWYwFlYF+R58WFLXvEZCAQCgUBPRgBN/vF/qln0lSTys8+bi5h2qxZrvGXFtTMMW9xzSwuNvdAUfdPT776d1qxI7Nf7b53urkK31A0pv+z3psu7pvzGN9OLFeE+y8R90tJTfSete/sN6S8/GM7zSLDmbdelodUzl033zW+nHz9wV9pp1jnT6hWpPVefkXmX7WeZIx368H1phe98L20ywyxpq8G3pvOXXDEN+8+nWT0vnEv1kMvx16ea6Bs5X7HSt7371vTYOpvmbW+DVl43ff3C05OY5xYWDQsEAoFAoLMRGO/tYcNal1rXSutTOb0TVH9c44ohVEss7XGlzuNCPXVAdVxbG0zojm34vBokGPqFGrmxfn379Bl5SL4x0Vfc7si9NUVFFrRlFOPIAkriMt2dolm4HB1QSi4dSx1MpIOp1TqnFG3SIBV0SJEOFl017dtsByQCNbSFWynEWpvujlBAHjROd99iiy1yB1UnXJ46+DrpOrVtmcXSdMwRCKaWI0wMhqm/znnphJtKrpOuXqa869Brh863+pvuTomufTrhOuA60QZc/EbLdHehorRdB76t6e7ypGSrT3fXsdd+Kn8zLZRlTQZqRdPPtV2HnjobQSKPMt1dOCL7DFBRrGuD63LUUUflgUPT3ZFB8KgTP/BwTFv23nvvlunu0rpOsCuKcwOErqFBRdfA1Fr1Qhi0Nt3dTBXT5Q02UtjL1/R+n43T3a1fUB9ca3Zd363CL7T1AOnK+6v6PbRVdLPqxr5A4CshUP2XjyQKqGc0WUUy6lh2lrX1zCpldOW91RnPLqRwmU3mv7EQy6X+rX36D6wLBaRzqxtEZvV884423hDJdUFAGYB3iueN/2/7PDMQ7XXz313/b3ZMOnWp168xXcm35OU/2jOgMS/H22uL52p5Jpb8yidFPxV3W1Zvb/3vsmBZP7dgDH91RcY7H0blWEnvucgvadzvuPaX8+TRzOAoTcHctrTKbcSznF/q73izfOu4N/sNlXzKZzy7ChLxGQiMeQSq/6DOe2A2VL/6r+g1vuGPHrw7PVuFM/l1FQ984esvTzetuFb6dhWq5dpXX0xXv/JSOn/pFdNC1f5H1two9fv2iP3N8S44LT27zuZp1kmGi+vmve7SNG1FdN9QLSha7PgnH6nyejndttJwst3+xQdemeOgH73AYulfH3+UvnfFuem6FdZIq39v+vTcB8PSnNdcnD7bbKeSRQ7louzD5l0oLVad+51vfiv9c/0t8/F/V88LIV3mrcK9nFi1Yekpv5OertozazU4e+9bb6SfP/a3dP/qG+QwLEfMu0haa9oZ0mlV/PRdB9+W/rj0Smm7medoKceXN6uZSdNceW5ae5oZ05+XW3WEYz19I+6pnn6Fo31jGwH3WKeGahnbDYryA4GehkBMdx8+3d11RYDosMd0986Z7k6hGNPde9o/RrQnEOgeCBTSXG06SppLWyelbbM6x1LPd/jR1t/rpLlUdcIVIVz2FQI37/jirRnRbdZeY/0a05V8S14GfRvTlGPttaU10tz57ZHm0tTbC8PycqzRCsbapw22S1vKsXJOmSnVuN9x52hXvexyXvmEYx1z2wWj8lnSlk9lebWWb6mr9I3XqOQRn4FAIBAI9CQEPq/GCO6u4omvNej6NGNFTm9dEcr977wxnfVctUZGFd5k1VuvTcOqwdCmCpdqELJud6+yXnq96mONd/5p1eKhw499f9Ip0qAqVnq/atHRha6/Iiff7/vzp2Oe+Fua6KIz01TVgPPFFYG9xq3XpQ8//09a+sar0g9nHz6TqOSNtL/m1ZdSFYwtvbLBlum7Ew0PGeb4LytifsrLz0nvV4OnW91za5rhqgvSKrddm2a88oKKsH8pPVAp3zeo2rNDpUofXLXzmn++lPa4/650daWabyTN5ac+/950h/TEsHergYTh9bU/LBAIBAKBzkBgeM+hM3KKPDoNAZ2DXjRg3mm49cSMKKfO7qbT3amRY7r7mjm2buN0d0TRuDDdXcgCyr+Y7t4T/z2iTYFAIBAIBAKBQCAQCAQCPRGBHWeZMw2oVNeLTjFVq8276pUhFaH8JVldEl687Krpu1+se2Ffn69PmGOXv/zvD9KE1ewftsY006dX+2+T441PNuFEeV//6WZK/9til/RJtTComOUbV3HJ3/rOtOnbX5sgh3nJiRre/l6R53NPOnne++Aa/VuOHjbvwjlGecuOhi9HzbdoereavTZ7FcP8axU3wv6z+U5NxwHKqV+vNKFPr/1lCJeyPz4DgUAgEBhdBDo9VIvFlsSxNEWWcoTyhJpEzEYL4SFphEOwmE8xqkdxrC0KJMZ3UeFY0EkccmESqFOohxxvz4RpECvSQkSFgEZGIyHVxSJDdbVLs/woW52jDaaG+l7qZZ/tko82MftMSRb/UnxJMRelNQ0VkaYu8qLWoZrxnRrJ4kjCcKgbpQz84IWYNM1X/urOqGpMSZWntEI3yIeVeJn2+16fSmu77PdZ2uaTlSnBpY72KcO2NF7Ktq+EalEP9dbGcl2EzRAWg4lraYFRqumCkf2wqMdptyChxUTrBkfXoFl8T/FNhfoQXkKMzfasrWnvMd29PfRSvpfryj3Xsqi+yvRo+/w2Gu8rv02/j7qV35XfYbHGdCXfcjymuxckvvyEI9wL5rZdF3g34lnOKv+HjpdrWI75rOMe093ryMT33oxAhGoZ+eq3F2Zs5DNiTyDQfRCIUC3d51p015roewrhR2BQ1m/iZwmdWI+h/+STTyYLBhcTYrHE77fPGgnCBhbTN6qfL4Sevpw+ION7CRGof8j4bfKol2H9ByEXi1ng3WzM0qdTB32xkqdQivz44svr871fhdrTNsYn1FfT/yxW+lrNtp0rfcGlpOnoZ1XPCNXSUbAiXSDQAQTinuoASJEkEBgNBNxjnao4R1gjiz2wEZpi9VKkWkTIgkVIVGSzh624vJyAW265JS8AVb5zEMTcFVcZCS9msQe+hZUsCNSaIYYtWiS27yqrrJIXgUICId49nzkJyHxErAd+IZtay089kVIIXGk5S1SZ6ofEQ05JI2+OB6cDAa6cww47LP30pz9Ne+65Z1p55ZVzuTvvvHPaa6+98nmm31o4qcSjFg8ZXuJSI4MtbMR5sRCVPHbaaadMLCvTglirrrpqHhQwACHOskW1kNrqI412q4u2i0XOCXMNOGoIfQuOGgSwCFUx9f6wigNuv/y0k3NoES8OnHPqU2Gdd8opp+T2ip3NiRNT/p577skxt9XDolzKsFCU77Cy32/BglHM4l2cQ223aCwnTx21UxsMQggp4ZMjarGqP//5z3nxV/n4fay33npNScBcwDj+VgZrNKO7T3dvRsS63o1WHPn6/sZ0jb+10oGon1O+1zEq++qfnT3dvZ5343e/cVYfFChtKcfKOe1Ndy/nlfSNn3CsY1n/3ohnObfUodm1kqZeZr0N5fz4DAQCgUAgEOgZCPDP+IvF/P+Lx16skfCzn8CFP9j4DOErewZ59vCd688P/qS+AZ+00fh3RUjhPP5qyYPPw3flL7dn2sG357OGBQKji4D+ECHQGmuskYVMSHT+E3/Sb9nv3W9N/1Dfkthp0kknzcUiwvWf+Kal72mf37ZPv3P5u//028p51uNh+qnO83tGqPMVnede0acjKtJP0hd1T/kuL0ImafWd5KWe6qx+ynPPysc+3+3Tz9Ym50lnmxBKGmmR/PqE6ik/Zfmf0CeGD4FXe2vh5EbFWyAQCAQCgUAgMI4j0KnEOdKXY8AsWIjs5BB4UZR72HOILUhIce5BbxR++eWXzwrxxRZbLF166aX5gcw532+//TJJSpHOkZC+NQKNE3D//fdncr7UgVPAyeBQcwI49dJxeDglhSBuvIbSyoNDZHQeccx5KcZpkBeniCOhU2CbE/Xggw/mZFTZKxVuQpsAAEAASURBVKywQjr99NNzXtJeccUV2cmBwUEHHZQJZKP1Sy65ZPrDH/6Q1l133dyBsPighQQtAui7gQO4wE+9qa0tzmjxQXWUH1OGuiPxfS/KAg4Ox0Y+OjzwUF8dJJhqD6fJua6V87VZu2DEmZJfo8nLoAFsKB+8nLv++utnp80ilmuuuWb+HbgW8pePARRmcUcOpHMQ6wcffHBe9PHKK6/MebkGXuppYERbOa/LLrtsdih9ck5d07BAIBAIBAKBQCAQCAQCgY4hYHHqpZdeOvt6/DOil/333z+ffO+992bfj7hh3333zf4bYo5PaxHsyy+/PBNrm2yySSbQ7rzzzuxLIsz5e/xXogYkHnOcz6YcfiOVLp9OfsQi/FIk4HnnnZfzW3DBBdPqq6+eHn744SyUyJm08cY/VmdEZ1ggMLoIIMKLatzAzY033pj7aPqjBpQ233zzXIR07hsCKL99xDJRk4XaC7E+cODA/JsnXkJKn3/++bk/VxZ6d4/pR+nTsTvuuCOT4O4f94v8ENoU5fpr+oH6c+4nfSrl6DPrTxlsUo489Jf1sfWflYEIt4g8sxi8/hPxEdMmCvNtttkm9ykds899iFjXD6S+t0i9NrivKdrdx0GcZwjjLRAIBAKBQKCHIzCyHHQ0GrzxxhvnB6wHr4c0R5jTy5mlSEbkImY5GR7qzPYf//jHtMsuu+RzqNERwR7IZ511Via5EeicEC9k7EknnZROPPHElhf1MucCSY4Q7t+/f3Yu5G+/UXn7WSHBOQKI4WZmPyJZ/ZG6HBH5FOMccfi9Sr46Cgjqa6+9NqvlkeDIbjho60wzzZSOP/74rETnqHBwEMd33XVXotSnpqcuV3fpfvvb32aVvU7EoEGD0lprrZWWrwYYDA4gim+++easTlenouyxX75e6qIjoS0GCkr9fKdi0C4vxLS2lXPhw5wrtA4nUF6NVlTgCy+8cD50wQUXpBNOOCFdc8016bjjjsvq8wEDBrTgBwvlciDhylzXDTbYIF9rZWm/QQG46sz5DVgAi+KIY+g85XH8fDcwYRAmLBAIBAKBQCAQCAQCgUCg4wjwsYYMGZKVrJSlBC7sN7/5TSbrEGJ8WUQ53/CAAw7IPiE/lO+23XbbZWEDYhHJyB+TJz+OsILvyPckDDEjFOFnG9nH90eg/+pXv8p+Kv+e2GaPPfbIYhKzNs1E5dfzHVszBB9/mFglRBStoRT7RxUBfYx638pvWX8JYWxAB3HNEOlmUCOVmVm3+rMPPfRQ3tb3df888sgjedv9Rlykb8WQ2e47xHnps+lz2ueeZMKW6hu675iwLPK86aab8jYS3LZ7QJ+PgEt/HNmuP6hM95f+KuU4ErwIlgrhjgA3GEAAx/RbzXY2+5cpw8xp7S0mb/1SorCwQCAQCAQCgUCgpyPQqYpzamAEp1FrJDn1CEW1B68wJwhRDgESmYrYd0piJCnjiHsQe6AjivfZZ59MIgvP4WFttH2dddZpek04NJwczszgwYNzvghhToTR8UImqxfnvTWTDnEvP44/p5yDj3AuxvF3nHFCmLZxRrRfyBLqeeFHtFVIFo4PB+nwww/PnQKO19prr53bziHSWTDtjbP2ox/9KKuyxf12rtAkHCDhWyjcqcSpsuHku/rpMOhccLyoCwrW6qbzU9pswICDphzYwKi8YOM8RqnAadMeVrDMG9WbqbVIcrb77rvnhRA5bZTjyuDgUaA7j6mjcwyaFFNf9dAxUn+EOwUURYX01A5UHpw1DqJZCrBVhmmIzqWGCAsExiYC7kG/xWJ+v191urv71/n+g/wXlY6bvN2v7v+Y7l6Qjs9AIBAIBAKBr4oA/46a1SxAAoWisEVaF59R3sLy8Q2pTfmGZpQiEM8999w8e1LazTbbLPvJCHK+PLGEUIWeWXw4YotCKsrTcwxZx59DvPGXG42PiGA087E149968cWFdAwLBDoDAb85g0X6j35btvljq622Ws6+9I2KYrvE+jbQxIp6nCqc6e8xIiEm5CZzH3gZNCpWj11uX0lrdjIrZSDgmfCkzAxlpv/JSn+5X79+eZsQibmXS73yjurNPctKLHYzSdhSSy2VP8tMDp/ud/caH7WELqW8L23LJ8RbIBAIBAKBQCDQwxAYvzPbQw1ulJ1C2ig2pTkTv5tzbLTbCyGMUEacS8sZZ5xnZKk0Bx54YHY8LBxJtU6hgihuzRC0yFTOCpIZ6Y1o8uIkILvtQ9Q3U6U4nwNQiF7EuI4EZwkphsgqymv14DB4lTo5TznqiTTm6FCNc7wMGjCOxq677pr3IZAptCkHSmx40+uklS/Fj/RIc+XqrHhxzhDf1NqIdul1LhD82oZwtk3JU6bIapf2IPM4PLbhwmCNMNfO0hafyED7yqdOT6Mh6LVbx0Z9DZhIf8YZZ2Qn7Mwzz8y4ORchTiku5r32MecixnW0KPUL+aiecFFnHTRYFSW8Dp7fCOW5qcKudVggMDYR8Num8KEs8ul3X8x/oN+/QaFyz5Xp7u7Dk08+OR111FH5XjY7BXngdeSRR+b/QDM5/HcZMKIakqZ8d7/7b3Q/mIGDAKFqMnioTtRCp512WiYnOkooIO7L/3ZpQ3wGAoFAIBAI9AwEkIDF19IifrF1hfiXxf7xj39k5alnFwHF3nvvnQ95FvFt+WOXXXZZnvUnDf+ev+u45xARCTU6Mo1fr0y+Gr/N+kUM8UhswYqPnDdqb411rR1qEa+UffzF4r+XffEZCHxVBPRLCbb0h4ixlq+U1WHDESCO0jfTtxeOE4EfpHn8OgKBQCAQCAR6OgKdqjg/4ogjslqSs4tELuZ7ieVW9pVPyvKiqqTGLoZgZYgcRHt7hgCmUEfGI8ZNM1MPxvGhamac9UJg5R1fvNmnA1Ecb468zoX98rO/nIeURqQzaoRiyjEggBim3Ln44otTv2qkXyeDg7HbbrtlMkx+SC8EuHIoydWbMh9JXkb8lYOcRoAhyJBsSDkqHiS06aliQ8qHI6N89YS37zpC6qyOPu0rZHdpC6WD/fCjdGXyQFDbj1TXIaEWL+eU9lI3aKv9FErlOhaVg+mLTOy/gqtt8TKZepcOmW2EP5OeSolqwjVQr6LeoPbQORNKB8EIx7BAYGwiUKa7+437X6hPd3f/mClTprsLw2S6exlgKyof97/fv/8NefiP8F/gP8mn37y4mEhzsyykKdPd/beZ7m6AyXRc94sZLEh3s0EYckP+BsOamYE355tZU//vbpY29gUCgUAgEAiMmwiINU5UseWWW+Y4ynw3xhcj4mCeL/fdd1/2S23zD5nzqLul5XsSvhio5d/yA/mcZkmaEcnf5Q+X/M1IpaQ1cxC5zt9F0FOt8yOFJTT7kvE55Weg2POvmS1fEZn8fHk537MLUU+8w+ctC442Ozf2BQIdQWCjjTbKQiNhIcs90JHzekMa91jpV/eG9kYbA4FAIBAIBAKB8d4eNqx5oO8GbPpUxM4EFZkzrpj4bkimMW0U3zoW1KHIL8Q/px6phlhGhusQlONIcp0HhBeHH9lvJJ/q0zHqVCFedB50Zpjz5Yc0HtMkl3pQCY1LDtPn1QDA0Ip4bGZ9+/QZHkum2cHR3NeRe2uKVojM0Sw6Th+DCFx11VV5rYIy3d3AUZkGW5/ujtB2v1r4F8GATK9Pd3fPm4qLADALQz6muxuAQjoYyEKAm95u5gozKGfmCcUflXqZ7u4/oxDnCHMEBKKkPfP/Q51epiO3l/7dKu+2HiBdeX9V/4NtFd1e1eN4INBhBKr/8hEGfxtPnKwauB6/eiZ3lrX1zCpldOW9Fc+ugnLP+/S84Ica1DUzlAiBgIIRLPBh+ZYGZoshx4sq3DNLGs8zPm4xviF/tQg2zKjiCxdra+C2pCmfZnsSg6hja4bkR2jW69la2mb749nVDJXYFwiMGQSqPmznPTAbqhy+YQMgsdkrEIh7qldc5mjkWETAPTaciR2LlehpRet46JjoeCDAcDsIbz6CjkWZ+lo6HMIsUFULsWAfFbaQDzolCHUdEYSZY/LwKvmNadK8p12raE8g8FURQDCPrenuVHsx3f2rXrk4LxAIBAKB3ouAGVKFkEagF9IcIghx1khGF9LcMbOgHC8+rH2MIhdpzvipddLcvtZmOznWaBYbLXVsPFa2rRPUWM9yLD4DgUAgEAgEAoFAIBAIBAKBzkQgiPPORDPyCgQCgV6BgOnuQjExg1umoyMGTGEXVoWV6e7WPBCzv0z1LdPdxYRdb731soKc2txAmIG2+nR322W6+1xzzZVVf4hzC1KZoo5Ab5zubsCOGahzPrW5mS/NzHT3MnBnxovp82W6u0G+sEAgEAgEAoFAIBAIBAKBQCAQCAQCgUAgEAgEeisCEaqlF115KqBGQ6yNipVQLVRKiEHnN+Zb8mzcrxxhaxqVSvXym+VXP16+U+ErvyPW1rT3mO7eEQQjTSMCMd19OCIx3b3xlxHbPRGBCNUy8lWNMGMjYxJ7xh0E4tk17lyrqGnPQ6DqH47cIe2kZlb9yFHr2HZSuZFNIDA2EYh7amyiH2X3BgTcY526OGhvAG1cbuM///nPlqmtfBbK2BlnnDGT32IxU6VSxSLF+R0I7pdffjkvskSFykzZtRChOMsWQXzmmWeyItaiTmUBWDGSLcxUVlmnaEW4v/322+nWW29N4s8jvS0GRY1rejAifN55502LL754MpW4Pbv22mtzDOj20sXxQKArEKj/Rk13r1tHp7vXzynfO3u6e8m3tU/T3cMCgUAgEAgEAoFAIBAIBAKBQCAQCAQCgUAgEAgERkYgiPORMRlpD5V0swFsccjrJkTCt6pFVOuGnBaHEVGMrGbls6RDWFugqZkhnJ3bqNJWn08//TTnrX5Mmmb1LPkKJVEWK1SHEiPdAlFiq08++eQ5TyEapp9++vTcc8/l/BDeiHDnqM9iiy2WF5dCoiMN+/btm0nyv/3tbzmu+x//+McctmKTTTZJU001VT5GoSuPtdZaK4nrjlS36CHyfb755ssLp2qPsBPa0IhRaYO6iR8v3EVYIBAIBAKBQCAQCAQCgUAgEAgEAoFAIBAIBAKBQCAQCAQCXYHAiMxvV5QwjueJxD322GPTEkssMUJLKKR33HHHNGTIkKyWRgCfddZZadNNN83kL+LXuVTVFklCWL/77ruZmP7Zz36WLCK6fBVfGOm93XbbpbPPPjuTxe+//36Oh1zORy4jne+7776W8ocNG5ammGKK9Jvf/CZtv/32afPNN8/nvP766+nEE0/MZTUS+JdeemkaNGhQrisinrJV/bRDTGWfDMmPNFcvZDq1OAU6cv9f//pXmnbaadPgwYPTMccck8tRF+cjzcVevv7669P666+f80aozz333DlfyvUFFlggtx8mVOtMHYqJA10I+rKv8VOe6tbewlGN58V2IBAIBAKBQCAQCAQCgUAgMK4hwFf+0lse12of9e3pCJCFtSZ46ultj/YFAoFAIBAI9A4Egjhv5zpzVhHDe+65Z7I4H6M0p7ZGMiPEd9ttt0waU1H/+c9/zuQxIpzaGun83nvvZWU2p8JrlllmyUT3ww8/nI477risKN9mm23yQn9PPPFELkO50iLbEdhl20HE9VtvvZX3I+GR+vvvv38aMGBAOuCAA9Lpp5+edtlll5ZFCinR1dnnhBNOmOuCZJe/fRY3LHVTDpJ86qmnzgQ1lTqiHdFfFOqI/oEDB2aFuvrOOeecuQ433HBDPlcZCHZEPRW77wsuuGC65pprMk5bb711bmPjmzpOPPHEjbtH2IYFa02hP0Li2AgEAoFAIBAIBLoYAetojF89SzvLPqsGrMMCgUAgECgIfF755p//1+zSLgsNXYqKz0BgFBGoQnuON36aoBOfgaNYgUgeCAQCgUAgEAh0OQJBnHcQYkS1ECMMkSxEyccff5yuvvrqvI8C/IEHHsgENMX1SiutlK677roc2gQp/eabb2ayXZzxXXfdNZPaP/7xj9Mll1ySFl544XTLLbekJZdcMu2xxx4JsbzttttmtfcyyyyTw5+IqUwl/rvf/S6deuqp6a677kr77LNPeuWVVxKSfqONNsqhVSjHKbKR0EKmvPjii5m43nnnnbOqXPxlZD9CG2GOKC8v9Szmu7AsiGzhUSi8nYdUR6aLjY4wv+OOO/LggPMoyhHaN954Y06rDUKqPPTQQ3kAQH3kqQ4333xzWnnllXOdEO3qcPzxx6fTTjutVKHlU6gYSvpDDz00wQ/ZL1/XRHgcxLx9YYFAIBAIBAKBwJhG4P3qOdSnevZ57o6uIc3/XYUjCwsEAoFAoCAwQdXv8AoLBAKBQCAQCAQCgUAgEBjzCIx+L2/M13mslIhkRupa3HK99dbLynIK7M022ywttdRSmUwuFaMwF3ZELG4xvV944YVM7L766qs5tvfaa6+d01900UWZgP/73/+eVe0bbrhhzgsxLwyLfP70pz9lZfsvfvGLTGIjz6m8hYmhhBc+BQlO2V43xDdC/eSTT84LcNpGqFPJI6oZUhxhjeyud/iVwSjmDQ4YFBD6BXkuDrnv4qILIYO8V3/KeCFp2NJLL53zRrB7wW6aaabJ+KlD3SjRKdVXWWWVrLjX9kbTPnkaFEDcS7PccsuNQPw3nhPbgUAgEAgEAoHAmEJgWPVsCgsEAoFAIBAIBAKBQCAQCAQCgUAgEOhZCIzMUvas9nVqaxDZd955Z1Z+l4zFJD/kkEMywYwUpoA+8MADk/3Iasp0anPEMrU09TaVOuU1ghppjVxGRkuPwPbpOHX5GWeckYlypHpRVT/66KNp1VVXTRTrYoxTwiPBEfXFkMw//OEPc+xx5SDIlVPykE7Z9iPT7S+vEg7FwIBXSSctkzeVPBU8m3feeTN5nzeqNyR5PQY54h2pjoj3WV7SI/FXX331XLZ61utX8kOUr7baajktlfvss8+eZp111vypDnXSv5wTn4FAIBAIBAKBQCAQCAQCgUAgEAgEAoFAIBAIBAKBQCAQCHxVBEJx3gHkELOU1ueff34mfcURX2ihhfKZSG4LaCKLSzrb9jNkum3krxfyXUx05LQwKs4rCvA//OEPLQrtI488Mj377LNZzW3hTWUj0ynexRi/++67sxrdwqWIb4uHFvJc2Yh6ZLt6r7DCCk0J6VzBJm+FIG9yKHYFAoFAIBAIBAKBQCAQCAQCgUAgEAgEAoFAIBAIBAKBQCDQ4xEI4rydS4zsttgm5bc44YVU7tu3b45TjiwXw1sYFmmR5IhuymnbjzzySFaFS+clbAmiG8m9/PLLt+RXqrHFFlukCy64ID344IPp2muvzap0Smxxz/fbb79EbS50yd57753jjP/gBz/Iyu9TTjklq9uR8UOGDMmLjh500EGZlBc2phD5pZz4DAQCgUAgEAgEAoFAIBAIBAKBQCAQCAQCgUAgEAgEAoFAIBBojsB4bw8bNjz+RvPjLXv7VKFExqUVszfeeOMcW7ylAaPxpcTWLiFMZEX9XUKbCM9SwpkgqMUFL9u+I8oZ0h2xXhTmjfG+c6LqTb7KRLzXrYR3kQcSnsnDC7nOlC9ki7KEWelsU4fbbrstxz3v7Ly7Kr/PKyyHfvhh0+z79unz5YqoTVN89Z0dubemqMLnhAUC4yoC71Yhqdp6gHTl/VX9x7VV9LgKadS7GyJQ/Zd3u8Hnrry3xsSzy2Ljjz/+eFp88cVHuOLPPfdcxnrmmWceYb+N4447Lv3f//3fSPtb20H0sNNOO410+LHHHsuLlE8//fQjHLv99tvzeirFv6ofNOtvyy23rO/Kofms0dK/f/8R9ts4/PDD86vxgHVrLJzeaP/4xz+yoKKsFdN4vHEbdnzEueaaq/FQDhdoXZxGu+yyy/JC8o37hQ8UMq/4keW4WZAEI41m5qS1dqzvUzfXjo8opF6jCWHYrE6XX355nh3ZmN4i8xaQb/SDTzjhhPSTn/ykMXkOiUio4pyOWDy7OoJSpAkEugaBqq/aZX2v8A275ppFrt0bgbinuvf1idqN+wi4x4I4H/ev4xhtQRDnHYd7TJAPHa9NpAwEOh+BIB86H9PIsfshEMT5yNfkqwz6GusSXg7pav2XKaecMoek22abbfJMOTPmkK/EAzPNNFPL+ilm4UlPJPD6669nYrYZeaqWhAVHH310rrCQdhYW57fsu+++6Ze//GUmWM34s6C6vH70ox+lq666Koe1M1twhhlmyMIAi8CbTTho0KA07bTT5nVoLPS+4oorpu9///v5HCHx7Ft00UUz6Wyx+BNPPDHPCiSoGDp0aF7vxew/ZVcudxo8eHBacsklszjC4urweOONNzJpDg910jbtb2aXXnppxgzRzmaZZZb8mnHGGXNIP3WFgXrNNttseeDg1FNPzYIKxPISSyyRcbQGDiJbnVwXAg84Ibh//etf5+277rorLbLIIrlt0p911ln52k066aRp6qmnzmWYJamdZkM+//zzOW9r0MDR53nnnZcMUMjbcWvUbL/99nmxeKEES53UYc8990w/+9nPcrtsu06lTscff3yu0x133JHxNrghvd+GBepdTzNB4bLRRhvldYByRq28xbOrFWBidyAwBhDAP3RVMdV/R4gqugrcyLfbIhD3VLe9NFGxHoKAeyyI8x5yMcdUM3RiQnHeMbSDOO8YTpFq3EUgyIdx99pFzTuOQBDnI2P1VYjzkktRDSOJWVFZI8YvvvjiHPpu1113zcSp44hRx+abb75M9h588MF2t2nysTA7otZi6sUQsAhrBDYSuXKD8yFh9AYOHJiJ65/+9Kclea7PSiutlGfwOW7tmGJIcuSvUHqlDY5ZiwbBjjD/+c9/XpKna665JrfNIMA666zTsv+oo47Ki8wLq7fYYou17G/ty4fVDDrhA9XdmjlFKf6vf/0rhxCk1m9UvJ977rm5rojw+eefvyVri9Dvvvvu6cILL0ybb755y/6HH344DxrAXWjAYoht6/xYg0fbXRP2fjX76Oyzz8447bDDDi1Kcep0x5DnBjScW4za3OCDBebrMw8MMhjoQIoj5ovB5+abb87tdbzYr371q+SaPfnkk7ks17U9i2dXewjF8UCg6xDAP3RV7kGcdxWykW93RiDuqe58daJuPQEB99iIsUB6QquiDYFAL0LAdHcLwzYa1R51VzMz3X1UzHT3Zma6+8svvzzSIdPdKd6amenujUaZd8UVVzTuzttHHHFE0/2muzczarNCxjQ73rjPdHed7WZGedfMTHdvZqa7G1hqNNPdmxlC4Z577hnpkGv31FNPjbTfjtbqhIBoZqa7C/vUaIirZoZoQkyEBQKBQCDQVQhQL5900kkJ4VkIZ/+dhx12WF54ff31108I3SIcRKx6rlAvd4Q09zyhNP/oo4+yCplKudgmm2ySzjnnnFRf+8V/seccJbW61f8fN91003TRRRel3//+9y2kuXpRayP3v/Od72Slt7KKIfqds9dee5Vd6corr8wkvvB9VOIECMV22WWXTNAj89sz/+cIe4u+I+c9zwtO6kIVDjvEeTFEtHbgqjzz6r6BsCqeH9TaxRwfUq2VI+wfQprKvRj8PQOvv/76FtLc816dVltttaymVzbCnVGCu9YGLPbff/+STd4WHoZy/JVXXslK8XLQ2j3XXXddnpFQ9pmN4PmkThT5dZ8Bsc+38OzqCGle8ozPQCAQCAQCgUAgEAgEAoFAoCMITNCRRJEmEAgEug8COsmN093PPPPMNCrT3XX4dZg7Ot0dGY3Y6Oh097/85S+tTncXM7XZdPenn356pOnuykRk9OnTJ6v36tPddaSRCF013d06BaaUN5vurq6IAXWrT3c3iKHOjdPdEQNUgdI3TnenBOzodHd12m677ZpOd0e2+20og4KR2RauoNSpPt2dwrK16e6XXHJJh6a7d5+7ImoSCAQC4woCnif+E4XzQIQKE+J/FOmJoBaqhfr5N7/5TSafkdIGiYUEobaurzdTb7OwKnPMMUdaYIEFMsku1ApVtHyR2fPMM08OiyJUjPAqCF8xtBHlSGfkNkIdkV1ikStTKBVllrr++c9/zs9b/7MvvfRSWm655dIxxxyTDPQqjwn7sswyy+T/YAPMyHKEs5AmBouRw6VOFpf3Xb39VxcFeb1tJQ65gVj5eub7f1933XXz//2hhx6asXGOOsFLqBPhVjxz/feXdiOYhTNBag+r4vfDiQLeMw3WSH11UleKeefLR7mum8HmaaaZJuPnGeKZhgQ/7bTTcv3XWGONPMBBYa6t1vVxzZVlcMJ1Ei8e7p5bro8BBaFqPOvh/cADD+Q81cl1UiftUie4i11/5513pmWXXTYP4FPAU/JLq05hgUAgEAgEAoFAIBAIBAKBQGchEKFaOgvJXpKPTl2EaunYxe7qUC06nYjvorAuyj0dzZjuHtPdy0J6Md29Y/drpAoEWkOgI6FaJqwI2M8rInN0zNz1r1Wq4E+azBJpzHdcXBy0DOx5bol/zTzHxAxfZZVV8jZSljK6LDCJbEZGl5AdZukgrg2i1o1vIq630CzFfvvb3+Y42LbloVyhRqaYYopMEiO6EfRlgc2bbropk8MGKBnSGCmOnGXq8tprr+XBSduU6pTXJcQJ8hb5XsKImD2EsDYAUBZrry+4iYj/8Y9/nMspim+qe4PgiPa6nXLKKWmPPfZo2YWYhxOynV177bXJYKiwMYx63QCoeOXSsfoCp/wGdUNuI+oR7ch35SO3GaW4GPDF1NXAbLl28BVbvYSdce1chxK+BTZU4trD1AmGrl1Z9LP+fFInogDHkd8GSQ455JA8IDHJFwupO26w3OAKozYnBDDAzeDEF6qH1MkHGt4iVEsDILEZCIxBBKr/pOF/Sl1QZvWcGb0HcRfUKbIMBLoagbinuhrhyL+3I+AeC+K8t/8KRrH9QZx3HLCuJs4R5DqJ1GyFRHB9kAFbbbVV7niazqwTX93queJl4bLSkW2rNc4Vb1XsUwpxnVgkAqP8ohoTn1RnmiERKM5MqxdTVqe6rmi3TVWm08v4tjrtOr4lHq1Yq4W0UFcqQIRKIRWQEnPPPXe64YYb0sorr5zEdDVlnVGpGdTR+S51ygeavFGqUwiuvfbauQNvcTgq8YKTzjr1mvoUg7F8hQtAglDJiSXLxLSFhc59iadrujt1HHW6a2A6/MYbb1yyaxncKPF0KeXUSSgBJA/SA4lRCAJ5wANepZ6IDzFuTaVXtti1hdSgnHzrrbfy76DUiUpfiB3HTLmnYuzfv39LnajfkS/t4VdOCPKhIBGfPRmB9ojzT6v/kzXvvik9PPSd0YLhf2m8tMQUU6arl1w5jd8OrTAuEuejBU4HTvZMKf+NHUg+ziXp6e0bkxcknl1jEu0oKxAYEYHqf7qdJ9yI6Udlq/qfDOJ8VACLtD0CgbinesRljEZ0YwTcYxHjvBtfoKhaINAWAgji+nR3aevT3U899dRMeFO7sTLdXexSJHhrhhCnqivT3e+///5MVCPlTSfnkyKpTfuebrrp8tRoRDTloGnWyG2qPjFVSyzyMt0d2U9lx+rT3U0dp3JDHLP6dHf1Viayvkx3pzoUDgaBXepUprtPO+20WfWWM2p4K3HIYVOmu1MAWpishDcp2JTp7rKoT3dHkpdY4EhmbS/T3bVfG6n3kPjqZsp5US7Kh5Xp7qb/I8xZfbq7Oi255JIt8Xwbp7tL7zqV6e633HJLHjAQKsYAhjqpI4K81Anu6vTggw9mQv/II4/M4QpMd2cGYCgmTasvdcoH4i0QCARaRWCCSmm+/uBb0xPvD00Tjf+10Xp9o8rrkffeSfs9dn9FnHcZr9BqW+oHMvNQVWGSb30rTVaF/Gh8fV79x3S313+r50R3q1Nn1qent68zsWovr0kbftN+59W4VfY16vdBfA8EeioC/MTyaquN1g4qxq/k44YFAoFAIBAIBAK9DYFQnPe2Kz6a7Q3FeccB7CrFORLZdOnRne6O4G5cKNT17Y7T3S0iZ8p5THfvvOnulOslFmxMd+/4fR0pex8CbSnOv1GFjJh14BXp3U+HDwh2BjpzTjJZum251RKitDXrSsX5W0OH/u/bVbiSb1QhPMICgd6EwMeffZo+/KiKtz7ppF02clX5cK3f2L0J7GjrWEPgmmuuySGqiFT8HM36NFuVCTFldiJRhZmJZ5xxRl73wTFiEeKbhx9+uGWtCaGRrNkwKhbq2FFBK9IGAu0jEPdU+xhFikBgdBBwj41R4vzkk09uiQ1Zr/gf//jHvAhffZ/viL2ll146TTXVVI2Hmm6XhYIcFBIBAcjEUhRGwUJIdX8VSWjkvJBxOXH1VsGSFbdCNdTTy0foA/ExG40zIf8St9Fx399+++284FHjCL1Rfg5LY9mN+ZZtIS7UyyJajUYdbKGmxrpSnlKbNpo6aYP8ipW2wbqxrrbVVxxMmFG6Tj755El4i5VWWikvQFXyKZ9lYa2y7dM1oAoWz7TRhKQ4/PDDR6iTNNddd11ac801G5MniuNFFlkkq2NHOtiwg/JoaCsK664kH7qKOG9oXqdvutb133GnFzCWM3Sf1H/7Y7k643TxMd19nL58UfkOItAecT57RZy/3YnE+dwVcX7LWCTOh3344f+yAreD+ESyQKAnIfBBNcut+v1/6SB3cuMqHySI807GNLIbNQSs56A/q3/n5yjsYQmjaOahsIAXXXRRDkkozKC+uJB/CHX9UesZWE9Cv9DMSX3QUbHKB4/7a1QAi7SBQDsIxD3VDkBxOBAYTQTcY12+9Py9996bYwIjfD2YjWQji5GkwjkICyCUgbAIHsbiDIsvLP2QalQbQfr+++/nkfCpp566aZOFWPDwR5TffvvtmdxVFpJWyAFEoDjBwkUgkj2vhWOoE8LKUy+ksuPOUycEotF0YTHsFzZCPTkaHAtlSIMEF05BWUJFSG9/SW+/fKRnCGhtt1+7WiPQEfLKK6ETKETFgJa39qiTPDgzjiG+hdFw3HmwY1NOOWXG335lq6s2qCviHT72CecgP4MGwklIbx987Je/xZlsi90sjAcTU/vGG29MpvQJUwFnx8TInmmmmZJQHDBC5svDa6GFFsrxs79VTZG1n4KaE8Z5M8iinY8//nj+fSjbIlV+HxNXU2zFjxa2Q57iZMujO5reUXWJUp9vfit9rcJyXDDXvCebeyascxAQvqFuBqmGfVT9t/w3BifquMT3QGBcQuBblS8UFgj0VgS+OdGEvbXp0e5egMAdd9yRleP6jPpc+oL6adbKKevw2Mf0TfWXy4K/+gfFh9Yv8yppewF00cRAIBAIBAKBXozAGFGcG71GcFIaW+CuLGSIuLa4oVHvbbfdNj+4C2lnhHvDDTdMv//977MaHcncmskH6XvBBRdkMlnYgc033zyT9EWN7VyELtKVKccxhLQ4zeXBj2xGIisPcT7DDDO0HEPGcxKQ0I47Rz5Fze44Mt1+joU6iX3MOXFO2S+W8PTTT58xUVZpc65Ykzd5FcK9rixHyiOwnY/klmcpA3HPlKt8+xkiXSxpx+t1tR8+2lUU9cpFyM8444x5AEBZ8BIn2TGLPao/MruUe/rpp6eddtopXweKdItQOoasF2oDwY0Ah6N6w0yZFOymBBpMKWbqIKwsAmnBSWX5HVmAUqgSMbI32GCDkrzVz7GlOI/p7q1ekjjQwxGI6e49/AL3sub1NsV59cwORWwv+41Hc0dEoPJxu2yEPe6vEbGOrTGPAOGVvivznWq8LCyvz07QZR0hM3uti6O/RnE+cODATLb/85//zGlK/1JfTB+xoxb3V0eRinSBQMcQiHuqYzhFqkDgqyLgHhsj0tLZZpsth125++67k5AcxSiUd9xxx0zs+o4AL4ZwFkMNGYxYbcuQsCeeeGImwPfaa69MqFZty+QuoplzgFgupDkC1kMfWeuFRLaPUTlTbFNA1wl1eVCMS0cFXkzZFNlIZ+eW/qZ9yGLOBvV1WXDQcflIjzR2vC1zHGmunghtZH85R3mOUcnX66r+FONw873USTmFzOcklf0IeAYz+9WdlboaTNBmxxnyWygWZey+++7JIEc5tt1226UzzzwzWdwQac4cE0t71113zdP9KMpLG5D3iPdzzjknGfAodt555+UwMMp49NFHM3HvmDYh8k0TRKJ3Z5uwGrCIGLHd+QpF3boKgW98fcI0UaVkCgsEAoFAIBAIBAKBQCAQ6D4I3HDDDbkPpS+qX1sEU5dccknuk6upvrvZwfqvq6++eu6HWpB+k002SUsttVTadNNN82uzzTYbJdK8+6AQNQkEAoFAIBAIBDqOQNusbcfzaTcl4pcivJDXzzzzTCZAqc//9re/ZXIbuYowZ2Kn2V5ggQVazfuvf/1rVi4L7YKcvuKKK9IxxxyTzxXigyFtqalNN0PW2kaaI4gR19TuRslLWBLHjaAbgS9kOrIZWYyk5mQglKX3KU95ywuR7XwDANrB2VA2Ytu+QlA7x8rk6lwI5MZGKlNeiHJlS48EV5b6O6+8lFPqqlyKcmmQ//aXuvpeyPRS1xK2pdTXAAGivJDSylAHefpuWh+8fac8F7bFQABni8EO0e2zGCJ9rbXWSscff3wSz37BBRccIdY9Vf+tt96anTLnCLfDYTPb4Prrr89YOg/2rG/fvvm3sfzyy+ft7voW092765WJeo0JBGK6+5hAOcoIBAKBQCAQCAQCgUCg4wgQIBFJ6VPOM888LcS5/qbwqfp4SyyxRCJ4Y4j10s+0TTSm765vGhYIBAKBQCAQCPQGBLo8VAty+6677ko77LBDmmSSSdLVV1+dH7aHVzHOiyFixSlnSGAxqwcMGJCnjZkihpTdf//9W4jVct4BBxyQ05bteugO6uULL7wwE+RIXw95D3hOQlkkFDmMOEaiI6mR3Ahr4U04DYVELuFROA3Ic0Qx0hwZjjCXHvmu7pTZ0jvfy3Gq6RKjHImtfFgovyw2Wp/ipi7KcV4x9ZKf+juOFHe+sm0r17Zz1E1dtRfJbLuURT2APNdWeYhx7nzpke2U6/W6cpaKCl1dDXxwluxDbFMfaAsTl9z56667bsaCilx5VAnM+WKgc8bY4MGD03333ZcGVNe6/DYeeeSREWYlIN39dpiBA+Fedt555zTzzDPnevht+C3V8cuJa29jK1RLhXtMd69dh/ja+xCo/ltiunvvu+w9rsURqqXHXdJoUCDQJgLx7GoTnjjYAxDQ59On1E+sm65Lcd0IvvSTCb3qJo1Qnvp4+oOjanF/jSpikT4QaBuBuKfaxieOBgKji4B7rMuJc4Q1wrdujfsQ0GUku/7Arp/TbD/yt5C20tbzdczClIhe57KquS3f844mb/U09e9NkuZdHUnTeG79nPr3erp6nev769/r59a/19PUv9fT1L/X0zR+r6fznTr8sssuy1jW8XZes2tUv7aNaRqPOd6YZ327/l3ajloQ5x1FKtIFAp2LQPWfEcR550IauY0FBII4Hwug98AiP/ykms332X86rWWTfSH66LQMI6MWBOLZ1QJFfAkEOh2BuL86HdLIsJcjEPdUL/8BRPO7HAH32JfxNLqouEbSXDGN+wpp7lhVJx8jWbP9ddLcCfV8HaNAP/TQQ7PK2fmI13HNCoE+tuvtGvXv3z/93//9X8s1quOtfs2uUf3aNqZpPOZ4Y5717fp3acMCgUAgEAgEAoFAIBAYFxBoawBmVOtfhArI87BAIBAIBAKBQCAQCAQCgUAgEOg6BLqcOO+6qref85xzztkSe7v91JEiEAgEAoFAIBAIBAKBQCAQ6HwEpqrCBnaW4tw8ykmreMRhgUAgEAgEAoFAIBAIBAKBQCDQtQj0aOK8a6GL3AOBQGBsIBDT3ccG6lFmIBAIBAKBwOgg8M0JJ0peYYFAIBAIBAKBQCAQCAQCgUAgMO4gMGLw8S6stwUnn3jiiaYlPPTQQ03DqDz22GNN01u006KbjfbSSy817mrZfuqpp1q+t/fFQpoWsWxmFrRsFvKltba9/fbbeRHOxryee+65xl0t288//3zL9/LFwpra3cwGDRrUbHer+5555pmmxyy++fHHH490rLXrIGEzzF9//fW8+OhIGVU7br311ma788KkzQ5YiLRZuJpHH320WfLY1wsQMN39g48/6pTX+x/9Ow2tFt4NCwQCgUAgEAgEAoFAIBAIBAKBQCAQCAQCgUAgEAgE6gh0ueIccfz4448nC0FeffXVaYMNNsgLgc4///zpzjvvTBNMMEE644wz0k477ZQ++eSTtNpqq6V77rknTTTRROm8885LW221Vfp3RWwtueSSmXS1AvjAgQPT6quvnhDuiy++eHryySczuYrUXn755XM+8847b0K6KvfZZ5/Ni4gieaeffvo011xz1TFo+Y6MRyqrxx133JFWWWWV9PWvfz0J+XLvvffmep9//vnJKuPSrLzyynn/N7/5zXTBBRekzTbbLB9bYokl0i233JLsv/baa9M666yT9y+11FLpkUceybHAb7rpprTWWmvlfBZeeOGcD4L4gQceSP369cvE/ayzzpqQ+G+++WZuw4QTTphmnHHGNPXUU+e6INg//PDDfK52ijG+4oortrSn/gUh/te//jUvlnrppZem9ddfP5dtAVVk9reqKb8W/dx4440z3iussEK67777cjkXXXRRvg5WVoc3bJR1++23JzjDf+65507DKkLznXfeydfbSuvq+b3vfS+3wertjvstGHiA63zzzZe3XWvXfJFFFskxzmebbbZ0//335zpdfvnlOba6+quTa6yuZ599dhowYEBuw7LLLltvanzv4QjEdPcefoGjeYFAIBAIBAKBQCAQCAQCgUAgEAgEAoFAIBAIdAMEulxxjjyeZZZZ0oMPPpgV0zPNNFMmr79dLWiEPLeNdEbqLrfccpk4nWGGGdIrr7ySiVZkqzQIdqQwMvzoo49OiNnvfve7abLJJkvSI8SHDBmSrr/++ryNjEWoXnnllWnHHXdMW265ZULiI8Fbs4knnjjNPPPMmcRF9CKup5tuujRpFZdyjjnmyETvmWeemYnmH/zgB5lUVjYCmxocwY/0RgprC1X0L3/5yzT55JPnvCxYivieZpppMhmOXLetbfIzsGDxzU033TQrv9VlyimnTLPPPnvOS9vVo2/fvhlTpLqBiF/84hfpqquuynm01jZlqJs6GSBAtNuGE/LcgMHJJ5+cDEwgsO13HM5Ia9dPXS3Q6ToYvDjyyCPzoIAy4S+ta60MxLe6aruBCvhsuOGG6YADDkh/+ctf0tJLL53Lgt8NN9yQqNrhIp8pppgif4f7iSeemMl1pLk2+C34TRgw0A7nh/UuBEx1n7T6/+iMl4XVmi1q27sQjdYGAoFAIBAIBAKBQCAQCHQlAvq6xEcES4RETL+VKOiaa67JfV/79JPs+/Of/5xefvllu3I/T99Kf++9997L++pvxE36znUjMKsb0VbdlNnMlEHIJf3TTz+dk1xxxRW5b0fQpD/NiJheffXV/D3eAoFAIBAIBAKBnoxAlxPn1MEITkTyAgsskE4//fRMjgKVGhkxSr2NHEZcI7GQxdTVCFwqcem+9rWvZTIXkY3IpZpecMEFM5GLbEW+r7feemnrrbfO1wsB7Jz9998/K6KPPfbYtPbaa7dJkiHzOSjI6GWWWSbXVXnqhLBFUCNstUW7kMiIYfVFBAvvoi72awuCW4gaSm4kvHwQvVTriHJKdPXUVnVF8Avhcthhh6VVV101t0PeVOv9+/dP6667blay2ycvZLJ2cb723nvvnEc+qckb0llZSGxKeUS1usin5IdMVxYC3H5EObW5cyjKtUk+2kex/uKLL6af//znLSp3CnPk/0YbbZTretddd2UM5GWGwEknnZQJ+EMOOSTnY1AFob7bbrulbbbZJg9ywFv+BlU4k5xD9UHkw8hAiVAwjr///vstv6UmTY5dgUAgEAgEAoFAIBAIBAKBQCAQCIx1BIiU9CEJkErIzqFDh+ZZ1fqoDz/8cK4j4ZCZ1vqj+pb6vfqdiy66aO7L3n333SO05eabb86zj6VFcMvHPgT3JZdckvtr+mfycVxoTv1oM4CR56+99toI+REw6YObeS3Uqb4ssZry9UfNnmb6hcRiZmKHBQKBQCAQCAQCPRmBLifO//73v+fRdSE8EK2cBQR0sQMPPDCTrNTIjIr6mGOOyWQuBwPZTtlMzc2kQyAjipnwJkcccUTO18i60fYLL7wwvfDCC/n4tNNOm0477bQkTArFdzNTrxImhbOBPKci59z8+te/bjllr732SltssUULqc1ROOGEExLCXYxzRD7S20AAQyAjwA899NC8zUGhuOaIILuRxr/97W9bRuvnmWeejA1SGsnNzjrrrIyFEX9tUk9KBKZchLYRfyR3a8ZRQkBLh5SmCIerunKGmBAt6gprhkTXXvuGVEp+pPVxxx2XnS3H4aktm2++eXaa7Dv11FMzkQ0LmH7wwQfpxhtvdCj16dMnt+O6667LRLh9nDHXzKewMBwy5Lo2Mg7jdtttlzbZZJO8jShXB0p2zmG/ShG/33775d9MThBvgUAgEAgEAoFAIBAIBAKBQCAQCHQzBITyHFStS2XdKn1ZJjyl0KWEWchzRqREma4fRSSlT+hFha5/JtRn3QiizMbVr9R30sdDtOv/6VPqI+pjEiEtv/zyOZTmGmuskfuR9hOo1U356qm/qc62KdoR9vq4+vJMf424iRAqLBAIBAKBQCAQ6MkIjFcttDecpWynlX2qB/AEFXn6Vc2DHkn84x//OGeBIKfE9gBGju6zzz6ZhBXvuxiSVOgS5nwPbCFCqJwdE3aFkplimxlNp+JmCGGE7ymnnJJ+9rOfZaU2QhzRayS9GJKXIh4pW5wYjsbFF1+ctt1225zMNuU1p0UYFWSt0C9Uz8Uo50vblM3hEQMcqa++Cy20UCbMOR+sxG/3XdsQwYjn448/PqsAOEsIY6oDhmBWPqKcGYig3l9ppZWyw/P73/8+bb/99lkZnxN88WYggUOm3cX+8Ic/pJ133jlvcoSEjBGK5aCDDsokvxA38kWyM6p2bWbIfzHNlW3QABnPcTJIUAYmXCdqdup7Jka7wQvOHOdK22FbJ/tNBzSgwAxIwN91VW8EPWK//tsw+GLQhcEPsd+afV7VeWjlkDazvn36jNdsf2fsq3Dp0L3VGWVFHoFAd0Sgmm0S91d3vDBRp1FCwILErf2Uv1E9e2YfeEV6+9PhA+ajlHErieeeZLJ0y3Krpf+28QiJZ1cr4MXuQKATEIhnVyeAGFmMhACVN3KcSrv0BynCEeH6R6XfJYSlmcllRrJ+KAW5vpm+YOPzSHcDcY4s178mrKIiR4ibpUstrk9McEQYJhQoMZbZ1IRZBEl1M+MXYS9f5a655pq5r6h/iHwv9dQe/bNRtbi/RhWxSB8ItI1A3FNt4xNHA4HRRcA9NsaIcw9fo+mmdTEP9kJ4l4Yg0TkT5YGMzC5kLHKUNRKkzvEQZxwLDkUx5HMpr+yjXOdY1I2yXaiYYshheZV0jflKh9ytOy/1shDn2lDaUfJFUmsfa6xHa2WUUXx4VZer1fPlyWmi7G40CgVT/oq5Dpwqpk6cN3nXrU5G16+DNHXMyznwKHV13HUqTmG9vJK+sa71PBuxcU5jPRvPL/k2+wzivBkqsS8Q6HoEPGO6qpTqmRIDU10FbuQ7AgJBnI8AR2wEAj0egXh29fhLPMYbqG+IaC5CJuIxoiOhUorS3Ixpoimx0Eu/TbxxM6CJlsz2ZUJ+EnB1hemzId2FGGWIfYQ98RklOxN7nRgqiPMMR7wFAmMdgXhmjfVLEBXo4Qi4x4bLn8dAQ6uyRiCxG0lzVSgEeKlOIc1tNxLmJU39nDpp7ngjaW5fIcN9L1Ynze1DeNfTNeYrTSGJfWf1sgphPPzIl++FNLennr/t9spoxKvxfHk0I83tL86X76yQ5r7X62S7WB3v+nVwvI55SV/Ho/F4vbySvrGu9XOata2xno3nl3zjMxAIBAKBQCAQCAQCgUAgEAgEAoHugoC+odnHiHLj/mUGMTW4MJYEUvpr+l8EXNacIioSa9x6WvZRohMqlXWwuqJt+mxU6V7qNN988+X1qoReVT6hGDV8WCAQCAQCgUAg0JsQGGOK894EarS1eyEQivPudT2iNr0HgVBA9J5r3ZNbGorznnx1o22BwMgIxLNrZExiT+cggDT3qs9Krs/yLaU020e13po4q5zXWZ/Nymq276uUF/fXV0EtzgkEWkcg7qnWsYkjgUBnIOAeGx7EujNyizwCgUAgEAgEAoFAIBAIBAKBXoYAdeaoGmKMerMYMs2igZ1tFocvJgyDcsMCgUBg7CBQ9b1HIM3Voj7Lt9Sq2b4xRZqrQ7Oymu0r9Y3PQCAQCAQCgUCgJyMwxkK19GQQtc0Uurp6oN7eZqoBHSTOUzNrll661s5prezW0tvPGstvLR9pmx1rLX/pR7UNo5q+tTYoOywQCAQCgUAgEAgExgwCb33ycdrhvtvT+Gm89LXKr5nx25Okg+ZZMH38+X9S34m+kSYav/XFu/d7+L70RhV6gE1UhSj4BKlbuUYLTT5V+uEc3x8zDRjFUvhDV155Zerfv3/Lmeecc05esLweVs8C8RZn33XXXdOUU07ZktaXo48+On3/+9/PC/PtsMMO+ZgQCWId33vvvfk8C9vzK5VX/C0L/Vk8fc4558yLrK+22mrprLPOyuc999xzOZ9DDjkkryG000475XWC7rrrrrTvvvsmC7cLt2Bx9a4M9ZAr8RXfDnrkr+mpYUPzb+A/Vbt/ueASadJqbaAKgfS9bwxfm6e9rD+qfnf7/u2+9NtFlm4vaRwPBAKBQCAQCAQCgUAgEAgE2kUgFOftQtSxBCeffPIICXV02J/+9KesJChEb0l03nnnla/5s6TXYbLSOauf88ADD6THH388768fs0jmCSeckPeXPEoiC7rUreR37LHHZtK8Mf2vf/3revLcWbPDYjWI7cb0p59+el7wtZxUjj/22GN59XXllX3SvPPOO+nBBx8syXP7Sp1aawP86lbykx7xX7braeJ7IBAIBAKBQCDQHRDwjPvcs7B6GbL2Waz+vewbFz+nrMjxATPNnj797+dpkb7DCe/Bb/0rHf34w+mzL3yh1tp16DwLp5MWXTqdXL3e+OSjdMIiS6WTKsJzx1nnbO2Usb6fP3TwwQenn//85y11+clPfpKOOuqolu3rr78+DRo0KA0YMCAvAGhhvbp973vfS/w6SvWBAwfmGMd8pBLfeNlll0177rlnQp477rXLLrvkvJTPllhiiYRIX3nllXPcZIv5TT/99Jk0tw7MgQcemGMmn3HGGclaPhZZFzf58MMPz7GL6/XpLt93n32etOr3pk9PD30vbVv9pqauflsb3HFTeu/TzzpcxQmrgZr2fncdziwSBgKBQCAQCAQCgUAgEAj0egRCcT4aPwGx3u6444700ksv5c7IdNNNlyaddNK8aAqS++abb86rjlP56BBR+PiO8LUS+SuvvJI7Posuumh6991303HHHZf22muvvHDob3/727TNNtvkvIcOHZrOPPPMvCinVdQtEqMs5DvFk9fuu++eDjjggFw+clq97rvvvqxyoliy4Mxtt92WFyHdeOONk/ytzj7vvPMmqihl3HTTTWmaaaZJFqqx8MszzzyTy9h+++1zPZ566qm0yiqr5HxN19ORe/PNN3M+lFPaZQBht912S5NNNlk66KCD0t57753ef//9fP5FF12U3n777bTHHnvkeswxxxyZlJen1dl1EnU+la/uCHidvO985zs5vY4k5dSQIUPSuuuum2688cbcvvnnn7/pNMfRuLRx6lhCAMn06quvpmmnnbbDNXDvuCeK+U1ONdVUZbOVqm4wAABAAElEQVRTPutllEGkxgVrO6WgyCQQCAR6DAKI8e1mmSP9ftFl0++ffSJd++pLab3p+qXd778r/XD276dnPxiWbnrtlR7R3pv/9Wraada50uyTTJqueeXFtM50M6bHh76bJp7g622279uVL8H2enBweuidt3J6qvXubojvWWaZJft0Sy+9dPa9+HxHHnlk9oUeeuihtNZaa2Vfbb/99sv+HlK7GMKbH/PXv/41+1kWmCeEQG7ff//9afHFF0/rrLNOWnjhhRPfCQF/7rnnpocffrhkkf3Gjz/+OC/cJwQLX49vxg9lCyywQN7eZ5990iabbJL9POnvueeeljy625e73ngtLTXlVKnPBAum2//1Wuo//Uxp8gknSnP1mazdqv788b+lv1W/oc/++7803be/1W76SBAIBAKBQCAQCAQCgUAgEAh0BIEgzjuCUitpdFBWXHHFRNm96aabZnJ8ww03zKl1WJDXOlaOI7WZ9L/73e/SFltskcngFVZYIe/XaUJW9+3bN0/DlR/F0DzzzJNVSzpQOlQTTTRRnt7rpI022iiT3qbqIp5Lp0ye6mYldCTk1ltvnctY4//ZOw/4KoqujR8ghNB7b6H3XgSpCkgRREFFBRQsiKJ+dtHXV1B57diVoliQJiJKU1SK9N57773XkITAd/4T93ITkhCQchPO4Xe5e3dnZ2eevTc788wzzzRvLh999JFwHKU2q7sTqJX69+/v8jh58qQrI/vLlCkj2bJlc3Xo3r27m1oMOQ6BDUFOXdKlSycQ16QjyBuSkU4h04+pDy9UVJQDP08GHGrWrOnSM4WZTuE999wjlA/FFNGoUSOncqdzunfvXjclmf0NGzZ05QBXVFRMd04ucb1Nd/fuG9PMGbhh0IRgYMcbYOLzmjVrJFeuXDHIcfaPHTvWfb8ZEOrbt6/7voSEhEiLFi0c8cD3rFmzZu53xm/HC4gDBnQgLXr37u3UeQzC8Nvlu8gAFwNI/L54MXADITJkyBD59NNPBb9Yft/+akMv70B5t+nugXInrBzXOwIhqYLk0bnTpGb2XIKFBErYTPp8fq/KDRI8dIAEp0oeE/8yap1m7Nst1bLldHYtqf5ZQuf02TPyxrKFkjIOMrx+rrxSOWt2eWTOVPm02o2y9eRxVeWjyA9s4px2EAOotFseeOAB155hIBWCnOcVNiovvviiExWMGDHCtW1i/w4KFSrk7F5QgtOu2bFjhxNADB482JHmXnquwXNs5cqVrv3nzdLj+Yc1C8+zVatWuTYWsxXD1PaGthfPRNpUPFt5poaHhzuhRpcuXVz775dffhHanYEWfE9ypkkrv+1cIqEZMrried+Gv/fulL+VTI8dUfod66EzF/5Troo7xAwPBqcsDAFDwBAwBAwBQ8AQMAQMgcuBQPLosV0OJC4xDwg4yOJdu3YJBPY777zjy4lptah8UFh70a9fP0c8swAUBDRKcQg+ApLu9ddfd0S0p5iFfEeZTgcHEhk1OUpwAkKP/ZB/qLYJOk102MqWLesIZzpldJC8oAPVoUMHefLJJ71d8tprrzkScc+ePc4nE3WSFyjgUbmTJ51FAvU7Knk6YpDnWL/QOSPAApU49YPcJigvnUdUwXQ2IdaXLFnijvEf6mJIU9RZBGkg6lFcQcBD8DPY4AUdv3vvvTegiUuvrBfzfr1Ndwcb7jPfC743DKbwHUOxt3TpUh90KPL4bfE99Q8GfyIiItxgzG+//eamujNLwVtrgMGjkSNHuu+oN9UdAoLfKGQDwcAUg0UMWpEH32fKwCAU53/zzTeO0EDlx7R6jkOY8/1dv369f3ECatumuwfU7bDCXMcI4MyCgvqWvPnlpD7rHytRVna2uV9aTfkj2ZDm3F4V+UrZzFnlgPqdR2ilX1SP6S3HjzkK/I2K1aVnhWrnvW7OnU+yqZr453pNJH+69HIasJJA8AzgGUJ7jUFWnk8Eg7GeSAIinUFd2lPfffedO+7/H+0dSHIEDjzLmGmHtQvPHS84n0HkHj16uDaP187iOF7oCDAg4Glr0WbkOD7pzCbk+jz3GBBGeMEsSAaVmUE4ZsyYgCTNqRcDLSjMT+ogU1CKVDJdB2MWHtovO8NOSsNc+c77DvG9erNiDQlKea47g2WQhSFgCBgChoAhYAgYAoaAIXC5EDjX0rxcOV4H+dDpoCMESY3imXcIPAKlD9YkkNB0qiDpsGDxfMtRANGxgXRGuYpym7REz549nXoJspwOExEaGuoIZfJkGi/qI4hlAu9xLGAg4FEXESi6uR5puQZkOyQ6wdRhPMOxUIGcJA1lf+aZZ3x1oB6Umw4YeaGgopP4wQcfOMUT+XiKXDqOWK+QF2Q4QToIUMrL4lkEqnQGCLge04nr1q3r828HS5RUDBp88sknbj95UQavDhCrdEgZYICsxN8c3088RlGjJ6fwprvflr+wm+5eXomIgukzJGq6e0adEv/akvm+6e58TqtK/0AO7v3tt9/uBot45x5DonvkA2WHyOY7ywCOf/BdrV69uiMMWCwNBR42LZAQ3u+BWRvM+GDwCbsipr37q88hzRnkYUYE301mdHA+U+8JZlLwm4FsSJs2rVOk85vhWt7AkH+ZAmXbm+6OAo/p7lmUiLiY6e53TvtL2qivbFBKT+sXKDWzchgCSQMBfjm5QtLKJ9Vqy6kzDI6ncOTe52tXSJoh/WXi7p1JoyKJLGXm4GCnHu+5bIFatpSWIXVulraFisou/XuZ2Egqf20QH/DMePjhh4WBfCxUCAZteV7xjGERTixREFd88cUXznrOwwHVOAOxENl4nKMYRwTBgHHGjBndGjGkxbKFdhS2fe+//74TKdCe8gKVOs8jnnM8C3lG0T6jvURQxp9//tnNHkTAUKVKFWfJx8ysQI0meQpIt/kz5A61aCmXOYvUzZlHFjRrI9P27k6wyOFKlm8/eUJ26Gv3qTD1RI+QXadOyo6wEwmel1QOslBqhLaPIu1lGATYd4DvZZR+Py0MAUPAEDAEDIHkjECKA0ePJkrik0kb60EBTsJdrRs1adIkR5oVLlzYd0kUqdg3EBDWdIo88o19kNbYkNDBIegoYYXiBUQ5KiGIO4LOFASeZ12C8holUo4cOdxxzsdHHGKcgEBHBQvp6AUdJRTnBOQgqng8zQkIylmzZrmpu55XM2X07Fs4jp84U4i9QM2LOtzzk+Yz+Qdrh5lgYVO8zun4EZCVENtennTwIMNRyhOQ4Fzbw5Fj4EYd6HwS/jhB5lMn1O5eoEYmf3+VlnfMe6dBd0RJ0bgie6ZMV6yvrp3jRP22/MvVffEct5DcU6UqKHG+WX1iQ2XIlvXybOkKiZ7u/n8LZsqwuo1UrRX442LcPwZAWEiNTr4XkORYuPDdQpUHIYCXv3/w/WMmAmkYbGE2BbZD9evXd76xXlq+MyjFUe7xXcPTn8Eqfq8M0BB8f0jHLAe++wz8QJij6oNQ57fMbw1CBCKe3yn2RiVKlPAuE1DvP23dKPWUcHhh0Ww33R1FXsu/x8vYhs3kQtPdPeWeN929X816l1w3/R0H1O/rkitiJ17XCGg7yfdMig1EiP7dKvnHSDkQER77kPtb3kV9v/E6f1kHsdpN/0tm3nK7s2w5osReiTE/OoVt7BPLZswiE+s3jbGQaOw0gfTsCtPB/Cnqcd4sX0GnFGYA99kyFSVf2nMkb+zyx/UZ0v2/5as6hX5cxwNlH20zBmuZ+RY71q1b5whz1qHhmcKfQJ4XDNxi4eIFanGeXQwAs74Lzzg+04biOYMogzaSJ8rgPAhvCHnWt6H9yIwo2n20qbgObS5s+3gO0vzACo81eHh20dbiGUt+lAcyPxCj3/pV8qj+ZohR2gZadfSwdC8b3bZOqLyQ5ON2bPW1e7BAiog646x/WGQ0LqughPKzZ1dC6NgxQ+DfIWC/r3+Hn51tCMRGwH5TsRGxz4bA5UWA35gR55cXU8stABFISsQ509vLqMqqStYcMkUXyZqzf68qhYPl0+o3KpmQOCL89ql/yoh6jX0dyAC8JTGKxOAIC8r26dPHN5i0bds2N+sCpV18xDmZMHsBNTjEOQNWKPjIi0EhgnxQspM3MysgGiDNGYjCRmnLli3y1ltvOeKBxW+ZDYLyD6sW7IkgzSHIUfExMMRAEXky9Z10+ifUXSfQ/huqgy1tChSR+2ZOlIpZckijPPnk7ukTZL4q9xJLZuHH/LQu2GfEeaDdXSvP1UbgUolzCPPHdBHQUzoY91blmtJa7Vnah5aQJ+dPl9fVvmTENlUbHzl8XnWSGnF+XgWu8x3+Qor4oGBGH88Pnjls8zy52MDjHDEGYgbyQqiA6t0TJzCjKr7wV67Hl+Z63q94XrGH+6WIKq7ne2F1T34I2O8r+d1Tq9G1RcB+U9cWf7t68keA31jimLjkj4XV0BAICASup+nuAI4tEdPNsWJp3bq17x5AXEN2o+zzXr6D/2ygUseDHyIbZR5qOqa6Fy1aVF544QWXis8ozLEPwsMcOyDSeZMBmKnBTAyUfCjQ8ZlF9cdUfAJSg8XeUKrjlw5RD5HOrAr9++nSBOJ/Nt09EO+Klel6ROAMCxeqD/M7KxepZVL07KwbcuQSFsZUY4/rEZJkX2dv9mFCFYUo5/lCXAppznmetzkzpniuoSz3SHOOQ47H9+K4hSFgCBgChoAhYAgYAoaAIWAIXBiBc6sQXTitpTAEDIEriADT3aup0hy1Of6w3nR3FlC7mKiUNbvSMUmDkNm8ebNbnJP6QZ4zRd2zDsKnFUU4vuRxWfGwUC4LnrHAJz7+qMAhuVGo47+P1dCQIUPctHaPKGc6PJ79+NISkPJYs0CCe2koAwu+8ZlFa0mDBz/k+VNPPeUWY+vcubN8+OGHPtsil1kA/ffztk3y9Q31XYmY7v7OysVuunu7wkUTLOVBtZsYv2ubb7ZC64KF5Y+d2y95unuCF7ODhkAyRwB7iIEb18rIbZvllP5952/KwoP7hYWgn1s4S5YdPnjRFhLJHDKrniFgCBgChoAhYAgYAoaAIWAIGAIBhYBZtQTU7bDCXAkEkpJVy5Wof1LNE0IbNbrngR+7HhxnMVBUdkxRz5UrV+wkF/zsKc5LlSrl0uLDjy8tZD0R31R3CDCUfIGsOncVuMb/KT5XbARH78FFryFwjeGwyydRBC7VqsWrLj7oXqRXdXCrfIWlty4aesP4X2T98aPeId+7WbX4oLANQ+CaIGDPrmsCu130OkHAfl/XyY22al41BOw3ddWgtgtdpwjwGzPF+XV6863ahkCgI4DKPD7SnLJzHNKcuBTSnPOyZcvmXmwTWLB4pDmfzQcWFCwMAUPgUhHAjuVA204yY/8uqZ4tp4zasUXWHT0ihUYNluOROtvlUjO28wwBQ8AQMAQMAUPAEDAEDAFDwBAwBK44AuZxfsUhtgsYAoaAIWAIGAKGwPWKwNYTx6TxhDGy6fgxeWDGJMmpayqUyJDZZw91veJi9TYEDAFDwBAwBAwBQ8AQMAQMAUMg0BEw4jzQ75CVzxAwBAwBQ8AQMASSHAJR6iZ0UtcNwFMoIuq0bDt5Qr7X9SvWHT0qT5UsL+UyZ01ydbICGwKGgCFgCBgChoAhYAgYAoaAIXA9IWDE+fV0t62uhoAhYAgYAoaAIXDFEcCCpUymrHLivkekYPr0sqLVfXL8dKQM37Re9p0Kk8rZcsgiXSjUwhAwBAwBQ8AQMAQMAUPAEDAEDAFDIHARMI/zwL03VjJDwBAwBAwBQ8AQSIIIoDLffvK43Ddjonxc7Uap/8dIqZ07n4xp0MzV5vmFsyUopWkXkuCttSIbAoaAIWAIGAKGgCFgCBgChsB1hIAR59fRzbaqGgKGgCFgCBgChsDVQQCF+eMlyjml+d1FSsrzZSrK7VP/kCWHDsqm1vfKyO2bZFfYyatTGLuKIWAIGAKGgCFgCBgChoAhYAgYAobARSNgxPlFQ2YnGAKGgCFgCBgChoAhkDACqVKkkGaTf5duJctK3/Urpc+aZZIqVZC8oAR617nTZId6nqfUNBaGgCFgCBgChoAhYAgYAoaAIWAIGAKBiYAR54F5X6xUhoAhYAgYAoaAIZCEETijZT979oxkSp1aglOklP8rV0m+XLdC3lm5RFoXKCxplUQPPxOVhGsYs+iRkVFy+gy1tjAErj0CqdQKKTh1qmtfECuBIWAIGAKGgCFgCBgChkCSRsCI8yR9+6zwhoAhYAgYAoaAIRCICECY72n3kPRbt1JSq7L81fJVZcS2DVI/Y1bpVLSUzN2/N9kQ52HhkTpIEIh3wcp0vSJwOuqMRJ05K2nTWFfnev0OWL3PR+DUqVMyb948SaHPpFSpUkm+fPkkPDzcbWfLlk02btzots/oIGiOHDkkvS5uffz4cSlcuLDL7LfffpNbbrnFbc+fP19S6gBV9erV3fv5V7M9hoAhYAgYAoZA8kDAVqZKHvfRamEIGAKGgCFgCBgCAYTAASUjBm9aJ6EZMsr9xUrJ4chwaZqnoLQvWlIypw6W5MIznz59xkjzAPreWVHOIXBWR3Mg0C0MAUMgGoGoqCjZvHmzVKtWzRHj6dKlk3HjxknGjBndq2zZsrJkyRIpVaqUFChQQP7++28fab5lyxbJnDmz/Pjjj454X7dunTsH8tzCEDAEDAFDwBBIzgiYDCM5312rW5JEwKa7J8nblmwLbdPdk+2ttYpdJQQ+XbNcPq56ozy/cLY0y1dQJuzaJi3zR6v3rlIRruhlokxqfkXxtcz/HQKozoPMseXfgWhnJxsEUJCHhYVJ2rRpZcyYMdK1a1e56aabJGvWrBIUFOReHFu9erUjz6tUqSITJ06USpUqyciRIx2JHhERIb///rsOmJ6VDRs2SJkyZZINPlYRQ8AQMAQMAUMgLgRsiDguVK7wvsjISJkzZ47vNWvWLGFKnMX5CAwYMCDGTpQSNNyI0aNHu+mFMRIk8Q9Md49UdRQ8hL0Mg0D4DqDWCws/ncR/WVZ8Q+DqI5BWp8HPOrBHelSoLsdPR0pqVeVN37db0qRMJZHqfW5hCBgChoAhYAhcTQTWrFkju3fvlrFjxwoEONYrWLX88MMPcvDgQfniiy9cn5Rt+lz0Vxs2bOjU6TfeeKPUq1dPWrZsKWzv2rXL2bpczfLbtQwBQ8AQMAQMgWuBgBHn1wB1POXy5Mnje+XNm9dNefvzzz9l4MCBcvvtt8vp06fl0UcfdQ2aV155xVfKPn36OIXA888/70b677jjDpk+fbq0bdvWNXyeeeYZGTFihEvjnXTXXXe5NKgK9uzZI2+++aZ899138tNPP3lJAu6daYT9+/eX+++/X9555x3XeKOQL730khQsWFB69eolNP4mT54ccGW/1ALZdPdLRc7Ou9II2HT3K42w5Z8cEUitC4K+rqR519mT5cetG+T5spUcaV48U2ZpV6hYcqyy1ckQMAQMAUMggBGA7H7ttdekUaNG8vTTT7u+ZNGiRaVx48aCx3m3bt18fuWIuvBCh1gnNm3a5JToO3bskEOHDkmrVq2kSZMmLo8ArrIVzRAwBAwBQ8AQ+NcIGHH+ryG8+AwYzf/qq68ENfU333wjX3/9tcyYMUN69uzpiGIaNCtWrBB85lq0aCHHjh3zXYRtGjdMnTty5Iik1sXH8KmjYYNygEYMyoDt27f7zgkNDZXatWu7xV1o7JCehV327t3rSxNIG1u3bnWL01DuN954QypXruz892jAPfnkk04N0b59e1m5cqXMnTvXDTIEUvkvtSw23f1SkbPzrgYCTHe3MAQMgcQjcERV5r9u3ywzm7WRr9avlpIZMzsF+tJDB2S4EukWhoAhYAgYAobA1UQgODhYDh8+LOvXrxc8yvEnZ5tFQhFJeME2nubeAqDsz5kzp5QoUUJYYDRLliyufzplyhSnPPfOs3dDwBAwBAwBQyA5ImAe59fgrnbu3Nk1OoYOHeoWaEFRnilTJkeCUxwU6HjGsVALgdccCnS855g2h8qaxg4edTR4mEZHQ4hVzxcsWCBHjx71qQM4H4J96tSpLg2fIZxJkyZNGj4GXBQqVMhNIWQwAGUEK7xnz57dDQ5Q/7feeku+/fZbeeKJJyR37tw2TTDg7qAVyBAwBAwBQyCFQnA4IlxKjxmmC4NGyMerl8tGHfxecfiQBOvMs/AzUQaSIWAIGAKGgCFw1RAoXry49O7d24mz7r33XmfLwkxe4tdff5VVq1a5/hafQ0JC5LnnnnOEOv1OZjjPnj2bQ7Jt2zZZu3atE3NBulsYAoaAIWAIGALJGQEjzq/B3cVKpUOHDq5Bgn0KKnKIYabKQX737dvXkcIo0R988EHZuXOna7RAIi9atEhefvlll56FWRj9R2E+fPhwWb58uXTp0sWteI73HKpylAGozVn45ZNPPnH+4J06dRIaTg888IA8/PDD1wCBC1+S8lH+QYMGuTpUr17dDQYcOHDAefChyKeOBA02SHYLQ8AQMAQMAUMgUBAI1oHtl5fMFSxb8Dt/Y/kCuSlXPpm4Z4cM2rQuUIpp5TAEDAFDwBC4ThDIlSuXs+z0qsuin15g/8krrqA/2aNHj7gO2T5DwBAwBAwBQyDZI5DiwNGj5+ZlJVDdTOnS6ar0tix9AhAl+hBkePny5d0q5M2bN5fu3btLrVq1nLf5Z5995ojiZs2aualzP//8s9x3332OZGe0v0iRIvLjjz+61c8hvidNmiTLli0TiOU6depIv379nGULBDr+dayE/tdffznVNsexacEmBrV6x44dXT6JLvhVSgg5jhqfQYT9+/e7+lDuO++80w0qFC5c2G0PHjzYkejUNSH1fJRavBw5cSLO0mfPlOmKMe46zTFRvy2vYOGRUTqjwBaM8/Cw98BCIFWqlJIm9cU9A3RAK2B+X4GFppUmKSGg7aR4B2dDtF1U8o+RckCV5XEFFlz/V0qf95mzSPeFc2RZy7slz0/fSnDqYJdnXD+QshmzyMT6TeVMAo8Qe3bFhbbtMwTOR8CeXedjYnsMgWuJgLUNryX6du3kiID9ppLjXbU6BRIC/MaMOA+QOxIZGemzarlcRULJjoVLQqTy5brW1cgHHlq/suddKr79XkIjzj0k7N0QuHQEjHy4dOzszKSNwL8hzrPqM3j77R2k8KihUi1bdhlWp5FsPnHcAfLcwlkyac/O88Ax4vw8SGyHIXDJCNiz65KhsxMNgSuCAPzDFclYM71Y0dKVKoflawhcTQTsN3U10bZrXY8I8BuzxUED5M6zyOflDjzSkwtpDjbxtbPi23+58bT8DAFDwBAwBAyBxCKQNTiN7Lyjo9w25Q+Z2/R2ebxEOV0UdKOUHzdc8qVNL79t35TYrCydIWAIGAKGgCFgCBgChoAhYAgYAobANUDAiPNrALpd0hAwBAwBQ8AQMASSNwJHdEHQkds2yfHTkdJl7lS5KXc+SeX0Cp7YzntP3jhY7QwBQ8AQMAQMAUPAEDAEDAFDwBBIqggYcZ5U75yV2xAwBAwBQ8AQMAQCFoFTUVECec6k9OF1m8jNE8dKuiBbkz1gb5gVzBAwBAyB6wSBuJZhir3vjK4RFTvi2hc7jX02BAwBQ8AQMASSGwLWg0tud9TqYwgYAoaAIWAIGAIBgUCEkud/3nSrVB7/s2RIFSQVs2STnhWqSnol0MtkyS6bThwLiHJaIQwBQyCwEfhs7XJZdPCAnNV/zfMVkhVHDkpwylTyaPEy0nvVEoHiPKNL0p85e0Z6V60td0+f4NZUSKkjdyd01svLS+bKp9XqyJDN62XW/j1SKWt2eaBISdlw/Kjmk1Km7t0l0/ftkZQ60MfndyrfIL/ojJkBG9fIQ0VLCQsd7wg7qTZT6aR9aAmXJrARSzqlW716tbPWxHoybdq0cuLECYmIiJBUuvh08eLFZf369Xh3Ry8orWkyZ87sKsfxbNmyuW3Sr127VsqVK+c+r1u3zq2dlT17dsmUKVMMMHbv3i3p0qU7bz/XIc+iRYu69Js2bZLQ0FBJqd8HtinDyZMnJX369K4M4eHhLp8sWbLEyN8+GAKGgCFgCBgCyQ0BI86T2x21+hgChoAhYAgYAobANUcA8umFxXPk2UWzlHQSyRiUWl5aNEeJrbNy17S/JCzq9DUvoxXAEDAEkgYCq44cko+q1ZYpuqBwozwF3CDcNxtWC2spvFahuozSNRNuyx8qaZT4XHv0iHxTq4GS4NF2UI+oVRRrLMzZv1eWHD4gz5WpKPvDT+k5m2X3qTC33TxfQZmtx3tVqiHLlZQPUlupijq4Vz1bTiXZc8jps1FSKH1GyavEeap/8k0ayAV+KSGmixQpImFhYY64zp07t2zbtk0KFCjgyPISJUrIwYMHHWHtrV116NAhyZo1q69ymzdvlvLlywvvkN2Q60E6QJshQwZfGjYgu0+dOiV58uTx7WcfRHu+fPkcab9x40ZH4LP+1vbt26Vw4cIuH9JB0AfroteQ5RD8sUl5X6a2YQgYAoaAIWAIJCMEzKolGd1Mq4ohYAgYAoaAIWAIBA4CkTrVHRUo9BVe52N2bJFxO7e6F4SVhSFgCBgCiUGgVvbcsk8JzxOnT8vGE0dl3bEjqhY/5kjsECXLUZ+n0Vktj8+bLiUzZZYn9H2s/r2BNC+aIZP8uWu7fLZuuWRJnUZO69+l+Qf3SQUlxrGPypkmxBHkiw8dkD7rVkqQ/sVi4O/LdSskStMyU6Zohszy9YZVTqFuxHli7lji06DgjtLZSSEhIXL8+HGn6kb5ffjw4RiZoPiGUCcgtSG4IbI9xfqWLVsc8b5v3z5HkJ/W7wrH/YNjKNv9A/uVUqVKOfV4xowZJWfOnJI3b15HjqOAh2iPjIx0eVMuCPn9+/cL51EGrmNhCBgChoAhYAgkZwRMcZ6c767VzRAwBAwBQ8AQMAQCBgFPARowBbKCGAKGQJJAYJSS4DP275ZIHYnLpIrfOQf2qrL8sKw/dlQH4rbI3AP75I6CReSAKsmxVcmsZHjL/IUlrZLpdXPlkU/XLJe7ChWV5apU7rt+lZsBU0oJdixgoFEZ5INEz67nndUd5JEjTVoZtmW9BCmJ3lFtXbIHhzgyvqkq3lPrPot/jwDkM/YnEOKQ0pDakNs5cuSQHTt2OFU5hDhqdFTpEOwE6m/PUoW0vHbt2iVYs5DHnj17nBoc4hxCnuBcTzHudvzzHyr2o0ePuvMgyVGzo1Rnm/LlypXL5cG5EOvkkz9/fsHyxSuDf362bQgYAoaAIWAIJDcEkk2r55FHHnH3ZtKkSe4hzwdG5r///nvhGCPljIrzsKdBcuzYMXn99dflyJEjroFAetLQKODF1LTJkyez222TDw0bRv/J51KCBhD5DBo0yL2TH9enTN4+ptj9+eefbqqdd43333/fbY4ePVo2bNjg0v/www/Svn17GTZsmCv3gAEDXH3ffvttefPNN+WNN96QrVu3SteuXd258+fPF+8Y0/0+/PBDL/uLfv/444/dNSn3L7/8IgsWLHD1AJe+fftKv379ZOrUqdKnTx+ZO3eum17IRYYPH+6uRZ3XrFnju+7AgQNdncjPH9sff/zR4bBy5UpfWhqFe/fulXfffdfdRz5bGAKGgCFgCBgChoAhYAgYAskVgdsLhMp96i3eoUhxyRQULEUyZJQGufJJnpC08n+lKjhSnNktBKp0iHCiRvacsvrIYamYObtsVJL9YES4dCpaUh4tUcYdR23eOE9+Wa9e5+TZLG8BSan/IMb/p7YtBdJlkO5lqzjV+Wq1gOmmli9GmjvoLst/ENOQ0KGhoVKwYEGfPQtKb6xY6BthlQJ5Tb82rsCvnD4sanX6fpDq2LxgveJvpUI/lLxQlPv3t8gTsp38PbKcc0mHEp2ATKdMkOxci3JbGAKGgCFgCBgC1wsCSZ44nzNnjhQqVEiWLl0qv/76q3z22WfSsGFDN23slVdekQYNGjgfN7zbvv32WzeaP2rUKIFIvvfeex1J/uqrr7r7/ddffwnHGjVqJAsXLpSePXu6/aR94IEHZMmSJfLyyy/L0KFDHXl7sV8SGkZ33XWXW+SF/PwXf4EUZx9T44YMGSJdunRxZaTB8tVXXznvOabFzZgxw9WNBg9T83ixmAvkMo0e8qlevbpUrlxZ/vjjDxk3bpw7Z8KECW7BGMoA2Q6BT10vJRh46N27tysf5YHMZ5CBe4DygPtBeerUqSPTpk2TAwcOOHKdaz///POyaNEiX0Psv//9rysH94DGHgvb0PDjHEhxBhd4Qc4TNBwh5F966SV3r1FYxNeQvJS62TmGgCFgCBgChoAhYAgYAoZAICGw9eRxKaQkdk5VgWdT8vKPndtlb/hJyaCWHSz+eUoJ1ogzURKly4Q+Nm+a2rFEK5NRkaMqr5Uzl1Ogs7ZCgbQZ3PlQnywOOmzLBtmtC39O37tbXl0yXwZtXueq/t6qxTLh5lul7fQ/1WrqtHxWvY4uSnrIrdMQSNgk5bLgb47VCX05XvTv6M9BmGPhggqdoK/Dfl4Q47y8gDinb0Y/CxsVbFwIlOqIjQiEX+TFC/Kbc2JbwZCO61AmzqMfRh/PC84lf47ThzWLFg8ZezcEDAFDwBBI7ggkeeK8Ro0ajhxHQb18+XIpW7asQMbyYOedxUueeuop2blzp/T8hwh/6KGHZPbs2a6BgXoaopfYrGrvn376ySnMUXSj2qbh4PnJrVixwk2Tq1Wrlmt4eGp1RuG9F0r2hOLTTz+VL774wiWhDLNmzXLk/VtvveVU2Izg9+jRQ26++WZHgHfo0EG6d+/uCGeI/lWrVrlRfhZ1efTRR506gYYPRDX1R6X9zjvvSNWqVd2xKlWqOAIbFT0qAxpVDCZQr9atWydU1ASP0ehC3U+jjDrwmQYUxD9lK1mypDAQwfRA8GWbQYDbbrvNEeHgTjCVEDy7devm1BGoLZgeyIAI95AGHHkwkEGglmjVqpUj7du0aePOpxFpYQgYAoaAIWAIGAKGgCFw6Qhok+uSA7KOdpvFlUEAX/LnF812dirF1bO8d9Xa0rZgMUeWd541RSbroqH4mudTUvzdyjdIl+LRivJnF8yWEPU/f3bBLOmhpHgjVZc/pwsWP6Cq8x82rpEBuojoJ9VvlHlq9XK/7htS52bpU6Ou7FPLl5rZcjl1+e8NW8jUvTul1/IFukBoBt+io1emptdXrpDQ9IVQeCM+8qxP2EfQf2MbKxVERVi2ICiCOIdcJ+jTkQYyG7Kdc0hDnwrBEf1EzqUP6AV9NfqxEO4E+aFOz5YtmyPn6c+xSGmxYsW8U5zinDQe8Y7QyZTnPnhswxAwBAwBQyAZI5DkW7g0OHi49+/f3xHSNNpRaDdp0kQgvxuq+nzTpk2OfF68eLG7lc8++6xMnz7dNRhoSHirkj/++OPCC0IaKxAU7JDMKLcrVarklNAoARhxh9yFCL6YBgPq71tvvdUR5E2bNpWRI0e6hgqNIBo9EMChOlVv8ODBPoU10+Qg7FGHo0KnQcNUORTYLVq0cIR0uXLlnKcdq6nTiCEflNg0olCBU37ynTJliiPj+Xz//fc71Tkq90sJ6s2q6hDbXBMsUEqgTgBPykcdIcxpYNEgxJIF7MHh6aefdsp6FA8Q50wNpPHmkeCo0lkRnmDgAl8/goGDW265xeFOQxAlfbt27dwx+88QMAQMAUPAEDAEDIG4EEiTJrVaDKgeNwAtBkJCUivZde3KBl8epeKHvn2+kHvube/zSY4Lx7j2nVF184216zgBxM/atj11KjKuZLbvXyDQo0K1GGcXTJde2hUu6vYNr9c4xjE+FNDjxKdKiseOtuqFTjxQNNqGI5eq2F8uVzlGMixcGubO5/al1X5Pi3yF3CtGIvtwWRCALIcYp79ElChRIka+ENhe0J8ivL4r25DjvPyDvOijEfSnEJLFDgRV/D2kL0163gnvGpDwXpAWMh7inPxIW7p0ae+wvRsChoAhYAgYAskagSSvOOfuQGrzIIfQ5qEOQUxAgOMDjioa33AIachWbEY8JXfx4sV9DQQ8z/EHh/T98ssvZbMq0FFyo+KG8IXsxTMO1TSLr9AI4d3/xaIpsQOVNKRy48aNXSODRsrYsWPl7rvvdvnTAEGVTaME9QCK9M8//9xlAwEOqY6SHduTO++80+0nLeUrU6aMe+EtTgPpjjvucFYyvKMEh1SHwIYopwxcp6EOJkBQ33fffbGLmqjPnEujDpU9qm+U/eAKoQ3OqM0h1fE09xakoUGGXQ71mzdvnrtO27Zt3ed69eo5ixYaaB5x/sILL7hjnAemKPAZ5OBe4wc/fvx4Z9nSvHnzRJXZEhkChoAhYAgYAobA9YnA8ePHpJ7ax7399v+0XRJtYxAoSKASrVGtuvyv15s+4upqly1EBxXq1a0tL734gpQrU1LSpw2OswjRNg+pfYQciSDQBg8eJPO1bferrnvTo0fPOM+1nYaAIRA3AvyuIMJ5v1xBP4w+FOH1reLK2yPLPbES7/SpCe98tplR4u2nb5dQnqS3MAQMAUPAEDAEkhMCSZ44//nnn920tueee05ee+01ueeee6RZs2ZuKlvnzp2d5zfkMQuE8pCHuIXARsmNZ/myZcuc4hmvbixS8EWvWLGie8fahdF0yGoU7Q8//LAjvFEGTJw4MdHfA5TuKAFogEBuUw4aICysyTQ69lEe1O4s3Ilqm/pwHtPt8G3Hbga1NeVkwU38wCkP/usstInvOspsCGxIdxY3RTFAg4jtxx57zC0O+tFHHzmVu1eGRFfCLyFT+7gWanUGBWicoQhnQALLGTzaIfTBE7yx0albt65wbbzMGbQgwKNmzZqCfQ3l9oLBCqxc2DdixAg3O4AFUsGJmQDcN5T7zCro1auXu9feufZuCBgChoAhYAgYAskfARTkEE3aNEgwmInY58svVEwwU97o2UMH8ddf8BwypJ2U9hJIdtoqF1O2/v36qh3dAun1JgvWH0qwLt7BSy2bd37sd0T4G1RcQdDujG/Zv6+//kpubd5C066TdIpNSrUACQpKJUsWRc/o5Hx1YebNwhAwBAwBQ8AQMAQMAUPAEEgWCKQ4cPToBboc0fXMpJYaQZdxJDyQ0cOrOy6fRpTidIggo+m0JDY4jyl43jQ5b1pcYs+/UDr//Lxt7/1C5/7b4+CREBZXoxwXKkOU4n9EFV1xRfZMmRJ/I+PKIIF9Wq5E/ba8LMJ1CnlUVHzdVS+VvRsC1waBVKl0Km/qi1ND6d+GgPl9XRvU7KrJAQFtJ8X7nAvRdlHJP0bKgYhzC7X92zqXzZhFJtZvmuACfNfzs4u/Kvv27ZfHH+viZrh1fexxKVm8mC6GqD69EZFx0raTJ02UlrdGz1BrcWtL+WXUaDkdeTreWwUh/+OPQ+XbAQPk3fc+kAoqqEjsI33H9m06S/EZXXOnnHTRmY/FihQWfbyrTcz59iX8iWRNl5sa1HVladP2Thk0eGiC10J4MVzL9rXaEr7f+0N3nXgrEscBCG8aJyfDInzfa4j+4kVCZbPO0EypdQ+POK0EeszyMohQsEBBFUxsd7ky87D1HW2k0wP3S79+X8lnn37s9n/73ffO7sV9+Oc/2s3BQSnk5DWwcLFnl/+dsG1D4NojYG3Da38PrATJCwH7TSWv+2m1CTwE+I0ZcR5498VKdJkRMOL8MgNq2V2XCBj5cF3edqu0ImDEecJfg6s96Aup3bbN7TJu7BhfwbCva9ykqdrH3S516jWUzBnSumNRyhBH6X9RpyMlXdpo24JcuXLrGjC7Y5C4wcF4jJ8jivl7l1bJZMjykrqGy5rVq2Ok91041oY2q+XGWjV1xuAi3xFm5DVt1kJt/lrJjXXqSuaM0b7BXtkiTp1wlnScwEy842GnJCL8XFkQciDo8OLw4UOSP2+05zEzKlkYPrGE9IIF86XT/R2VbC+rAwLvS9kypfTc02pfEyRVq1SVJZRbByaOHgs7zzaCug0Y8JU82e1xryhxvrdSO8O6detrXTy7lxSq8l/rZkv+9vt4SfeP93acJ1+BnfbsugKgWpaGwL9AAP7hX5ye4KkXK1pKMDM7aAgkEQTsN5VEbpQVM8kiwG8syS8OmmTRt4IbAoaAIWAIGAKGgCFgCFwUAljAffvdQKcgnztntjuXtWwGfN3fvdiRL39+XbS8tFs7Jqda5WXJFL2YHbPg8Dv3j4MHDsr/3npDevZ8Q23zsqv9W6Quqj7ep/rOnTuPf/IEtyHaJ0yaLE0a3SyLFi10aVmgnkU3eRH58xeQEroWTFG1/cOmjwXfvaBuKsyWiH92bNu2Vev0tbz8yn8kS+YMEqaK7Qm66LoX2bPn8DYv+A5XNXLET7Jx4wb3GqsDD9Vr1JBnnnlW7rv3HsmmHssudLCBWZL+iw+yn7p17fqYs957Ttf9mTRxQnT6WP+PGT1aeMUVjz3aRQYNGeZs/OI6bvviRiBCZytE6gKsFoZAICLAjPQ0QYG1dkQg4mRlMgQMAUPAEEi6CBhxnnTvnZXcEDAEDAFDwBAwBAyB6w4BFhOfM3uWzJk7Tz7+6GNdMPy3GGul7NT1V3jFFViReAGZvGbNaumrC8Lz6nh/J3m5+0syZsw5NXvLlq0kPDLxNmohIWmdZ/nM2XPkQ137ZcJff6p3+RHvks7qBLuTvydP8u3zNlCW+5u8sabN+++9414PPfyIrr/zsi6wPtdLLjc3aiRh4efU6L4DcWxAfH/40YeSLn0G+ejDD9z6MCzo2f6+e6VD+/sk4z8LAnJqalW5s4hqpNabwQbOJVDllyhRSiZO+Ev27Dsg33zzjYwe9YssW7pUWOT0QsGAgVLwF0pmx2MhEKz2PMFixGQsWOyjIWAIGAKGgCFgCBgCVwUBs2q5KjDbRa4lAmbVci3Rt2snFwRsuntyuZNWj4tFwKxaEkbsalu1+JcGPjdtWl2kUncu1AUqhw//SaZNmyrbdAF17FhY6DJ2fND7I+n2xJOOEOZYUOogua3lrfLH+N99SVMpcRz1jz3KhImTpPaN0R7kvgSJ2IBsTpc22HmuL1y8VIYNHSKzZs4U1PG7d++K0/P8iy/7SqfOD/pyx4+8abPm8qcq4L1gQXavXn9Pmaqq8Rt8XuVemoTesX5JlSqF/E8XV+/bp48uSL/zvOSFChWSRk1ukaqVq0h+XcQ+Q4YMzkamVq3aMWxjGHhImyZag4OFDiR7eiXm33nvPdm1Q/N1jgxnHVVevHgJ6djx/jjrfV4BLuMOe3ZdRjAtK0PgMiCgfzfMquUy4GhZGAIeAvab8pCwd0PgyiDAb8yI8yuDreUaQAgYcR5AN8OKkmQRMPIhyd46K/i/RMCI84QBvJbEuX/JINFTpjxH5HJs7/6DsnfvXjmm1iOQuqXV2ztjhowxyF/SQVB36/akfPnl53yMEU/939NKtD8hoaHFNP9o1XWMBIn4EHfZDsn+fXvVT/yokvRRrmwZlHTGrsU/KFsXtUj5ql9f/91u+6XuL8tDDz0soUWKOo7a36f9vMSxdrBgZ0hwKmct0+vNN2XGjOm6YOo5b/VYyd3H7wYOknvuuee8hcxZOPTBBx+S7779xpH4R4+HuUVGg3VQ4syZsw578L8WYc+ua4G6XdMQiB8B+If4j/67IzpgaVNa/h2EdnYSRMB+U0nwplmRkxQC/MaMOE9St8wKeykIGHF+KajZOYZATASMfIiJh326fhAw4jzhex0IxLk2Z10hY3Mm0RQKPEr08YToGpTYKMFbt2opS5Ys9tmTeLXHi/yhh7tI18celZIlyyRaOX05ysbipRs2bJB7293t8073ysU7ivCuj3Vz5HXRYsXOI9/908beBrP0qoy/6+52MuKn4e5walW1R8ah1m/R4lb5dfRYX90h34OCoq1vVq1cKRUrlHPnjx33uzRRxXq7dnfKb+PGycSJf0vV6tVjX/qqfLZn11WB2S5iCCQaAfiHRCe+yIRGnF8kYJY8WSBgv6lkcRutEgGMAL8xI84D+AZZ0S4PAkacXx4cLZfrGwEjH67v+389196I84Tv/rUkzrEH2aq2LCfVXxt6PE2aNOrNnUaCgyB0g9wrFf7QwWkllRK8KLsvFCi8C6pVyfZt2+JN+vnnX8qD6jkem6j3PyFVqiDZumWTnDgZ5tTgadKEaPmCJU3qVGqVkkotYlJrmYK0bCFaztTnqeD982LbI7ghxjdt3Bj7sO/zd98PUhL8bt/nxGyEpEkt7Tu0l2FDhrjka9ZukAMHD8iggQMdUX/kyGFHlv8waKhUrFTJKfuPHz8uEyZMUI/zXwXS/Jguurp+3Tp3fv0GDeWF55+TVq1auc/U9+SpCK3jhfFPTHkvJo09uy4GLUtrCFx5BIzku/IY2xWuLwTsN3V93W+r7dVHgN+YLQ569XG3KxoChoAhYAgYAoaAIWAI/AsEUDu3uf02+e23cYnKpUaNmjJrzhwJD0/YjoTMTkeeW3ATb24W8wwLC/NdZ8aMGfLQI13iJc5ZzLF586ZuYVDfSQlsULbZc+fIqVPxl03b7C4HBgm8KFWqlPNMP3XqlLdLZs+eKXe3axdv2UhIXieOHZZ0GTIpiR/dFQhOncaXBwt9VqxYWd7vXdmR+srvO81+mJYPO5xhw4ZJp/s7+NLH3pg65W/h5QX1i4q6NlYtXhns3RAwBAwBQ8AQMAQMAUPAELgUBFhPycIQMAQMAUPAEDAEDAFDwBBIMghA7iaWNKdS8+bNle+/+04J5QtX0d9nvIUuHHry5EkZNHiotL3zTmmudiX9Bwxwvt3x5bRbfdUn/PVnfIfP20/ZflN7k8REhJ8PeZ269Ryh/933P0ibtndKq9tayyeffp4gaY76u3v3FyVnzpxq0ZJGnuj2uC4QuluV+iG+y0eejnQqeXac1m0IfUhzYvfu3TFIc5T96dKlcy8U/x7B7xL/89+LL3XXrUQA73+SbRsChoAhYAgYAoaAIWAIGAIBgIApzgPgJlgRDAFDwBAwBAwBQ8AQMAQShwDk7DxVaHtRsmQpyZcvn7M7wTIkIjxcIJiPHjnqLEYOHz7kki5ZskTua98xQdJ78pRpcuDAfi9rtSIZLZ989JHc0aate/kOJLAxacI50rx8hQqSM0cOLcdpJeBPKAkdLuER4bpg6THdFyGHDkWXDYX2zY0ax5srdR7/5wQ5dPCgL81cVdAT+JPzIk6fPqeWdzti/cegQPv72sunH3/kjnz9VT/h5R8s5JlSCfazZ6JiDDSg8v9frzd9SV9//U159bVXxVPhoCk/eTJcpk+bKvfe007AnXLf0rRZjHx8GdiGIWAIGAKGgCFgCBgChoAhEOAIGHEe4DfIimcIGAKGgCFgCBgChoAhEBOBI0eP+nb8NelvyZE9u+9z6tTqb54qhWCpHXbyuGTOlNEdmzN7lqQJTqXq6bhtQ2bOmCZNGjfy5cPG5k0bZev2nZIjR84Y+xP6AEnuxc8jRkiBQkW8j5Iaj3MloHEuOXr4gOabwx0bp4tovtHrrXhI/RTyxx/j5Y7W0Z7hXmbLly+TE2ERcaq8vTRxvZevUFEOK3Ffv25dWbp0yXlJat9QQ8qVKy+PPd5NGusin0WLhirJH+Wuc+TIEV/6x7t1U8V7hNYpSFIr3hGRSrhr3W66uZGPwOdziPrGh4efw8SXgW0YAoaAIWAIGAKGgCFgCBgCAY6AJxIJ8GJa8QwBQ8AQMAQMAUPAEDAEDIFoBDKkT++DQjlbX7C4Z4VyZZQ4Tykb16+TTBkzSGiRaOJ6y5Ytzqvbl9hvAwuSprc08dtzbnPChL+UNE58kxmVtRf+26nV+7x0yRKSLm1a2bZtq2TIlFUXB432Ft+yZbOEKKkfO7CWWb1q+XmkuZful59/viQTlNTqaT53/gJZrQuBVqlSzcvO975ixXK1cXlMy1tMF1tNpfVHzR6l3u0tfGl+/328kuLBklYXF8UCpn7dG9VjfZak1sVZj6vyn8iSJYsOBpzDw3eybRgChoAhYAgYAoaAIWAIGAJJAIHE9wKSQGWsiIaAIWAIGAKGgCFgCBgCyReBtEqMp00TJFmznVOY79u/z6e63rptl6xZs0bJ2rMyasxoB0SDBje5d8jx42Hh54GDYrpMqRLxqL1FBg0cqNc8n9SOnRGkPa8c6h/uxd590dYq0QT4Ctm4caOqr0/JD5on5L5nsRKu9jKRUef7gKdIcVbq1rnRy85XT29Hnz5fCJhcSrBgZ8GCBWXuvHnSo+ebCWaR4iyKc5GOHTsKXubEE926CoMWA77BO/6s85FvdFMDYXFUL0JDizi7HO+zvRsChoAhYAgYAoaAIWAIGAJJCQEjzpPS3bKyGgKGgCFgCBgChkBAIRC36celF/HMJemHL/16SelMFNuVKlVyC1He2fZ2X9HXrlmrKucgR97u2r3Dt//G2rXkpC5q2bx5c9++35RM918gFCuRGtWqSIT6jhOrVq+WrFmzuu106dO598mTJ8nRYyfcdnz/obguVKiQK1uXhx/0Jdu3b6+qyiGSz8r+/ee801u0aKHWJqflPvUbJ/AmnzP7nG87+9KokruW2qaEhYXxUZatWKWkdLDb9hbzXLBggc9j3B24hP/Oqg4fP3Mvps+YJZu2bJc+ffvLba1vly+/7CtnU0S7O4Ldra2iLWOOql1O166PS6cHOsre/Qek84MPuSyios7ZslSuUtXL1t4NAUPAEDAEDAFDwBAwBAyBJIeAEedJ7pZZgQ0BQ8AQMAQMAUMgEBCI1IUWq2TOJmf8mdh/WbCbcuT5lzkk39NZtLLd3fc4InnXzp2+inbudL80anST/DT8R9mx/RxxXqFSVUem16tX15f2m2+/VU/uc4poDhz+x7d77boNUrpUKXcO+x/r+oRkzBjtj/711187/272xxUsunm3LtAJyb1nzx5fkg7t71Xf9Jtl5M8jZPv27W4/pHf16lWdKr5a9Sq+tB988G4MRXlKVXMfORztKb5KVfTly5YWb2Clbdu73Hmo1yG4UXxfKCD3UadDyLPtBeem/6ee7COnXLlySafOD8rwn36Wzg897MufRVd//PEnyZQpszu9X78+8rcuqJo+fUZXjuMnw2TJ0uXuGP8VLFjAt20b1w6BwxERcux0pN7bc9+TU/qd9SLCb+CEfWF+gx9HdRFbLzjby4O/e+dyi04RpfvC/fKK0N+sf5A+MtY+jpMX323+xZUvZffiRKwFcKPLFP29jV0ezvGvp5dHXO+n/ymXq4Nio5NWhG0vf84BR14XCm+wyz8dv7PYL//jEX75xj6fvy/+kdAiwP75+J8T1zb5UqbY+ceVlnQndIHj/YcO6vvJuJLYPkPAEDAEDAFDIFkicFWJ808//TROEL/55ps49//6668x1DlxJvLbOX36dL9PMTfHjx8fc4d+2rp1qyxevPi8/ex477334tw/fPjwOPf/+OOPcuxYtJ+jfwLqEFecOnXKTSWO61hc+1auXCnr16+P65C8+Wbc02snTJgQZ/rvv/9elVXnN/qGDh0aZ3oWgtq1a9d5x0aNGiUnTsStwBqoU5Bjx6FDh2TFihWxd7vPPXv29HXK/BP89ttv/h9927NmzUpUI893gm0kGQTSBcUkNCg4nZa0qVRN+M92iHb42fYiWBWD3ufUuu2Fcg7Oz9b/3TvmvafSuedBCXjXptPrWhgChoAhEBcCUBmDataX2/IVlIz6tyuzErKX+sqo53YoVFT+W6bSZSXi4yp3Ut0HufP8Sy/JrNlzpUiRor5qnFQSZ+qUvwUCvW2baCV6WvUR/3bA166dki9vHl3gMjr9fLUlCfb7sw4Zv2r1OrdYZoGChXx5spFeFedt2t7p9n3y8UdxepD7n/DWO+/JZCWRvWtxjHbS35Mny/0d2+urg0sOcf/Fl18qyX5Scquti2d9Mv733yVEbWi8+vrsMwAAQABJREFUCFO1/IpVq+WIqt0LFy6qxOK5KKAWKx3v7+R2vPvOW5I+bbQS/VyKc1sQXnitd+xwr5QsUVIqVaigAxB3yicffyhHjhxWPFJoGc4/H2zAnHf/UIcZqVOnjm9Xmztud4r/NKlT6nVSSYlSpX3H/BdK9e20jauOwMOzp8gDsyZrmyiFvLp0vrt+R/18+uwZ2XD8qHSa9bevTLSnnls4y9euajxxnO9YrT9+leKjh8nmE8ek5vhfpPaf0f0cyG7yGrV9i0Bssz1lzy55c/kCd+7uUydlqy7U+9aKRTL7wF7dPuYjtNvPmCRNJ/8mdf4cJdV+HylNJo/Tz9HXfG/lEnlbzyk3drgM3bJB3lu5WMqNO9cXq/L7z9J66ni5bUr0izp6cUQJ/4M6k2Tg5rWuTAd0kOm0lpP4YdM6aannVB8/0p3787ZN8vWG1e7Y/1YslBHbNsr3m1a79+Kjh2pdR7pjXOfFxbMdoe52+P23adMm6devn3u9++670qdPH7fNTBNsol5//XWhL+z/+uWXX3w5eP3kAwcOyLRp03z7BwwYIO+//747b4QuNrx371756quv3PEv9e9I37593Wvs2LEyc+ZM2bHj3OAh53388ce+V+/evWXt2rXOPolt+sLHjx8XykvZlyxZ4ruu/wZ/AxavWKp9NZEcWbNJpA5k8NnCEDAEDAFDwBC4HhBIceDo0egWxAVqmyldOvViPKdOuUBy3+G5c+fKkCFDdPGgENmp6qA8efK4DsJ//vMf6dWrl9smTfXq1Z1Kh/2QqKTHB7JYsWLaqD8i//3vf536xZex3wb5MPJO+lKqFIIU7tSpkwwbNsw1Lui0MO0WsrpJkyauAzB//nxHdOMpmVM7LSVKlHAdnZ9++smViUZJ9uzZtdOUXp5++mn58MMPdaptsCxatEgqVqzorvHMM8/I//73Pzctd/PmzdqpKewaHxDZNEDotNEAqVatmus4vfjii47kpvGBGik0NNSlf/TRR6VMmTJ+NTq3SR1WrVrlBhDoaGXKlMldP3PmzDJu3DinmoKwT6f3hzo++OCD0r9/f1dWyPaSJUu6+j788MPywQcfOOUUi2Plz59fPTbDXSPurbe0w6X1XLhwodSoET0l+NVXX5WXX35ZgnTqM3UDVxpWzz//vPzwww8OS8rFfjpk7du3l8naMVy3bp2ra4YMGVxnq2bNms4/ExKf+8K9BG9e4EL9UHPt27fPlYH7/tRTT8lnn33m6rR8+XIpW7asy4v9PXr0cOk3bNjgvhvkCd5gHV9EKd5H4iH4s2fKBKd6RUJxSdRvy7t4eGSU1jNm59Q7ltzfw2mQHz6gHZEz8saKBTKmbjOBAIfUHrVziwRpR6/X6sUyoEZ9WX/sqHy2fplMvbm1nFDlW3oltr/ZvEbuyl9Ez0klk/ftkAY580savGNnTpD0SmahflKbWEmp+dXKkVu6FSujeWsHX+V8sw/uVfVQuDTLU9Ax9Ce1M0AnEoVSkOb31qpFMrBmA18HMrnfi/jql0rxTJP64p4BStQEzO8rvnrZfkPgQghoOymGCjiu9Ay+XY5vO08NCKcLxfX+7OJPCz7nif0Tkzt3bm23hDuSGGwXLFwiVatUlPDIM27BS/97h0c57anDhw/L20qE33///ZI/X/QsgN/H/yn1GzRM8PZ4Zcusi2Ie1TYPnxNqDlA2iH/acqTdtmO35M+by5Uttgo0RMsWov7ikdr2eeU/r0rnzp2lRPFirjyLlizXtmzJOL+H1AkbmW3btsVZ9vz5Czhf9iWLF7njk6dOlxrVa8SLL/lB3O/4R0HvZVqhQkW5T9uDnVWpXk7V8RCAXR/rJr0//MhLctXf7dklMn3vbgnRBV5pP91TuJg8NX+GtMhXSGpkzymvLJknH1WrHS1O0D9AtH3yjvxBMgankfzatv60eh15aM4U+faGhi59//WrZa+S4LcVCJUtSp7PP7BfXq9YTf7avV3eWr5YtoUdl+LpM0s6XTfgwyq13HuuNGmlmpLsA2s3UKFCKvc3bu+pMEHJ3lrzeULL87leZ/b+vbLm6CHpWKSkNFbifNLNLR1B/ayS+N1KltP2XJC8snievFyushzSdlttbc8Rt0z6TX6p38S19/y/YA0mjJaXylaWSXt2yE258jvFfYF06aVuzjzy3qol0qV4GcVipnxbq4FA7OcNSefaiZTj1JnT8vGqZdKrck15dclcqaPnvKCDmrt0sAsyHkwfLRGz7zZmzBhBJARxTT8L0RH9XvqH9DP5PdBP8ma8YDs1Z84cnalyt+s30jdkpge/eyykOJf+LH1T/h7R16G/1rhxY6GfRRrI7+eee86R3vytOnjwoO/6lOF3HYzzt6ri7wz9Lt7p19KX8wb6INQr6KCaN5Dnj+WKdaukXKz60p9dunqFVC5bwT/pBbf175y1DS+IkiUwBBKPgP2mEo+VpTQELgUBfmNXnDinYCzSRCMAAvSFF15wo+Z0IiC7P//8c9eQ4GFfpIgSX0oOEz///LO0bdvWNQRoNMT1EHcJ9b9IJc8gx1FMQ8zSgIDw1eo5ohUSmHwZva9Xr54rC1NUGYWngQMZy2fOgWzOop2dfPnyCcT4Rx995Do8lJURe6bOQUJD/HplRRWNV+UXX3whjz/+uLsuZYI055rZsmVTD8v7fGWifDR0aCBRL64XX3BdsHr77bddA4m6gCXlhcSHuIZs7t69u1PJk5bjn3zyiSsH2NFAoqzsnzp1qtx0002OmH7yySfdZbkGDTeOsUhUu3btXHryYtCAvFar56fn3UndaMChcqDRRplIyzakfZcuXQTfS1QUDzzwgCPuIbgZfIDgJ0+uCd40KmkIggH5MAhCXrwg1enk3XLLLVK+fHlXJvLhGk888YTL/4477ogPOt9+I859UATsBh21ZtN+k9F1mjr1d4+VC6Rw2gzyRIlyEqWlvnvmX/JexRtkl3a0hm5dL8+ULC9Dtm6QdyrWlDuVHB9Rp4m0UsXRl1XrSJeF0ySNerGOuLGxRCoB1WTKOPmzfgvZrOqmnUpO1M6Ry13j5+2bZI6S5vtUgRSm1y+knanC6TLKE8XLyR7tQIWgcNem/TOLZsng2jfLGV20jY7U9RpGPlyvd97qnRji/GqjdL0T5+CdSonAXDmyKjl91MG/evUama9+35MmTpK//vpT2w9b470tQUrqhYYW0fbQzfKSigSKhhYW1N2EP3H+6edfypPdHpM2be7UNsfPUvOGWupDPsv5pseb+T955FbSa+8/li0bN21WJehsFRhMlD/G/+6zbIkrD9pGRYoWlaZNm8uzzz0voYUL+MrmT5z3+t/b8sor3eX2O9rI6F9/kVKlSzsSzKuHf94rVyxXIjzaa5y2MW1PxCTxBe2unq+/KbVr1XSDxvjE+zNd5LFw0QJpqgTeiRPH48yGNiHEWqi27desXaftvgsPCMWZ0b/cac8ukXp/jZaCSrj219kxGVRMMEZV4cHajyim/QO2W+UPdartPjXq6b5M0mPpApf+pTKVtS2USm6eMEYmNW4l+7W91G/9KiWOT0nj3AVkm7arlh8+JK+Wryq5QqIFLP9RIv5/lWq4u/bDpvWSSX9rkOM1Vanev2Y9392EOMcepmX+wtJ59t/SpkARWX30sOZ5Qhrmziufrl0ufzdq5WbfTNm7Sz5evUw+ql5busyZJsPrNpZsSux7NipB+n1EId+7am2nKNcJEY4Av0GvWVLrs0m/o6FqJYSI4vnSFeUGbQdCnLfMV1i6L5kjr1eoLiuOHJSvlBweUf8W+W7jWglTEQUCi6J6fr91K6VUpizST8uPIqbuX6Mkq5LOo+o3cwIPX6V0A+EP5DffffpqENldu3Z1v3n6qpDZ9McIRFDMZIY4JzwSnP4d/SL6xQT92+LFi7t+EKIuSHP6nAyc0VdCWISIiL4pfU7EWJDu9GWZ1U3fl/Lwu6Vveuedd7o+KH05ZgJXrVrV9aWZ2Yzgimv5x2m17dmzb6/kz5PPf7fb3rpzmxTKV/C8/Qnt0HL4/zlJKOlFH9P+40WJli76AnaCIRCACNhvKgBvihUpWSHAb4y2xRUPyF1IVEjkV155xV2PZ+Zff/3lSGga8FOmTHHEq1cYCHAaDjQwEiLNSU/jnOllNDCeffZZwR6F/AlI8dGjRztiuW7dum4fDZl33nnHNRxa6QJHND7oqBCQ++T1xx9/CEpsgrxGjhzpyFpUSIz8k4cXTM2bp1N/URN418XHkml5NIoaNGjgGireMVTbs2fPdgrwhEhz8qdcEM6Uk4EEtr1rV65c2TWUsImBWCe4Bj6c//d//yehoaGuLl563lHacx841wsUBjTiUDGg/Kc+BHmRDwMf1BnSm4CEp6FWoEABgXwHG+4BAVFOI40phGwTHKPcDCqABbMKPLzz5s3rZhMMGjTIEeqk57rk37RpU0fWo4bwOnioIyD3aeihmLdIHgik1e/mDzfcJI8tmiFPLJop/yldWZrmLeg6TNgfDKjRQHqqEh0lJlNvUQX1qlBDBm1e5xTn7ZQ8PxQZLsO2bZCPK90opXVmBv6cJ7TjgzvlMQbXdLAGgvyobofre4XM2aVL0bLSKl+oNM1TwG3zznl0759aPFPeXbXYKZxeVrXRf1bMO6+DlDzQt1oYAoaAIZD0EDijM7Ty5cvvK3hetWNpe+fd8tWAr9R+YIscUkJ99px58kHvj6TFrS3V2/vczLTTuijnelV+ftW/nxQvoqThba0lFYbisQJ196mIKPlSrRCIuXNmy6xZc9zgfqykMT7CEWfNktW3L622n9ooWdX/q/5OEHDg0BFnN4MSu2mzFk756SVGWLBO22Wff/aJEvoqZlDf9JRxlA3RwalwFaB89rk7dY0KHFar5UzsgEWarfZ2XixetkxO4MO+d7/8pgr6+x/o5GvDeWn+/PNPubH2DW7m5a233irjxozSMqbWtlt02xduqlrV6nLg0GEZ+uNwJd6qeaf63iHqiC06a/GfTd8x27i6CBTJkFHbQFGONOfKrQoUll/VmqTf2lXyjBLJtK1QZtfPlVcenTvdDZJUzZrDkc9zD+x1ZDHnYYvHTED+sZ1a1eOp9D2Nzs7DuqXJpHEyUvNtM+1Pp9K+rUAhR5pz7uxbWkuFLNl8ryrZsqu4IZrj1Pk6kk77O6jUg3V2GxZ5Hv35xPzpslxJ7VNKej8zP/p7PO/APpmxb7eM2LpRPlVC/fO1K2TRoQPy2Zrl7vO4ndGDZsWV9P7hxpvlxbKVZNCNN8lg3fZm9GAtk1uFRxmDgqVUxsyufdhXBxaOqJr8jOJxSr+0WZWcZyoi1z6sbUyCvxKZdIFeZi96ebkD//xHf4q+K/0b+kn+fRX6Q9i3IHhauvSczQkzphGSoVTnnd8fhDqCLcRK9957r5v1C6lNf5lo3bq1uw7bpOnWrZvrkyEI8w/IdYhwzuVFufj9MtOFvh2CMMrMrGP6rLFJc/KKHgQ4ZyHln39qbaNbGAKGgCFgCBgCyR2Bq0KcA2KOHDkcGQrxTGC1wWg46mEaDzQs8BXHDoTg4Y61CLYo8QU+1zz88YxjlB2CnAZJqBLG+LwRNFKwEGEamkdc4yFXpUoVRzDTaIDw9vc0p4xMt/PsP5ZpJwNCHQ85lNkQ+SijmVpLUFaU6Uy5IxjBnzRpkiOgaeBQFhQHXiMJ8pd6QwzHFzRg6DzRaCJf1AZ4k3MtlPIE9UF1AA4eOQ4pDjnNYADT88D4tdde8zXcaBAxMMBUPALF9wJVaPGCzJ84caIjyrFzIagrCgjUR16gaoBE51pcB3WD5+UOqY69ikekcw6kOHVFoT548GCH/UsvveRl58hx8OI7QlAf1O2kZXCF78Z3333nZhVwnOvx3UBBYZH0EaATslJVRt8pCV5EFd9YrTy7ZLZsP8nfghTygm5/um65pNbO1NidWxwR/sn6FU6N1EzJ9ULpM0jpjFmkSe788kjRMjJ+zzYZt3ubnIiKlLkH9+nU3NMy79A+9dM8IYsO73f76M4fijylJHy4HD8d4Qh2OkVM/aUbR2eoW7GyTuXep2pdebtqTUfYU1YLQ8AQMAQMgcBAoE6daEEEpdmxSwk+bROeUnU0CunUqUPkhprV5cn/e0rGjR0jJ9Vi4dGuj/sKntJPOzJmzGh92kQTvb4EuhGkbRoih6o8UXgTD6iPekJ+4qTB17uYn2pzu86eO6tEnFe2NGpdUeuGGtLtiSdl/O/jXDunQ8f7OdWFfxvqp5+Ga/vn/DV00qnYgciTN5+88WYvt93y1mZOMe8+/PMfzy1sY7w4sE9JSMUng5KKDRo01PbVt0rAR8q770W3Lb10vNN2/V1nVba7+y7JkC5EPv3kY197EzINe7nWrdtoG3K+3HVXtGrW/3y2q1WrHifxHzudfb48CHgDFv65ldMFjB9Tm405B/b4docqmZ5NCVwW6kRJTtD26VWxuraLIqVxnvzyvSqv5x3c7/obtI0gjLPqC0KaNRkya38ms37mHUX3XzffKm0LFpGR9W6RXpVqyvOqAvcCqzxId++VU38DG9UWj8Bar5FeD7K+XKasckveApJF8yS+VBX8dxvWyh83tXDttnENoq38sE5pp7Yzz5apKE+ojUvVrNnlyVLl3edWqmInGCDorwr50ds3O//yPutWuDYeC43SxmRmoRbJLUoa3SE+q3XLLLP27ZG16v2PxQvXyREcIreosIJAeNFW1fFrtN3KgEHswBIUgQ+/HWb8MiPZP5iRS18S0ZIX9FERF0G4M6OWPlK5cuWcoIh+MQIl+s2sLUW/j/4hf+u8oE+GJSZ9RURWfAcQKNEvpq/ovbz0fKYczABGpEbfEBU6IqW///47Rt6cE6z3+MjRI97pMd737N8X47N9MAQMAUPAEDAEkiMCcQ8fX8aasvgmFiDYf2DhAVHNQiTYlRBMD+vZs6drKPAZMhr1NA0NiFPIWQhjlM2x1dnkVbt2bXnjjTc41ZHnKLO9gHSmEcK0OdTfvGP5wZQ2goYCxDFKdM6jIQOB3LFjR3ctVM+cR8OCgGwmT6bcERDkkPCci487BD1Ka1TvDz30kEsD2e6lZ0SfslJmVNnYn0DYgw3+d/6BVQ3X864NqYxCgfK3bNnSNWxodNHAguCHnEalj+KAYJoeSnTyJlAxkKZNmzaCvQmENN7yNM6oLwFB7p2PeoEBiYYNGzqSHzIclT4qcvzmCRpmeJt7SnTqhGqdOnlWLqgtOnTo4NIXKVLE+dCjaqeBBtYsYoMaAjIcdQVKffAjuC/fKWHeqVMn95nFdSgj5f/222+FxWD5bqDgZzDCImkiQGdq6eGD8nSJ8m7a7X/KVJEaE36Rx4uV085cmLyvFi2d502RYbUby9MLZ8ovdZvKR2uWyjMlKsja40ec6gnC/Pdd21wH7v3VS2S0psmkKqJbdCrxu+qN3kTf06iqfan6qLfKV0g7PrpolU797VxE10TQzsdBvU6JDJnkbU1bTTtudJJG7dgiq48dVuWRkieq9muhHujn0ypJE3MrtSFgCBgCSR+Bs9qeulEGfP2Vq8ryZUvdzEMIJexWJv09RZ7V9tuSJYudurtipcrCmjL9+n7p0j+m7aX77r3PEU7Ycqmxgu6P+VcexTkRoUQ4tigDB34na3UW3vvv91ZC/mnXDnIJYv1HGWrVqi2/jYsWcaxZs1bKV9BFX7XdRNlmzprtZlyuWrlClq3AY7iYvPrf12TQDwNdTqjka9So7sqWOXMWbVtl1nOjYlzFKxvttRdf6i5ffvG5a2MN+OY7ufe+9jHSUhYvNm3aKLVvvNFXdqxdIOqLFSvuJdH2eldZtnyZzJo5w7cPEcMLzz8nXR/vpkrkaJqRg2eVbFXjHNee8xIvWrxM1+TJ4HyUK1WscEFrG+88e790BPhuIazxF6Z4ub2kiusPVy1VkcIhuSF7bnlNFwcto98rSPPXly1wbZzcOpOPtRrKZs7q1OMsyP7rjk0yrkFzGa6LcnrBmjRYr4zVNlI2bStVVsJ6ohLMZZTwRnywPeyEWyeGmX7vqcf5h6uXyrOqao8rpmo77Dk9dkx/X8wKZG0biGzahRDpWLHs0Pye1/KjMn+lbFVdfHSzVNJrRmg5UL17EeG+hx4Jrlady+Y7C5bTmo5yPVwsesFa8nxz+UJnMYNnOoHC/R1dgPRXJeWJ0ooNPujzddDg122bnXCDemIr2H3xHLW2KSz3htZ3af3/Q0xEX4f+5Y36G2P2spuxoWtSIQTjHtHnhfi+4YYb/E91v0GOe4EHOX0v+n389jgfMdZjjz3mRE7YsBD0Lelr0s8jb/pJLNxLXvS36ed6s3z5nUPA079ipjRiJ2aC0zelr4rinPWnINZjR87sOWSz2l+F+i2gvH7LJilVtETspPbZEDAEDAFDwBBIdghccY9zOg9xPYD9keTh7qlr4ksf136mo3kKdvKLK43/dWJvk57wypeY8y+2rInJM640KAxo6ECWE5dSVv98/cvtMozjP//0cRw+b1di0sdO4//5Ysvkf+55hUlgh3mcJwBOABxCfTRU/cqjICz0J6l/MZwty/rm7XTPWTmpHYy5qhink7RfPTFLaMM+hbIc5bWTdlhtW15bMV9uzVtIFxfd7wjylUcOqVWLdnpy5NFpxCnlpiljZUL9W53K6YF5f8urSswXTZ9Jeq9dJvW0Y7Tp5DG3OGjNbLkE3/O3yteQ19Vj/dmSFaTV9D9kUsOWMmP/HkfAD1fy3r+jFgDwXbUimE/sVYPaLhRgCJjHecI35FoubL127RqpUil6Bt0DnR6Ufv2/kv3qxYtCesaM6b6C//e1HvKfV19z5HO6kOiB9nwqrNi6bbuqw3XxaH0OQUAR/h7nw38aKa1uu82RUDQZD+pCiLVuqK6zEMvJeLVTCFeldlxB63LGtKnS9JbG7vD/KcmOLcuOnbvkrra3O+GCd94LL3ZXP/E31PJCdOHP6LKhQF2+cq1TatP2ob1E+HucD/xhsNypKm+OE0dUzFGtWmVd+6a0/Pb7H779HEurZH06rF1UUfrkU0+rCOQjpzLnGEEbfIL6wrdqGa2O/WHQEOnQ/l7Zq+r0Lz7/TGeMDlWF7BqdfdhURqodYpo0IYqZqm+1/lye5wOLtXpx9FiYpKRC+jyPg4Pzkl2V9+vl2QW5yn2EDI0r/t67U9KmDJLyaiG0XWfg4dlNsGAofuFYpeBnTmzRdtH2E9FrwuzSNV+WqA0Ki4kSk/fslKrZckiE/l4WKLFcX/3ID+q1IaFRcmO7gkUeUTBdBiWoD+o1s7nPsf9joU3U6ogZdilBTpnwIYfIps2HBzoLiCJgIE/9NrkssFnJmzadI9q9PKft2+UW7ry7UDG3C+J+ns465FuYVQfAKmXJ7iV19n18QDX/x67tTl0fXeKzbvBghbYjKRuqe4I6V9I6pFVbEixiUuj1G6kqPnawDhN9N7zC+V2iDkfAhSiMGbyQ1cWKFXNCL+9c7DEh2wmsMbE39WLz5s3OpxwSHW9z8sTWhTwYMONes14Wf78gvbkGf8dQuyNk4jjKcq+fS76UL5PaGXI+i5UyM5l8ebFwKTN+vRnXXjm89zD9+7Fl+1YdCDupM1AySGihwhJ8CVYtWp7zmXnvIv/yXesRfSv/ZT52uiGQlBCw31RSultW1qSIAL+xK06cJ0VgrMzJCwEjzgP7fqIsYpFOvMy95u6gLevkrQo1teBnZaJ29ui4uS64pqVNjGKosnaCCmjDffTOzVIzay5Zp1N+26gKiuiNIl2Jb+KrjavloSKlXacLL/X+7nMpGbVziy7+FKUdoVSuK4aHZZT2zpiCO1Cv3ym0pIzcsVkqqvoqf9oM2plKoYtWHZciOh35emyVXy/kg/vS2H+GgB8CRpz7gRHH5rUkznkeZEwf4p4LED7YzFWsWEmWqfrcC8jlwUOGqsozyhHPJVUNiuqSmW4QR9i6+Ic/cT7yl9HSrHlzl7+XhuPQ2NidJBRYw+TMFk1OVtOZdvOVNKtXr75Mh9D/52F3193tdHbgMLf4Z0q1fciaOb0jt1OrNcLR4yd9hLl3HX/i/MefRugMxNu8Q+6dshFx1alw4VDn/V66dBldRHRljDQQrhN1JmLLls3d+f36fy2edQzHQoJTqWf8CVc+ZhmGKHHe4f4H5J572qkitqIEBQdJ+pBodT5kHQRi7DK4jK/Bf/bsugag2yUNgQQQMJIvAXDskCFwCQjYb+oSQLNTDIGLQIDf2Dl5yEWcaEkNAUPAELhcCKAcqqVq79P/EAnk27tSLbcYE9s354qejsp27ECy8mBoaV1g6oyUU4KbaccEpDnkOtFFbVy8BZxYHBRCHCXTbXkLu/3+JDhqco511jSc3zZ/qCPJKSNxvZLmrvL2nyFgCBgCAYZAmjSpnZoSAh1bgghVUWJtAHFeVj2Cf/hhiFStUtFH4h49etyR5lQDj/Ao/wdAIuuWWEI4R9bM7honT5yQJYuXuNwrqN3C9OnTtIwVHJlfsUI5X9nORoU70pyExYoVjbM0PPNYjBHKPkhVubEjvrKF6SKiTXStGmxtVq9eJQcPH9VBhHOLpYJf8D/EN3lCfHuB2v3kqTOqZg12yt+bb24k49SC5rNPP3Yv0lVSGxwvPMVzKh2UjtLBCgtDwBAwBAwBQ8AQMAQMAUMgKSOAiNPCEDAEDIFrigAkNYSA90L9nZiA84AU5zyPKOc8/22PNGc/4R2DbI/NmUCa+6chrUeasz92epfY/gsoBLhneK+ygJd/7FGbnwm7d/jvsm1DwBBI4gjwN9lbZ4WqYFEweMhgORURJSvUH7hU6dICaRwcnFpOHD8mN9/UwFfjhx56OF6rFV+if7mRLWu0RcVptbDYvGWrfK4+5OGRZxyxX6x4iXNl0/U0bqhVy3e1V//bI4bK3TvAsy4uwtw7Ht87xPgLL5xblH3B/Pm+pCqicRYfnjUgB47GsxAgi4iOHTtGPvzoY7VKPGe/gY+8F2FhYVKvfgP5Rkn6devXSZhacGAPwcvCEDAEDAFDwBAwBAwBQ8AQSGoIXDXinIVQ8HyLK1asWHHedFTS+a847n8efm1Mr40dLIASX+Ahl9jA943pvnEFq4/TAYkd8dWNRTLxposdKKPiCxbIjB10Bln8M65gkc+LifiwYPFNf5WRl2d894HjLJ4aO/bt2ycnVGEVV8yePTuu3c6jL64DK1eujBNvfAAtDAFDwBCIjQB/nzvPnCQhQ79yfzvKjR6mi4ltkTzDv4mxwFns8+yzIWAIJD0EIiNOu4XUvZKvXrNOVec6mKoMc3jkWTkdecotDnr3XXdKrpzZZdHChS5pzpy5pGeP17zTEng/v72XQOIYh9Q6XQoUiPZI5sAKbc/gp84QbMRpyhYuC3WR9NtatZRcuXLJsqXR9jJ4FbdTC5S42poxLnCRH0qVLCYF1c6GGD78R2dbg7XLTTfVlyaNblIP5XNEOH7Z8QWq9ke7Pq6DFAdk8NBhUrJkqRikOOWerv7ujz/WVSqroj5HtqySK0c2eeftt+S4LugNUW9hCBgChoAhYAgYAoaAIWAIJBUErrj8A7KXxU0go0eMGCH33XefU7awsMlC7cAwpZNVyB9//HGXhlXIWUWcBU769esnjz76qFtUham3EMTBuojMOF2dvHXr1jrddLWbkuuR0JMnT5amTZu61cfJf9WqVW7lchY7oSMCycsiKN4iLLFvEouNkheLJ/2piz5xjVTqiYxv5lLt0KCW+eabb+Shhx5yBHMtVQdB+rOIyoABA+TBBx9UZU2YlNPpwXPmzHF1GDVqlLRt29bVoXLlym7wAL/IMWPGSJs2bVw+LASzZMkSN3hAHUuUKOHKwXWZIgv5DoFM3VmpPUuWaM9MVlCHoJ4xY4ZLR741a+ILfX5AiIMHi8UMHDjQ3Qc6RqVVjcViNSiNhg0bJu3bt3dlra5+nKSn/tT5kUcecfeHunHf6BhNmjRJqlat6haqKaoLWVF3BgkYXMidO7fkzZtXcuTQBYT02mDPgAf3lnOpS8mSJQUSn3vNvWMVeDpULKQDrqjIfvzxR7n77rvdPa1Ro4Y7H7y//PJL950hb1aatzAEDAFDAASC9O/gvrs6S4pBfdwMgZVHD6uX/WlpXqio9L+hvoFkCBgCyQQBLEtgyNt3uF9mzZrlavWTtmP27d2rbazR8ucf4+MclKcduHrdRjkRFhEviUvbh0itbZVLCcpGW6dZ81vFEwz8/vvvcirslNAujC7b+cKDnDlzys7de7XdlLB/+qWUCcL7kYe7yGuvvSo/DPxe+mobe+nyZTJHscuXL59kzpjBl+0Rba9dKMivdes75F4l+Q8fPi7ZsmaM95QjRw5LD70ur1179unihJnjTWsHDAFDwBAwBAwBQ8AQMAQMgUBC4IorziFF6aTMnDnTkaeoalgZHPIT4pTG+vfffy/Tpk0TiFHIX8hWFNwol1GRcw6dmNq1a7t8evbs6QhgSGAIcdJDJkP0jhw50q1WDskN+Tt06FDp2LGj3HbbbY6Mjo8056ZAHlNWCOHNSvZD/FLWjBkzqmqogCsvZD6dHwhqykQnB1KbclJePnvXhjzv1auXy5e8KC/HWc0cgp4BAMoOWUx+w4cPl6eeekqa60JUKOq5prciO4Q6HUP2UR5IdVTojRs3lh49ejiCOT7SnLqBK9emTKjpIbj5zP1hUIKBgQ8++MB19CDTIbbBHfKawQ/uH+kJrvPLL7/Iyy+/LE2aNFEF0XGHG/WinhDxU6dOlYIFC7o6gzkqegY1nnvuOUfQV6tWzQ2akCf3jPpxD8E7a9asDiPK9u67/8/eeQBYVVxv/MAuHZbe29J7FwGlCwpYUbHEGmtMYo3GRGMsidFo9B9NLDEaCzbsgoKiiIBI7713WGDpbXdh8X9+85i3l8fbhsDuvj0H3t429bv3vjfzzTdn/u7S69Kli6sDhDwkPIMJYAh+ZoaAIWAIBBFw7nkiVI0sDGtmCBgCsYFA0aJF5KGH/iRdT+8kv/3NbeFKvfjSC3LZkEscMbx58+bwedpA5bWN8c/n/uXaa8W0jZiV8tnrzON0wc7cGm3Dhx56UDp1bK+q9ofC0V/41/Ny6SWDtWxvKKGfQZpTNto/Tz/zf7JFSf+ckuZu4CCces52KBdtNYQT115zlZx//vkuIguHFimS0SXYoe3LrPDxuRHmgBLoQTcvLGw6dtwE6dq1m2tDUr+gIaQxO3EI3DH9R5fY6n17ZHlghuvug2nOPdm4LZvk6YVz5LvNG8PrwPjcX18Zmr2Je7OfIpzRse7MPTOjzxIl/rnff+XWhPFpBbdfblwbPHT7lGOsliH4Wbpnl0vjs/Wr5aO1K+X/Fs+Tb5LWC8cPzpnm4v1q6gR5dN6MY9ILnkDsxOcbXeCWPtr+/fuDl93+IRUi/U7rc5XOSEtRV24Tk5McJjN3JMvk5M3y8vKF8uPWjO+Mrakp8s7q5YrpbgHbJToI722FLkYPPiN0Nttf58+SdzUceGPU8/EFs2TM5g0yauM6eXLhbJm6bask6SL3C3btkL/pNWzOjm1ax4wZw2PUldzLyxbKc0vmy/P6eXrRHNmqLuaCtkffnddWLA6ecneNeK8sXyQv6haXg4/Om+ncDO5T0cASdbtE+b7R9GdpnuS/Sss/fkuSrFT3VUvVTZSZIWAIGAKGgCFgCGSNwNGt2azDHtdVGtN0BCDFUVz/61//cuQqiUGaPvHEE64BDxEMUerPp2ujBrIUNyGQ2TS8+UCc4vblnXfecekRHrJ26NChTsF9+eWXu3A+rXvvvdcR6k899ZQjpF0GmfyBzEfFPWjQIOnevbtTwpM3Vr9+fUdQo0anXBDLdBgqVarkyO2ePXs6lTRqac5TbwhujLKiyMYYKHj99deld+/ejnSGmCYt7LrrrnMK7D//+c/uGudIH3X6RRddJOeee65rFEIsY7169RLqxYABhHtWBplPXpDYENgzdHowZcHosIEp9vHHHzvymjpQd8rasmVLFw8Sn3QwMFq3bp386U9/0mm+fdw5SO/PPvvM3QeuMxhC2tjZuigVKnHU6sTBwAgCHzX7L3/5S5c39xJDRU69IeVJg44oHzBdrYMa7dq1c0oyXwcXyf4YAoaAIWAIGAKGQEwjQPsEIcHTTz0ps2fPjlrXokp4M6OxTZu28u9/v6iLYe6VnTqr8Kabbwkvxhk14gk4OWL451q2v8t8XaA0mtGWoY3arn0HefGl/8iOXXtlu5bt17/+Ta7KVrJUSRU7RMsh83P71d/7w4885gK8+867svaIW8K//PVvUlQX8/SWrEKQ3FhRrRMfDH/u3bqd4chzZkXu2Zci777/gfzxgQfVtcswbftXy03SFjYTBPanH5IRSnhP375VRipRPXrTevl601p3TJTxSuAuV2J6uRKnNUqVlleVWF2/f59sTT0gv50+Ue6eOUnm7dyu5PgkWafn/zznWHJ6pbrWibT92l8YMHakfNl7gFw/+Xs5oOXAWEPkViW5fzPtB3lywWy5cPzXbv/OGSFiP0XDUebgJy39sMTr+1yndBmZq2XhWq1SZZxbteq6eC0k8KX1G8rVDZrKBCV6MzOIcoRECJjo49Cfi7QJW5Pk9mat5Pamrd1aN7t1Vsfs7cnyTyXreY2WKU5DVy8T6nfL1PHy7KK58pUS3z9ovEHfj3J4+jTrlCorn6xbJefXqS8sKt88oYIUP/L8v7hsgfSvUVveXrVMifO1cmvjFvLlxjWyW2fI/mnudGmmYZ/SgYz31yyXDpWqyB9mh8jzlrrA/SQl8G9s1Ex+07SV3N28jVQ9soAvgwo3KNa/nf6D3sfFcpviPGTCt644rMOzXd0+nVu7npxWqapM1PJe07CJFFVcp23fIq+sWCgvLF2gAxYb5JtN61zak5O3StsKFXWgYq7cPGW8r5ZtDQFDwBAwBAwBQyATBIpmcv6EnZ43T9UDqgDATQdEKw2aRx99NJz+3/72N0doDxkyxJ2DwIU4hiCHNIdwf+CBBxy5TgCIcdJ48MEHw2k89NBDrsEEKbtx40Z59dVXXV4EQPUMYQu5i8ommuHbmym1kMlMqYU8X7lypYvz9NNPh6NA+F566aUyYMAAdw7FDuUnXVTnlPUPf/hDmITGLQ3kNqpzjDzuu+8+RzoTHiU3imoGFjDI4Mcee0yuuOKKsHqHukCe49MbpTj4DB8+3IWHyMZVCuR2Vkp63JmA/0svveRIetTlqPHBFVcwGGWF/H/88cfdMQMXkPGokcgXch9lOyp3jLAMSuCehs4p9u9//9sp4iHyUZijCufeY8wMgBQfOXJkWLlOnVCys0VxjpL9ueeec+H5c+WVV8rVV1/t8OAYEv0vf/mLU8hzf3Bbc+eddwplNTMEDAFDwBAwBAyBwoFA1WrVj6qoH9Tn5KivR7tFN1O17TNL3eDd+qtfaTsl3pHSkO7HY6QfqZzOLJ3IAf1gvA8/+lggrw+oCGP6jJly8y03O0ECqu2cWtG4jKY71clN2WDa77n7Trnm2uvD2T355FO6mGdPJRvLhM9tStoU3s/JTnyxIlL5yGKhtHVp19K+xJ0LduGFFwkLnl500eBwuzMn6VqYzBGAsG2hJGzZ+GLSpFx5qV+mrDQokyA1SpZ2kZiRUCIuXj9xbgH1UnHFHJlatUQpOadmHUnQeAk6O6BB2QS5rUlLR7CmBhZmh5CdqcRy0FCDQ4h/1WeQKqPnybtn9JULxn2tKuuN0k/J4v+c3kNe6NxdJvS/QCoXL+n2n+t0hkvinJp15dxa9Y76tFbyFoKXdUgO6vOyfv9eVUtPl0blEpwCnjr2rFpT7lVy//7ZU4JFcfu0/xHpIKjhPaP/xjbyPeeZRIVNGl2rVFOC/qD8qCT1PiXqt6elysdKgpdXLGrpAENpfddr67vwRPvTJfXwIbm+YVNpXV5FUkf6OmRcQt/Bl5Qgh5D+cN0K+fui2bJSlemQ6WUV52FrVrr7cE+LtqoeXyBaImmq9+r1Lr1c+mtUwV5aw/WrUUfJ/NauLjU17ze79ZF+330pcYpJfJGM9xxi/FdNWsnViU2kc5Wqcqver+26foO3kjpQCHFfUj99qteSYaown63q8iXaz1yh5WpVoZJTuyeriv6GyeOkTLE4qVC8hHs27mvR7piZCD5d2xoChoAhYAgYAoZACIGT7uO8TZs2buEmyFsIUghXPjR23n77bVcKXKPcfvvtTnmM0hgVOkZjqEOHDu5Do4djVMhjxoxxhDOuXnDBApmKoTRAKc6H9HHlAbH97LPPOvcrbFE3eyU4cfC5jW9u0h48eLDgQgTlAmlBevNhWinkNMrnL774wpX1tttuc0psiG4Mwh0Smw+dBXx2f/vttzJu3DhHhpMuLlg8EY/f9R49ergP4fH1DYn+yiuvOOU1mEBK33TTTS59SH0U2vgYx1BqP/PMM84P+1133eVI7HvuuSesIneB9A+DFdQNYhzXKhg+yCHO+YAT0xq9exUGJHr3DqnhIcIx6uDLyn2g7OT97rvvOqU/9wO1/G9/+1sXnvxQ6DOLAINAp964zOF+Mrhw9913C77d+WDcA/zb8wHvN954wyn5UbATlvSZsYDCHoOQx3UPH8pkZggYAoaARyDaV8Khw/Y94fGxrSFQkBHgN79Rwwby5aivVbBwuvrWTtCZfe/Jddde7ao1dcpU6du3n+xVpXOrFs2khg7aT1U3dZ7EzUndPb0epwTZ039/UtfceUn69T9b2yavO9ckWaXRsdNp8ulnI+RMbYtStuef/5eS1Xe5KDNnzpILlDzeuWu3tG7Zygkj5qkyPTdlizsy84+Bgae0bC+re5o+fc6St95+x7Wfsiob18jrlf++Kv/R9ibq93RV/SLKKHFE3UoY2phc87MROZeVoTUH562qZMWSNm9ysxfdgf05KQgc0PZ7JSWnIZ4hwCHQ5aci7pgMeU/K6bPCuh9F9F9xfZYPH3HHgquSVO17EDdV97EzqtaQMUkbZVCtuu74zZVL5boGzdQlCarwEInbSEn2b/qe6657Up3jVeryA7tDleyoxNM0zuIIFyCo259S9yOeDqb8EO0VlcCFtEYdv01JbNyRbNGBJZ8n5HltnTH7qyYt1MXKISWHM7quPKM8q/SDcONI/431qvzMXFco/YPbFeKjusYYPCivRHgxZqYoBhU0fwYYLq3b0F2vrQp4yhtfJE5uUkX2Xp1FMV+Ppb5o/dLlDcWmbumycq0q4d9fs0J6KLmPYnyxqtb3aNiSijuuW3ZofYqpW6l0bX5M10GIh9Q1S49qtZxS/aC2SQapcv/sGnXlxsbN5cG5Ux3Bvl3rfs2k75Q8L+qU8UOVTOe2UXfcw9CWwe1MsJ0D5mAPps93PEMqlygp7StWli91RgJNn4Zly7lBiWQVfD3SppMs0jUHsLtU1Y7SHpcxT3Xo6s7ZH0PAEDAEDAFDwBA4FoEi23bv1p/U7C1BGy3x2qg4XqMBR4MGP98Y5KhXKvs0OYdyxisFUBijqsYgl/kEVUWcD6aDGxXIZW+Rx5xHJe7duPhwkNZBxTZlhcjFtQkG6e/dqfg4nKP8vqxMR/V1g4zGaNAFjQ6ILz/pB6cSBuvh4wTLynXMYxatbuDry+zTYIuqG0LaWzAcZaKcvh4+DFh7lVTwPnA9WA8fPlhWsCGur2u0sgbxIo1g/GjhI8sZWSZfjmjbdK3LLr0/0axyQoLvH0e7/LPO6XOUo3fLZ5J6MN11YP2xbQ2B/IQABFKJYkd/p2VXPv1eOeXvFx3Lup+9I9v1Ozblypuk7Pv/k/9266V+TcfIHc3aiFe/ZVd2u24IeAS0nXTMb6S/lldb++0Sd0/8z2zpksW0/VdK2xIpbhbgu+8PkwvOO0/bjelKYPeQHyaMzzE5TVrVdNYji4zyFebzwH0d69nkhOQOxsMfO2nSIsBt339eeVX69+vrHh0EATNUzJCSQ8U56VRSt3jeB7kvW82atXTG5YYclS2zZ5b2ZWK9Oi4d6rp+4ybFM2dKeMp1ngpZvlRxC/bmW2/LpUMuyyyrU3q+oPx25RaUH7biM3yT4Me6rPadIJyrlCyhRPhh+VPrjrJUCdHN6pYlWf1klyga7xTcZyo5XkFnkP5ZXYbs0LY6fs0hYV9WAvvyiWNk2JlnuWLsVML3DnWx8paStpf88I183L3/McW7btJYp5AOXiDdx9qe5k7h1xsVPC5XsrO3Vi115cBlDKrzXqqaxv/6mL7nOTU0Kvet2sebNmDwMUkhsEF0hViJ2cvMYGVmctBQz/f77gs3wPBZz9C1M7/5XCb2v1Du0npe37CZqvYT5IsNa+Xy+o1cWap/OlQ2Db5GifWijshOVPL5r207Cy5fulSu5tzezFQ3OcvVXzjM9rm16ruBiP+tWOIIc1zQVNY+6d3a7sD3OIT17J3bpH2FyupbfLeS2QnywdoVclm9RsGiyrWK6xtde4cHQLj47pplMnzdWne/8K/eShXwi9Rf+lTFA6U+SvezdRbBxgP79VpFNxvgTs13l5L3EOq/b9FePt2wSqroQAu+1psnVJQrtJ5/mDVVzq5VR3pVq+lU7kcV5CQe5EXb8CRWx5I2BPIcAXun8vwWWAFiHAHeMT/wf9KrqnmFiWUy8wRwMOMgEc15T5qzHyRiOfYWTCdImnM98phzkaQ554KkOceUNUhAR5LmhOEc4bx50pxjiOhI0pzznkhmP0iacxysB8dYsKxcD4aJVrdgmUMphP4GSXPOBMNRpmA9fDxPmnMcvA8cB+vBMRYsK9gEw0QraxCvyPjRwkeWM7JMrhD2xxAwBAwB7SA/o8qp1F/c7L7b9l15o/wisbEcuvJm6a6kgZkhYAjEBgKeNKY2KWnpMujcQa5iuKY7b9BAR5pz4q9//UuuCWUUulgwD1zA5IQ0j4yHm5gLLgwRfriZO7t/iJwk3Gv/eyPHpDnhMb9gabBsY78fl+OyhVI59q/y+9JEZ3JiiBviMpq4xwaOOKPj/kpetgufXTB/QXjfdk4OAt1V5VxO+wa454AoH1w3Uebu2C6/b9neqb7vnTVZxulinKPV9/ig2nVl16E0+ZX67sbWKTn9XKdu8nSHLs7NS7CEuC7poyQzpDn2cOtO8sj8GW6xyWC4aPtVVensrZP67x74/UgXD3J3mw5qRX5wHYJNUZL9hkbN5dJ6DaVemXJOEf1lr4HuGot4vnJ6T/lHx+iKaGae/vOf/3TuLlGa47Yl0lDWP9Cqo/xb3cjMULKbd+eZjt2c73IWDv9afX+jIj9L3c1guHHpUqmq87V+x4yJboHNBSjO1VhcE5U2inX8y6eruv7Wxi2lqbrL+fvC2c4VzK+btkT8L6SNexi25FmpWAm3AOo/1H86qv9NSnSn6/mg4S4HBbk3FvRsXLaCvN/9LPnXaWfKJXUb6IBFb3fPSQPyvZeq2DHyuUIHQBAQYM9oPggG8IGPO5cNOjDxoOJAuXfqwAn3+mEd7MA1jJkhYAgYAoaAIWAIZI7AKSPOMy+CXTEEDAFDwBAwBE4MAkxLhyiPNKY9D9FOuZkhYAjEHgLMknt/2IcqMAgttu5reP8f/ijde/byhznaph36SVroouje2qkqfM269eparoU/lastqu033xoaFlR4wpvFMlm8NLfWqnXIJzLxIA3Xb0ySevUTc5vMMeFR5bKoJ+ZnTh4TKJMThG/Xrn346oqVy8L7tnNyEBilC1eiHEbJjHWtUl3+26Wn9Pl2hKTp/Rje6xxZq760NyhJzuKWNdX3+XXqr9sTs6/oYqGvrVgss3Yku/jFlVhFgX75D9/KrAGXuHP8aav+sX/VqIW8rKrpoOGjO9IuVlL3tK8/VRJ6iSNjp54zWC6Z8I0qofc5f+D4BA9+/m/RPCVwU+U2XUDz0Xkhcr6N5vd4u85y36xJjlR+fvECeVYXsUQVHWm4/GQ9rOeff14SExOFtaiuuuqqsCvQYPieGv8xzeP3SmRP1zov3b1TRvYeqG5NSrk2w01aBhbKZAFVFlodqX7cKQuLn6J0/1SV6uwX17YEBDV+2XEBU0pdx0BT4+rlaR20H75htTwwe5pcr25uUKb/U328o+qfpmT1LVMmOH/wEOYXjx8tYzZtlN/POtp3Owt8XjDuq/BipE0TyjtV/Pnff+VI8cvrh9o3F+jCpBDezy+er4u/qqpfuW/c77yvswYYtMAG1KqrC5JO04VG28q96su8tdbnH+ouB+X5lG1b5IHW7eW1rrn7fnQJ2x9DwBAwBAwBQ6CQIXDKXLUUMlytuvkIAXPVko9uhhWlwCIQC9PdIayizbApsDfFCn5KEDBXLVnDnJ/cjK1du0b69e2ta9kkyN+felrXlhkkB9WVRW6N74nNm5N0YfNyOlsyIce+vjPLh/SWLF4kgwaeo7P4EuQ59Xver3//HPkkPzbN0OKb5csnSBl1H3HoYO7rd2yaoZmd3303Rs7VMjJzcH9Kao5dtUAcLl+ySNeiCanO+/Q9S0aqD3oGNPLaYuG3K68xtPwNgROJgH4fnjSJu7bz+DoyMwQKFQL2ThWq222VzQMEeMcyVljJgwLEUpZBn+CR9YrmEzy34bMifDJLK7M4hKfNwidomaVDmGjXMkuf8KiPormrySxONIwyy5fzWGZpha7aX0PAECisCPDdsHnzZrfo8vr16x0MLCbNYtWR33uFFSOrtyEQiwjUV+X16rXr9T1nDZz04yLNwYXvkGrVqjuIaJ/8XCO9Zs1byNr1GzPKdmTtmtynXSSjbCeINKcMtPM660L2mFtX5+gmojuf2R+CtmjVxvlf375tm/Tp3SdfkOaZldfOGwKGgCFgCBgChoAhYAgYAjlFwFy15BSpbML9+9//PioEnQ46Sm+88YY7T8eLY2/vvvuu33VbFtSEbGYhz2XLlrn94FTZWbp41MKFGdMkucZn+/bt8uyzz7oOCmkE7cMPPwwf0iHyC4w++eSTjjzyxz4QPgKD5sv0zjvvqOoo1SmuSMfba6+95hZR9cekx/U5c+bI6NGj3X4wD/yOzpgxwwcP15F6/N///V/UOgwdOjQcHvxIj+0zzzwTtQ7hwLZjCBgChRaBLbqoH983S5YsccpJvjc4F/wOLrTgWMUNgRhGgHc8Le2gU0oH2yv5ocr5uWwen7IJFWT5ytUybsJEOZiauwED2rmr16yTRUuXyf1/fNAnaVtDwBAwBAwBQ8AQMAQMAUOgQCNgivOfcfvoJIwdO1ZQNH755ZdSq1YtSUhIkN69ewtEN9fOP/98+eGHHxzBPWjQILeP4vGjjz6SdevWSefOnaVr166SlJTkCPDf/va3bjFOiPhrr73Wpb1z505HwDN19sorrxQWvyEvCO0LLrjA5fHrX/9a7r33XlUhVXMryk+cOFGmTZsmlSpVcgQzfjBZcZ5FPC+66CK3kA75duzY0ZVzz5498s0337j4NWrUkD59+jii/r333nPlYLEd/AgOGDBAJk+e7BYq/frrr125WXy0tfrchJx68cUX5cYbbxTUnQ888IDcdddduvBVilus54MPPpAdO3bIrbfe6srRrFkzef/9911e5513nvzmN78R6l+/fn03gLBo0SIZNWqUVKlSxS302rNnT1fWtWvXunJ88cUXUrVqVTnttNOiqtt/xq21qIaAIVCAEeB7jwHIJk2ayJo1a9z3HN990WbBFOBqWtENAUPAEDihCPykCx3WrFnLffB5nluLU3/P9erWV6HFwdxGPe7wbiFXlbz7gVG/JUE3u/K4U7aIhoAhYAgYAoaAIWAIGAKGgLo0NBCOH4H4+Hjprz4qy5YtK5dddpns2rVLzj77bKdw7NKli5TSxVpatWolU6ZMkYsvvtiRv/369ZMVK1bI5ZdfLs2bNxeOid+4cWNHINetWx63YI0AAEAASURBVNcR3L/4xS8cQY5rAQzSHUKesJyrXLmySwMFN0Q3ZDhpQNyTJsT3DTfc4FSWZ511lpQuXdqR7JDRLXXRq6JFizrCHjL+nHPOcWW/8MILVamV5uJDMLXXBbEg4qkDJD3XIZ969eolc+fOdXnUrl1bOunUXsKxT16kwaAABDplS0xMdGVjwZ5f/vKXYSIfcuu2225zabVo0UJ9kQ50eVFHcOQc4VHVk26xYsXc+a1bt7pwkyZNEnA2Muz4n2GLaQjEIgLMkIEwX758ufuuZIvrluAMmFist9XJEDAEDIFYRwAyHFI/Tcn5fakHZNeBPbJt707Zvm+n227bt+vIdqck790he1L2xzokVj9DwBAwBAwBQ8AQMAQMgZOIgBHnPxPcP/7xj4683bBhg6C8xoWIN5TVEOA33XSTPyWvvvqqI75xGwDpe8899ziimQBDhgyRxx57zKm1UVJjqNUhfSDhOYcrl8WLF7tr1atXd6QxeaIEx/bu3SuUCaUlKnbCfPbZZ+4af1DAX3/99U7d7U+SJ6T8xo0bHUHNqvTefve737nwKMG9vfnmm66M+/btE1TgTz31lCO3ud63b1+X36ZNm1wZOEd5UZaXK1fO1RXFOIp8jA4QCnqU6ajnMYh31Ort2rVzZUK9/sorr7hr/AHP6667Th5++OHwOdsxBAwBQ8AjwAwaBtQY3OS7lu8qzgXdX/mwtjUEDAFDwBDI3wigKj+savgDaSmyQ4lxSPLdKXsl5WCqHEwPuUL0Ann8rYeU5sTiKPYt6AbR15aBYtrTwU+kv35+F+ljBA0XR94dJFt/HAzDjC5vkfEREZE3cemHBI1yBmcE+DVIfBhcrCEuChoD4fRt+B3fvz80CIIIKGjE4fo29a9P/nwwZryuXLnS7ZMvfZPMDNduYBXNwI22xM816pGcnBxOJrKu4QvZ7MzYnizb9F3wtmDXdvHzQ77YsMafDm+/37IxvJ+uOOzR+xO0TQf2BQ9t3xAwBAwBQ8AQMAQiEDBXLRGA5OQQNys03gYPHiyPPvqo86N74MAB5wMcohzXKjSOXn/9dXnwwQflpZdecupwFOHdu3d3DTkaeCggIb1RRqLWfv755+XSSy915DiNTshs3JRAguNGBXU4ynbU3BjloNELAf/WW2/J1Vdf7fJ+4oknZPbs2a4MKL5Rp9PwhawmHUhwfIpDoJcsWdKpvmm8UgfSg7Sm8UnH44UXXpD7779f/vvf/zpVO2p33L5QPupIvD//+c/OFUuFChXk5Zdflg4dOoTd15x77rmOwMINCwpxXLX06NFDGGjARo4c6eISjjxwT0OjElIc1zDghIoeBToN2lWrVgm+23FL8/TTTzsCvU6dOi4t+2MIGAKGAAjwXcnMFWba0BFnEI5jZsyYGQKGgCFgCBQMBKC9Icb3KUl4UBXmtEuxwkKIu8pm8gcyl3YyM0hpX9NWpp3MDFDa/Yhc6HMEbcSIEXLfffe5PgxhIYMRt9DXYLAZgYtve0M6gzckOTNk27Zt60Q8rG90+umny7x585xoZsKECS4fZqd+9dVXbk0k+kj0awjzyCOPOLKcPhGENzNW6Sfw20x7v2bNmi5v+h3EJx79C363Mdr6CGYgvunD0NdBRMSsVNKn74JrSmb2sgUHP1uXPg5uJZndOnz4cDdz1uOB+0j6D17IRFrkTfsBd5lgCC7U+7vvvnNlvf32213fjX4dQiE/EMGWYwbr6QcRx6+xAIb04xA/sY8QiH4VdUF8xABDbmbOQpD/YfYUqVS8hAzr3k9SNP68nTvkL/NnyS8SG8mYpI16raScUbW6jE5aL2sVy6Grl8q1DZpKYply8uqKxfLOGX1l4tYk+WrjOimtZU5OTZEqJUo5jA8rBf+n1h09TLY1BAwBQ8AQMAQMAUXAiPPjeAwgY2gU0cDEaKBBovuGGo1N/IA/9NBD7jqNye+//941wGh8YjR0SQNLTEx0Dbo77rjDuSOBCF+wYIHzMY5bFYwGGQ0rGsR8IMZpuNarV89dx50JftZRlGO4WcG1CXljkPQ07P7whz+4Y3ybQ1rjpgVCiQYdqg58lWM0HLnu68CWhiqNXBTgGK5bSB8yCn/lY8aMkWuuuSaMCyoPFPO+4U69GFSgYUqdaUDTmMQNDQZpT6MZ5TmNS/Ck4UnjGIN0RxXvFfFcx287qnrqamYIGAKGAAjQ4WXdhOnTp7vvTgbq+D7CPVRuOqiGpiFgCBgChsCpR8AR5ofTZW/qfjmkxCDHtAvNMhCAaJ46dapzm0hfgLY8YpNhw4YJ6x5xDteGtJv57UNIg8AFg8RGkMJ12t4ow2mvQ1DTT/nPf/7jZszSz6FvgPCHma/MYG3YsKHrC0Bk03egP0E4+g24VeQ8Yh7a/lxHHMTaRcSjfLhgZA0oFN6IhfhN/vzzz1056cMQHwKcuuHyEZJ99OjRrvyQ3Kt1zSXqzoc6e4Kf54M06evQN6H/QL8IF5iIlKgXx2eeeabDgb5cmTJlXBpghBAIDJjBCwFOP4q+HMQ8oh3qz2ADfQ5wgpDHJWbkc9mgQQM3A9nfqYULFzr8SWfOnDlu0ALlPflB1tOnI05Obcb2rfLHlh1knqrMsY2qFq9dqow807GrvLB0gdzboq38evpEGVH1HKmj51MOpUt8kaJSrWRpqVGqtLzetbe8sWqp3NCwmczduV1qliwjh3Q2B/bfFQvl6z7nun37YwgYAoaAIWAIGAIZCBhxnoFFjvc80RuMAIntDYWDd53iz6EeD5onzf0576bEH3vC2x+zGGjQaNAFjUaxJ839+WAaNPT4eIO4h1gKGouFeqPRGFkmXNEEjcZy0GgwB41GMh9vNFD5ePOEuD+m4Q0ZHzSvOOEcLl3w3R40/LmbGQKGgCEQRIAOKTNs6NCOGzfOdcTLly9vpHkQJNs3BAwBQyBfIvCTumHZL6mH0pQwN215VrcIRTSEOOsQIUpBUOKJXJTMkMMQtpDLKLu9Cpr2NsIV+g6QwZDK3uUKJDHtfUhoXJtAbL/99tvOxSNCGT78xpIug9S4X4SAJ33vIoX2PYIeyHTU2pDlzJaFoMdlJb/HEPuIcSDzO3fu7IhpxDUYfSrqRhrkgwIdFTskPnWgT0TefLjOOZTxft0oVO0IjhgcAA+u0y+DVA9iQP2ZQUs5KTt5YhDjkPWIl3CnArkNDoTDUKojFILgD/b/uAZuEPwMAJA3A/e45eRegOvEiRNdHO4JgqLc2r+XzJdWFSrJfS1CivyimsemlH0SV7SIc8Gydt9efWtChpJ8xo6t0rt6LZm2bbMq0YvL/y2eJ/e3DMVtnlBBZu3YFsJE0+lZtZZz+eLj57ZsFt4QMAQMAUPAEIhVBIw4j9U7a/UyBAwBQ6CQIsAAHQOJdIjpnNI5Z8YKnWYGBc0MAUPAEDAE8h8Ch1Rlvmv/Hlcwo8yzvz+QwLgNwcXiP//5z6PEKsSGVEbkguoa8Yk3FNbvvfeeI6QhpzmGIEZQg8jGu1Nkdmv//v0dsY3ghvQIj5sVfk9Jl7gQ1pzzrla4BiHO7y6kOUa8xx9/3Cm1IfXJY/78+YL7E4hu1OicJx3U3RD0KNIHDhzoBsARHEHOQ5bjTga1NgMF3+uMXtw98jsP6c9sVn7/UaQThnJTLrCiTLQBUMNDcFM+ytWpUyfnGoa4pEk878cdVTvuXyLbDhDpfpDC48qW2cNBQ7WOUUfc4kCq43KSejIAARl/ySWXRE0rmI7fRzXeonxFt0AupHn1kqVk2R5Na/8+Wa/q88nJW+SMKiGhVJUSJWXJ7l3SVon2+bq9oE6iNC6XIMTDFu3eKSM3rpUr6jeSMvHFJF3fPyPNPdK2NQQMAUPAEDAEMhAwBiEDC9szBAwBQ8AQiAEEmHqOeozp0HTA6dyjUKOja2YIGAKGgCGQ/xBIOZgme1Q560m9/FfC/FciFNjX63pF2F133eUIZohiDEIWkta7N+HYE7233nqrI9IhlyF0mc2Jqhtj1ixqdIjmmTNnht2I+HRJgw/HuJWEZOYYRTczXXH5CIENyb1a3ap4gyBnfaJ//OMfjuRnTSOIaz9LF//rfubs//73P7nqqqtcVNT0EPP8ppMmBDblg+DGSMO7nKQ+jRo1CrvCpF74Mv/b3/7m/JZ7V4/E4xrp4MqSQXaIcgYOwAEVPe0I2gzgxwA8eUSax9OfZxADf+pBQ3kOlhD/fMBkyJAhTpGOi5qLLrooGDy8D7FOfSLduPyqSUsZpb7Jr500Vt7q1kd+P2uKlFN3lWlKeu/XAYvtaaluf6YuIIr/8pJFVSmvn1K6z2DUrB3JMqReQ3lL3bWwKGiXylXl4bnT5ZeNmrky3a/+059od7q9h+E7YTuGgCFgCBgChoD5OLdnwBAwBAwBQyAGEWAaOGsfoEJj+jcKNdxP2XoIMXizrUqGgCFQoBHYn5YiB/RjpHnObyOKbNTeEL64OsFwBYJKHJsyZUqYXOYYNTcKZ8yrzyHe+WAQw5C8X3zxRch1h57DPQoLj2KQvpDvbHGBhvIbF4+QyqjSMYjt999/XyDFMfLEIIHxe44LFBbHxCUK7l0glCGfUWVzDJFMHhDWLDrao0cPVyb8hFNO1mX6+OOPHZmN+p21mPDnjl93CHvczlAewuMOBjKe332U5qjyWbgTshzXkuRFOSDeL7vssvAinWDDQqPUnfyoD4rz3upyE/KedDEGDsgHzDz+uMuhfNwbjLoxiNCtWzd3TFhIen+NQYDx48e7RULdycAf7h8uYiKNBT6/0UU/T6tU1b0v/zrtzHAQfJz/pmlobStOLtuj7me0LDc3ai7fbl4vew8dlEuVNH9TSfPrdLFQbxO2JMnZNepIz2o1/SnbGgKGgCFgCBgChkAAgSLbdu9mge5sLUF9s8VrQ8bMEChoCKRrw3yXTgGNZpUTEk7arERtIOfo3fLlSj2Yrg330AI9/pxtDYH8gkBcXFEpUSx3vwHaacyT9wsFGYsZszAZHXl8wOJblQXKIqdb5xd8rRz5FwFtJzkCJD+V0H678tPdsLL8HAQ8aR6ZBj8e/IQkK2FaWcm/NCVhiytZiW1TgjShWLzEiR5rwKx+aEqru4rK6tM7N5ZXv125KSNhIWFxi8LMKoxmJ4Qv7sogrSNnWUEqo/D2RlwI6eD6Q/5aZlvIY/x1+3hsfZoQ1xDf3nx+EORese6vUT7OM5hNuTNrLkCQ+/p5op1yU7fINH3alIPf+mjXo5WF9MCSevhyoDxnMMGX07cd/HXyQpXOeV8+n39W22B9CEe+0Qb0wQRFPwMCkcZiniz4GWm7dNZG+WIZ+HN944H9UkPduaQxSKHHJaL05VNUrb5a69K8fIXIJE/KcUF5v05K5S1RQ+AkIGDv1EkA1ZI0BAII8I4ZcR4AxHZjEwEjzmPzvlqtTi0CBYk4Bxk683TwUbrRUW7aNENddWqRs9wKOgJGnGd9B23QN2t87GrmCLAA6B5dCDSS+I5XwnzoulXy0aZ1clC/v9voIoar9u+VG+s1kh7qWmKFLoC4S8nO9zaslg4JFSWxdBnpW7WG8/scmVssE+eRdbVjQ6AgIGAkX0G4S1bGgoSAvVMF6W5ZWQsiArxjxw5XF8SaWJkNAUPAEDAEDIEAAvg1nT59ujvDdGozQ8AQMAQMgfyDwGFV1O6NQppTwkN67UpdyPDZ1h3lijr1VAUs8k6nM6WcqnvLxMXLrF07ZK0S6emHQxP76itxnstJfvkHCCuJIWAIGAKGgCFgCBgChkC+RsCI83x9e6xwhoAhYAgYAseDAFOnmzdvLuV0ij5T1ydOnOimtB9PWhbHEDAEDAFD4MQhwCKFOw/szjTBOGXKP1M/zn9cOFuKFYmTzuUrydUzJ8qHqkDH1cSIzRtkk/pE36M+m5NSD8hi9eWsYqBM07MLhoAhYAgYAoaAIWAIGAKGwPEiYMT58SJn8QwBQ8AQMATyJQKLFy92blpYJI3F0PAfyuJg+DE1MwQMAUPAEMhbBPan7VcXWpkvA5OuivMhtepJm3IV5Pq6DWWFqsvPqVpTnmvdyflq7lululRSX86llESvqD61m5crb4rzvL2llrshYAgYAoaAIWAIGAIxi4AR5zF7a61ihoAhYAgUTgRQmlesWFG6du0qLVu2dIuI+cXLCiciVmtDwBAwBPIHAijDD+gihtnpw5PTUqWtLlb4bfImObNSVdlxMFWW7tsj23Xhxxq64GftkqWljLpuqVeqjKw9sM+5c8kfNTy1pWDxSm+s58EnaN6FTTBc8LrfJ54Py7nM9n34yPQIH5m3D+u3wcFrwgfzIExkGXw8Hza49df8NrI8/nx2W+JFliMyH38cLa3IOkeGjZa2TyeIhz8X3AavZ5WOjxNZlpxgEswjMr5P17aGgCFgCBgChkBhRyC+sANg9TcEDAFDwBCIPQQgZ77//nspW7astGjRQnDdEqfqRDNDwBAwBAyBvENgv7pWiSQBo5WmhC7D1LVi1SOXfpKmZRIcOR6njHs3JdJFBettddFQtli6brMj40MhY+vvp59+KgMGDJBp06a5xbBxTXbllVeGK/nVV1/JwIED5aOPPnLbhISE8LXgzn/+8x+57bbb3L05cOCAWyOkR48e8swzzwgE7NVXXy21a9cOR/nvf/8rv/rVr8LHaTqgMXToULnpppvC5yJ3/v73v8sDDzzg3Kft3btXtmzZIm3atAk/D8wWI6/WrVu7qPyOk8+2bduOSory3XnnnVKpUqXw+TfffFNuuOGG8HFOd0aOHClnnHGGVK5cORzlk08+kU2bNknp0qWlZs2asmLFCiHP++67z5H7X3/9tQtLm+LHH3+URx55xB3T5vjhhx/cLLeOHTvKnDlzBFwoV40aNVyYzZs3uy3HTz75pDz44INR3Qzxjnz55Zdy4YUXOnxmzZoljRo1kjJlyrg4uKH705/+5NLyf0aPHu2eBX8MnpDhYBzNuMY9+f3vfy/xOghFvfr27SslSpSIFtzOGQKGgCFgCBgChRYBI84L7a23ihsChoAhELsIDB482FVu5cqV0rBhw9itqNXMEDAEDIECggC+zQ+ocjwnVlJJST7RrJQuEFrYjd+2d955xxG7O3bskAULFsiqVaukadOmjiy9//773RofXKtSpYoQ/tFHH5Wnn35aihY9esLxxo0bpX79+g5SCHjI3XXr1gnk9plnnint27d3JDfkMWQrhDGkNqTwwYMHw7O6cIkWzYjz8ccfu0vEW7JkiVSvXj3sPu0f//iHKyP57d692w0CkP/DDz/s8rv00ktl7NixLjxpXXHFFY5gnzx5sgwfPtwNjG/fvl3+8pe/yJ49e+QXv/iFK3O0svhzv/vd76R8+fIuPAuJQxxDnv/61792+UCYkyYGfsuXL3f7YMcMNj7dunWTuXPnOgIcUh319s033+zqBunduHFjNwgAbtyf999/3+VTtWpVV34G9J966inhXkXaiBEjXPqchxAHj9WrV0udOnWkVatW0q5dOxcFzMCUe7Jr1y43KAFGlI9wr732WlTifOnSpW5wgHDJycmujsTjnhpxHnk37NgQMAQMAUOgsCNgLc/C/gRY/Q0BQ8AQiDEE6Oyi1kKNRmcV4pxzdOojCYMYq7pVxxA45QgURpXvKQc5RjJM/+lodyAxUq08qQa/ayiQa9Wq5X7n+H2D5E5JSXG/f5dddpl07tzZkd+QsLfffrsMGzYsrO4OFhriHNU1xCkEMmpoCGjI4w4dOsi3337rCPmdO3e69CFbUVOzhgi/qSizOQdRjDo8qN4mH4hdFNgot1988UVH8KKS37p1qysGv9W//OUv3fXvvvvOKbRRyGP8lpMuH1Tl1113nRsg4JpXnkPCB6+hFs/OUFafe+65guIct26U4e2333b5MfgwadIk6dOnj3z++efCQDwkNIME4FO3bl1566233Kw2wp511lmOuO7Xr59TnEPIY7Q7IKiJSz3++Mc/OqymTp3q8OOeoOiPZmBbrVo1R4RDtEOQU0/IdvKhbYOh2uceQNrPmDHD1YX7yD2krEFXLMF8eE569uwpzEh49dVXpUmTJu4+JSUluQGXYFjbNwQMAUPAEDAECjsCR0sOCjsaVn9DwBAwBAyBAo8AHdSg31JUWPPnz3dKqgJfOauAIZDPEIiPt6ZkPrsl+bY4KTlUm5+oCuDFJT5CXX2i0s4P6UBWQ86ylgfEN4pzyHJvXFu0aJE0aNBAPvjgA0dMQ2JHWmpqqhQvXtwRsBDUEPKQtGzHjx/v0uR3FSKdtMjn8ssvF4j0xMRER/CSJmlAyEYaeRIWghdF99lnn+3cvnjXL6QNiT5z5kynAo/0zc31UaNGOcIdItobC39PmTJFJk6c6NTTuElBPc757Iw6jBs3zqm4fRrgQFmbNWvmykrdcF/z2WefuXpDRLPoOIMVjz32mCOxL774Ykdu086AhEadzkwA7g1kN+p9P2BP2mPGjHFEOnm9++67mRLb1BnzAxIozbk3DJj4fLjOMeUEH1zcQLZzjyDYMcoczVCooy5nPRhcyVAP9v3Mg2hx7JwhYAgYAoaAIVBYEbDeTmG981ZvQ8AQMARiGAE6qK+88oojFfz0dZt+HMM33KqWZwgU1XctPs6ak3l2AwpQxqmq2NUlIU/Jv8NKPBZXcrC8+oSOVatXr55TCkN4QnDj0sQTpRDYKJsh0iFIcW8C8eoJ2SAmkL2owbFvvvnGKY5JB1/fKK8jiew1a9ZIr169HGEdTAe1MuR6pKHUhgDG/zpG2pQXoh1jy+D2kCFDBKU8au4g+Y3vbdyJoK6mThDS1IO8qB9qdgjjTp06OcU1+9kZ6nzU9JDgKMJxR9O2bVuH1csvv+yU4ajeyQ/19rPPPutU+JDU8+bNc4pvMMaPOCp7fI6jYl+4cKEjsMGcgQHU7NSbOqOQBwf8lHOMSxm20Yz1WSDXId1RxaPqhwxHFU9+pOWNGQOo3q+99lpH2vvzbCPvnb/Gs+N9t4Mlgyy48/H3xIezrSFgCBgChoAhYAho28VAMAQMgfyBQJH8UQwrhSEQFYGC9HxCmqPIuuWWW9ziWnSIzQwBQ+DkIVC8WJwSQEXV1UNIJXnycrKUCzICFctCYp+aZySuaJyUyIHyuKDiCRmLf20MQnzDhg3y0ksvyUMPPeRU08uWLXPuT3z98K8NycvvY6QRn8VBWUQSohU/5/j0hkzFnYh3qYK/9Pfee8+psEmDxUHxT37HHXeEyW/I40hDJQ7JjS9vXIdAKqM6Jx/cnlAX3KJA4FI+3LZ8+OGHLhnKQ1zIcMqHGxLqCpmNIt4bCmqIZdLLzCh79+7dXRhIcwyiGCKbj1frN2/eXLp06eIGEcjvnHPOERZhZWFVT1hDthMOQh3CH4IbnPC7jkodcpsyQVAzGIFPclzI4Bcdg/ynPNEU+lzv3bu3I+hPO+00dx+YOcDgAfjdeOON4XuPAh7ifNCgQURzZcWvOWEYsPCqfncx8AcXNBD3LAy6du1ahyWqc9z64MLGq+QDUWzXEDAEDAFDwBAotAgU2bZ7d45asAk60h2vDQAzQ6CgIZCujd5d+/ZFLXblhIRjexBRQ+b+pHYAcvRu+ZRRR6WkHvKHtjUE8hUCJYvHa0cqd6+LdoBzFyEXNc7q/WLKNMopOqootc4777xcpGxBDYGjEdB2UlSy6ehQp/YoP/12ndqaW26GwMlHIK9+u3JTM8hj1NIQqfjDhiCl2YniGVIY4huSF7IZohqCGCIcdXq0n2bCQ6BDcnsf3aSLipv4ELwQtJDFQSN/SHrIbRb2hCiOZqi0KR8f0gjOAIO45YM62yuwKQf+w2fNmuVI8mCa1AviHBW2N/x7U9asjAU2UbIT1xuDCZQ5mBZ5oyCHCIeM54PLFZ8+Axb4gMc9DliSBoQ9eOHmhcVPwRvyPDEx0ZHkuEDBFQ15c6+oA+mios9MIU/duZeQ4+ALdpDvnCMv3Ldwv3HVEzTuM4Q/YcEwiLUPt0/7RX6WAXXgOTlVVhDer1OFheVjCJwIBOydOhEoWhqGQOYI8I4ZcZ45PnYlRhAoKMQ5cKcdTJdD6YdjBHmrRqwggBsGFKW5tbxuyKFUQzWl5RA6zPhstWnIub2LFt6Ic3sGDIHChUBe/3YVLrRPbW0hn2kTmOUdAvZ+5R32lnNsImDvVGzeV6tV/kGAd8xcteSf+2ElMQQcOWnT3e1ByE8IxKnKXH8r8lORsi0LaisWyrrqqqtk2LBhTtWFD9fMVF3ZJmgBDAFDwBAwBAwBQ6DAI1DQ2jMFHnCrgCFgCBgChoAhEAMIGHEeAzfRqhBbCLDQWtG4gkVUxtYdsNoUdAToGDMNGb+iTIVmCjK+Ps0MAUPAEDAEDIGCgMDzS+bL3J3btKjWHiwI96twl/EnaVOhktzZ7NS5eynceFvtDQFDwBAwBE41Akacn2rELT9DwBAwBAyBk4oAPlybNGni/K2WLFnS+XTFByk+Rs0MAUPAEDAEDIH8igCL49T4eKgkpx2Q4rrAqZkhUBAQSDucLk/Mny1Jl1xTEIprZTQEDAFDwBAwBHKFQNFchbbAhoAhYAgYAoZAPkeAxbKSk5Od0jw1NVWmTZsmO3bsyOeltuIZAoaAIWAIFHYEnl8yT3Yf0sU8jTQv7I9Cgao/z+sufW6f05kSZoaAIWAIGAKGQKwhYIrzWLujVh9DwBAwBAo5As2aNZMFCxYIfs3r1q0rLVq0kP3790tcnKn3CvmjYdXPAQIsnsfHGZsITxHeR3A4DAGjhHPxj/yJGicY4OfsZ5P3z0k613GzKUsYh8MaMAJXlxfxsWjXQldO/d8c1OmoZ4ESHolDfY+6FjjvgmWDQxFdY+Oo+D+z9uHyBOsU3Nf0/T36mVkdd/RP160+7rgW0RDIawQ+WbtSXba0zutiWP6GgCFgCBgChsAJRcCI8xMKpyVmCBgChoAhkNcIFC1aVPr16ycJCQnSoUMHVxxctpgZAoZA9gjsO3BADv902JGfSqGHI+gyweH9MDPqzgRDhYKEwvq4Sn7qv2BsH4qtI0b1Yug6fyHuPYEZihm6FjpPwGBZCIEF4/sjX05CUIqQhUL6a6FzoWsZIXyZwzm79N11/ZNBrnImIz0fnzSjlTGUV0aM0DHxM+rGOR8XbEJ5ha6zTnMISf5m5EsMcAidOfp8KI9QOUNhQteD+6Ew/PX14WqoHBnhQucIFc67iJ77ifQyyuPvJ+G8+fA+BRfjSFbumqYjR9JxYza+Cj4B3YbSCJSPXc5r2NCuz4WzPlz0/Yw6EdIjSlpFpaiS9XlpeZt7Xtbc8o4FBFinycwQMAQMAUPAEIg1BIw4j7U7avU5BgFrwh0DiZ0wBGIaAYgm/JybGQKGQO4RKFu6dO4jWQxDwBAwBAwBQ8AQMAQMAUPAEDAEYhCBeJQhTh2ilfPbMNGo5AMEBOcPHz4sh/0oclDIEQUUr8T5KaspmOFMoiTwc08Fyxfcz226gbgOh0zq4zEKJ6/xmF6KOUwD6fgwwThoZLwKx1/P820mZaZc/jlxZYwSLlj28LPgJETBK0f2ia92MqfjpqtyLj09PZSR/kWNeioMnMJYRcEpKjZRwgXLGjVOMMDP2c8m75+TdK7jZlOWMA6ZvJNObEamJ/N7JreVykGdws+LT/tIHOp71LXAeYJm+V2r10/m+xXGOKJ+/h75qpzqbVqa+ogtXlwOqHq2VKlSkpKSIqY6P9V3wfIzBAwBQ8AQMAQMAUPAEDAEDAFDwBAwBAouAvEHDx50pDicR4ZFMCB6YZ8SUHFuoZpjKd6MyZFcg6ny00UzUvQMliN/NEiIzwqFhVMNkSwQjewTL3SNvVDZQrn43IPxfWqhkH66aiiEL1FGGJ9iBlntiWtfD58HIX2u7IXSOhIvXE6fqy8v130ebsf98WkT2l0Pxz9STq14Rr19fE3LnQ/WJbQfSpmUgsehsxl/QyWJHsbHDZUno3w+ZX8n9ZiyMhCgW48Bofy9DMUI/fXp+HChbTAE+5RZr/giRFwOYu5zDD0YxMy4D6FowUSO3Sf/w0qupulzHjRK4Ac3gudP5L5Ndz/2fvnngTvF85RBrh5979z1IzfDP1OhKMErpB+0Y58rHzfjPQo9d7xr/gn3YVyBws8X6frUjy4b50P1CF0P7meUxsfhKjGCcULnQjkcycOmu2dAdwL21q5dK4sXL5aqVavKihUrpGHDhpKUlCQDBgw4ZQNnJ6AaloQhYAgYAoaAIWAIGAKGgCFgCBgChoAhYAjkIQLxNSpXzsPsLWtD4NQgkBdOG2y6+6m5t5aLIRCJQL169aRs2bJSqVIlpzZPTEyUYsWKBQZqImPYsSFgCBgChoAhYAjkNQLpqqopitzgiK4gKJc4cipqEQ8Tz0fSEMTjXNyRcz6dyDQO6qzUYurbPpqF0uRKKNYhnX0df4pmrUYrj50zBAwBQ8AQMAQMgbxBwHyc5w3ulqshYAgYAobASUJgw4YNsnDhQpd6mTJl5NChQ45Ez5jhcJIytmQNAUPAEDAEDAFD4LgQSFW3ii927iEvLF8gSfv3S0Kx4vJWtz6O/IZQv2Hy97Ju/155pO1pEneEzE46sF/+sXCWDOt5jjy9aLbM37lDDikZfmvjlnJlYiPpPnq4nFu7njzQsoPsSEuViyaMlvgjZHqK5rf1kmulyYj3hf2gpWi74R8du8rwDWtl2rYtUkwJ8y0XXyvlP3xdymq57mrWWg46It2T6j9Jibg4eXvVUtmgZTIzBAwBQ8AQMAQMgdhBwIjz2LmXVhNDwBAwBAyBIwgkJibKzp07ZePGjbJlyxbnWuqiiy4y1bk9IYbACURgrZJYTtp5AtMsTEnVKlU6xwpWSDrlDs2OBwHlNiE+QxTn8SRgcU4VAqi8Uw+ly7rBV0nj4e/LhC0b5eH5M+SK+o2lTHwxJ/5uXb6i3D1jkqQcTpeRvQfK3F3b5Yetm2T29m3ufapTuqzc1qSlfLxulfSuVlPqlC4jv5nxg/zY70LXFgjL2bVSkPUZLvtCtTykLh5XXnSltBnxgSy54Eqp++lQuUbTKxMfL72r15QpyVvl7dXLZcl5l0mbkR/KHnUHuVzDtRv1kWxTct7MEDAEDAFDwBAwBGILASPOY+t+Wm0MAUPAECj0CMRr53b16tXOTUuNGjXCiwNn+Lov9BAZAIbAz0Lglqnj5a1Vy5zi8mclVMgjx+v6MVfWayxvdOudKRIQ5ot2o6I11jxTkHJwAdK8UvGSUr9M2RyEtiB5jQDkNXZtg2bSQony5gkV5aofx7hzew8dlJV7d8shJc75XR+9YY2cUeV0+Vu70+UNVXwvOHeIjNuySc6sUkP+3LqjvKnnHmzVUQ5GvkNKmpdVN25ltc1wIP2QSxtl+/0t28tuJcMvUbL+q43r5FFN98ZGzWTpHh2MVzV56k/psmrXDg3/kyzbvVMO62LklGOZqt2Lquq8uLlzcVjaH0PAEDAEDAFDIFYQMOI8Vu6k1cMQMAQMAUPAIVC9enXp37+/W/ga9yx8UlNTbWFQez4MgROAwGR1W/D6iiVO2WkE0c8HdOjqpXJh3UQZXCcxamKLlTSHzDO1dFR4cnVyW1qKVC1ZUkrHWfcnV8DlQWC8qWzQZ7/hiPdkyjkXSdsvP3DEd8n4OCml969WqTKSqsS5k6Dr4NLl9RvJ4PGjZVPKfrlpynj5eO0Kuat5W7lw3Fdye/PW8tySeTJRFedBq10uQZJTU+SsGrXlHVWQ4w8dP+bp6url9FEfS52yCbJ2/x4pF19cbm7cXN5bs9L5Xx/ara8MrFlXZzHEybYhv3SkeSkl33dcdoNMSk6SQd+PkpL2jAWhtn1DwBAwBAwBQ6BAI5DjliOD9Ad0hN/s+BAoqqqinDai0FgcTD98fBlZLCkWV/Cm4+53U0Xt5h0fAj9JyaLxwZm3WSZj092zhCfri9qRLQjT3Q9rxxf3LCNHjpQzzjjDdWpRg7Vo0cJctWR9h+2qIZAtAn+dNyPH7kWyTcwCOPLt6YVzMiXOTWl+4h4SBh82qO/sJkqYmuVfBLhPuGzpXL22vK0kdfkSxWVC/wtVRZ4kD8+bJjO2J8ttTVvKPvVD/r+VS5Q7L+J8lC/euU33i8rvW7aVT9evkj4a/0pVjT84d6p82/dcJd4z+lYpqiifpu5Vmisxv+mS69U3+TLXPiiuinFcUG26+DrZo/3eknp8+/QfZPXevY5Q71ezttw4ZZyIKtR3XX6T1P/kLdmv5UhW0rzx52/LAc0ip/29/HsHrGSGgCFgCBgCkQhkNnM5s/M+fnbXfbj8vJ2og8KsLdK1SvVjijkpebObFdmjao1jrsXSiRwR51M2rZf1u3frhDSbJnq8N59GYDFtfJ2liogyOi0wM1u9b49sN/94mcGTo/NgXaF4CWlQplyOwudloLk7t8s6vef2Zv28u4CiuLb6im1fsUqmCdl090yhydUF3q/8Pt192bJlUrNmTbnhhhtk+/btbmHQPXv25KqeFtgQMASiI7BXSSKzE4tASDl7YtO01KIjYH2Z6Ljkq7PapktTNXmcujz5uy78uWLvHulSuZo8u2SuKsJ/ksF1G8iA776U9848S65W9y2XNWjqwqM+j9c4n61bLX9QdysjNqx2SvHyqhhHBf7dWeeLrhTgSPZ/du4u/1QV+gFN70ZddHRUn0HS/9vhUlIX/iyvn7tnTlJ3VEvkvNqJUqV4cZm8bbP0U2V6vzFfOgFBypGGewrAqbqcRUlrl0lQdy678hWUVhhDwBAwBAyB7BFgXaw1a9bIvn37pGnTpnJQB1fpS6apKy7EWHANCxculJYtWzpBVu3atcPnV61aJV26dHGZQJLvVt50yZIl0qpVKymmvN+YMWNk4MCB7vr8+fMlTjnBJk2ayLx586RDhw6ya9cul3aFChXkwIED0qBBA6lYsWK40OSbriLLpKQkqVOnjkyfPl0uvPBCKakz6IYPHy7ly5d318mbcrVt29aVgTiIyAYNGuTyTEhIkE8++cT1i0mces6dO1cGDBgg48aNc3UuVaqU1KpVy5X/7LPPDs/WLlYkTrromh4f67oi/M56S1Ox2hD9fZ0y6FJ/Kma32RLnm/fvk3W7d0lRfVgiF0+JWVROUsWY/jdGpwJe0KRF1BxY7X27TiM1nKPCk6uTYFmlREmdXpn5IEWuEjwJgSnjOp0C6lxJnIT0C1uS6/W7qoaS5zVKlo5adZvuHhWW4zpZEKa7T5w40TUoduzQqd4NG0rVqlWlXLn8P5h2XDfEIhkCpxABBs/MDAFDwBA40QjAReMupWbJUtJIFwZtrK5S+tesI59O+0FG9hkoX25cK7VLl5Y5O7Y5FyvXThor3ygZjuuoDggnNG41bQfih/zqBk3kr/NnyT8Xz5M66td+yd5dkpySInGayRtn9FE/5HFy76xJEq8K9WHq1qWRzkKYc97l0nfMF46E/03TVtJfifLEsuU03zVylqrX6+qio2WLxeuCol65ronp/3jN98qJ38o89a3efMQw2Xkw7URDY+kZAoaAIWAInEQEDqkoBJK7qJLCkOWQ1Zs3b5bWrVtLcR085TyEd4kSJcIkNetpldbfpPXr17t1tZjxTHhIeFyE0gdl3S2OId9Jb+3atS6tvTqLCZJ8v86Cg+BO0d8nyoDQa/bs2QKJDqmOQaSPGDFCcEVKHsymnjp1qvTr18/tz5w5U7p37+7iEB7S/91335VevXq5PCDcx48fL7fccourW+/evWXy5MmOIKdMlIEBA8rjXZuSZ3JyslSrVo0k5fTKVdWtYAN5fvFc/d3j1/qI6e/fBXUb6vVQOH86FrfZEueLkrc40jwWK58XdWJhmsyma2xJOWCk+Qm6KXTsaTg3K1f+BKV44pNZpqoUGyQ5cbgyuLdiz+5MiXOb7n7isOb9ys/T3RlBp3FBo2PRokXSrFmz8Ij5iUPBUjIEDAFDwBAwBAyBE4VACSUlXlm+SO5p0UZ+2LpZ3lQ3LCtVbX5FYiOp/slQ58c8VYmF26dPdIq3DdrOH7Zmuby2YpF8m7TBzewtpYQ47lZYELSxkuGIU37YmiS/btJSrldleVElyufobM9/qHsk8sNKaJzHlWRfpkKxyjpjdUvqASXjF8v0HVulZUIl2arHzyz62LUvT69UTSZoehD8LyxbpO34kG3WPtx56k+9aUIFmaLqdGvfHwHGNoaAIWAIFAAEIMchpRs3buy2VapUkfbt27uSb9y40ZHbkOaTJk2S0047zfUrUZkvXrzYibPKli3rhFpE2LRpkwuPgh03oSi9IaD58JsEmZ6YmOjU3hD09FtRekNcoyiHREet7o1rkOSQ3ZRhxYoVcsEFF7hwqNWJ/+mnnzryHBK+UaNGrnyUG9uwYYPLF1IcEdn3338v69atC/eT69Wr5xTukOecr1+/vqsDJL4nzkmnv67tsfPQsQPD5ePyr1CVcp8oy5Y4Z0Eis1ODANMHzU4cAgxQ5GczIvfE3510e4dOPKiZpJifp7tv3brV/fDTOGCUHYUAHxoSZoaAIRCbCPCLz8w+1mEImvuu8s0B7bBAdOEaBbLMLDoCqHAPqT9ov/WhQiShpwpDvwLgjSu0SGMqL/fDzBDIKQI8WQt2bVf3K2MdMc2z9ee50907y/P01sqlLilIa4zFif+ihDfbRbqQKOfXH9jnVOYuwJE/usyUjEla71TmrDn1f6qY86S5D4cv88/Wr3bkwsp9u/W0khua3pwd27Vl+ZN7F7bqQqKbt2xygjLKds+MH8PpIN6Ytm2rE0exb2YIGAKGgCFQcBBAFY4aHOIZAh2yG5K8W7du0q5dO6fw7tSpkyxYsMC5cKFmKMpRnOMyBbU4aSDaqly5siPRIborVarkCHHS5oO6mz4pSm9I9B49eji1NzOjcS8KuU0axO3atasDkLSnTJniCHrygCgfPXq09O3b1xHbEPEQ6ojGCEv6nMNlC2WEhOc8xDxhmImNO5nmzZu7MlFe6kHZUKlDmFNWCHsGCbzt1bU99h9iUe6jLU7bjIXBsiXOCwMIVkdDwBAwBAyB2EHAj+pTI/y0oQKgwWBmCBgCsYVAijbivdXXdU16VKspb6vbBmW2lEQr6giuc2rUUfcKxRz5tUVVPD9s3SRPt++qbhomu4X/fPzCvoV0dP+U8/tgzQrnR3ro6mVyTWJjt+gTVOCiXTslKWW/g6pO6TLStmJleXHpQrmlcXN1bxEiyQmnbqPl5WULVOXbShdU/Ml9SH/SNvUTqtcYxyh2hJwnMcJ0qlTlmEEPrpkVLgQgEiCxvQUHwjxh7q+xhTQPGs9ftHDBBTsZEIpmnvAOXg+lRaoh82E4iiTfCUX5zQwBQ8AQMAQKFgKornFNAmEOkQzhDGmOQWZDgH/22WeC32+IddyhLF261Pk2R9ENmQ3ZDVldt25dee+992Tw4MEuPqQ06dMfRdWN4RZm5cqVLi1Ibshu3MGQZs+ePcOkOWG5DmmPuhy1OUp4CH7OU1aMPCi7t4svvtgp0ukTQ4hD/pM/ZYO0h5xfra5mUMdD2GPkwTFpUh4/iEC5MBbRxhWZ16Jwjl+88loX1hWJdTPiPNbvsNXPEDAEDIFChgCNEhZcYXrcnDlzpE2bNm7LqD4NATNDwBAo+AgcVrJ1eK8BUklVNinagWhfobKs2b9XbmjYzJFpH6xdKc8vmCWvd+st9ytJnlCshPxdCfPWI96XW3WtmcdVybpfm/9Gc4WIxo8Vr+3q1xN1LgscJqnriQOKKyrajkpqQyA+Mm+G+o5u7AjD/6ibiv+c3kOGb1gj16g/adS5+3SAsvvoz6Wdhj+g+19tXC/X6/3oWqWa1FLf0wvVRUaa+ocupmr//61cLFcpKV9U7wAzLtspCV84JvsW/HfPamAIGAKGgCFgCMQaArhIYfATAprttGnTnOsWyGqU1yzoCcn83XffObW3XxCUxTkxFOL4R8fn+NVXX+1cpDDzmUVGIb1x3eL9luPHnHiQ0hDYpAvJjToc0t6r3T3GkPKcRzGO+hxSG/KbxUCxGjVqyAcffOAWDUV9jk9zCH5IfxTmlAGjbMTDJQx23nnnuQEDhGYTJkxwKnQWQIVAJy/yoYy4PJu/I1lmDBoiZQNrCO47dFA6jvxIxqsopWfVUB4u4Rj8U0TdWQQHDY6p4pg1K2WXTk3La6ODFBzlpzzRzkUrJ0qWoPqACmfVUcpputHyyu4ceV+sHbZoigSmGdL5O5UGpmCBOkh3HaY+/9AVPdLzPCZ0iqK5F8mv03FL6Sr3zdXXYFam9yGrRyGrqNley+7d+jF5s+zUBULzozEtNXz/syjgyXxXssg200uoCjP70p6lX/an2vw0d7/1+YceOv/oFczp7mX0R7NpNmsI5NX7RUOBEXv81LGqOT7OedWNNPdPoG1zg8A2nc54En8qclOUcNjKCQn+CyR87kTtZPfb1efbETJZlcP5wXAnohod+brvIOn33RdOufxk+y5y/8xJ6uc4XtK0QZ906fXy8tIFUlp/H86vXU/dMayR37dop64bNsg5349Sly3R1aenqn60C1uVrygzBlwcNctT8dvFw8S6MLSXcbtyj+K3URVKi84fIs2GD5OZAy+RNKW331+1QlbvY1FzkRYJFWW3Ko9eU4X/mVWry3OdznCq89fVL/V+nQlwR7PW8vDcGUqIV5IKxYprmBrqW3qbPDh7mi7WWMap1/kN2aZ9jEG16skt2jamTXGyLT//dlH3/PR+nex7YenHHgJddYG4sf3Oz7JiedU2zLJQdtEQKMAI2DtVgG9eASn6yr27dTZYvBNBRBY5SduP+7Td10gX9I5V4x3Ls96C5i3VdHXyarrSOZ/KOr3AH1fXY4wGNB98JLauWk3Sld315yBym6qihS0N/SqqZCGdKjp1lHTitCOEooUFYrrWqiOllOQpoTc7XTtZdXSxGJrmEL6VdOX2ykc+5XRRAM610B990o1VQ90DkQcRTgfoq03rhIUqF+/e6XCh3owefb9lo4zdvEF+3JLkBi1GqXIoTf2CeqOjxTRFFu9JVcLfT6dkkGL+rh1OpTRVlUozt29z+6iWON6jU1vM8hcCvEP+g9/XWqXUtYW+K5zjneNtqFKipFsYqUbJ0lJRlXuca6mdfcKYZSDA88/7xfvw4doV7gLT3XnfMP4y3Z13iw/vXmmdavXf5YuPmnJMOKBlujtTkf3gH9up27eG369Zgfdrsi7mHM3XLPkWJmNknBXOUZ7zXc5UtjFjxsT093phur9WV0PAI5AQX1xSrrhR7lRfw3H67cp3ZuXiJWVY9/6h70z9Lp6kg9QDlJjtrsTt95s3yRPzZ8geVUOf/dWneU6a+3rkhy3tvk/WrpLP1c9zaW0vv3j6mXLXjEmuXfy72ZNlnpLeu5Qon797u8xVv8/T9XeorZLi1dUHJspzyHKcsFxSt4ES5SXkdMV3i7p14bcP0hxjn2uV9EMHpLwS6gn6iXR54QLbH0PAEChwCFiPoMDdMiuwIWAIGALZItBQSXFmDkazGno+lklzX+c8c9UCKVRJG9ue+G6rapX5SvpwPl7niSbt3asEdlV3DDHXsHwlJdBVda7XId0Xb0+WekqAr9JFZHrUTpS1Sj5VUMf81fTGrduzW3bqCuj1VW1cRQn56kqkQ6If0E5BinaWINPXa5iKGr6d+sPcvG+vI4aTdbSkfkIpWb9XiSxtyBM+Fm2BKtsnHlncJl1bOJ+uWyVv6FTm+2ZN0c7mWY4EX66jSlNVUdahYhW5b8ZEmTfoUvkhOcmpomoppqV1IKLXN8PdFGkwGrZ6hVxUr4HgS7Sh3peVii+jTyjaxyg5yDTdknoPuHf1dYCjnCq/zPIHAjRyT9d3jXcEkjxB7w3Ts+vpIBT3a5MutAS5216nUS9UwhdCuEX5Co705V4uCQy45I8a5V0pILVtunve4e9zRm3OAqFMa+vTp4988803boodz7OZIWAIxA4Cj7btLOU/eF22Xnqd1P50qLQrW16a6hTbYeqje5Cqy2nkn1GluiNnGQxurA1/SNrS+rmmeWt5b/VyRwzHDiLHVxPaAYmKzY2NmzlXKrT3OleqKt2r1JTuWz93Cv0DSowv3bNTmqhKnPZcki4yNXHrZlml7cV31iyXbio6uXHKeEe6L9G2+c3q3/yC2vVli7bHaQuGhC8ivavXlAvq1Jd5k7fLr5q0lLlKyO/Qqc1mIQRwPWRmCBRUBKqqGM3MEDAEDAFDwBCINQTyTHFOA3ql+jpsqmRcE1WsQFI3rlBJWlapKou3bXPTQDdoYxyCe93uXU51vl63HK9XEo/4GO4kisfHyT5tdOOaY8yaVVKzbDlHkNdWArecqloOqkoaFw41deEo8lysKhk6TiSxRUnzNUr8lVW1OcThdvXpmK4K97bVQuqYWLvh1KeOdiTPqVVXLlZVEFOVO2tnZ/3+fY4wX6RKcZClU5Siq+bOVvcWhFu+d49M0YGNu1XVxUAGyqRnOnaTqqpC/qhHf7mgbqLrkKJeZzCEjhFTo2fs2KoKpYNuVfopSsR/q/llNloVi1gXhDpBJU7flqyqvCT3Po3etEEm6CwDOrI/6ADLah3EotPLc1Fa3zUWbeIZaKoDU0VVzXdapWrh97Eg1PdklpHvpS5K0pxds470qlbLKcvfWLFUHmnTUW5RQoHZHqlK3pyvZMIcVewxC+MMVeL9S9+VZPWr9qc509z3GAq8u1u0dQNOn/Y6W/3L6iCi3igGKViArYPOtsGv7JTtm929maEDibx7KN3LqLq6sBs+6KpUqSKnn366zJgxQ/DVtnDhwsIOi9XfEIg5BH4380dJ0+/Uqh+/KcsuuFK+6jNQzhrzpbyqM3i+2LBW/qduRJ5bMk/G62/aIHXLckDbgzdM+Ma5xeP71AbTQo8Ev/Gz9XfkiQVz5OlFc7UNGO9+8/Uny/kfhwz7RtsGzCActWGdfLZutczU9mErddcCkd5e2++1VaRSRdX+dzdvI0v0XjDY/pEKMx6fPyuMM4qkTjpQv1nb2qX0t4qFRhFZQKTH8kzP3Lx4z3TodtTsztzEtbCGQF4iQH/77+1Pz8siWN6GgCFgCBgChsBJQSBPGRYIuw3qKuTH9WulpxKv43SK6KWqAIKgg7yup8QcJB1Kc1TiuGZRMbo7npa0PgxIEY1wWs3aslpJ31516zvyqIYqYSHEk3WqPtcgtH5Yv87FGdigqaxQAn2dEvAQgLWVaK9YopTzh/mT5jtJXZIc1o5YrBpq71eXL3HuIbarj+2/tjtNzhk7UpqoUuu2aRPlu7POldumTpSWunBAh9KVnYsOOp49dTABv6AhVxRFpG2Fik5NNGDsKCmuna6aDUvpFN2Gjtjj3pYtXsK59EgqcsCpvULUK1fM8hsCzPI4p2Y9GadEOQQtT3/xOCXFdVCFwZMiPxWRHbq4RFV9T7Bk3V+qA1mJpcvpTIRNOt3dFlx0wOgfBpVGKrHAYmfRprv/IrFReLo7XzMspnapztbw0915J5nOznT3EUr8MN29k373xRepnOV0d1y02HT30F2ADGPFcRY/6dixo7BICv7NIWaMKPNPqm0NgYKPALPmmCU19Iw+skzbfC11duI9zdvKs4vnuIFgBhpfXr5I3V3F68yqajqTqqzUU5KXlsjUpI1SUmcemoVcI3ZWQhshBeTX5RPHOFh8i43tbeqDfPSm9TJQ3R9WU5dtH+piooPrJcoL6k6s2RF/56936yX3zpwiTy6a4xaUGtlnkPyuRWtNM4RyOR0U7qy/Z7S9+9WoLXdMmSB/7djFCTq4V2aiyv9y8t/Te6n7oYmSapjYI1FAEGCtiBf0uWU6v5khYAgYAoaAIRBrCOQpcQ6YSN7xK15ZVdC4gPCNdHyUL1NlCz7Jz9DptvjWrqyuXcauWeUUqMdWAAAX7UlEQVT8l8cHiDrl9GSEdozKqtKFdMaqwgV/6D8paU68YkqYTN24Qc6oU0/G6zWU7LNVfVRdFyfCSqmPzJErl+r01HQ5V6epejW7uxiTf4roFNrmUk7drXyjAxCoy8eedb5cNfE7GdHrHEd8d6hUya2gi2/l77Rz2UV9zL+wZIEjwO9VJeyV2qnibi3SAYgzq9eSu5u1kZ0HU1XZH3qkGPyorffiTlUePbd4nlxev5G7v39V5ZFZ/kOgmQ5SjVLFMq52eCbwuc2KyRvUTUs1VZoxgFVJZxcwaMK9RdUcV6SSexcblE6QDSn7wu9u/qvdqSsR2Nh091OHd1Y5VayoC9fpoo6sWL548WJJTEw00jwrwOyaIVDAEKCtNmvgxW7A8FJVkS9S4vyQtvlubNRc9l12o9yuM+Ra6G/bbeoOZIcOSH6tpG/tT4bKBzpLbpcOcC65+Cpp+eWHUkxn6pjhnRxjXRMJr5XBOb+2DbOcXj69u3y3eaObxfncaWfoIPFaJ664dtJYea1rL509ekieaN/ZDRwPXbVczlWV/yZVlZ9fq77cqYuFnq1Ci7TDh9zC7Xdou3H4WYN0JuMk+dPs6fJpr/7qyq+cK0Vh/3NDo2bCx8wQMAQMAUPAEDAEDAFDIO8RyHPiHHkrSw9CzIX2M0BJST/olOjLdmxTX+Q1ZNbmJOmhivLvVJnuCfZQ6CJSt1wFqaUqjTKqZulYvbZM1sb8BUoOQ7BD9qFEh4xnkdCg4eplkxLpgxo1lTR1TbJRXcHEIWuPYUvVjuVflMBGDUtnMtRZCk3H5T7sVBcd4xVrhU23m1yncpP6ssQdS2/1CZ+aflgX2WJ7yLlpYbrzlxvX6bToNfLOmX0lXpXKZRTn37dq56bg1lFf2bPVhyWq5IfVZUXsD0wUvIdngc7W4KkfreR5P3UzonyEjFYCPfwm6A5uQCoreb5UZ2p01CnYuAepWaqM7Ek336T+jrvp7up+5bP1a9xzHm26+2vqQoDp7viLBV9m0wyuk3jMdPdbVd3XRwelcG/EdPcJOhvgw5793YqhTHc/pDcpcrr7EB2gsunuobvh1eWTJk2SxMREU5b6h9S2hkCMIMD3bcdRHzt3VewzUyde2zXvqN/yN1QMQZuPH7N7Z05yg2a0BbE+Y75w7U5+5/yi5jECyQmpBrPNRvYe4H5j+J2adPZFbv+cmnVd+pfqbCjajXxwNdZD24W0pSHNMc5zfG2DJnKdfrgPtPv4TDr7Qi66WaWEwz7u3s+FOaTqan8udMX+GgKGgCFgCBgChoAhYAgYAnmPQJ7KbFJU4b1b/fperqrkqeo7sZ+6MED5na7ELt2bi5u2lDW6GCE+zjnesn+vLFXCifMltHNE6ztV0xiji0CVUx/ly1X9vCstRaaoqqioNtQ/XbpIVqof4f3qY3uR+jV/e+Ec6XzEbYuHHtIqUaf27lbXEz9uXKsLhpYSXcLSX47JLQT2U+27yLMduzoi9OjaFpHyiuU9LdvK71u2c1PuKqrLlVe79pBDSpg3Vl+WDHTc0ri5+iovI92/HS5DfvhGblKF15fa0UpQ9T6GUp2FpTrqlNzTdPrvc4r9Mr2P7ZRwdYx8TCJbcCsFyRinxHhHvVd79X2BhGioyi9PwkIwrNm317lrqaiDU6wnwIwFnp1tqSkx/sbk/L5CDDDd/fF2neWxtp0cOU5s/46xZbo7fv5/q99jj7Y9TZrqO8V0d1ytMN0dVy9Md/9IBwjPUbXekwtmCbM8PlM1nmcV/HT3tupywE93R+nO+gVmImvXrpUFCxbI119/7Qjz5ORkmTNnTvh5NowMAUMgNhBgxiK/V5EGIU4D1xHquu9Jc8Kxz0CwkeaRqGUcMzDrLbjPORyqZFxVElzDsvBqNCMchLgXTBAukiAnJr9/wTSjpWXnDAFDwBAwBAwBQ8AQMAQMgbxAIM+IcxrRlyhxtO9gmny4eL5znzJFVcv96jeUvvqhYT182WK3GCh9Ijo/+KbdpD7Rv1yx2KmdIcmHNGulavPyskZVsBXUVyWk9wU6vbGqEkiX6rU1StZ+qWS8JidXKxH87eoVjiSnm3Xg4CElzStIkqaJWxjI87lbk5xv7mgdsby4QScrT8hvOinepyR4HPwpNGCxW1XopXVA4ZJ6DR3x91XfQfLi0oVOEXvG6M/dfaCjdJEq0L/Vaw8r+XftpO+Ea0N0ujQ+1Pt++4W0UyXY4PGjZYsOjvw44GJZd2CvtP7iQ3X9suFkVcvSPU4EeqlirHvV6rJYB6omJm+WkTqIxLMxUKdX19UZAy11uvvZ6o+0vq4dwMKV+DntUKmydnbTpX91VagfZ76xGA0seLuym+4O+c2ixZHT3VkwDeyZ7j5MZ3BcqOo+prt3Ul/nj8+f6VR9vGudvvpE37ux6v+8qpvu/vrKJdLqi49ktX6fFXbDt3njxo2lcuXKjjhnsVA+5t+8sD8ZVn9DwBAwBAwBQ8AQMAQMAUPAEDAEDAFDIOcIFFFFaZac15g1K2WXKkpPhpF1JJHhChPtfJRzlAkCF88qTAv15tP1W38esj6SEI92jvCRcX0aP3dL/S5WxWlkvUl30e4dggr/VBpTm72aCBUWeAYteB2EUWh5sj0YjmseW9JAzaXJufS80ogwqMPID3xPtqGKbq6Eb1am94FinRTTOmZZyR+VoN6pgxT5wULDKMG3KFQqVwWFSL8onMoMtHwof01vZtTnOS/qBRHdU90IRbNZusjpqbbg+xPcpxyMWvKA+IeE949/0ZR7PKTB6e68X3zlsYiyj096hIlU8+npk2K4Y0Itn5Xl1fuFwnzr1q1Ss2ZNSVPXUytXrpSuXbtmVVS7ZghkisA29ZV/En8qMs03qwuVExLy7Lerz7cjZPK2LVkVz67lAgG+w1uVrygzVGAQzfLitytaOWLlXH7+7YoVjK0ehkBWCORV2zCrMtk1Q6AgI2DvVEG+e1b2goAA71ie+jjX/I/ByZ2Jdj7KOSIHp9/6xHy6fuvPe2LXH7ONdo7zkXE5F4vmSXPqFkmacy54nc5dNNKccFwLxnfkn2f0CKDGIdNxzfIfAp4MjyxZ+D3Q9y9yekrwWmQ8Ow4hEHx/gvtcjXwTQu9PxEtzBEjOQoh7i/Z+cfVwIIwPWxi3VapUET4HdG0G1OelS5eWQ+p/N17V/GaGgCHw8xDIrN3081It3LHNbUzhvv9We0PAEDAEDAFDwBAwBAyB/ItAJBeWf0tqJTMEDAFDwBAwBHKAALMh5s6dK3HqcgorW7asLF++3AYWcoCdBTEEskPggdYdjxoozy68Xc8aAQZFb9R1YjIzG6jIDJnjO1+jpK0FcnzIWSxDwBAwBAwBQ8AQMAQKJwImvyuc991qbQgYAoZATCOwefNmKa4LHaPCb9lSF5pes0aaN8+cnIppMKxyhsAJROCs6rVkcJ1E+WD1Up2eFxqcOoHJF66kdG2Zi+o1kpuzIM6blqvgXPmF3KMVLnhOZG1xnle5eEldp6XYiUzW0jIEDAFDwBAwBAwBQ8AQiHEEsiXOj3WmEuOInPTq4XQhM1QzO3/SCxWbGeRzOG26x4l/7NSz/olP1FIscAjs2rVLUnWx53379kmnTp1k7Nix0q1btwJXDyuwIZBfERjWvZ880qaTLka8N78WMd+Xi9Zgoi643VL9m2dlpXTmTIcKlWWvupvKWNUiqxh2LRoCJRTHkkVtoCcaNnbOEDAEDAFDwBAwBAwBQyBzBLIlzptXriqTNq4zOipzDHN1xS3/lwm3V7VkSVmrndBMLucqHwssUr1E/p6O21gXVpyiC6zZ/T4xTytqvLqly2aaGNPd/UK1mQayCzlGID9Pd8eXOT74i+piqRDoPBtOrZnj2llAQ8AQyA6BFkr48jE7+QjwfVbOlNInH2jLwRAwBAwBQ8AQMAQMAUPAEIhAIFvivFbZclJdFTEbdu9yJEREfDvMKQJK3NDx6ZfYMNMYVXQK6a60NNmRlqphMw1mF7JBgOm4FYuX0E/xbELm7eUqJUpKjVKlZb0OlpgP0593LyDEa5UqI/X1uyozs+numSGTu/O8X/l9unuZMmWkmJJM5cuXl+nTp0vfvn1l1KhRMnDgwNxV1kIbAoaAIWAIGAKGgCFgCBgChoAhYAgYAoZAoUWgiKrwmC2are1S1d7+QwdNHZstUtEDwINXUZI0ThWQ2dmB9HRJO5yeXTC7ngkCxXUqLlObc2I6mHHShihy+m7t1fdqv07BNjt+BEqpwrhcfPZ+S/m6s+nux48zMXMz3T2v3i/u85w5c6R9+/bhyi5evFj+v71zC40iS+P4N+puVGJGjfcr3mYTL1nUGINi0FVGkEUWJawyuA8uiODTPoj4IILEB8EHBV923/bB8SEoTkBRFBE1osYLeEVUdDVeRhMVFTXrLGz9j1uZ7pi1O01XX+r8DnS6uy5fne93+uRU/es7X02ZMqXzgaGdK/gAgRQE2t+8cTe+U2yW09XlZWV5H7ty6jAHg0AOCeRr7MqhixwKAnkjQP/KG3oOHFMC9KmYNixuFQwB9bGUEedhbb8tKTG9KNETkOibrvAbfW04QtQESgPBVy9K9ASC/3lMd48ec96PoHYePXq0q8eTJ09sxIgRNnDgQGZN5b1lqAAEIAABCPhCoL293crLy+2XIDhE43LvhKAWPcB7+PDhSSja2trcA72HDRuWtPxNcPOyrKzMLdODvsePH+8+y75ml/Xv39/evn1rgwYNcvvLjoqW65j9+vVz38M/Loji3TsbMGCAtba2uvMFLdNzUfRA8bDoAeOJ+z5//twS66bv/wmCnVSGDh3q9tdMt3eB7U+fPpnSxql+Hz9+dOcgod11F0651IJbps8KF3W+Vzbts58WLbPvgnSOFAhAAAIQgAAECoNA2sJ5YVSXWkAAAhCAAAS+TuD+/fsu4lwXxU+fPnUX58p33vUi/etWWAsBCEAAAhCAQE8J/DtIO3n58mWTOK6ZXrpxLYF55MiRLn2axOyHDx/a2LFjnag+d+5cJ2CXlpbagwcPnAgdCs83btxw47huhksYl129y8bt27edOC4x++7du1ZXV2cS2e/cueOOpX1HjRplQ4YMcQK+/Dh58qRJfNc5gcRu1XHevHk2YcIE27dvn9tW9ZTYr2Wyfe7cOSeCy15VVZUT1/XA8aamJluyZInpgeQS2B89emQzZsywI0eOOGS6WSDBX2L80qVLOzH+reL3NvXgXmv8173OZfrQ1vHR2oJ0nYjmSVj4AgEIQCAvBHRDlfIrAY1pPheEc59bH98hAAEIxJCALnZ1oawLYl2w60JXUV8UCEAAAhCAAASiJSAhWYJD3759XSS4xGsJ0YrAnj17tntot6K7p02b5gRwieAvXrxw4rnSqr169coGDx7s0q1VVla6aPXJkyebIsBlU88xef36tUmgl03Zkuh+69YtGzNmjJUEM6S1XBHnErQTo8YXLlzoRHYJ7B8+fDAJ4IpQ1/br1q2zU6dOubovWLDAQdI2iiyX8K26TZ8+3fbu3ev2k/iuGW0S+7VcPigKXjfpnz175kRz1Vn76xg6L1H53YAyO/79n6xPr2QRQt+GBv5RINATAgcPHrSGhoae7BLbbXfs2GGLFy+OrX84ljsCujE7depUZisnIL927ZpVVFQkLPHrI8K5X+2NtxCAAARiT0AX6Pfu3bOXL1+6i3VFl2m6uER03++Wx77xcRACEIAABPJKQIK1hONZsz6nIrl06ZJJ+JZwLMFbQvf8+fPtwoULnc8iqa6udtHkErIlVktgVzlx4oQT2E+fPu3sSZRXNLoEad0Q17teiuqW2K71GucV/S0BXWL3zJkznYguexL0tUxR5Ypi379/vxPFJWwfO3bM2ZSNx48fuyj5lStXuih2LdPxdF6hdCyyo2jy69evu/MNCfxK0aJzDdkSA81403HGjRvnIuxD4bwjeI7VkkONZr/pehn+jf1lcoX9c94fVFUKBNIisGrVKnczKq2NY77RsmXLYBHzNs6Ve7t373bjSmL6rlwdu1CPs2fPHtPL19J1xPaVA35DAAIQgEBMCOjiVflOdWH7/v17F6HW0tLiolAU2UaBAAQgAAEIQCAaAooI10u5yBWhpuhtieEak5UeRc8ekbg8ceJEt51qIQFa35VyRYK7BPNFixa59CtXrlxxkd0SxvWSMC6xXJHdikCXgK2obonWyieuNDD6rFlnEuTD/Og6jlLGKIpQM9Nkd+3atXb16lU3M2316tXaxBobG62+vt591h9FrF+8eNHtq/eOjg73Wf4p0lyRidpGPkpkkR9apih4Hf/o0aNJOc779u5jP/+wLrD8ZcR5Se9encflAwTSIbB+/XqTyEcxW7NmDRggkBUC27Ztc2ODZidRPo+DW7du9RoFwrnXzY/zEIAABOJHQBfJivBSpLk+a5q4XppWTYEABCAAAQhAIFoCigpXyhXl/JbQLFFZ47HyjysSu6amxs6fP+9mhUkAV2S2ZoVJXNdYLbFdYrhsKHJc+yhfuuxqfXNzs9XW1jrhXNHoEuolqEsYnzRpkp09e9adB2gGmiLcFSWuopQsErwPHTrkosIl2CvyXMcNZ6TpBrtuuksM1zKJ6HpXhLyE8DD1m/KfK7Je9VZRNLpu3Otd09m1TgJ66JfbKPhz9+0b++6nH6008Cux/BLUXcd5/+e/Ji7mMwS+SmDXrl2mFwUCEMgeAc0QOnPmTPYMYqnoCXwTnCiQ9b7omxEHMiUQnKAmh3tkaqib/ehb3UBhkVcE6F9eNXdsnW0Pok0iHCoy4lZeVsbYlRE5doJAagKMXakZpbNFmNdc2yoSu7ub1+FlaPg/VsL3/5sZ9rV1icfqWjcdI7Svda2tre4YshcWiSSKXldRnnKllJEAr/IgyGGu+suGbsJLyFeRsB8K9oqAlygvYV9R74p2V/5zRZ1rO60PBfb6M8ds8G9L7O81dc5O4p9vf/yHnftjvVWWDUpcHKvP9K9YNSfOFAAB+lQBNAJViDUB9TGE81g3Mc6lIsBAk4oQ6yGQOQH6V+bs2LNwCCCcF05bUBMI5IIAY1cuKHMMXwnQv3xtefyOigB9Kiqy2IXAZwLqY6Rq4dcAAQhAAAIQgAAEIAABCEAAApEQ2LJli+3cuTMS28VodOPGjaYcuhQIQAACEIAABAqfABHnhd9G1DBCAtyhjRAupr0nQP/y/icQCwBEnMeiGVM6IRELYe9XTBL2JHb6WBi7st/qyguudCqUzwTCtC4+8qB/+djq+BwlAfpUlHSxDYHgUd4q5GHmp+AzAQYan1sf36MmQP+KmjD2c0EA4TwXlPN/DAlZiTmP81+j/NZAeaZ9FToZu7L/2zt8+LBt2rTJPYQz+9aLy2Lw+7Lt27fb8uXLi6viWaptlP0rS1XEDAQgAAEIQCCJAMJ5Eg6++EYgypM3bkr59mvC364E6F9difC9GAkgnBdjq/W8zk1NTbZ582b3EMCe7x2vPSTsNTQ02IoVK+LlWJreMHalCYrNIJABgSj7VwbVYRcIQAACEIBASgLeCue1tbV28+bNlIDivoGeNF9VVWXNzc1xd7Vb/6I8efNVOGe6e/JPjenuyTyy9c3X/pUtfthJnwDCefqs2BICcSDAuWEcWhEfCpVAlP2rUH2mXhCAAAQgUNwEvBTOW1parKamprhbLsu1F5Pq6uosWy18c1GevPkq7DHdPfl3z3T3ZB7Z+uZr/8oWP+ykTwDhPH1WbAmBOBDg3DAOrYgPhUogyv5VqD5TLwhAAAIQKG4CfYq7+pnVfs6cObZhwwY7fvy4Er1nZiQmewXik9XV1XkpmsekCQvOjQMHDjDd/X+tov8vmu5OgQAEIAABCEAAAhCAAAQgAAEIQAACECguAl5GnBdXE1HbKAlEGfVARGyULYftYiBA/yqGVqKOqQgQcZ6KEOshEC8CjF3xak+8KSwCUfavwvKU2kAAAhCAQFwIeBlxHpfGww8IQAACvhLgwsvXlsdvCEAAAsVLgLGreNuOmkMAAhCAAAQg4CcBhHM/2x2vIQABCEAAAhCAwBcEEPa+QMICCEAAAhCAAAQgAAEIQMBTAr089Ru3IQABCEAAAhCAAAQgAAEIQAACEIAABCAAAQhAAALdEkA47xYLCyEAAQhAAAIQgAAEIAABCEAAAhCAAAQgAAEIQMBXAv8FjTt4TIRl93kAAAAASUVORK5CYII=;" vertex="1" parent="1">
          <mxGeometry x="440" y="380" width="1486" height="430" as="geometry" />
        </mxCell>
      </root>
    </mxGraphModel>
  </diagram>
</mxfile>
